<svg fill="none" viewBox="0 0 48 48" xmlns="http://www.w3.org/2000/svg"><path d="M24 48c13.254 0 24-10.746 24-24C48 10.745 37.253 0 24 0 10.745 0 0 10.745 0 24c0 13.254 10.745 24 24 24z" fill="#000"/><g fill="#fff"><path d="m35.32 20.454-6.997 5.083 2.672 8.224c4.505-3.271 5.977-8.224 4.325-13.307zM24 12.147h-8.648l-2.672 8.307h8.648z"/><path d="M17.003 33.761 24 38.762l6.997-5L24 28.678z"/><path d="M12.68 20.454c-1.652 5.083-.178 10.036 4.324 13.307l2.672-8.224zm22.64 0-2.672-8.307h-8.649l2.673 8.307z"/></g></svg>