<svg fill="none" viewBox="0 0 50 48" xmlns="http://www.w3.org/2000/svg"><clipPath id="a"><path d="M.285 0h49v48h-49z"/></clipPath><g clip-path="url(#a)" fill="#335bf1"><path clip-rule="evenodd" d="M2.042 12.684a2.275 2.275 0 0 0-1.11 1.961V32.52c0 .808.422 1.555 1.11 1.961L24.932 48v-.07l22.89-13.52a2.275 2.275 0 0 0 1.11-1.961V15.312c0-.875-.934-1.42-1.678-.98L26.042 26.86a2.275 2.275 0 0 0-1.11 1.961v3.302L2.791 19.046 24.932 5.97V1.136c0-.875-.934-1.42-1.678-.98zm30.004 16.37a.569.569 0 0 0-.277.49v1.449a.28.28 0 0 0 .42.245L43.49 24.56a.569.569 0 0 0 .278-.49v-1.449a.28.28 0 0 0-.42-.245z" fill-rule="evenodd"/><path d="M16.931 24.096c0-.808.423-1.555 1.11-1.961l21.213-12.53c.744-.439 1.677.107 1.677.981v4.834l-24 14.175zM8.932 19.37c0-.807.422-1.554 1.11-1.96L31.254 4.88c.744-.439 1.677.106 1.677.981v4.833l-24 14.176z"/></g></svg>