<svg width="102" height="102" viewBox="0 0 102 102" fill="none" xmlns="http://www.w3.org/2000/svg">
<ellipse cx="50.9058" cy="50.9" rx="15.9058" ry="15.9059" fill="black"/>
<path d="M79.5614 88.5607C80.9146 89.914 80.7788 92.1545 79.1887 93.2195C71.0984 98.6386 61.3677 101.799 50.8988 101.799C40.43 101.799 30.6993 98.6386 22.609 93.2195C21.0189 92.1545 20.883 89.914 22.2363 88.5608L33.8601 76.9369C34.9107 75.8863 36.5404 75.7203 37.8627 76.3978C41.7727 78.4008 46.2038 79.531 50.8988 79.531C55.5939 79.531 60.025 78.4008 63.9349 76.3978C65.2572 75.7203 66.887 75.8863 67.9376 76.9369L79.5614 88.5607Z" fill="black"/>
<path opacity="0.5" d="M79.1962 8.5816C80.7863 9.64666 80.9222 11.8871 79.5689 13.2404L67.9451 24.8643C66.8945 25.9148 65.2648 26.0808 63.9425 25.4034C60.0325 23.4003 55.6014 22.2702 50.9064 22.2702C35.0942 22.2702 22.276 35.0886 22.276 50.9008C22.276 55.5959 23.4061 60.027 25.4091 63.9369C26.0865 65.2592 25.9206 66.889 24.87 67.9395L13.2462 79.5634C11.8929 80.9167 9.65246 80.7808 8.58741 79.1908C3.16839 71.1004 0.0078125 61.3697 0.0078125 50.9008C0.0078125 22.7902 22.7959 0.00195312 50.9064 0.00195312C61.3753 0.00195312 71.1059 3.16255 79.1962 8.5816Z" fill="black"/>
</svg>