<svg fill="none" viewBox="0 0 54 48" xmlns="http://www.w3.org/2000/svg"><path clip-rule="evenodd" d="m31.43 5.494 9.857 5.691c.278-.294.602-.553.97-.767a4.282 4.282 0 0 1 5.84 1.567 4.282 4.282 0 0 1-1.568 5.84c-.365.21-.748.36-1.138.453v11.387c.386.094.765.243 1.126.45a4.26 4.26 0 0 1 1.567 5.84c-1.175 2.045-3.795 2.743-5.84 1.567a4.246 4.246 0 0 1-1.056-.857L31.39 42.32a4.277 4.277 0 0 1-4.057 5.62 4.269 4.269 0 0 1-4.272-4.273c0-.42.06-.826.173-1.209l-9.855-5.69a4.306 4.306 0 0 1-.957.753c-2.056 1.176-4.664.478-5.84-1.566a4.282 4.282 0 0 1 1.568-5.84c.361-.208.74-.357 1.126-.45V18.277a4.287 4.287 0 0 1-1.139-.453c-2.044-1.176-2.742-3.795-1.567-5.84 1.176-2.044 3.796-2.742 5.84-1.567.366.213.689.47.965.763l9.86-5.693a4.284 4.284 0 0 1-.174-1.215A4.269 4.269 0 0 1 27.333 0a4.269 4.269 0 0 1 4.273 4.273c0 .424-.062.834-.177 1.22zm-1.028 1.753 9.881 5.705a4.267 4.267 0 0 0 3.075 5.316V29.67c-.055.013-.11.028-.165.044L30.288 7.36a4.21 4.21 0 0 0 .114-.114zm-6.02.117L11.477 29.716a4.444 4.444 0 0 0-.169-.045V18.268a4.267 4.267 0 0 0 3.073-5.322l9.879-5.703c.04.041.08.081.122.121zm4.145 1.013L41.43 30.723a4.28 4.28 0 0 0-1.203 2.086H14.441a4.286 4.286 0 0 0-.45-1.126 4.302 4.302 0 0 0-.752-.954L26.143 8.378a4.286 4.286 0 0 0 2.384-.001zm1.966 32.413 9.817-5.668a4.315 4.315 0 0 1-.079-.28H14.435l-.045.165 9.865 5.696a4.26 4.26 0 0 1 3.078-1.308 4.26 4.26 0 0 1 3.16 1.395z" fill="#e535ab" fill-rule="evenodd"/></svg>