<svg fill="none" height="48" width="54" xmlns="http://www.w3.org/2000/svg"><path d="M45.631 23.57a4.456 4.456 0 0 0-4.924-4.432l6.12-18.05H20.819l6.112 18.034a4.456 4.456 0 0 0-1.624 8.693 19.463 19.463 0 0 1-3.504 4.41c-1.846 1.741-3.958 3.062-6.243 3.875-2.72-1.397-4.006-4.505-2.846-7.23.13-.308.264-.62.392-.93a4.457 4.457 0 1 0-3.574-.69c-1.102 2.51-2.723 5.138-3.229 8.184-.605 3.65-.001 7.524 3.155 9.713 7.353 5.095 15.334-3.16 23.748-5.234 3.05-.753 6.398-.631 9.084-2.188 2.018-1.168 3.348-3.105 3.726-5.28.373-2.147-.17-4.286-1.421-6.02a4.437 4.437 0 0 0 1.036-2.856z" fill="#99425b"/><path d="M44.944 32.26c-.328 1.887-1.494 3.536-3.2 4.524-1.589.92-3.493 1.195-5.51 1.486-1.08.156-2.197.317-3.288.586-2.886.711-5.68 2.1-8.383 3.442-5.41 2.687-10.08 5.007-14.485 1.954-3.226-2.236-3.077-6.373-2.701-8.64.348-2.1 1.29-4.035 2.2-5.906.158-.323.312-.64.462-.955.452.18.932.303 1.432.359-.927 3.06.531 6.386 3.591 7.958l.419.216.444-.158c2.419-.862 4.648-2.244 6.625-4.11a20.655 20.655 0 0 0 3.28-3.965 5.551 5.551 0 0 0 6.324-4.75 49.32 49.32 0 0 1 3.527 0 5.551 5.551 0 0 0 5.494 4.812 5.511 5.511 0 0 0 3.161-.993 6.765 6.765 0 0 1 .608 4.14zM12.089 20.234a3.371 3.371 0 0 1 3.368 3.367 3.369 3.369 0 0 1-4.544 3.155 3.387 3.387 0 0 1-1.748-1.488 3.346 3.346 0 0 1-.443-1.667 3.371 3.371 0 0 1 3.367-3.367zm11.203 3.335a3.373 3.373 0 0 1 3.368-3.367c1.08 0 2.04.511 2.657 1.304a3.348 3.348 0 0 1 .618 2.846 3.375 3.375 0 0 1-3.275 2.585 3.367 3.367 0 0 1-3.368-3.367zm14.055-4.004a5.55 5.55 0 0 0-1.525 2.564 51.689 51.689 0 0 0-3.81 0 5.556 5.556 0 0 0-1.67-2.698l3.485-7.046zM22.337 2.176h22.972L39.883 18.18a5.495 5.495 0 0 0-.687.213l-5.36-10.934-5.375 10.868a5.513 5.513 0 0 0-.717-.193zM44.543 23.57a3.359 3.359 0 0 1-1.442 2.76 3.348 3.348 0 0 1-1.926.608 3.373 3.373 0 0 1-3.368-3.368 3.347 3.347 0 0 1 .58-1.883 3.365 3.365 0 0 1 3.103-1.469 3.372 3.372 0 0 1 3.053 3.352zm2.176 0a5.552 5.552 0 0 0-4.519-5.447L48.345 0H19.3l6.154 18.159a5.552 5.552 0 0 0-4.34 5.41 5.545 5.545 0 0 0 2.622 4.708 18.586 18.586 0 0 1-2.68 3.156c-1.63 1.537-3.446 2.703-5.403 3.47-1.971-1.238-2.805-3.573-1.939-5.608l.068-.16.127-.298a5.553 5.553 0 0 0 3.723-5.236 5.55 5.55 0 0 0-5.544-5.544 5.55 5.55 0 0 0-5.543 5.544c0 1.543.634 2.94 1.654 3.947-.185.394-.38.795-.58 1.205-.932 1.917-1.99 4.09-2.39 6.503-.795 4.791.487 8.621 3.608 10.785 1.895 1.313 3.818 1.829 5.754 1.829 3.645 0 7.332-1.831 10.939-3.623 2.597-1.29 5.283-2.624 7.936-3.278.987-.243 2.003-.39 3.078-.545 2.132-.308 4.337-.626 6.29-1.757 2.265-1.311 3.815-3.511 4.253-6.035.376-2.167-.077-4.337-1.18-6.177a5.51 5.51 0 0 0 .811-2.886z" fill="#fff"/></svg>