<svg fill="none" viewBox="0 0 48 48" xmlns="http://www.w3.org/2000/svg"><path d="m46.847 30.715-22.9 11.241-22.9-11.24 22.9-11.242z" fill="#e95495"/><path d="M23.948 43c-.16 0-.316-.035-.46-.104L.589 31.655a1.044 1.044 0 0 1 0-1.879l22.88-11.241a1.065 1.065 0 0 1 .918 0l22.92 11.241a1.043 1.043 0 0 1 0 1.879l-22.9 11.24c-.142.07-.3.105-.458.105zM3.42 30.715l20.528 10.08 20.534-10.08-20.534-10.08z" fill="#000"/><path d="m46.847 24.496-22.9 11.242-22.9-11.242 22.9-11.24z" fill="#fff" opacity=".144"/><path d="M23.948 36.788a1.064 1.064 0 0 1-.46-.111l-22.9-11.22a1.044 1.044 0 0 1 0-1.872l22.88-11.262a1.016 1.016 0 0 1 .918 0l22.92 11.241a1.044 1.044 0 0 1 0 1.872l-22.9 11.24c-.142.072-.299.11-.458.112zM3.42 24.497l20.528 10.079 20.534-10.08-20.534-10.08z" fill="#000"/><path d="m46.847 18.285-22.9 11.24-22.9-11.24 22.9-11.242z" fill="#fff" opacity=".144"/><path d="M23.948 30.57a1.057 1.057 0 0 1-.48-.105L.588 19.195a1.043 1.043 0 0 1 0-1.87l22.88-11.22a1.064 1.064 0 0 1 .918 0l22.92 11.24a1.043 1.043 0 0 1 0 1.872l-22.9 11.248c-.143.069-.3.104-.458.104zM3.42 18.283l20.528 10.08 20.534-10.08-20.534-10.08z" fill="#000"/></svg>