<svg fill="none" viewBox="0 0 24 24" xmlns="http://www.w3.org/2000/svg"><clipPath id="a"><path d="M0 0h24v24H0z"/></clipPath><g clip-path="url(#a)" clip-rule="evenodd" fill-rule="evenodd"><path d="M8.274 7.72a.401.401 0 0 0-.697.225l-.967 9.167 9.214-.007a.401.401 0 0 0 .298-.67zm.18-4.24a4.532 4.532 0 0 1 2.89 1.475l7.848 8.716c.837.93 1.218 2.114 1.158 3.27s-.564 2.294-1.494 3.13a4.533 4.533 0 0 1-3.029 1.165l-10.662.009a2.83 2.83 0 0 1-2.835-2.83v-.11L3.469 7.51c.132-1.245.758-2.32 1.658-3.048s2.082-1.114 3.327-.982z" fill="#7a1818"/><path d="M17.114 16.752 18.177 6.69l-10.114.008zm.687 5.851a2.833 2.833 0 0 1-1.807-.921L3.044 7.297a2.83 2.83 0 0 1 .21-4 2.833 2.833 0 0 1 1.892-.728l14.476-.012a2.83 2.83 0 0 1 2.835 2.83v.11l-1.54 14.586a2.83 2.83 0 0 1-3.116 2.519z" fill="#ff6a33"/></g></svg>