<svg fill="none" viewBox="0 0 49 48" xmlns="http://www.w3.org/2000/svg"><radialGradient id="a" cx="0" cy="0" gradientTransform="matrix(0 45.9611 -53.0639 0 -.261 23.351)" gradientUnits="userSpaceOnUse" r="1"><stop offset="0" stop-color="#20c6b7"/><stop offset="1" stop-color="#4d9abf"/></radialGradient><path d="m34.592 16.962-.017-.007c-.01-.004-.02-.007-.028-.016a.131.131 0 0 1-.033-.111l.927-5.672 4.35 4.352-4.524 1.924a.1.1 0 0 1-.04.008h-.017a.125.125 0 0 1-.024-.02 2.06 2.06 0 0 0-.594-.458zm6.31-.346 4.65 4.652c.966.967 1.45 1.45 1.626 2.008.027.083.048.166.065.251L36.128 18.82a.675.675 0 0 0-.018-.008c-.045-.018-.096-.038-.096-.084s.052-.067.097-.085l.014-.006zm6.152 8.404c-.24.451-.708.92-1.5 1.712l-5.244 5.243-6.783-1.412-.036-.007c-.06-.01-.123-.02-.123-.075a2.048 2.048 0 0 0-.786-1.431c-.028-.028-.02-.071-.012-.11 0-.007 0-.013.002-.018l1.276-7.83.004-.027c.008-.06.018-.13.072-.13a2.076 2.076 0 0 0 1.392-.798c.011-.012.018-.025.033-.032.038-.018.084 0 .123.017l11.58 4.898zm-7.95 8.161-8.624 8.623 1.476-9.072.003-.012a.163.163 0 0 1 .007-.034c.012-.03.043-.041.073-.053l.015-.006a2.22 2.22 0 0 0 .834-.62c.028-.034.063-.067.108-.073a.107.107 0 0 1 .034 0l6.072 1.248zM28.655 43.63l-.972.972-10.746-15.53a.51.51 0 0 0-.012-.018c-.017-.022-.035-.045-.031-.072.001-.019.013-.036.026-.05l.012-.016c.033-.048.06-.096.09-.147l.024-.042.004-.004c.017-.029.032-.056.061-.072.025-.012.06-.007.088-.001l11.905 2.455a.197.197 0 0 1 .091.04c.016.015.02.032.023.051a2.107 2.107 0 0 0 1.234 1.41c.033.017.019.054.003.094a.285.285 0 0 0-.018.054c-.15.912-1.436 8.758-1.782 10.876zm-2.03 2.029c-.717.709-1.139 1.085-1.617 1.236a2.4 2.4 0 0 1-1.447 0c-.559-.178-1.043-.66-2.009-1.627L10.761 34.476l2.819-4.372a.18.18 0 0 1 .048-.056c.03-.022.073-.012.109 0a2.92 2.92 0 0 0 1.965-.1c.033-.012.065-.02.09.003a.227.227 0 0 1 .034.038L26.625 45.66zM9.72 33.436 7.245 30.96l4.889-2.086a.102.102 0 0 1 .04-.008c.04 0 .064.04.086.078.049.076.1.15.156.22l.015.02c.015.02.005.04-.01.06l-2.7 4.192zm-3.57-3.572-3.133-3.132c-.533-.532-.919-.919-1.188-1.251l9.523 1.975.036.006c.06.01.124.02.124.076 0 .06-.07.087-.13.11l-.028.012zM1.281 23.87a2.4 2.4 0 0 1 .108-.594c.178-.559.66-1.041 1.627-2.008l4.008-4.008a2599.93 2599.93 0 0 0 5.551 8.024c.033.043.069.091.032.127a3.33 3.33 0 0 0-.474.634.192.192 0 0 1-.06.074c-.016.01-.033.006-.05.003h-.003L1.282 23.869zm6.816-7.683 5.39-5.39c.506.223 2.349 1.001 3.998 1.697 1.248.528 2.385 1.008 2.743 1.164.036.015.068.03.084.065.01.022.005.05 0 .072a2.404 2.404 0 0 0 .627 2.194c.036.036 0 .087-.03.132l-.018.025-5.472 8.476a.166.166 0 0 1-.051.06c-.029.018-.07.01-.103 0a2.725 2.725 0 0 0-.652-.088c-.197 0-.41.036-.626.076h-.002c-.024.003-.045.008-.064-.006a.25.25 0 0 1-.054-.062zm6.478-6.478 6.976-6.977c.966-.966 1.45-1.45 2.01-1.626a2.4 2.4 0 0 1 1.446 0c.56.177 1.043.66 2.01 1.626l1.511 1.512-4.962 7.685a.185.185 0 0 1-.049.058c-.03.02-.072.012-.108 0a2.517 2.517 0 0 0-2.304.444c-.032.033-.08.014-.121-.004-.648-.282-5.688-2.412-6.41-2.718zm15.007-4.411 4.581 4.582-1.104 6.837v.018a.162.162 0 0 1-.01.046c-.011.024-.035.029-.06.036a2.194 2.194 0 0 0-.68.348c-.014.014-.027.027-.049.03a.137.137 0 0 1-.051-.009l-6.982-2.966-.013-.006c-.045-.018-.097-.04-.097-.085a2.638 2.638 0 0 0-.372-1.098c-.034-.055-.071-.113-.042-.17zm-4.719 10.327 6.545 2.772c.036.017.076.033.091.07a.128.128 0 0 1 0 .068c-.019.096-.036.205-.036.316v.183c0 .046-.046.065-.09.083l-.013.005c-1.037.443-14.556 6.208-14.576 6.208s-.042 0-.063-.02c-.036-.037 0-.087.033-.133l.017-.024 5.378-8.328.01-.014c.03-.05.067-.107.124-.107l.054.008c.123.017.23.033.34.033a2.43 2.43 0 0 0 2.028-1.077.19.19 0 0 1 .04-.048c.033-.024.081-.012.118.005zM17.37 26.647l14.736-6.284s.022 0 .042.02c.08.08.149.135.215.185l.032.02c.03.017.06.036.063.068 0 .012 0 .019-.003.03l-1.262 7.754-.005.031c-.008.06-.017.129-.073.129a2.075 2.075 0 0 0-1.648 1.016l-.006.01c-.016.027-.032.054-.06.068-.025.012-.057.007-.084.001l-11.751-2.424c-.012-.002-.183-.623-.196-.624z" fill="url(#a)"/></svg>