<svg fill="none" viewBox="0 0 46 48" xmlns="http://www.w3.org/2000/svg"><clipPath id="a"><path d="M.285 0h45v48h-45z"/></clipPath><g clip-path="url(#a)"><path d="M41.009 10.287 24.315.647a4.882 4.882 0 0 0-4.858 0 4.87 4.87 0 0 0-2.427 4.205v1.257l-1.088-.628a4.882 4.882 0 0 0-4.857 0 4.87 4.87 0 0 0-2.428 4.207v1.258l-1.087-.629a4.882 4.882 0 0 0-4.858 0 4.87 4.87 0 0 0-2.427 4.208v30.203a2.29 2.29 0 0 0 1.288 2.054c.78.38 1.729.276 2.409-.261l8.279-6.53 12.765 7.371a2.28 2.28 0 0 0 1.142.304c.395 0 .79-.103 1.143-.304a2.289 2.289 0 0 0 1.142-1.978V27.208a8.396 8.396 0 0 0-4.186-7.251l-4.187-2.419V4.855c0-.644.347-1.246.905-1.568a1.818 1.818 0 0 1 1.811 0l16.694 9.637a5.344 5.344 0 0 1 2.664 4.614v22.633c0 .644-.346 1.246-.905 1.568l-4.423 2.555V22.372a8.396 8.396 0 0 0-4.187-7.252L22.362 9.187v3.515l8.755 5.055a5.34 5.34 0 0 1 2.664 4.615v23.237a2.281 2.281 0 0 0 2.285 2.282c.395 0 .79-.104 1.142-.304l5.566-3.214a4.871 4.871 0 0 0 2.427-4.208V17.532a8.416 8.416 0 0 0-4.192-7.245zm-18.27 12.306a5.34 5.34 0 0 1 2.664 4.615v16.86L14.83 37.967l3.393-2.674a4.825 4.825 0 0 0 1.85-3.812V21.06zm-5.709-3.296v12.176c0 .56-.252 1.079-.69 1.422L3.33 43.155V14.521c0-.644.346-1.246.905-1.568a1.818 1.818 0 0 1 1.81 0l2.613 1.507v21.585l3.045-2.4V9.688c0-.644.346-1.245.905-1.567a1.817 1.817 0 0 1 1.81 0l2.613 1.506v6.152l-3.044-1.759v3.518z" fill="#0052cd"/></g></svg>