<svg fill="none" height="48" width="54" xmlns="http://www.w3.org/2000/svg"><path d="M44.312 15.542a36.154 36.154 0 0 0-1.735-.547c.098-.4.188-.795.268-1.183C44.16 7.437 43.3 2.302 40.368.61c-2.812-1.621-7.41.07-12.054 4.11-.446.39-.894.8-1.342 1.232a32.734 32.734 0 0 0-.893-.825C21.212.806 16.334-1.015 13.405.681c-2.81 1.626-3.64 6.454-2.459 12.495.114.584.248 1.18.399 1.786-.69.196-1.357.405-1.995.627C3.644 17.579 0 20.696 0 23.93c0 3.34 3.912 6.69 9.855 8.722.47.16.956.312 1.457.455a35.28 35.28 0 0 0-.423 1.924c-1.127 5.937-.247 10.651 2.555 12.267 2.893 1.668 7.75-.047 12.478-4.18.374-.327.749-.673 1.125-1.037.487.47.973.913 1.457 1.33 4.58 3.941 9.104 5.533 11.903 3.912 2.89-1.673 3.83-6.737 2.61-12.898a30.36 30.36 0 0 0-.323-1.44c.341-.101.676-.206 1.002-.314 6.179-2.047 10.199-5.356 10.199-8.74 0-3.247-3.762-6.385-9.583-8.39zm-1.34 14.944c-.295.097-.597.192-.905.283-.682-2.16-1.603-4.455-2.73-6.828 1.076-2.315 1.96-4.582 2.624-6.728.551.16 1.086.328 1.602.506 4.987 1.717 8.03 4.255 8.03 6.211 0 2.084-3.286 4.788-8.62 6.556zm-2.213 4.386c.539 2.724.616 5.188.259 7.113-.321 1.73-.967 2.884-1.765 3.346-1.698.983-5.33-.295-9.248-3.666-.449-.386-.901-.799-1.355-1.236 1.519-1.66 3.037-3.591 4.518-5.736 2.605-.23 5.067-.609 7.299-1.125.11.444.208.879.292 1.304zM18.374 45.161c-1.66.586-2.981.603-3.78.142-1.7-.98-2.407-4.765-1.443-9.842.11-.582.242-1.18.394-1.79 2.207.489 4.65.84 7.262 1.052 1.492 2.098 3.053 4.027 4.627 5.716a28.25 28.25 0 0 1-1.027.945c-2.09 1.828-4.186 3.125-6.033 3.777zM10.6 30.473c-2.628-.898-4.799-2.066-6.286-3.34-1.337-1.144-2.012-2.28-2.012-3.203 0-1.962 2.926-4.466 7.806-6.167a33.223 33.223 0 0 1 1.855-.584 55.192 55.192 0 0 0 2.627 6.807c-1.082 2.354-1.979 4.684-2.66 6.904-.459-.132-.903-.27-1.33-.417zm2.606-17.739c-1.013-5.176-.34-9.08 1.352-10.06 1.803-1.045 5.79.444 9.993 4.175.268.239.538.488.808.746a55.144 55.144 0 0 0-4.591 5.682 56.259 56.259 0 0 0-7.192 1.118 33.708 33.708 0 0 1-.37-1.66zm23.248 5.74a73.314 73.314 0 0 0-1.64-2.695c1.72.218 3.368.506 4.915.86a49.172 49.172 0 0 1-1.725 4.64 80.426 80.426 0 0 0-1.55-2.804zm-9.48-9.233a49.24 49.24 0 0 1 3.17 3.829 67.784 67.784 0 0 0-6.37-.002 50.797 50.797 0 0 1 3.2-3.827zm-9.542 9.25a68.007 68.007 0 0 0-1.521 2.787 50.81 50.81 0 0 1-1.713-4.664 51.912 51.912 0 0 1 4.886-.839 67.675 67.675 0 0 0-1.652 2.715zm1.701 13.758a48.995 48.995 0 0 1-4.967-.798 51.678 51.678 0 0 1 1.747-4.758 68.082 68.082 0 0 0 3.22 5.556zm7.904 6.533a51.684 51.684 0 0 1-3.243-3.88c1.032.04 2.084.06 3.153.06 1.099 0 2.185-.025 3.254-.072a48.946 48.946 0 0 1-3.164 3.892zM38.026 26.61a48.839 48.839 0 0 1 1.81 4.74c-1.563.357-3.25.644-5.028.858a80.483 80.483 0 0 0 1.655-2.743 73.224 73.224 0 0 0 1.563-2.855zm-3.558 1.705a75.507 75.507 0 0 1-2.585 4.172c-1.6.114-3.252.173-4.936.173-1.677 0-3.308-.052-4.88-.154a65.27 65.27 0 0 1-2.633-4.178 64.734 64.734 0 0 1-2.3-4.343 65.325 65.325 0 0 1 2.293-4.344 64.704 64.704 0 0 1 2.613-4.16 65.27 65.27 0 0 1 4.907-.185c1.669 0 3.315.064 4.917.186a69.348 69.348 0 0 1 2.597 4.146 75.477 75.477 0 0 1 2.323 4.325 69.338 69.338 0 0 1-2.316 4.362zm4.75-25.71c1.805 1.04 2.506 5.238 1.373 10.742-.073.351-.154.709-.243 1.072a55.142 55.142 0 0 0-7.206-1.139c-1.48-2.109-3.015-4.026-4.556-5.686.414-.398.828-.778 1.24-1.136 3.979-3.463 7.698-4.83 9.392-3.853zm-12.27 16.512a4.813 4.813 0 1 1 0 9.626 4.813 4.813 0 0 1 0-9.626z" fill="#00d8ff"/></svg>