<svg fill="none" height="48" width="54" xmlns="http://www.w3.org/2000/svg"><mask id="a" height="48" maskUnits="userSpaceOnUse" width="39" x="8" y="0"><path d="M9.486 44.137 8.002 4.6a2.408 2.408 0 0 1 2.256-2.493L43.886.005a2.408 2.408 0 0 1 2.559 2.403V45.49a2.408 2.408 0 0 1-2.516 2.406l-32.145-1.444a2.408 2.408 0 0 1-2.298-2.315z" fill="#fff"/></mask><g mask="url(#a)"><path d="M9.486 44.137 8.002 4.6a2.408 2.408 0 0 1 2.256-2.493L43.886.005a2.408 2.408 0 0 1 2.559 2.403V45.49a2.408 2.408 0 0 1-2.516 2.406l-32.145-1.444a2.408 2.408 0 0 1-2.298-2.315z" fill="#ff4785"/><path d="m36.388 5.887.23-5.524L41.236 0l.2 5.697a.36.36 0 0 1-.582.295L39.073 4.59l-2.109 1.6a.36.36 0 0 1-.576-.302zm-5.906 12.166c0 .937 6.311.488 7.158-.17 0-6.38-3.423-9.733-9.692-9.733-6.27 0-9.782 3.405-9.782 8.512 0 8.896 12.005 9.066 12.005 13.918 0 1.362-.667 2.17-2.134 2.17-1.912 0-2.668-.976-2.579-4.296 0-.72-7.292-.944-7.514 0C17.378 36.5 22.39 38.82 28.126 38.82c5.557 0 9.915-2.962 9.915-8.325 0-9.534-12.183-9.278-12.183-14.003 0-1.915 1.423-2.17 2.268-2.17.889 0 2.49.156 2.356 3.732z" fill="#fff"/></g></svg>