<svg viewBox="0 0 47 48" fill="none" xmlns="http://www.w3.org/2000/svg">
<g clip-path="url(#clip0_110_2280)">
<path d="M27.3464 46.8463C26.1317 48.3759 23.6689 47.5378 23.6396 45.5847L23.2117 17.0178H42.42C45.8992 17.0178 47.8396 21.0362 45.6762 23.761L27.3464 46.8463Z" fill="url(#paint0_linear_110_2280)"/>
<path d="M27.3464 46.8463C26.1317 48.3759 23.6689 47.5378 23.6396 45.5847L23.2117 17.0178H42.42C45.8992 17.0178 47.8396 21.0362 45.6762 23.761L27.3464 46.8463Z" fill="url(#paint1_linear_110_2280)" fill-opacity="0.2"/>
<path d="M19.5345 0.879716C20.7492 -0.650083 23.212 0.188136 23.2413 2.1413L23.4288 30.7082H4.46087C0.981612 30.7082 -0.958832 26.6897 1.20467 23.9649L19.5345 0.879716Z" fill="#3ECF8E"/>
</g>
<defs>
<linearGradient id="paint0_linear_110_2280" x1="23.2117" y1="23.3518" x2="40.2834" y2="30.5117" gradientUnits="userSpaceOnUse">
<stop stop-color="#249361"/>
<stop offset="1" stop-color="#3ECF8E"/>
</linearGradient>
<linearGradient id="paint1_linear_110_2280" x1="15.643" y1="12.9889" x2="23.4286" y2="27.6449" gradientUnits="userSpaceOnUse">
<stop/>
<stop offset="1" stop-opacity="0"/>
</linearGradient>
<clipPath id="clip0_110_2280">
<rect width="46.3009" height="48" fill="white" transform="translate(0.28479)"/>
</clipPath>
</defs>
</svg>
