<svg fill="none" viewBox="0 0 47 48" xmlns="http://www.w3.org/2000/svg"><linearGradient id="b" gradientUnits="userSpaceOnUse" x1="23.212" x2="40.283" y1="23.352" y2="30.512"><stop offset="0" stop-color="#249361"/><stop offset="1" stop-color="#3ecf8e"/></linearGradient><linearGradient id="c" gradientUnits="userSpaceOnUse" x1="15.643" x2="23.429" y1="12.989" y2="27.645"><stop offset="0"/><stop offset="1" stop-opacity="0"/></linearGradient><clipPath id="a"><path d="M.285 0h46.3v48H.286z"/></clipPath><g clip-path="url(#a)"><path d="M27.346 46.846c-1.214 1.53-3.677.692-3.706-1.261l-.428-28.567H42.42c3.48 0 5.42 4.018 3.256 6.743z" fill="url(#b)"/><path d="M27.346 46.846c-1.214 1.53-3.677.692-3.706-1.261l-.428-28.567H42.42c3.48 0 5.42 4.018 3.256 6.743z" fill="url(#c)" fill-opacity=".2"/><path d="M19.535.88C20.748-.65 23.212.188 23.24 2.14l.188 28.567H4.46c-3.48 0-5.42-4.018-3.256-6.743z" fill="#3ecf8e"/></g></svg>