<svg fill="none" height="48" width="54" xmlns="http://www.w3.org/2000/svg"><path d="M3 24v24h48V0H3z" fill="#007acc"/><g fill="#fff"><path d="m13.615 24.16-.016 1.965h6.248v17.752h4.42V26.125h6.247v-1.928c0-1.066-.023-1.958-.054-1.98-.023-.031-3.824-.046-8.434-.039l-8.389.023zM41.731 22.145c1.22.305 2.149.846 3.002 1.73.442.472 1.097 1.333 1.15 1.539.016.06-2.072 1.463-3.336 2.248-.046.03-.229-.168-.435-.473-.617-.899-1.264-1.288-2.255-1.356-1.455-.1-2.392.663-2.385 1.935 0 .373.054.594.206.9.32.662.914 1.058 2.781 1.866 3.436 1.478 4.907 2.453 5.821 3.84 1.021 1.547 1.25 4.015.556 5.851-.762 1.997-2.651 3.353-5.31 3.802-.823.145-2.774.122-3.657-.038-1.928-.343-3.757-1.295-4.884-2.545-.442-.487-1.303-1.76-1.25-1.851.023-.03.221-.152.442-.282.213-.122 1.021-.587 1.783-1.028l1.38-.8.289.426c.403.617 1.287 1.463 1.82 1.745 1.532.808 3.635.693 4.671-.236.442-.404.625-.823.625-1.44 0-.556-.069-.8-.358-1.22-.374-.533-1.136-.982-3.3-1.92-2.476-1.066-3.542-1.729-4.517-2.78-.564-.61-1.098-1.585-1.319-2.4-.182-.678-.228-2.377-.083-3.063.51-2.392 2.316-4.061 4.922-4.556.845-.16 2.811-.1 3.641.106z"/></g></svg>