<svg fill="none" height="40" width="243" viewBox="0 0 243 40" xmlns="http://www.w3.org/2000/svg"><g fill="#fff"><path d="M51 27.1c1.5 1.9-8.3 6.5-14.2 6.5 4.7-.9 13-4.9 13-6.3v-3.9c0-.1 0-.2-.2-.3l-.2-.2-1.5-.4v-.2c-.2-4-1.2-7.4-2.7-10.3L27 31.4c0 .1-.3.3-.5.3l-.6.1-.6-.1-.5-.3-9.8-9.1-.3-.6.2-.6 3.4-3.6.3-.2.3-.1.3.1.3.2 6 5.6.1.1h.2l.1-.1L41.3 6.9c-3-2.9-6.7-4.8-9.9-5.4s-.2 0-.2.1v.2l.5 11.6-2-12.1a2 2 0 0 0-.6-.9c-.3-.2-.6-.4-1-.4h-4.4c-.4 0-.7.1-1 .4-.3.2-.5.6-.5.9L20 13.4l.6-11.6v-.2l-.2-.1C13.3 2.9 4.1 9.9 4 22.2v.1l-.2.1-1.5.4-.2.2v4.2c0 1.4 8.1 5.4 12.8 6.3C9 33.5-.8 28.9.7 27c-3.4 1.6 5.6 9.2 16.6 9.2h17c11.1.1 20.2-7.5 16.7-9.1zM85.8 21.7c0 6.6-4.6 10.9-10.8 10.9-2.9 0-5.4-1-7-3v2.7h-4.7V2.8h5v10.8a8.8 8.8 0 0 1 6.8-2.8c6.1 0 10.7 4.3 10.7 10.9zm-5 0c0-4.1-2.8-6.6-6.4-6.6-3.6 0-6.3 2.6-6.3 6.6s2.7 6.6 6.3 6.6c3.6 0 6.3-2.6 6.3-6.6zM109.4 11v21.2h-4.7v-2.7a8.8 8.8 0 0 1-6.8 3c-5.4 0-9-3-9-9.4V11h5v11.5c0 3.9 1.7 5.7 5 5.7 3.4 0 5.7-2.1 5.7-6.4V11zm4.2-6.4c0-1.7 1.4-3 3.2-3s3.2 1.2 3.2 2.9c0 1.8-1.3 3.1-3.2 3.1-1.8-.1-3.2-1.4-3.2-3zm.7 6.4h5v21.2h-5zm10-8.2h5v29.5h-5zm30.6 0v29.5h-4.8v-2.7c-1.7 2-4 3-7 3-6.2 0-10.7-4.3-10.7-10.9s4.6-10.9 10.7-10.9c2.7 0 5.2.9 6.8 2.9V2.8zm-4.9 18.9c0-4.1-2.7-6.6-6.3-6.6-3.6 0-6.3 2.6-6.3 6.6s2.7 6.6 6.3 6.6c3.6 0 6.3-2.6 6.3-6.6zM182.5 21.7c0 6.6-4.6 10.9-10.8 10.9-2.7 0-5-.9-6.8-2.9V40h-5V11h4.7v2.8c1.7-2 4.1-3 7-3 6.3 0 11 4.3 11 10.9zm-5 0c0-4.1-2.8-6.6-6.4-6.6-3.6 0-6.3 2.6-6.3 6.6s2.7 6.6 6.3 6.6c3.6 0 6.3-2.6 6.3-6.6zm25.6-1.9v12.5h-4.7v-2.6c-1.2 1.8-3.5 2.9-6.7 2.9-4.9 0-7.9-2.7-7.9-6.4 0-3.5 2.4-6.3 8.8-6.3h5.5v-.3c0-2.9-1.8-4.6-5.3-4.6-2.4 0-4.9.8-6.4 2.1l-1.9-3.6c2.3-1.8 5.6-2.6 9-2.6 6.1-.1 9.6 2.8 9.6 8.9zm-4.9 5.8v-2.5H193c-3.4 0-4.3 1.3-4.3 2.8 0 1.8 1.5 2.9 4.1 2.9 2.4.1 4.5-1 5.4-3.2zm7.3 4.6 1.9-3.8c1.9 1.2 4.7 2.1 7.4 2.1 3.1 0 4.5-.9 4.5-2.3 0-4.1-13.1-.2-13.1-8.7 0-4 3.6-6.6 9.3-6.6 2.8 0 6 .7 8 1.8l-1.9 3.8c-2-1.2-4.1-1.6-6.1-1.6-3 0-4.5 1-4.5 2.4 0 4.3 13.1.5 13.1 8.8 0 4-3.7 6.6-9.6 6.6-3.6-.1-7.1-1.2-9-2.5zm18.9 0 1.9-3.8c1.9 1.2 4.7 2.1 7.4 2.1 3.1 0 4.5-.9 4.5-2.3 0-4.1-13.1-.2-13.1-8.7 0-4 3.6-6.6 9.3-6.6 2.8 0 6 .7 8 1.8l-1.9 3.8c-2-1.2-4.1-1.6-6.1-1.6-3 0-4.5 1-4.5 2.4 0 4.3 13.1.5 13.1 8.8 0 4-3.7 6.6-9.6 6.6-3.6-.1-7.1-1.2-9-2.5z"/></g></svg>
