<svg fill="none" height="48" width="304" viewBox="0 0 304 48" xmlns="http://www.w3.org/2000/svg"><g fill="#fff"><path d="M0 25.5C0 12.5 10 3 23.3 3 30 3 36 5.3 40 9.9l-4 4a16.3 16.3 0 0 0-12.4-5.3c-10 0-17.3 7.2-17.3 16.9s7.4 16.9 17.3 16.9A16.3 16.3 0 0 0 36 37.1l4 4C36 45.6 30 48 23.2 48 10 48 0 38.5 0 25.5zM42 31c0-10 7.4-17 17.5-17S77 21 77 31s-7.4 17-17.5 17C49.3 48 42 40.9 42 31zm28.8 0c0-7.1-4.8-11.7-11.3-11.7S48.2 23.9 48.2 31 53 42.8 59.5 42.8C66 42.8 70.8 38 70.8 31zM114 14v33.6h-5.8v-5A13.8 13.8 0 0 1 96.6 48C87.8 48 82 43.2 82 33.3V14h6.2v18.7c0 6.6 3.3 9.9 9.1 9.9 6.4 0 10.5-4 10.5-11.2V14zM139 14v5.7h-1.3c-6.5 0-10.6 3.9-10.6 11V47H121V14.3h5.8v5.5C129 16 133.1 14 139 14zM141 44.2l2.6-4.8c3.6 2.2 7.8 3.4 12 3.4 5.8 0 8.2-1.7 8.2-4.5 0-7.5-21.7-1-21.7-14.3 0-6 5.5-10 14.3-10 4.4 0 8.7 1 12.5 3l-2.7 4.8c-3-1.8-6.4-2.8-9.9-2.7-5.4 0-8 2-8 4.6 0 7.9 21.7 1.5 21.7 14.4 0 6-5.7 9.9-14.8 9.9-5.7 0-11.4-1.6-14.2-3.8zM206.8 33H180c.7 5.9 5.4 9.7 12 9.7a12.3 12.3 0 0 0 9.6-4l3.3 4c-3 3.4-7.6 5.3-13 5.3C181 48 174 40.9 174 31c0-10 7-17 16.6-17 9.6 0 16.4 7 16.4 17.2 0 .6 0 1.2-.2 1.8zM180 28.7h21.2a10.8 10.8 0 0 0-10.6-9.5 10.7 10.7 0 0 0-10.6 9.5zM215 4h6.3v37.7H245V47h-30zM249 4c.1-1 .5-2.1 1.3-2.8A4 4 0 0 1 253 0a3.7 3.7 0 0 1 2.8 1 4 4 0 0 1 1.2 2.8c0 1.1-.4 2.2-1.1 3S254 8 253 8s-2.1-.4-2.9-1.2A4.1 4.1 0 0 1 249 4zM256 14h-6v33h6zM269 11.6v2.9h9.8v4.8H269V47H263V11.6C263 5.2 267 1 274.1 1c2.5 0 4.9.6 6.9 2l-1.9 4.4a8 8 0 0 0-4.6-1.5c-3.7 0-5.5 2-5.5 5.7zM304 45.7a11 11 0 0 1-7.1 2.3c-6.6 0-10.4-3.7-10.4-10.4V19.3H281v-5h5.5V7h6v7.3h9.3v5h-9.4v18c0 3.6 1.9 5.6 5.2 5.6 1.6 0 3.2-.5 4.6-1.6z"/></g></svg>
