<svg viewBox="0 0 308.5 83" xmlns="http://www.w3.org/2000/svg"><path d="M81.9 43.5c0-9.7 7.4-16.7 17.3-16.7 5 0 9.4 1.7 12.4 5l-3 3a12.1 12.1 0 0 0-9.2-3.9c-7.3 0-12.8 5.3-12.8 12.6S92 56 99.4 56a12.2 12.2 0 0 0 9.2-3.9l3 3c-3 3.3-7.4 5.1-12.4 5.1-10 0-17.3-7-17.3-16.7zm31.5 4c0-7.4 5.5-12.6 12.9-12.6S139 40 139 47.5 133.7 60 126.3 60s-12.9-5.3-12.9-12.6zm21.2 0c0-5.3-3.5-8.7-8.3-8.7s-8.4 3.4-8.4 8.7 3.6 8.7 8.4 8.7 8.3-3.5 8.3-8.7zM166.5 35v24.8h-4.2v-3.7a10 10 0 0 1-8.4 4c-6.4 0-10.6-3.5-10.6-10.8V35h4.4v13.7c0 4.8 2.5 7.3 6.7 7.3 4.7 0 7.7-3 7.7-8.2V35zm19.1-.2v4.4a7.5 7.5 0 0 0-1 0c-4.8 0-7.8 2.9-7.8 8.3v12.3h-4.5V35.1h4.2v4.1c1.7-2.9 4.8-4.4 9.1-4.4zm1.7 22.4 1.8-3.6a16 16 0 0 0 8.7 2.6c4.2 0 5.9-1.3 5.9-3.4 0-5.5-15.7-.7-15.7-10.6 0-4.4 4-7.4 10.4-7.4a18 18 0 0 1 9 2.3l-2 3.5a13 13 0 0 0-7.1-2c-4 0-5.8 1.5-5.8 3.4 0 5.9 15.7 1.1 15.7 10.7 0 4.5-4.2 7.3-10.7 7.3a18 18 0 0 1-10.2-2.8zM236 49h-20c.5 4.3 4 7.2 9 7.2a9.2 9.2 0 0 0 7-3l2.6 2.9c-2.3 2.6-5.7 4-9.8 4-8 0-13.3-5.3-13.3-12.7s5.3-12.6 12.4-12.6 12.2 5.1 12.2 12.7a13.3 13.3 0 0 1 0 1.4zm-20-3.3h15.8a8 8 0 0 0-15.9 0zm26-18.6h4.7v28.6h17.7v4.1h-22.3z" fill="#e6e6e6"/><path d="M267.4 27.4a3 3 0 0 1 3-3 2.9 2.9 0 0 1 3 3 3 3 0 0 1-6 0z" fill="#2ee0de"/><path d="M268.2 35h4.5v24.8h-4.5zM282.3 33v2h7.1v3.7h-7v21h-4.5V33c0-4.8 2.9-8 8.1-8a8.4 8.4 0 0 1 5 1.4l-1.3 3.4a5.8 5.8 0 0 0-3.4-1.2c-2.7 0-4 1.6-4 4.4zm26.2 25.4a8.5 8.5 0 0 1-5.4 1.7c-5 0-7.9-2.8-7.9-7.8V38.7H291v-3.6h4.3v-5.5h4.4v5.5h7.1v3.6h-7v13.4c0 2.7 1.3 4.2 3.8 4.2a5.7 5.7 0 0 0 3.5-1.2z" fill="#e6e6e6"/><path d="M64.2 31v31.3a5 5 0 0 1-2.5 4.3L34.6 82.3a5 5 0 0 1-5 0L2.5 66.6A5 5 0 0 1 0 62.3V31a5 5 0 0 1 2.5-4.3l7.7-4.4.7-.5 20.5 11.9a1.3 1.3 0 0 0 1.3 0l20.6-11.9.7.5 7.7 4.4a5 5 0 0 1 2.5 4.3z" fill="#0c66ea"/><path d="M59.8 57.8a1.3 1.3 0 0 1 0 2.2l-13.5 8-13.5 7.8a1.3 1.3 0 0 1-1.3 0L4.5 60a1.3 1.3 0 0 1 0-2.2l12.2-7a1.3 1.3 0 0 1 1.3 0l13.4 7.7a1.3 1.3 0 0 0 1.3 0l14.1-8.2h.1z" fill="#16147c"/><path d="M59.8 36.7a1.3 1.3 0 0 1 0 2.3l-13 7.5-.6.3-13.5 7.8a1.3 1.3 0 0 1-1.3 0L4.4 39a1.3 1.3 0 0 1 0-2.3l12.2-7a1.3 1.3 0 0 1 1.3 0l13.5 7.7a1.3 1.3 0 0 0 1.3 0l13.6-7.8.6-.3z" fill="#17b3ff"/><path d="M53.3 21.8 32.6 33.7a1.3 1.3 0 0 1-1.3 0L11 21.8l18.7-10.7a5 5 0 0 1 5 0z" fill="#2eb5de"/><path d="m59.8 18-4.3 2.5-2.3 1.3-18.6-10.7a5 5 0 0 0-5 0L10.9 21.8l-2.3-1.3L4.3 18a1.3 1.3 0 0 1 0-2.2L31.3.2a1.3 1.3 0 0 1 1.4 0l27 15.6a1.3 1.3 0 0 1 0 2.2z" fill="#2ee0de"/></svg>
