<svg id="Layer_1" data-name="Layer 1" xmlns="http://www.w3.org/2000/svg" viewBox="0 0 308.5 82.95"><defs><style>.cls-1{fill:#e6e6e6;}.cls-2{fill:#2ee0de;}.cls-3{fill:#0c66ea;}.cls-4{fill:#16147c;}.cls-5{fill:#17b3ff;}.cls-6{fill:#2eb5de;}</style></defs><path class="cls-1" d="M177.64,252c0-9.66,7.37-16.71,17.32-16.71,5,0,9.43,1.73,12.42,5.09l-3,2.94a12.11,12.11,0,0,0-9.2-3.88c-7.37,0-12.84,5.33-12.84,12.56s5.47,12.56,12.84,12.56a12.15,12.15,0,0,0,9.2-3.92l3,2.94c-3,3.36-7.38,5.14-12.47,5.14C185,268.7,177.64,261.65,177.64,252Z" transform="translate(-95.75 -208.52)"/><path class="cls-1" d="M209.16,256c0-7.38,5.46-12.6,12.88-12.6s12.84,5.22,12.84,12.6S229.47,268.6,222,268.6,209.16,263.33,209.16,256Zm21.19,0c0-5.27-3.54-8.68-8.31-8.68s-8.35,3.41-8.35,8.68,3.59,8.73,8.35,8.73S230.35,261.23,230.35,256Z" transform="translate(-95.75 -208.52)"/><path class="cls-1" d="M262.29,243.58v24.74h-4.24v-3.73a10.08,10.08,0,0,1-8.41,4c-6.39,0-10.64-3.5-10.64-10.78V243.58h4.48v13.73c0,4.85,2.43,7.28,6.68,7.28,4.66,0,7.65-2.9,7.65-8.22V243.58Z" transform="translate(-95.75 -208.52)"/><path class="cls-1" d="M281.35,243.35v4.34a7.46,7.46,0,0,0-1-.05c-4.81,0-7.8,2.94-7.8,8.36v12.32H268V243.58h4.3v4.15C273.92,244.84,277,243.35,281.35,243.35Z" transform="translate(-95.75 -208.52)"/><path class="cls-1" d="M283,265.71l1.86-3.55a16,16,0,0,0,8.69,2.57c4.15,0,5.88-1.26,5.88-3.36,0-5.56-15.64-.75-15.64-10.6,0-4.44,4-7.42,10.32-7.42a18,18,0,0,1,9,2.24l-1.92,3.54a13,13,0,0,0-7.14-2c-3.92,0-5.84,1.45-5.84,3.41,0,5.84,15.69,1.08,15.69,10.69,0,4.49-4.11,7.33-10.69,7.33C289.1,268.6,285,267.34,283,265.71Z" transform="translate(-95.75 -208.52)"/><path class="cls-1" d="M331.78,257.45H311.7c.56,4.34,4.07,7.23,9,7.23a9.23,9.23,0,0,0,7.14-3l2.47,2.9c-2.24,2.61-5.64,4-9.75,4-8,0-13.31-5.27-13.31-12.65s5.28-12.6,12.42-12.6,12.23,5.13,12.23,12.74A13.29,13.29,0,0,1,331.78,257.45Zm-20.08-3.23h15.88a8,8,0,0,0-15.88,0Z" transform="translate(-95.75 -208.52)"/><path class="cls-1" d="M337.81,235.64h4.67v28.62h17.69v4.06H337.81Z" transform="translate(-95.75 -208.52)"/><path class="cls-2" d="M363.16,235.92a3,3,0,0,1,3-2.94,2.9,2.9,0,0,1,3,2.85,3,3,0,0,1-6.07.09Z" transform="translate(-95.75 -208.52)"/><rect class="cls-1" x="268.21" y="35.05" width="4.48" height="24.75"/><path class="cls-1" d="M378,241.43v2.15h7.19v3.69h-7.1v21h-4.48V241.38c0-4.8,2.9-8,8.17-8a8.38,8.38,0,0,1,5.05,1.45l-1.36,3.41a5.8,5.8,0,0,0-3.45-1.17C379.31,237.09,378,238.58,378,241.43Z" transform="translate(-95.75 -208.52)"/><path class="cls-1" d="M404.25,266.88a8.49,8.49,0,0,1-5.42,1.72c-5,0-7.84-2.75-7.84-7.75V247.27h-4.2v-3.69H391v-5.42h4.48v5.42h7.1v3.69h-7.1v13.4c0,2.66,1.4,4.15,3.88,4.15a5.65,5.65,0,0,0,3.5-1.17Z" transform="translate(-95.75 -208.52)"/><path class="cls-3" d="M159.9,239.54v31.32a5,5,0,0,1-2.48,4.29l-27.11,15.66a4.94,4.94,0,0,1-5,0L98.22,275.15a5,5,0,0,1-2.47-4.29V239.54a5,5,0,0,1,2.47-4.29l7.73-4.47.73-.42,20.5,11.84a1.25,1.25,0,0,0,1.29,0L149,230.36l.73.42,7.73,4.47A4.94,4.94,0,0,1,159.9,239.54Z" transform="translate(-95.75 -208.52)"/><path class="cls-4" d="M155.55,266.3a1.3,1.3,0,0,1,0,2.25L142,276.4l-13.48,7.78a1.29,1.29,0,0,1-1.29,0l-27.07-15.63a1.3,1.3,0,0,1,0-2.25l12.32-7.07a1.31,1.31,0,0,1,1.3,0L127.18,267a1.25,1.25,0,0,0,1.29,0l14.1-8.13h.09Z" transform="translate(-95.75 -208.52)"/><path class="cls-5" d="M155.55,245.24a1.3,1.3,0,0,1,0,2.25l-13,7.49-.62.36-13.48,7.78a1.29,1.29,0,0,1-1.29,0L100.1,247.49a1.3,1.3,0,0,1,0-2.25l12.24-7.07a1.29,1.29,0,0,1,1.29,0l13.55,7.77a1.29,1.29,0,0,0,1.29,0L142,238.16l.62-.36h.09Z" transform="translate(-95.75 -208.52)"/><path class="cls-6" d="M149,230.36,128.47,242.2a1.25,1.25,0,0,1-1.29,0l-20.5-11.84,18.67-10.78a5,5,0,0,1,5,0Z" transform="translate(-95.75 -208.52)"/><path class="cls-2" d="M155.54,226.57l-4.31,2.49-2.27,1.3-18.65-10.78a5,5,0,0,0-5,0l-18.67,10.78-2.26-1.3-4.32-2.49a1.3,1.3,0,0,1,0-2.25l27.08-15.62a1.29,1.29,0,0,1,1.29,0l27.07,15.62A1.3,1.3,0,0,1,155.54,226.57Z" transform="translate(-95.75 -208.52)"/></svg>