<svg viewBox="0 0 2698.4 585.2" xmlns="http://www.w3.org/2000/svg" fill="#fff"><path d="M342.9 585.2c-15.3 0-31.7-8.2-51.7-25.6a284 284 0 0 1-20.3-19.8C150.7 426.6 76.9 346.6 38.7 288 2.8 232.9 0 200.6 0 164c0-37 18-78 48.3-110C80.7 19.6 123 0 164.7 0h.1c124.3 0 200.8 144.5 204 150.6a324.3 324.3 0 0 0 44.8 62.2c34.4 37.2 69.7 56 104.7 56h1a106 106 0 0 0 74.2-30.8 103 103 0 0 0 30.6-73.5A104.6 104.6 0 0 0 519.5 60c-27.5 0-60.1 5-93 42.7a30 30 0 1 1-45.2-39.4C430.9 6.6 483.9 0 519.6 0 610.2 0 684 73.8 684 164.4a162.7 162.7 0 0 1-48.2 116 165.7 165.7 0 0 1-116 48.4h-1.5c-123 0-199-143-202.8-150.6a324.7 324.7 0 0 0-44.8-61.7C246.8 90.7 209 60 164.8 60c-25.3 0-51.8 12.8-73 35.2C72.3 116 60 142.4 60 164c0 25 0 46.6 29 91.2 35 53.8 108.3 132.9 223.8 241.6l1.7 1.7a184 184 0 0 0 25.4 23.2 955.4 955.4 0 0 0 61.8-58 2295 2295 0 0 0 82.2-86 30 30 0 0 1 44.9 39.8c-18 20.2-55.4 59.7-92 96-19.3 19-35.5 34.3-48.1 45.4-23 20.3-33.3 26.2-45.8 26.2zM2647.3 153h-10.8v-4h26v4h-10.8v23.7h-4.4zm20-4h4.4l11 22.2L2694 149h4.4v27.7h-4.4v-19.3l-9.3 19.3h-3.6l-9.4-19.3v19.3h-4.4zM1038.5 356.2H865c8.5 29.5 36.1 45 71 45 22.7 0 42.7-5.9 59.7-19.6l27.2 27c-19.2 22.4-52.6 38.2-93.7 38.2-63.8 0-120.9-40.3-120.9-112.3 0-72.8 58-112.3 117.4-112.3 58.9 0 125.8 38.7 112.8 134zm-174.4-40.8h121.3c-3.5-30.7-31.2-46.1-59.3-46.1-27.6 0-54.4 15-62 46.1zm173-89h61l64.3 150.2 63.8-150.2h61.5L1190 442.7h-55.7zm477 129.8h-173.5c8.5 29.5 36.1 45 71 45 22.7 0 42.7-5.9 59.7-19.6l27.2 27c-19.2 22.4-52.6 38.2-93.7 38.2-63.8 0-120.9-40.3-120.9-112.3 0-72.8 58-112.3 117.3-112.3 59 0 125.8 38.7 112.9 134zm-174.4-40.8H1461c-3.6-30.7-31.2-46.1-59.3-46.1-27.7 0-54.4 15-62 46.1zm351.8-91.5v53.3a92.5 92.5 0 0 0-15.2-1.3c-45 0-73.1 29.1-73.1 72.4v94.4h-59.8V226.4h59.8v56.2c8-33.3 30.7-60.3 72.7-60.3a66.9 66.9 0 0 1 15.6 1.6zm103-5.4v8h59.8v44.4h-59.7v171.8h-59.8V271h-29.4v-44.5h29.4v-14.1c0-63.7 47.3-74 78-74 12 0 28.6 1.2 41.5 8.3v43.7c-11.1-5-21.8-4.6-25.8-4.6-22.8 0-34 11.6-34 32.8zm301.5 8v216.2h-59.8v-29.5c-12.9 19.1-36.5 33.7-71.3 33.7-47.3 0-87.5-27.5-87.5-93.2V226.4h59.8v118.1c0 31.7 18.3 52.5 49.5 52.5 30.3 0 49.5-20.8 49.5-52.5v-118zm260.3 89v127.2h-59.8V324.6c0-31.6-18.3-52.4-49.5-52.4-30.8 0-49.5 20.8-49.5 52.4v118.1h-59.8V226.4h59.8V256c12.9-19.1 36-33.7 70.9-33.7 47.7 0 87.8 27.4 87.8 93.1zm262.4-168.1v295.3H2559v-29.1h-1.3c-5.8 12-32.6 33.3-74 33.3-54 0-111.6-37.5-111.6-112.3s57.6-112.3 111.6-112.3c41.4 0 68.2 21.2 74 33.2h.9V147.4zm-58.4 187.2c0-40.8-31.2-62.4-64.7-62.4s-64.6 22-64.6 62.4 31.2 62.4 64.6 62.4 64.7-21.7 64.7-62.4z"/></svg>
