<svg xmlns="http://www.w3.org/2000/svg" xmlns:xlink="http://www.w3.org/1999/xlink" width="500" zoomAndPan="magnify" viewBox="0 0 375 374.999991" height="500" preserveAspectRatio="xMidYMid meet" version="1.0"><defs><g><g id="id1"/><g id="id2"/></g><clipPath id="id3"><path d="M 121 92 L 195 92 L 195 202.921875 L 121 202.921875 Z M 121 92 " clip-rule="nonzero"/></clipPath><clipPath id="id4"><path d="M 184 92 L 257.398438 92 L 257.398438 202.921875 L 184 202.921875 Z M 184 92 " clip-rule="nonzero"/></clipPath></defs><rect x="-37.5" width="450" fill="rgb(100%, 100%, 100%)" y="-37.499999" height="449.999989" fill-opacity="1"/><rect x="-37.5" width="450" fill="rgb(100%, 100%, 100%)" y="-37.499999" height="449.999989" fill-opacity="1"/><rect x="-37.5" width="450" fill="rgb(100%, 100%, 100%)" y="-37.499999" height="449.999989" fill-opacity="1"/><g clip-path="url(#id3)"><path fill="rgb(100%, 54.119873%, 0%)" d="M 137.144531 202.765625 L 136.4375 202.773438 C 134.992188 202.792969 133.574219 202.605469 132.183594 202.214844 C 130.792969 201.820312 129.484375 201.234375 128.265625 200.460938 C 127.042969 199.6875 125.957031 198.753906 125.011719 197.664062 C 124.0625 196.574219 123.289062 195.371094 122.691406 194.054688 C 122.09375 192.738281 121.699219 191.363281 121.503906 189.933594 C 121.308594 188.5 121.320312 187.070312 121.542969 185.644531 C 121.765625 184.214844 122.183594 182.847656 122.804688 181.542969 C 123.425781 180.238281 124.222656 179.050781 125.1875 177.976562 L 145.394531 155.574219 C 146.027344 154.875 146.585938 154.121094 147.074219 153.3125 C 147.5625 152.503906 147.972656 151.660156 148.296875 150.777344 C 148.625 149.890625 148.867188 148.984375 149.019531 148.054688 C 149.175781 147.121094 149.238281 146.1875 149.214844 145.242188 C 149.191406 144.300781 149.078125 143.371094 148.875 142.449219 C 148.671875 141.527344 148.386719 140.632812 148.011719 139.765625 C 147.640625 138.902344 147.191406 138.078125 146.660156 137.296875 C 146.128906 136.515625 145.53125 135.792969 144.863281 135.125 L 127.207031 117.476562 C 117.921875 108.203125 124.351562 92.332031 137.480469 92.125 C 139.421875 92.09375 141.292969 92.425781 143.101562 93.128906 C 144.90625 93.828125 146.515625 94.84375 147.925781 96.175781 L 189.417969 135.328125 C 189.777344 135.667969 190.121094 136.027344 190.449219 136.402344 C 190.773438 136.777344 191.078125 137.167969 191.367188 137.574219 C 191.652344 137.984375 191.917969 138.402344 192.160156 138.835938 C 192.40625 139.269531 192.628906 139.710938 192.828125 140.167969 C 193.027344 140.625 193.203125 141.085938 193.355469 141.558594 C 193.507812 142.035156 193.636719 142.511719 193.742188 143 C 193.847656 143.484375 193.929688 143.976562 193.984375 144.46875 C 194.039062 144.960938 194.070312 145.457031 194.074219 145.957031 C 194.082031 146.453125 194.0625 146.949219 194.019531 147.445312 C 193.972656 147.9375 193.90625 148.429688 193.8125 148.917969 C 193.71875 149.40625 193.601562 149.890625 193.457031 150.367188 C 193.316406 150.84375 193.152344 151.308594 192.960938 151.769531 C 192.773438 152.230469 192.5625 152.679688 192.328125 153.117188 C 192.09375 153.554688 191.839844 153.980469 191.5625 154.394531 C 191.285156 154.808594 190.988281 155.207031 190.671875 155.589844 C 190.355469 155.972656 190.019531 156.339844 189.664062 156.6875 L 147.390625 198.472656 C 146.027344 199.820312 144.457031 200.867188 142.683594 201.609375 C 140.914062 202.351562 139.066406 202.738281 137.144531 202.765625 Z M 137.144531 202.765625 " fill-opacity="1" fill-rule="nonzero"/></g><g clip-path="url(#id4)"><path fill="rgb(100%, 54.119873%, 0%)" d="M 200.472656 202.765625 L 199.765625 202.773438 C 198.320312 202.792969 196.898438 202.605469 195.507812 202.214844 C 194.117188 201.820312 192.8125 201.234375 191.589844 200.460938 C 190.371094 199.6875 189.285156 198.753906 188.335938 197.664062 C 187.386719 196.574219 186.617188 195.371094 186.019531 194.054688 C 185.421875 192.738281 185.023438 191.363281 184.828125 189.933594 C 184.632812 188.5 184.648438 187.070312 184.867188 185.644531 C 185.089844 184.214844 185.511719 182.847656 186.132812 181.542969 C 186.753906 180.238281 187.546875 179.050781 188.515625 177.976562 L 208.722656 155.574219 C 209.355469 154.875 209.914062 154.121094 210.402344 153.3125 C 210.890625 152.503906 211.296875 151.660156 211.625 150.773438 C 211.953125 149.890625 212.191406 148.984375 212.347656 148.054688 C 212.5 147.121094 212.566406 146.1875 212.539062 145.242188 C 212.515625 144.300781 212.402344 143.371094 212.199219 142.449219 C 212 141.527344 211.710938 140.632812 211.339844 139.765625 C 210.964844 138.902344 210.515625 138.078125 209.984375 137.296875 C 209.457031 136.515625 208.859375 135.792969 208.191406 135.125 L 190.53125 117.476562 C 181.25 108.203125 187.679688 92.332031 200.804688 92.125 C 202.742188 92.09375 204.613281 92.429688 206.421875 93.128906 C 208.226562 93.832031 209.835938 94.84375 211.242188 96.175781 L 252.738281 135.328125 C 253.101562 135.667969 253.445312 136.027344 253.769531 136.402344 C 254.097656 136.78125 254.402344 137.171875 254.6875 137.578125 C 254.976562 137.984375 255.242188 138.402344 255.484375 138.835938 C 255.730469 139.269531 255.953125 139.714844 256.152344 140.167969 C 256.351562 140.625 256.527344 141.089844 256.679688 141.5625 C 256.832031 142.035156 256.960938 142.515625 257.066406 143 C 257.171875 143.484375 257.25 143.976562 257.308594 144.46875 C 257.363281 144.964844 257.394531 145.457031 257.398438 145.957031 C 257.40625 146.453125 257.386719 146.949219 257.339844 147.445312 C 257.296875 147.9375 257.230469 148.429688 257.136719 148.917969 C 257.042969 149.40625 256.925781 149.890625 256.78125 150.367188 C 256.640625 150.84375 256.476562 151.3125 256.285156 151.769531 C 256.097656 152.230469 255.886719 152.679688 255.652344 153.117188 C 255.417969 153.558594 255.160156 153.984375 254.886719 154.394531 C 254.609375 154.808594 254.3125 155.207031 253.996094 155.589844 C 253.675781 155.972656 253.34375 156.339844 252.988281 156.6875 L 210.714844 198.472656 C 209.351562 199.820312 207.78125 200.867188 206.011719 201.609375 C 204.238281 202.351562 202.390625 202.738281 200.472656 202.765625 Z M 200.472656 202.765625 " fill-opacity="1" fill-rule="nonzero"/></g><g fill="rgb(32.939148%, 32.939148%, 32.939148%)" fill-opacity="1"><g transform="translate(84.661692, 252.242358)"><g><path d="M 2.296875 -27.296875 L 10.921875 -27.296875 L 10.921875 -6.328125 L 22.078125 -6.328125 L 22.078125 0 L 2.296875 0 Z M 2.296875 -27.296875 "/></g></g></g><g fill="rgb(32.939148%, 32.939148%, 32.939148%)" fill-opacity="1"><g transform="translate(107.456909, 252.242358)"><g><path d="M 2.15625 -27.296875 L 22.03125 -27.296875 L 22.03125 -21.546875 L 10.78125 -21.546875 L 10.78125 -16.5625 L 20.25 -16.5625 L 20.25 -11.390625 L 10.78125 -11.390625 L 10.78125 -5.84375 L 21.984375 -5.84375 L 21.984375 0 L 2.15625 0 Z M 2.15625 -27.296875 "/></g></g></g><g fill="rgb(32.939148%, 32.939148%, 32.939148%)" fill-opacity="1"><g transform="translate(130.731015, 252.242358)"><g><path d="M 2.296875 -27.296875 L 21.890625 -27.296875 L 21.890625 -21.359375 L 10.921875 -21.359375 L 10.921875 -15.953125 L 19.96875 -15.953125 L 19.96875 -10.734375 L 10.921875 -10.734375 L 10.921875 0 L 2.296875 0 Z M 2.296875 -27.296875 "/></g></g></g><g fill="rgb(32.939148%, 32.939148%, 32.939148%)" fill-opacity="1"><g transform="translate(153.14312, 252.242358)"><g><path d="M 16.71875 0 L 8.09375 0 L 8.09375 -21.3125 L 0.390625 -21.3125 L 0.390625 -27.296875 L 24.421875 -27.296875 L 24.421875 -21.3125 L 16.71875 -21.3125 Z M 16.71875 0 "/></g></g></g><g fill="rgb(32.939148%, 32.939148%, 32.939148%)" fill-opacity="1"><g transform="translate(177.949677, 252.242358)"><g/></g></g><g fill="rgb(32.939148%, 32.939148%, 32.939148%)" fill-opacity="1"><g transform="translate(185.133044, 252.242358)"><g><path d="M 2.296875 -27.296875 L 10.921875 -27.296875 L 10.921875 -6.328125 L 22.078125 -6.328125 L 22.078125 0 L 2.296875 0 Z M 2.296875 -27.296875 "/></g></g></g><g fill="rgb(32.939148%, 32.939148%, 32.939148%)" fill-opacity="1"><g transform="translate(207.928261, 252.242358)"><g><path d="M 18.203125 -5.984375 L 10.25 -5.984375 L 8.8125 0 L 0 0 L 8.8125 -27.296875 L 20.0625 -27.296875 L 28.5 0 L 19.640625 0 Z M 14.171875 -21.40625 L 11.34375 -11.296875 L 17.046875 -11.296875 L 14.375 -21.40625 Z M 14.171875 -21.40625 "/></g></g></g><g fill="rgb(32.939148%, 32.939148%, 32.939148%)" fill-opacity="1"><g transform="translate(236.422282, 252.242358)"><g><path d="M 10.390625 -11.015625 L 10.390625 0 L 2.390625 0 L 2.390625 -27.296875 L 10.484375 -27.296875 L 17.71875 -16.28125 C 18.800781 -14.65625 19.628906 -13.285156 20.203125 -12.171875 L 20.359375 -12.171875 L 20.359375 -27.296875 L 28.296875 -27.296875 L 28.296875 0 L 20.15625 0 L 12.734375 -11.5 L 10.578125 -14.75 L 10.4375 -14.75 Z M 10.390625 -11.015625 "/></g></g></g><g fill="rgb(32.939148%, 32.939148%, 32.939148%)" fill-opacity="1"><g transform="translate(267.071309, 252.242358)"><g><path d="M 2.15625 -27.296875 L 22.03125 -27.296875 L 22.03125 -21.546875 L 10.78125 -21.546875 L 10.78125 -16.5625 L 20.25 -16.5625 L 20.25 -11.390625 L 10.78125 -11.390625 L 10.78125 -5.84375 L 21.984375 -5.84375 L 21.984375 0 L 2.15625 0 Z M 2.15625 -27.296875 "/></g></g></g><g fill="rgb(32.939148%, 32.939148%, 32.939148%)" fill-opacity="1"><g transform="translate(126.66041, 277.740393)"><g><path d="M 8.890625 -9.375 C 8.535156 -9.894531 8.0625 -10.300781 7.46875 -10.59375 C 6.875 -10.894531 6.179688 -11.046875 5.390625 -11.046875 C 4.429688 -11.046875 3.648438 -10.835938 3.046875 -10.421875 C 2.441406 -10.003906 2.140625 -9.445312 2.140625 -8.75 C 2.140625 -8.34375 2.296875 -7.96875 2.609375 -7.625 C 2.921875 -7.289062 3.472656 -7 4.265625 -6.75 L 7.234375 -5.78125 C 8.085938 -5.507812 8.726562 -5.132812 9.15625 -4.65625 C 9.582031 -4.1875 9.796875 -3.640625 9.796875 -3.015625 C 9.796875 -2.398438 9.597656 -1.84375 9.203125 -1.34375 C 8.816406 -0.851562 8.285156 -0.46875 7.609375 -0.1875 C 6.929688 0.0820312 6.175781 0.21875 5.34375 0.21875 C 4.289062 0.21875 3.335938 -0.00390625 2.484375 -0.453125 C 1.628906 -0.898438 1.019531 -1.488281 0.65625 -2.21875 C 0.613281 -2.3125 0.628906 -2.382812 0.703125 -2.4375 L 1.1875 -2.75 C 1.269531 -2.8125 1.335938 -2.804688 1.390625 -2.734375 C 1.785156 -2.054688 2.316406 -1.53125 2.984375 -1.15625 C 3.648438 -0.789062 4.4375 -0.609375 5.34375 -0.609375 C 6.34375 -0.609375 7.175781 -0.820312 7.84375 -1.25 C 8.519531 -1.675781 8.859375 -2.226562 8.859375 -2.90625 C 8.859375 -3.40625 8.65625 -3.828125 8.25 -4.171875 C 7.84375 -4.523438 7.179688 -4.84375 6.265625 -5.125 L 4 -5.828125 C 2.976562 -6.140625 2.253906 -6.523438 1.828125 -6.984375 C 1.410156 -7.441406 1.203125 -7.972656 1.203125 -8.578125 C 1.203125 -9.554688 1.597656 -10.347656 2.390625 -10.953125 C 3.191406 -11.566406 4.195312 -11.875 5.40625 -11.875 C 6.320312 -11.875 7.144531 -11.695312 7.875 -11.34375 C 8.601562 -11 9.179688 -10.503906 9.609375 -9.859375 C 9.671875 -9.785156 9.664062 -9.726562 9.59375 -9.6875 L 9.09375 -9.34375 C 9 -9.289062 8.929688 -9.300781 8.890625 -9.375 Z M 8.890625 -9.375 "/></g></g></g><g fill="rgb(32.939148%, 32.939148%, 32.939148%)" fill-opacity="1"><g transform="translate(142.2585, 277.740393)"><g><path d="M 6.578125 0.21875 C 5.503906 0.21875 4.5625 -0.03125 3.75 -0.53125 C 2.945312 -1.039062 2.328125 -1.742188 1.890625 -2.640625 C 1.453125 -3.546875 1.234375 -4.585938 1.234375 -5.765625 C 1.234375 -6.953125 1.457031 -8.003906 1.90625 -8.921875 C 2.351562 -9.847656 2.984375 -10.570312 3.796875 -11.09375 C 4.609375 -11.613281 5.539062 -11.875 6.59375 -11.875 C 7.632812 -11.875 8.554688 -11.617188 9.359375 -11.109375 C 10.171875 -10.597656 10.800781 -9.878906 11.25 -8.953125 C 11.695312 -8.023438 11.921875 -6.976562 11.921875 -5.8125 C 11.921875 -4.632812 11.695312 -3.585938 11.25 -2.671875 C 10.800781 -1.753906 10.171875 -1.039062 9.359375 -0.53125 C 8.554688 -0.03125 7.628906 0.21875 6.578125 0.21875 Z M 6.625 -0.609375 C 7.96875 -0.609375 9.03125 -1.082031 9.8125 -2.03125 C 10.601562 -2.976562 11 -4.238281 11 -5.8125 C 11 -6.851562 10.816406 -7.765625 10.453125 -8.546875 C 10.097656 -9.328125 9.585938 -9.9375 8.921875 -10.375 C 8.253906 -10.820312 7.476562 -11.046875 6.59375 -11.046875 C 5.707031 -11.046875 4.925781 -10.820312 4.25 -10.375 C 3.582031 -9.9375 3.066406 -9.320312 2.703125 -8.53125 C 2.335938 -7.738281 2.15625 -6.832031 2.15625 -5.8125 C 2.15625 -4.78125 2.335938 -3.867188 2.703125 -3.078125 C 3.066406 -2.296875 3.585938 -1.6875 4.265625 -1.25 C 4.941406 -0.820312 5.726562 -0.609375 6.625 -0.609375 Z M 6.625 -0.609375 "/></g></g></g><g fill="rgb(32.939148%, 32.939148%, 32.939148%)" fill-opacity="1"><g transform="translate(159.990335, 277.740393)"><g><path d="M 7.328125 -11.65625 C 7.398438 -11.65625 7.4375 -11.613281 7.4375 -11.53125 L 7.4375 -11.015625 C 7.4375 -10.929688 7.390625 -10.890625 7.296875 -10.890625 L 4.375 -10.890625 C 4.269531 -10.890625 4.21875 -10.835938 4.21875 -10.734375 L 4.21875 -0.234375 C 4.21875 -0.078125 4.15625 0 4.03125 0 L 3.515625 0 C 3.398438 0 3.34375 -0.0703125 3.34375 -0.21875 L 3.34375 -10.734375 C 3.34375 -10.835938 3.300781 -10.890625 3.21875 -10.890625 L 0.703125 -10.890625 C 0.617188 -10.890625 0.578125 -10.929688 0.578125 -11.015625 L 0.578125 -11.53125 C 0.578125 -11.613281 0.617188 -11.65625 0.703125 -11.65625 L 3.1875 -11.65625 C 3.289062 -11.65625 3.34375 -11.707031 3.34375 -11.8125 L 3.34375 -13.59375 C 3.34375 -14.519531 3.539062 -15.207031 3.9375 -15.65625 C 4.332031 -16.101562 4.960938 -16.328125 5.828125 -16.328125 L 7.40625 -16.328125 C 7.5 -16.328125 7.546875 -16.273438 7.546875 -16.171875 L 7.546875 -15.703125 C 7.546875 -15.597656 7.488281 -15.546875 7.375 -15.546875 L 5.609375 -15.546875 C 5.078125 -15.546875 4.710938 -15.40625 4.515625 -15.125 C 4.316406 -14.84375 4.21875 -14.398438 4.21875 -13.796875 L 4.21875 -11.8125 C 4.21875 -11.707031 4.269531 -11.65625 4.375 -11.65625 Z M 7.328125 -11.65625 "/></g></g></g><g fill="rgb(32.939148%, 32.939148%, 32.939148%)" fill-opacity="1"><g transform="translate(172.574789, 277.740393)"><g><path d="M 3.9375 -10.890625 C 3.832031 -10.890625 3.78125 -10.835938 3.78125 -10.734375 L 3.78125 -2.734375 C 3.78125 -1.960938 3.890625 -1.441406 4.109375 -1.171875 C 4.328125 -0.898438 4.671875 -0.765625 5.140625 -0.765625 L 6.890625 -0.765625 C 7.003906 -0.765625 7.0625 -0.710938 7.0625 -0.609375 L 7.0625 -0.234375 C 7.0625 -0.160156 7.019531 -0.113281 6.9375 -0.09375 C 6.6875 -0.03125 6.113281 0 5.21875 0 C 4.351562 0 3.75 -0.195312 3.40625 -0.59375 C 3.070312 -0.988281 2.90625 -1.664062 2.90625 -2.625 L 2.90625 -10.734375 C 2.90625 -10.835938 2.851562 -10.890625 2.75 -10.890625 L 0.703125 -10.890625 C 0.617188 -10.890625 0.578125 -10.929688 0.578125 -11.015625 L 0.578125 -11.53125 C 0.578125 -11.613281 0.617188 -11.65625 0.703125 -11.65625 L 2.765625 -11.65625 C 2.859375 -11.65625 2.90625 -11.707031 2.90625 -11.8125 L 3.109375 -15.40625 C 3.109375 -15.550781 3.164062 -15.625 3.28125 -15.625 L 3.59375 -15.625 C 3.71875 -15.625 3.78125 -15.539062 3.78125 -15.375 L 3.78125 -11.8125 C 3.78125 -11.707031 3.832031 -11.65625 3.9375 -11.65625 L 7 -11.65625 C 7.082031 -11.65625 7.125 -11.613281 7.125 -11.53125 L 7.125 -11.015625 C 7.125 -10.929688 7.082031 -10.890625 7 -10.890625 Z M 3.9375 -10.890625 "/></g></g></g><g fill="rgb(32.939148%, 32.939148%, 32.939148%)" fill-opacity="1"><g transform="translate(185.027254, 277.740393)"><g><path d="M 16.234375 -11.65625 C 16.296875 -11.65625 16.34375 -11.632812 16.375 -11.59375 C 16.414062 -11.5625 16.425781 -11.519531 16.40625 -11.46875 L 13.171875 -0.234375 C 13.128906 -0.078125 13.003906 0 12.796875 0 L 12.203125 0 C 11.984375 0 11.851562 -0.0703125 11.8125 -0.21875 L 8.734375 -9.8125 C 8.691406 -9.925781 8.65625 -9.984375 8.625 -9.984375 C 8.59375 -9.984375 8.554688 -9.925781 8.515625 -9.8125 L 5.65625 -0.234375 C 5.613281 -0.078125 5.492188 0 5.296875 0 L 4.640625 0 C 4.421875 0 4.289062 -0.0703125 4.25 -0.21875 L 0.8125 -11.4375 L 0.796875 -11.5 C 0.796875 -11.601562 0.859375 -11.65625 0.984375 -11.65625 L 1.5 -11.65625 C 1.625 -11.65625 1.710938 -11.597656 1.765625 -11.484375 L 4.8125 -1.46875 C 4.863281 -1.320312 4.914062 -1.25 4.96875 -1.25 C 5.03125 -1.25 5.082031 -1.332031 5.125 -1.5 L 8.15625 -11.53125 C 8.1875 -11.613281 8.257812 -11.65625 8.375 -11.65625 L 8.890625 -11.65625 C 9.023438 -11.65625 9.113281 -11.597656 9.15625 -11.484375 L 12.359375 -1.46875 C 12.410156 -1.320312 12.457031 -1.25 12.5 -1.25 C 12.550781 -1.25 12.601562 -1.332031 12.65625 -1.5 L 15.578125 -11.5 C 15.617188 -11.601562 15.710938 -11.65625 15.859375 -11.65625 Z M 16.234375 -11.65625 "/></g></g></g><g fill="rgb(32.939148%, 32.939148%, 32.939148%)" fill-opacity="1"><g transform="translate(206.828602, 277.740393)"><g><path d="M 8.96875 -1.578125 C 7.769531 -0.378906 6.378906 0.21875 4.796875 0.21875 C 3.640625 0.21875 2.726562 -0.0664062 2.0625 -0.640625 C 1.394531 -1.210938 1.0625 -1.988281 1.0625 -2.96875 C 1.0625 -5.195312 2.867188 -6.46875 6.484375 -6.78125 L 8.796875 -6.96875 C 9.046875 -7 9.171875 -7.109375 9.171875 -7.296875 L 9.171875 -7.984375 C 9.171875 -8.921875 8.875 -9.664062 8.28125 -10.21875 C 7.6875 -10.769531 6.890625 -11.046875 5.890625 -11.046875 C 4.441406 -11.046875 3.210938 -10.367188 2.203125 -9.015625 C 2.171875 -8.972656 2.132812 -8.941406 2.09375 -8.921875 C 2.0625 -8.898438 2.023438 -8.90625 1.984375 -8.9375 L 1.453125 -9.265625 C 1.378906 -9.304688 1.378906 -9.378906 1.453125 -9.484375 C 1.953125 -10.210938 2.570312 -10.789062 3.3125 -11.21875 C 4.0625 -11.65625 4.9375 -11.875 5.9375 -11.875 C 7.1875 -11.875 8.179688 -11.53125 8.921875 -10.84375 C 9.671875 -10.164062 10.046875 -9.242188 10.046875 -8.078125 L 10.046875 -0.21875 C 10.046875 -0.0703125 9.972656 0 9.828125 0 L 9.4375 0 C 9.300781 0 9.234375 -0.0664062 9.234375 -0.203125 L 9.203125 -1.546875 C 9.179688 -1.617188 9.148438 -1.65625 9.109375 -1.65625 C 9.078125 -1.664062 9.03125 -1.640625 8.96875 -1.578125 Z M 9.171875 -5.859375 C 9.171875 -6.085938 9.066406 -6.1875 8.859375 -6.15625 L 6.90625 -6 C 5.207031 -5.875 3.960938 -5.5625 3.171875 -5.0625 C 2.378906 -4.570312 1.984375 -3.894531 1.984375 -3.03125 C 1.984375 -2.28125 2.25 -1.6875 2.78125 -1.25 C 3.320312 -0.820312 4.035156 -0.609375 4.921875 -0.609375 C 5.453125 -0.609375 5.976562 -0.703125 6.5 -0.890625 C 7.019531 -1.085938 7.492188 -1.351562 7.921875 -1.6875 C 8.328125 -2.007812 8.632812 -2.347656 8.84375 -2.703125 C 9.0625 -3.066406 9.171875 -3.421875 9.171875 -3.765625 Z M 9.171875 -5.859375 "/></g></g></g><g fill="rgb(32.939148%, 32.939148%, 32.939148%)" fill-opacity="1"><g transform="translate(223.240597, 277.740393)"><g><path d="M 2.203125 0 C 2.066406 0 2 -0.0664062 2 -0.203125 L 2 -11.46875 C 2 -11.59375 2.054688 -11.65625 2.171875 -11.65625 L 2.640625 -11.65625 C 2.753906 -11.65625 2.8125 -11.597656 2.8125 -11.484375 L 2.8125 -9.984375 C 2.8125 -9.910156 2.828125 -9.863281 2.859375 -9.84375 C 2.890625 -9.832031 2.929688 -9.859375 2.984375 -9.921875 C 3.648438 -10.628906 4.25 -11.128906 4.78125 -11.421875 C 5.320312 -11.722656 5.890625 -11.875 6.484375 -11.875 C 7.003906 -11.875 7.265625 -11.800781 7.265625 -11.65625 L 7.265625 -11.09375 C 7.265625 -11.019531 7.226562 -10.984375 7.15625 -10.984375 C 7.101562 -10.984375 7.03125 -10.984375 6.9375 -10.984375 C 6.84375 -10.992188 6.691406 -11 6.484375 -11 C 6.015625 -11 5.492188 -10.851562 4.921875 -10.5625 C 4.347656 -10.269531 3.863281 -9.890625 3.46875 -9.421875 C 3.070312 -8.960938 2.875 -8.5 2.875 -8.03125 L 2.875 -0.203125 C 2.875 -0.0664062 2.8125 0 2.6875 0 Z M 2.203125 0 "/></g></g></g><g fill="rgb(32.939148%, 32.939148%, 32.939148%)" fill-opacity="1"><g transform="translate(235.64907, 277.740393)"><g><path d="M 2.15625 -5.28125 C 2.15625 -4.457031 2.351562 -3.6875 2.75 -2.96875 C 3.144531 -2.25 3.679688 -1.675781 4.359375 -1.25 C 5.035156 -0.820312 5.773438 -0.609375 6.578125 -0.609375 C 8.328125 -0.609375 9.609375 -1.289062 10.421875 -2.65625 C 10.492188 -2.78125 10.578125 -2.8125 10.671875 -2.75 L 11.171875 -2.421875 C 11.265625 -2.359375 11.273438 -2.285156 11.203125 -2.203125 C 10.191406 -0.585938 8.648438 0.21875 6.578125 0.21875 C 5.535156 0.21875 4.609375 -0.03125 3.796875 -0.53125 C 2.984375 -1.03125 2.351562 -1.726562 1.90625 -2.625 C 1.457031 -3.53125 1.234375 -4.566406 1.234375 -5.734375 C 1.234375 -7.003906 1.457031 -8.097656 1.90625 -9.015625 C 2.363281 -9.941406 2.992188 -10.648438 3.796875 -11.140625 C 4.609375 -11.628906 5.535156 -11.875 6.578125 -11.875 C 8.128906 -11.875 9.351562 -11.359375 10.25 -10.328125 C 11.15625 -9.296875 11.609375 -7.863281 11.609375 -6.03125 L 11.609375 -5.921875 C 11.609375 -5.816406 11.585938 -5.734375 11.546875 -5.671875 C 11.515625 -5.617188 11.441406 -5.59375 11.328125 -5.59375 L 2.28125 -5.59375 C 2.195312 -5.59375 2.15625 -5.488281 2.15625 -5.28125 Z M 10.3125 -6.375 C 10.457031 -6.375 10.554688 -6.394531 10.609375 -6.4375 C 10.660156 -6.488281 10.6875 -6.570312 10.6875 -6.6875 C 10.6875 -7.488281 10.519531 -8.222656 10.1875 -8.890625 C 9.851562 -9.566406 9.375 -10.09375 8.75 -10.46875 C 8.125 -10.851562 7.394531 -11.046875 6.5625 -11.046875 C 5.632812 -11.046875 4.835938 -10.816406 4.171875 -10.359375 C 3.515625 -9.910156 3.015625 -9.328125 2.671875 -8.609375 C 2.328125 -7.890625 2.160156 -7.144531 2.171875 -6.375 Z M 10.3125 -6.375 "/></g></g></g></svg>