<svg fill="none" viewBox="0 0 488 149" xmlns="http://www.w3.org/2000/svg"><g fill="#fff"><path d="M21.9 148.4h-1A19.9 19.9 0 0 1 2.7 120c.9-1.8 2-3.4 3.2-4.8l27-29.9a19.5 19.5 0 0 0 5-13.7 19.5 19.5 0 0 0-5.7-13.5L8.6 34.6A19.8 19.8 0 0 1 36.2 6.2l55.4 52.2A21 21 0 0 1 96 65a20 20 0 0 1-4.2 22l-56.4 55.7a19.6 19.6 0 0 1-13.6 5.8z"/><path d="M106.3 148.4h-1a20 20 0 0 1-19.8-22.9 19.7 19.7 0 0 1 4.9-10.2l26.9-29.9a19.5 19.5 0 0 0 5-13.7 19.6 19.6 0 0 0-5.7-13.5L93 34.6a19.8 19.8 0 0 1 27.7-28.4L176 58.4a19 19 0 0 1 5.2 8.3 20.2 20.2 0 0 1-.5 13.7 18.7 18.7 0 0 1-4.4 6.5L120 142.6a19.7 19.7 0 0 1-13.7 5.8zM218 50h11.5v28h14.9v8.4H218zM248.2 50h26.5v7.7h-15v6.6h12.6v7h-12.6v7.3h15v7.8h-26.5zM279.4 50h26.2v8h-14.7V65h12v7h-12v14.3h-11.5zM328.5 86.4H317V58h-10.2v-8h32v8h-10.3zM352 50h11.5v28h14.8v8.4H352zM403.6 78.4H393l-2 8h-11.7L391 50h15l11.3 36.4h-11.8zM398.2 58l-3.8 13.4h7.6L398.5 58zM431.1 71.7v14.7h-10.6V50h10.8l9.6 14.7c1.5 2.2 2.6 4 3.3 5.5h.2V50H455v36.4h-10.8l-10-15.3-2.8-4.4h-.2zM461 50h26.5v7.7h-15v6.6h12.6v7h-12.6v7.3h15v7.8H461zM282.8 107.9a4.9 4.9 0 0 0-2-1.6 6 6 0 0 0-2.7-.6c-1.3 0-2.3.2-3.1.8-.8.6-1.2 1.3-1.2 2.2 0 .6.2 1 .6 1.5.4.5 1.2.9 2.2 1.2l4 1.3c1.1.3 2 .8 2.5 1.5.6.6.9 1.3.9 2.2 0 .8-.3 1.5-.8 2.2-.5.7-1.2 1.2-2.1 1.5a8 8 0 0 1-6.8-.4c-1.2-.5-2-1.3-2.5-2.3v-.3l.7-.4h.3c.5 1 1.2 1.7 2.1 2.2.9.4 2 .7 3.2.7a6 6 0 0 0 3.3-.9c.9-.5 1.3-1.3 1.3-2.2 0-.6-.2-1.2-.8-1.7-.5-.4-1.4-.9-2.6-1.2l-3-1c-1.4-.4-2.4-.9-3-1.5a3 3 0 0 1-.8-2.1c0-1.3.6-2.4 1.6-3.2 1-.8 2.4-1.2 4-1.2 1.3 0 2.4.2 3.3.7 1 .4 1.8 1 2.3 2 .1 0 .1.1 0 .2l-.6.4h-.3zM300.5 120.7a7 7 0 0 1-3.8-1c-1-.7-1.9-1.6-2.4-2.8a9.5 9.5 0 0 1-1-4.2c0-1.6.4-3 1-4.2a6.8 6.8 0 0 1 6.3-4 6.8 6.8 0 0 1 6.1 4 9.4 9.4 0 0 1 0 8.4 6.8 6.8 0 0 1-2.5 2.8c-1 .7-2.3 1-3.7 1zm0-1.1c1.9 0 3.3-.6 4.3-2 1-1.2 1.6-2.9 1.6-5 0-1.3-.2-2.6-.7-3.6-.5-1-1.2-1.9-2-2.4-1-.6-2-1-3.2-1a5.5 5.5 0 0 0-5.2 3.4c-.5 1-.7 2.3-.7 3.6 0 1.4.2 2.6.7 3.7.5 1 1.2 1.8 2.1 2.4 1 .6 2 .9 3.2.9zM325.1 104.9l.2.1v.7c0 .1 0 .2-.2.2h-3.9c-.1 0-.2 0-.2.2v14c0 .2 0 .3-.2.3h-.7c-.2 0-.3-.1-.3-.3v-14l-.1-.2h-3.4c-.1 0-.2 0-.2-.2v-.7l.2-.1h3.3c.2 0 .2-.1.2-.3v-2.3c0-1.3.3-2.2.8-2.8.6-.6 1.4-.9 2.5-.9h2.2l.1.2v.7c0 .1 0 .2-.2.2H323c-.8 0-1.2.2-1.5.5-.3.4-.4 1-.4 1.8v2.6c0 .2 0 .3.2.3zM337.4 105.9c-.1 0-.2 0-.2.2v10.6c0 1 .1 1.8.4 2.1.3.4.8.6 1.4.6h2.3c.2 0 .3 0 .3.2v.5l-.2.2h-2.3c-1.1 0-2-.2-2.4-.7-.5-.5-.7-1.4-.7-2.7V106c0-.2 0-.2-.2-.2h-2.7c-.1 0-.2 0-.2-.2v-.7l.2-.1h2.7c.2 0 .2-.1.2-.3l.3-4.7c0-.2 0-.3.2-.3h.4c.2 0 .3 0 .3.3v4.7c0 .2 0 .3.2.3h4l.3.1v.7l-.2.2zM370.4 104.9h.2v.2l-4.3 15c0 .2-.2.3-.5.3h-.8c-.3 0-.4-.1-.5-.3l-4.1-12.8-.1-.2-.2.2-3.8 12.8c0 .2-.2.3-.5.3h-.9c-.2 0-.4-.1-.5-.3l-4.6-15c0-.2.1-.2.3-.2h.7c.1 0 .2 0 .3.2l4 13.3.3.3.2-.3 4-13.4.3-.1h.7c.2 0 .3 0 .4.2l4.2 13.3.2.3s.2 0 .2-.3l4-13.3c0-.2.1-.2.3-.2zM389.8 118.3a7.6 7.6 0 0 1-5.6 2.4c-1.5 0-2.7-.4-3.6-1.2a3.9 3.9 0 0 1-1.4-3c0-3 2.4-4.7 7.3-5.1l3-.3c.4 0 .6-.2.6-.4v-1c0-1.2-.4-2.2-1.2-3a4.5 4.5 0 0 0-3.2-1c-2 0-3.6.9-5 2.7v.1h-.2l-.7-.5v-.3a6.8 6.8 0 0 1 6-3.2c1.6 0 3 .5 4 1.4 1 1 1.4 2.2 1.4 3.7v10.5c0 .2 0 .3-.3.3h-.5c-.2 0-.3-.1-.3-.3v-1.8l-.1-.1h-.2zm.3-5.7c0-.3-.2-.5-.5-.4l-2.6.2c-2.2.2-3.9.6-5 1.2a3 3 0 0 0-1.5 2.8 3 3 0 0 0 1 2.3c.8.6 1.7.9 2.9.9a7.1 7.1 0 0 0 4-1.4 5 5 0 0 0 1.2-1.4c.3-.5.5-1 .5-1.4zM402.6 120.4c-.1 0-.2-.1-.2-.3v-15c0-.2 0-.2.2-.2h.6c.2 0 .3 0 .3.2v2.2l.2-.1c.9-1 1.7-1.6 2.4-2 .7-.4 1.5-.6 2.3-.6.6 0 1 0 1 .3v.7l-.1.1H408.4c-.7 0-1.4.2-2.1.6-.8.4-1.4 1-2 1.5-.5.6-.8 1.3-.8 1.9V120c0 .2 0 .3-.2.3zM419.1 113.4a6.2 6.2 0 0 0 3 5.3c.9.6 1.9.9 3 .9 2.3 0 4-1 5-2.7.1-.2.3-.3.4-.2l.7.5v.3a6.8 6.8 0 0 1-6.2 3.2 6.8 6.8 0 0 1-6.2-3.8 9.2 9.2 0 0 1-.9-4.2c0-1.6.3-3.1.9-4.3a6.7 6.7 0 0 1 2.5-2.9 7 7 0 0 1 3.7-1c2 0 3.7.7 5 2.1a8.4 8.4 0 0 1 1.7 5.8v.4l-.3.1h-12.1c-.1 0-.2.2-.2.5zm10.9-1.5h.4l.1-.4c0-1-.2-2-.7-3a5 5 0 0 0-1.9-2c-.8-.6-1.8-.8-2.9-.8-1.2 0-2.3.3-3.2.9-.9.6-1.5 1.4-2 2.3s-.7 2-.6 3z"/></g></svg>
