<svg viewBox="0 0 175 32" xmlns="http://www.w3.org/2000/svg"><path fill="#fff" d="M43 1h8.5v4.3C53.5 2 56.9 0 61.7 0c7.5 0 11.2 4.8 11.2 14v17h-8.7V14.6c0-4.4-2.2-7-6-7-4.1 0-6.7 3.2-6.7 8.2V31h-8.6zM76.4 16c0-9.4 6.6-16 16-16 9.5 0 16.2 6.6 16.2 16 0 9.3-6.7 16-16.1 16-9.5 0-16-6.7-16-16zm23.5 0c0-5-3-8.6-7.4-8.6S85 11 85 16s3.1 8.6 7.5 8.6 7.4-3.6 7.4-8.6zM142 31h-8.5v-4.3c-2 3.3-5.4 5.3-10.2 5.3-7.6 0-11.2-4.8-11.2-14V1h8.7v16.5c0 4.4 2.2 7 5.9 7 4.1 0 6.8-3.2 6.8-8.1V.9h8.5zM146.2 21.4h8.6c0 3 2.7 4.6 6.3 4.6 3.3 0 5.2-1.6 5.2-3.4 0-6.1-19.3 0-19.3-12.7 0-6 5.3-9.9 14.2-9.9 8 0 13.1 4 13.7 10.7h-8.5c-.2-3-2.3-4.7-5.7-4.7-3.2 0-5 1.4-5 3.6 0 5.8 19.2-.4 19.2 12.7 0 6-5.3 9.7-14 9.7-9 0-14.5-4-14.7-10.6zM0 31h30.7V15.7a15.3 15.3 0 0 0-30.7 0z"/></svg>
