<svg fill="none" height="59" width="232" viewBox="0 0 232 59" xmlns="http://www.w3.org/2000/svg"><g fill="#fff"><path d="M65.5 46.5V14.2H76c2.2 0 4.1.3 5.8 1 1.6.7 2.9 1.8 3.8 3.4 1 1.5 1.4 3.5 1.4 6s-.5 4.5-1.4 6.1a8.1 8.1 0 0 1-3.8 3.4 15 15 0 0 1-5.8 1h-6v11.4zM70 31.3h5.4c2.3 0 4.1-.6 5.3-1.6 1.2-1.1 1.8-2.8 1.8-5s-.6-4-1.7-5-3-1.6-5.4-1.6H70zM98.5 47a9 9 0 0 1-4.5-1.1 7 7 0 0 1-2.9-3.3c-.6-1.4-1-3.3-1-5.6V24h4.2v12c0 2.4.4 4.2 1.2 5.5a4.7 4.7 0 0 0 4 1.9c1.4 0 2.5-.3 3.6-1a4.8 4.8 0 0 0 2.3-3l-.6 2.3V24h4.2v22.6h-3.7l-.9-4.4 1.1.7a8.2 8.2 0 0 1-2.7 3.1c-1.1.7-2.5 1-4.3 1zm21.6 0c-1.5 0-2.7-.3-3.5-.8-.9-.6-1.5-1.3-1.8-2s-.6-1.8-.6-2.7V12h4.2v27c0 1.3 0 2.3.2 3 .2.6.5 1 1 1.2.6.2 1.3.3 2.4.3l-.6 3.4zm10.5 0c-1.4 0-2.6-.3-3.5-.8a4.7 4.7 0 0 1-1.8-2c-.4-1-.5-1.8-.5-2.7V12h4.1v27c0 1.3.1 2.3.3 3s.5 1 1 1.2a7 7 0 0 0 2.4.3L132 47zm6.3-.5V27H133l.6-3.2h3.3v-5.4a7 7 0 0 1 1.7-4.8c1-1.2 2.6-1.8 4.7-1.8a11 11 0 0 1 3.6.6l-.6 3.5a6 6 0 0 0-2.3-.4c-1 0-1.6.2-2.1.7-.6.5-.8 1.3-.8 2.5v5h6V27h-6v19.4zm19.2.5c-1.4 0-2.6-.3-3.5-.8a4.7 4.7 0 0 1-1.8-2c-.4-1-.5-1.8-.5-2.7V12h4.1v27c0 1.3 0 2.3.3 3s.5 1 1 1.2a7 7 0 0 0 2.4.3l-.6 3.4zm14.4 0c-2.4 0-4.4-.6-6-1.6-1.7-1-3-2.5-3.9-4.3-.9-1.7-1.3-3.7-1.3-6 0-2.1.4-4 1.3-5.9a10.4 10.4 0 0 1 10-5.8c2.3 0 4.3.5 6 1.6 1.6 1 3 2.5 3.8 4.2a13 13 0 0 1 1.3 6c0 2.2-.4 4.2-1.3 6a10.4 10.4 0 0 1-9.9 5.8zm0-3.7c2.3 0 4-.7 5.2-2.2a9 9 0 0 0 1.8-6 9 9 0 0 0-1.8-5.9c-1.2-1.4-3-2.1-5.2-2.1s-4 .7-5.2 2.1a8.9 8.9 0 0 0-1.8 6 9 9 0 0 0 1.8 6c1.3 1.4 3 2 5.2 2zm19.5 3.2-6.8-22.6h4.9l4.3 18 4.8-17.3h4.3l4.9 17.3 4.3-18h4.9l-6.8 22.6H204l-4.7-16.7-4.8 16.7zM37.7 47l18.5-16.1-18.5-16.1h-7l18.5 16L30.9 47z"/><path d="M30.3 47 11.8 30.8l18.5-16.1h6.9l-18.5 16L37.2 47z"/></g></svg>
