<svg fill="none" height="368" width="1447" xmlns="http://www.w3.org/2000/svg"><clipPath id="a"><path d="M72 12h1274v350H72z"/></clipPath><g clip-path="url(#a)"><path d="M408.3 290V88.4H475c13.5 0 25.4 2.2 35.7 6.5s18.2 11.3 23.9 20.9a73.3 73.3 0 0 1 8.6 38c0 15.4-2.9 28-8.6 37.7-5.7 9.6-13.6 16.7-24 21.2s-22 6.7-35.6 6.7h-38V290zm28.8-95h33.7c14.7 0 25.7-3.4 33-10 7.4-6.7 11.1-17 11.1-31s-3.5-24.3-10.5-31c-7-6.8-18.1-10.1-33.6-10.1h-33.7zm177.4 97.9a57 57 0 0 1-28.3-6.6 43.6 43.6 0 0 1-17.8-20.5 87 87 0 0 1-6-34.8v-82.1h25.9v74.9c0 15 2.5 26.4 7.6 34.2 5.2 7.9 13.6 11.8 25.2 11.8 8 0 15.3-1.9 22.2-5.7s11.5-10 14-18.5l-3.7 14.2v-111h26V290h-23l-5.3-27.6 7 4.6a51.2 51.2 0 0 1-17.3 19.5 49.2 49.2 0 0 1-26.5 6.4zm134.4 0c-9.1 0-16.4-1.7-21.8-5-5.2-3.3-9-7.5-11.3-12.7s-3.5-10.6-3.5-16.3V74h26v170c0 8 .5 14 1.5 18s3.2 6.8 6.3 8.1c3.3 1.4 8.3 2 14.9 2l-3.8 20.8zm65.8 0c-9 0-16.3-1.7-21.7-5-5.3-3.3-9-7.5-11.4-12.7s-3.4-10.6-3.4-16.3V74H804v170c0 8 .5 14 1.6 18s3.1 6.8 6.3 8.1a40 40 0 0 0 14.8 2l-3.7 20.8zm39.4-2.9V169h-24.5l3.5-20.1h21v-33.4c0-12.6 3.3-22.6 10-30.1C871 77.8 880.9 74 893.9 74a68.2 68.2 0 0 1 22.5 3.7l-4 22A37.7 37.7 0 0 0 898 97c-5.6 0-10 1.6-13.1 4.8-3.2 3-4.8 8.2-4.8 15.4v31.7h38V169h-38v121zm119.6 2.9a41 41 0 0 1-21.7-5c-5.3-3.3-9.1-7.5-11.4-12.7s-3.5-10.6-3.5-16.3V74h26v170c0 8 .5 14 1.5 18s3.2 6.8 6.4 8.1c3.2 1.4 8.2 2 14.8 2l-3.7 20.8zm89.8 0a70.1 70.1 0 0 1-37.9-9.8 66.3 66.3 0 0 1-23.9-26.5c-5.5-11.1-8.2-23.5-8.2-37.2s2.7-26 8.2-37a65 65 0 0 1 61.8-36.4c14.7 0 27.3 3.3 37.7 10a63.8 63.8 0 0 1 24 26.4c5.5 11 8.3 23.4 8.3 37s-2.8 26-8.4 37.2a65 65 0 0 1-23.9 26.5 69.9 69.9 0 0 1-37.7 9.8zm0-23c14 0 24.8-4.5 32.3-13.3 7.4-9 11.2-21.3 11.2-37.2s-3.8-28.1-11.2-37a40 40 0 0 0-32.3-13.4 40 40 0 0 0-32.3 13.4c-7.5 8.9-11.2 21.2-11.2 37s3.8 28.3 11.2 37.2a40.2 40.2 0 0 0 32.3 13.2zm121.3 20.1-42.3-141.1h30.5l27 112.6 30-108.3h26.8l30.2 108.3 27.1-112.6h30.5L1302 290h-29l-29.4-104.3-29.7 104.3zm-949.7 2.8 115.2-100.4L235.1 92.1H192l115.2 100.3L192 292.8z" fill="#d6bcfa"/><path d="M188.9 292.8 73.7 192.4 188.9 92.1H232L116.8 192.4 232 292.8z" fill="#ecdeff"/></g></svg>
