<svg width="471" height="135" viewBox="0 0 471 135" fill="none" xmlns="http://www.w3.org/2000/svg">
<path d="M188.895 94.1521C194.228 94.1521 198.425 92.9621 201.485 90.5821C202.983 89.4303 204.182 87.9351 204.981 86.2225C205.78 84.5098 206.155 82.6302 206.075 80.7421C206.138 78.7936 205.66 76.8657 204.695 75.1722C203.601 73.4727 202.052 72.1144 200.225 71.2521C197.529 69.9085 194.687 68.8816 191.755 68.1921C188.421 67.3521 185.911 66.6321 184.225 66.0321C182.969 65.6498 181.808 65.0095 180.815 64.1521C180.216 63.5027 179.893 62.6455 179.915 61.7621C179.909 60.9755 180.123 60.2029 180.53 59.5302C180.938 58.8575 181.525 58.3111 182.225 57.9521C184.057 56.9514 186.145 56.5164 188.225 56.7021C190.485 56.712 192.69 57.4095 194.545 58.7021C195.685 59.5121 196.553 60.6487 197.035 61.9621C197.155 62.3616 197.412 62.7056 197.762 62.9327C198.112 63.1598 198.531 63.2552 198.945 63.2021L204.395 62.2021C204.582 62.1735 204.761 62.1071 204.921 62.007C205.081 61.9069 205.219 61.775 205.327 61.6197C205.435 61.4643 205.509 61.2886 205.547 61.1033C205.584 60.918 205.584 60.7271 205.545 60.5422C204.826 57.4193 202.936 54.6915 200.265 52.9222C196.683 50.541 192.443 49.3479 188.145 49.5121C183.185 49.5121 179.185 50.6754 176.145 53.0021C174.7 54.0565 173.534 55.4473 172.748 57.0539C171.962 58.6605 171.58 60.4344 171.635 62.2221C171.582 64.0743 172.043 65.9049 172.965 67.5121C174.119 69.1514 175.689 70.4529 177.515 71.2821C180.299 72.5799 183.203 73.6047 186.185 74.3421C189.518 75.2354 191.988 75.9787 193.595 76.5721C194.808 76.9205 195.906 77.5868 196.775 78.5021C197.325 79.246 197.601 80.1577 197.555 81.0821C197.586 81.9287 197.401 82.7693 197.018 83.5249C196.635 84.2806 196.066 84.9266 195.365 85.4021C193.579 86.5424 191.48 87.0916 189.365 86.9721C186.863 87.0608 184.391 86.4029 182.265 85.0821C180.824 84.1518 179.709 82.7955 179.075 81.2021C178.944 80.8401 178.696 80.5327 178.369 80.3295C178.043 80.1263 177.657 80.0391 177.275 80.0821L171.785 80.9322C171.587 80.9573 171.397 81.024 171.227 81.1278C171.057 81.2317 170.911 81.3704 170.799 81.5348C170.686 81.6992 170.61 81.8856 170.575 82.0816C170.54 82.2776 170.546 82.4789 170.595 82.6722C171.426 85.9658 173.427 88.8446 176.225 90.7721C179.518 93.0321 183.741 94.1588 188.895 94.1521Z" fill="white"/>
<path d="M218.635 91.5121C218.635 91.9125 218.794 92.2966 219.077 92.5798C219.36 92.863 219.744 93.0221 220.145 93.0221H225.395C225.795 93.0221 226.179 92.863 226.462 92.5798C226.746 92.2966 226.905 91.9125 226.905 91.5121V70.972C226.787 68.2307 227.283 65.4978 228.355 62.972C229.179 61.1506 230.549 59.6305 232.275 58.622C233.925 57.7268 235.777 57.269 237.655 57.2921C239.578 57.2107 241.485 57.6864 243.145 58.6621C244.53 59.5548 245.652 60.801 246.395 62.2721C247.166 63.7979 247.683 65.4395 247.925 67.1321C248.208 68.8038 248.352 70.4963 248.355 72.192V91.5121C248.357 91.9117 248.517 92.2943 248.8 92.5769C249.082 92.8595 249.465 93.0194 249.865 93.0221H255.165C255.564 93.0194 255.947 92.8595 256.23 92.5769C256.512 92.2943 256.672 91.9117 256.675 91.5121V69.5121C256.658 67.989 256.537 66.4688 256.315 64.962C256.061 63.1564 255.615 61.3831 254.985 59.6721C254.326 57.8531 253.359 56.1616 252.125 54.6721C250.821 53.0761 249.168 51.8001 247.295 50.942C244.972 49.9337 242.455 49.4523 239.925 49.5321C237.117 49.48 234.332 50.0432 231.765 51.1821C230.639 51.7071 229.573 52.3507 228.585 53.102C228.352 53.2807 228.076 53.3947 227.786 53.4322C227.495 53.4698 227.199 53.4296 226.929 53.3158C226.659 53.202 226.423 53.0187 226.247 52.7844C226.07 52.5501 225.959 52.2732 225.925 51.982V51.982C225.925 51.6346 225.787 51.3014 225.541 51.0558C225.295 50.8101 224.962 50.6721 224.615 50.6721H220.105C219.906 50.6708 219.709 50.7089 219.525 50.7843C219.341 50.8597 219.174 50.9708 219.034 51.1113C218.894 51.2518 218.782 51.4188 218.707 51.6026C218.631 51.7864 218.593 51.9834 218.595 52.1821L218.635 91.5121Z" fill="white"/>
<path d="M282.815 94.192C287.721 94.192 291.755 92.8954 294.915 90.3021C296.025 89.3821 298.065 90.1021 298.065 91.5421C298.065 91.9346 298.221 92.311 298.498 92.5886C298.776 92.8661 299.152 93.022 299.545 93.022H303.815C304.214 93.0194 304.597 92.8595 304.88 92.5769C305.162 92.2942 305.322 91.9117 305.325 91.512V66.942C305.331 65.2723 305.25 63.6034 305.085 61.942C304.936 60.4152 304.513 58.928 303.835 57.5521C302.588 54.8213 300.381 52.6435 297.635 51.4321C294.527 50.0509 291.155 49.3682 287.755 49.4321C282.868 49.4321 278.945 50.5054 275.985 52.6521C273.457 54.4647 271.537 56.9988 270.475 59.9221C270.412 60.1077 270.389 60.3042 270.406 60.4993C270.423 60.6944 270.481 60.8839 270.575 61.0557C270.668 61.2276 270.797 61.3782 270.952 61.498C271.107 61.6178 271.285 61.7043 271.475 61.752L276.275 63.232C276.673 63.3376 277.096 63.2942 277.464 63.1101C277.832 62.9259 278.12 62.6137 278.275 62.232C278.966 60.6745 280.136 59.3782 281.615 58.5321C283.484 57.4865 285.593 56.9454 287.735 56.962C291.028 56.962 293.408 57.6687 294.875 59.082C296.218 60.4593 297.035 62.2641 297.185 64.1821C297.224 64.5544 297.115 64.927 296.881 65.2192C296.647 65.5113 296.307 65.6993 295.935 65.742C292.935 66.152 290.045 66.5921 287.185 67.0421C284.272 67.46 281.39 68.0645 278.555 68.852C275.672 69.6499 273.084 71.269 271.105 73.512C269.344 75.7555 268.44 78.5526 268.555 81.4021C268.537 83.6219 269.091 85.8088 270.165 87.752C271.316 89.7084 272.984 91.3102 274.985 92.382C277.406 93.6207 280.096 94.2424 282.815 94.192ZM284.265 87.492C281.645 87.492 279.715 86.8821 278.455 85.6821C277.869 85.1369 277.402 84.4757 277.086 83.7406C276.769 83.0054 276.608 82.2125 276.615 81.4121C276.573 80.6643 276.699 79.9167 276.985 79.2243C277.27 78.532 277.708 77.9127 278.265 77.4121C279.501 76.3794 280.923 75.5919 282.455 75.092C284.518 74.5075 286.615 74.05 288.735 73.722C290.735 73.402 292.951 73.0687 295.385 72.722C295.602 72.6854 295.824 72.6983 296.035 72.7597C296.246 72.8211 296.441 72.9294 296.604 73.0765C296.768 73.2236 296.896 73.4058 296.979 73.6093C297.062 73.8129 297.098 74.0325 297.085 74.252C297.085 74.742 297.015 75.2521 296.965 75.7921C296.888 76.9126 296.666 78.0184 296.305 79.082C295.949 80.5492 295.265 81.9167 294.305 83.082C293.228 84.43 291.861 85.5172 290.305 86.262C288.411 87.1259 286.345 87.5465 284.265 87.492V87.492Z" fill="white"/>
<path d="M319.395 110.332C319.397 110.732 319.557 111.114 319.84 111.397C320.122 111.68 320.505 111.839 320.905 111.842H326.125C326.524 111.839 326.907 111.68 327.189 111.397C327.472 111.114 327.632 110.732 327.635 110.332V93.4122C327.662 93.1058 327.766 92.8112 327.938 92.5558C328.109 92.3004 328.342 92.0924 328.615 91.9509C328.888 91.8093 329.193 91.7389 329.5 91.7461C329.808 91.7534 330.109 91.8379 330.375 91.9921C331.141 92.4286 331.944 92.7967 332.775 93.0921C334.873 93.8528 337.093 94.2255 339.325 94.1921C342.943 94.2884 346.503 93.2614 349.515 91.2521C352.415 89.242 354.708 86.475 356.145 83.2521C357.757 79.6678 358.56 75.7719 358.495 71.8421C358.566 67.9117 357.763 64.0145 356.145 60.4322C354.704 57.188 352.379 54.4154 349.435 52.4322C346.394 50.4226 342.808 49.3962 339.165 49.4921C336.745 49.4556 334.343 49.9114 332.105 50.8321C330.91 51.3174 329.779 51.9452 328.735 52.7021C328.55 52.8256 328.336 52.8993 328.114 52.9159C327.893 52.9326 327.67 52.8916 327.469 52.797C327.268 52.7025 327.095 52.5575 326.966 52.3761C326.837 52.1948 326.757 51.9833 326.735 51.7621V51.7621C326.735 51.6181 326.706 51.4756 326.651 51.3427C326.595 51.2098 326.514 51.0892 326.412 50.9878C326.31 50.8865 326.188 50.8064 326.055 50.7522C325.921 50.6981 325.779 50.6708 325.635 50.6722H320.945C320.544 50.6722 320.16 50.8313 319.877 51.1144C319.594 51.3976 319.435 51.7817 319.435 52.1822L319.395 110.332ZM338.185 86.7822C334.185 86.7822 331.235 85.3821 329.395 82.5821C327.555 79.7821 326.695 76.1922 326.695 71.8022C326.695 67.4122 327.595 63.8022 329.395 61.0522C331.195 58.3022 334.035 56.9022 337.905 56.9022C340.302 56.7998 342.665 57.504 344.615 58.9022C346.402 60.2777 347.75 62.1436 348.495 64.2721C349.391 66.6799 349.832 69.2333 349.795 71.8022C349.829 74.3935 349.403 76.9703 348.535 79.4122C347.793 81.5318 346.461 83.3951 344.695 84.7822C342.809 86.1628 340.509 86.8579 338.175 86.7521L338.185 86.7822Z" fill="white"/>
<path d="M371.855 91.5121C371.855 91.9126 372.014 92.2967 372.297 92.5798C372.58 92.863 372.964 93.0221 373.365 93.0221H378.545C378.943 93.0195 379.325 92.8592 379.606 92.5763C379.887 92.2934 380.045 91.9108 380.045 91.5121V36.8721C380.045 36.4733 379.887 36.0908 379.606 35.8079C379.325 35.525 378.943 35.3647 378.545 35.3621H373.395C372.994 35.3621 372.61 35.5211 372.327 35.8043C372.044 36.0875 371.885 36.4716 371.885 36.8721L371.855 91.5121Z" fill="white"/>
<path d="M414.535 94.192C418.48 94.2389 422.357 93.1638 425.715 91.092C428.586 89.3067 430.924 86.7819 432.485 83.7821C432.574 83.595 432.623 83.3906 432.626 83.1831C432.629 82.9756 432.588 82.7699 432.504 82.58C432.421 82.39 432.297 82.2204 432.142 82.0826C431.986 81.9449 431.803 81.8424 431.605 81.7821L426.415 80.1421C426.063 80.0385 425.687 80.0571 425.347 80.1952C425.007 80.3332 424.724 80.5825 424.545 80.9021C422.345 84.6221 418.878 86.4854 414.145 86.4921C412.597 86.5738 411.05 86.3294 409.603 85.7747C408.155 85.2199 406.841 84.3674 405.745 83.2721C403.888 81.1653 402.719 78.5415 402.395 75.7521C402.367 75.5468 402.385 75.3381 402.445 75.1401C402.506 74.9421 402.609 74.7596 402.746 74.6049C402.884 74.4501 403.053 74.3268 403.243 74.2435C403.432 74.1602 403.638 74.1188 403.845 74.1221H432.345C432.729 74.1275 433.099 73.9815 433.376 73.7157C433.653 73.4499 433.814 73.0858 433.825 72.702C434.014 68.7092 433.381 64.7201 431.965 60.9821C430.643 57.5103 428.273 54.536 425.185 52.472C421.899 50.3985 418.068 49.3538 414.185 49.472C410.374 49.3891 406.614 50.3542 403.315 52.2621C400.182 54.1383 397.652 56.8728 396.025 60.1421C394.224 63.8809 393.337 67.9935 393.435 72.1421C393.351 76.1431 394.254 80.1032 396.065 83.6721C397.77 86.886 400.336 89.5623 403.475 91.4021C406.85 93.2923 410.666 94.2548 414.535 94.192V94.192ZM414.455 56.7421C420.355 56.7421 423.905 59.8554 425.105 66.082C425.142 66.2905 425.132 66.5045 425.076 66.7087C425.021 66.913 424.92 67.1023 424.783 67.2631C424.645 67.4238 424.473 67.5519 424.28 67.6382C424.086 67.7245 423.876 67.7668 423.665 67.7621H404.125C403.91 67.7666 403.697 67.7225 403.501 67.6333C403.306 67.5441 403.133 67.4119 402.995 67.2466C402.858 67.0813 402.76 66.8872 402.707 66.6787C402.655 66.4702 402.651 66.2526 402.695 66.0421C403.184 63.5819 404.4 61.3248 406.185 59.5621C408.198 57.6888 410.955 56.7521 414.455 56.7521V56.7421Z" fill="white"/>
<path d="M469.495 93.2421C469.837 93.1826 470.147 93.0029 470.369 92.7352C470.591 92.4676 470.71 92.1297 470.705 91.7821V87.7821C470.703 87.5642 470.656 87.3489 470.566 87.1505C470.476 86.9521 470.345 86.7749 470.182 86.6305C470.018 86.4861 469.826 86.3778 469.618 86.3126C469.41 86.2474 469.191 86.2268 468.975 86.2521C467.14 86.4508 465.289 86.4508 463.455 86.2521C462.54 86.181 461.656 85.8903 460.878 85.4045C460.1 84.9188 459.45 84.2525 458.985 83.462C458.456 82.4882 458.175 81.3999 458.165 80.2921C458.165 79.0321 458.165 77.5521 458.165 75.8621V58.7521C458.163 58.5543 458.201 58.3581 458.276 58.1749C458.351 57.9918 458.461 57.8253 458.6 57.6849C458.74 57.5446 458.906 57.4332 459.088 57.3572C459.271 57.2812 459.467 57.2421 459.665 57.2421H469.245C469.643 57.2394 470.025 57.0792 470.306 56.7963C470.587 56.5134 470.745 56.1308 470.745 55.7321V52.1621C470.746 51.9643 470.708 51.7681 470.633 51.585C470.559 51.4018 470.448 51.2353 470.309 51.095C470.169 50.9546 470.004 50.8432 469.821 50.7672C469.638 50.6912 469.442 50.6521 469.245 50.6521H459.665C459.266 50.6495 458.884 50.4892 458.603 50.2063C458.322 49.9234 458.165 49.5408 458.165 49.1421V40.3921C458.162 39.9924 458.002 39.6099 457.719 39.3273C457.437 39.0447 457.054 38.8847 456.655 38.8821H451.395C450.995 38.8847 450.612 39.0447 450.33 39.3273C450.047 39.6099 449.887 39.9924 449.885 40.3921V49.1421C449.882 49.5418 449.722 49.9243 449.439 50.2069C449.157 50.4895 448.774 50.6495 448.375 50.6521H443.275C442.874 50.6521 442.49 50.8112 442.207 51.0944C441.924 51.3775 441.765 51.7616 441.765 52.1621V55.7321C441.767 56.1317 441.927 56.5143 442.21 56.7969C442.492 57.0795 442.875 57.2394 443.275 57.2421H448.375C448.775 57.2421 449.159 57.4011 449.442 57.6843C449.726 57.9675 449.885 58.3516 449.885 58.7521V76.342C449.885 78.642 449.911 80.7054 449.965 82.5321C450.057 84.4009 450.566 86.2253 451.455 87.8721C452.454 89.7858 454.072 91.305 456.045 92.1821C458.209 93.1326 460.541 93.6392 462.905 93.6721C465.11 93.7411 467.317 93.5971 469.495 93.2421V93.2421Z" fill="white"/>
<path d="M29.9301 91.8C30.6701 76.28 30.64 69.6401 29.45 55.0901C28.81 47.3201 28.79 35.52 33.37 33.41C44.5 28.3 54.76 53.11 74.37 50.17C90.01 47.82 86.21 21.08 96.74 19.52C111.63 17.31 141.94 79.94 146.3 124.01C155.026 110.93 159.673 95.5537 159.65 79.8301C159.65 58.6578 151.239 38.3527 136.268 23.3817C121.297 8.41068 100.992 0 79.82 0C58.6495 0.00265195 38.3471 8.41451 23.3782 23.3853C8.40935 38.356 4.5964e-05 58.6596 4.61301e-05 79.8301C-0.0219188 100.236 7.80083 119.87 21.85 134.67C22.73 132.74 28.6601 118.68 29.9301 91.8Z" fill="white"/>
<path d="M37.1097 108.39C36.8161 108.389 36.5293 108.302 36.2842 108.141C36.0391 107.979 35.8464 107.749 35.7297 107.48C35.6474 107.297 35.6027 107.1 35.598 106.899C35.5933 106.699 35.6287 106.5 35.7024 106.313C35.776 106.127 35.8863 105.957 36.0267 105.814C36.1671 105.671 36.3348 105.557 36.5198 105.48L48.3098 100.42L35.9298 97.9C35.7361 97.8619 35.5519 97.7857 35.3879 97.6758C35.2239 97.5658 35.0834 97.4244 34.9746 97.2598C34.8657 97.0951 34.7906 96.9104 34.7538 96.7164C34.7169 96.5225 34.7189 96.3231 34.7597 96.13C34.7991 95.9369 34.8762 95.7535 34.9864 95.5902C35.0967 95.4269 35.238 95.287 35.4023 95.1783C35.5667 95.0697 35.7509 94.9945 35.9443 94.957C36.1378 94.9196 36.3367 94.9206 36.5298 94.9601L53.6097 98.4401C53.9232 98.5021 54.2087 98.6627 54.4245 98.8983C54.6404 99.1339 54.7754 99.4323 54.8098 99.75C54.8421 100.068 54.7722 100.387 54.6103 100.662C54.4485 100.938 54.2031 101.154 53.9098 101.28L37.6997 108.28C37.5123 108.356 37.3117 108.393 37.1097 108.39Z" fill="white"/>
<path fill-rule="evenodd" clip-rule="evenodd" d="M36.3796 95.6949C36.283 95.6752 36.1835 95.6746 36.0869 95.6933C35.9902 95.7121 35.8981 95.7497 35.8159 95.804C35.7338 95.8583 35.6632 95.9282 35.608 96.0099C35.5528 96.0916 35.5143 96.1834 35.4946 96.2798L35.4936 96.2851C35.4733 96.381 35.4723 96.48 35.4906 96.5763C35.5089 96.6726 35.5462 96.7643 35.6003 96.8462C35.6543 96.928 35.7241 96.9982 35.8055 97.0528C35.8869 97.1073 35.9783 97.1452 36.0747 97.1641L36.0794 97.1651L50.8093 100.163L36.8087 106.172C36.7162 106.211 36.6323 106.267 36.5621 106.339C36.4919 106.411 36.4367 106.496 36.3999 106.589C36.3632 106.682 36.3454 106.781 36.3478 106.882C36.3501 106.982 36.3725 107.081 36.4136 107.172L36.418 107.182C36.4768 107.318 36.5737 107.433 36.697 107.514C36.8204 107.596 36.9648 107.639 37.1125 107.64L37.1205 107.64C37.2203 107.641 37.3194 107.624 37.4122 107.587L53.6124 100.591L53.6136 100.591C53.7603 100.528 53.8829 100.42 53.9639 100.282C54.0445 100.145 54.0794 99.9863 54.0639 99.8283C54.0463 99.6705 53.979 99.5222 53.8715 99.4049C53.7636 99.2871 53.6208 99.2068 53.4641 99.1758L53.46 99.175L36.3796 95.6949ZM36.6799 94.2253C36.68 94.2253 36.6798 94.2252 36.6799 94.2253L53.7554 97.7043C53.7561 97.7045 53.7568 97.7046 53.7576 97.7048C54.2269 97.7982 54.6543 98.0388 54.9776 98.3917C55.3013 98.7451 55.5038 99.1926 55.5554 99.6693L55.556 99.674C55.6045 100.151 55.4995 100.63 55.2568 101.043C55.0142 101.455 54.6465 101.779 54.207 101.969C54.2066 101.969 54.2063 101.969 54.2059 101.969L37.9886 108.972L37.98 108.976C37.7013 109.088 37.4032 109.144 37.1029 109.14C36.6649 109.138 36.237 109.008 35.8713 108.767C35.5059 108.526 35.2184 108.184 35.0436 107.783C34.9215 107.51 34.8552 107.216 34.8482 106.917C34.8412 106.617 34.8942 106.318 35.0048 106.038C35.1153 105.758 35.2808 105.503 35.4913 105.289C35.7009 105.075 35.9511 104.905 36.2271 104.789L45.8102 100.677L35.7823 98.6354C35.4922 98.5779 35.2162 98.4636 34.9703 98.2988C34.7238 98.1335 34.5126 97.9209 34.3489 97.6733C34.1853 97.4258 34.0724 97.1481 34.017 96.8565C33.9617 96.5658 33.9646 96.2671 34.0254 95.9776C34.0846 95.6888 34.2 95.4146 34.3649 95.1705C34.5302 94.9256 34.7421 94.7157 34.9887 94.5527C35.2353 94.3897 35.5116 94.2769 35.8017 94.2207C36.0919 94.1645 36.3905 94.1662 36.6799 94.2253Z" fill="white"/>
<path d="M129.88 93.82H129.8L112.19 92.88C111.871 92.862 111.566 92.7427 111.32 92.5395C111.073 92.3363 110.898 92.0596 110.82 91.7499C110.742 91.4394 110.765 91.1123 110.886 90.8157C111.006 90.5192 111.218 90.2684 111.49 90.0999L126.34 80.96C126.678 80.7526 127.085 80.6876 127.471 80.7795C127.857 80.8713 128.191 81.1124 128.4 81.45C128.608 81.7884 128.672 82.1951 128.581 82.5812C128.489 82.9674 128.248 83.3013 127.91 83.51L117.15 90.14L129.96 90.83C130.157 90.8403 130.35 90.8892 130.528 90.9742C130.706 91.0592 130.866 91.1785 130.998 91.3253C131.13 91.472 131.231 91.6434 131.297 91.8295C131.363 92.0157 131.391 92.2129 131.38 92.41C131.355 92.7912 131.186 93.1486 130.908 93.4102C130.629 93.6719 130.262 93.8183 129.88 93.82V93.82Z" fill="white"/>
<path fill-rule="evenodd" clip-rule="evenodd" d="M126.863 81.8125C126.863 81.8126 126.863 81.8124 126.863 81.8125L112.016 90.9501C112.016 90.9503 112.016 90.9505 112.016 90.9507C111.924 91.0075 111.853 91.092 111.812 91.192C111.772 91.2918 111.764 91.4018 111.79 91.5062C111.816 91.6088 111.874 91.7005 111.956 91.7681C112.038 91.8356 112.139 91.8753 112.245 91.8815C112.246 91.8815 112.245 91.8815 112.245 91.8815L129.827 92.82H129.877C130.006 92.8191 130.129 92.7696 130.223 92.6816C130.315 92.5946 130.372 92.4763 130.382 92.3496C130.385 92.2859 130.375 92.2221 130.354 92.1618C130.332 92.0996 130.298 92.0425 130.254 91.9937C130.21 91.9448 130.157 91.905 130.098 91.8767C130.039 91.8485 129.974 91.8321 129.908 91.8287L129.906 91.8286L113.902 90.9665L127.384 82.6594C127.384 82.6593 127.384 82.6595 127.384 82.6594C127.497 82.5898 127.577 82.4783 127.608 82.3498C127.638 82.2217 127.617 82.0868 127.549 81.9744C127.479 81.8627 127.368 81.7829 127.24 81.7524C127.111 81.7218 126.975 81.7436 126.863 81.8125ZM129.88 93.82V94.82H129.773L112.137 93.8785L112.134 93.8784C111.602 93.8485 111.094 93.6497 110.684 93.3109C110.273 92.9723 109.981 92.5113 109.85 91.995L109.85 91.9925C109.721 91.4762 109.759 90.9324 109.959 90.4395C110.159 89.9467 110.511 89.5299 110.964 89.2497L110.966 89.2483L125.817 80.1075C126.381 79.7618 127.059 79.6536 127.703 79.8066C128.346 79.9597 128.903 80.3615 129.251 80.9242L129.253 80.9273C129.598 81.4912 129.707 82.1692 129.553 82.8127C129.4 83.4562 128.998 84.0128 128.436 84.3606L120.398 89.3135L130.012 89.8314C130.012 89.8314 130.013 89.8314 130.013 89.8314C130.341 89.8486 130.662 89.9301 130.959 90.0717C131.256 90.2133 131.522 90.4122 131.742 90.6568C131.962 90.9016 132.131 91.1872 132.24 91.4973C132.349 91.8074 132.397 92.1362 132.379 92.4647L132.378 92.4762C132.336 93.1097 132.055 93.7039 131.593 94.1389C131.13 94.5738 130.519 94.8172 129.884 94.82L129.88 93.82Z" fill="white"/>
<path d="M82.9499 104.09C80.4981 104.195 78.0809 103.483 76.0773 102.066C74.0738 100.649 72.5975 98.6068 71.88 96.26C71.797 96.0105 71.7641 95.7471 71.783 95.4849C71.802 95.2226 71.8723 94.9667 71.9903 94.7317C72.1083 94.4967 72.2714 94.2872 72.4704 94.1154C72.6694 93.9435 72.9003 93.8125 73.15 93.73C73.3995 93.647 73.6629 93.6141 73.9251 93.6331C74.1874 93.652 74.4433 93.7225 74.6783 93.8405C74.9133 93.9584 75.1228 94.1215 75.2946 94.3204C75.4665 94.5194 75.5975 94.7504 75.68 95C76.99 99 80.45 100.74 85.15 99.88C89.85 99.02 92.38 96.1501 92.29 91.9501C92.29 91.4196 92.5006 90.9108 92.8757 90.5358C93.2508 90.1607 93.7596 89.9501 94.29 89.9501C94.8204 89.9501 95.3291 90.1607 95.7042 90.5358C96.0792 90.9108 96.29 91.4196 96.29 91.9501C96.42 98.1301 92.4199 102.71 85.8599 103.95C84.896 104.082 83.9221 104.129 82.9499 104.09V104.09Z" fill="white"/>
<path fill-rule="evenodd" clip-rule="evenodd" d="M94.29 90.7001C93.9583 90.7001 93.6403 90.8318 93.406 91.0661C93.1733 91.2988 93.0418 91.614 93.04 91.9431C93.0865 94.201 92.4265 96.1584 91.075 97.6678C89.7283 99.1719 87.7539 100.166 85.285 100.618C82.8194 101.069 80.6024 100.852 78.8019 99.9301C76.9895 99.0021 75.6767 97.3989 74.9676 95.2346C74.916 95.0789 74.8343 94.9348 74.7271 94.8107C74.6198 94.6865 74.4889 94.5846 74.3418 94.5107C74.1949 94.437 74.0349 94.3929 73.8711 94.3811C73.7071 94.3693 73.5425 94.3898 73.3866 94.4417L73.3854 94.4421C73.2294 94.4937 73.085 94.5755 72.9607 94.6829C72.8363 94.7903 72.7343 94.9213 72.6606 95.0682C72.5869 95.2149 72.5429 95.3748 72.5311 95.5389C72.5192 95.7029 72.5398 95.8675 72.5916 96.0233L72.5945 96.032L72.5972 96.0407C73.2662 98.2286 74.6426 100.133 76.5104 101.454C78.3783 102.775 80.632 103.439 82.9178 103.341L82.9499 104.09L82.9801 103.341C83.9019 103.378 84.8251 103.334 85.7392 103.21C88.8719 102.614 91.345 101.232 93.018 99.3102C94.6909 97.3881 95.6015 94.8828 95.5402 91.9658L95.54 91.958V91.9501C95.54 91.6185 95.4083 91.3005 95.1738 91.0661C94.9395 90.8317 94.6216 90.7001 94.29 90.7001ZM82.9507 104.841C80.3437 104.945 77.7748 104.185 75.6442 102.678C73.5074 101.167 71.9323 98.9897 71.1652 96.4875C71.0534 96.147 71.0092 95.7881 71.035 95.4308C71.061 95.0704 71.1578 94.7185 71.32 94.3952C71.4822 94.0721 71.7065 93.7841 71.9802 93.5478C72.2536 93.3116 72.5709 93.1316 72.9139 93.0181C73.2569 92.9041 73.6189 92.859 73.9791 92.885C74.3398 92.9111 74.6917 93.008 75.0148 93.1702C75.3377 93.3323 75.6257 93.5564 75.8622 93.8302C76.0985 94.1038 76.2786 94.4213 76.3921 94.7646L76.3928 94.7666C76.9938 96.6017 78.0659 97.8681 79.4855 98.5949C80.9176 99.3281 82.7805 99.5511 85.015 99.1423C87.2461 98.734 88.8867 97.8632 89.9575 96.6672C91.0217 95.4787 91.5817 93.9044 91.5402 91.9661L91.54 91.9581V91.9501C91.54 91.2209 91.8295 90.5213 92.3454 90.0054C92.8612 89.4896 93.5608 89.2001 94.29 89.2001C95.0193 89.2001 95.7187 89.4897 96.2345 90.0054C96.7483 90.5192 97.0378 91.2154 97.04 91.9417C97.1069 95.2017 96.0826 98.0738 94.1495 100.295C92.2182 102.514 89.4177 104.041 85.9992 104.687L85.9807 104.691L85.962 104.693C84.9644 104.83 83.9568 104.879 82.9507 104.841Z" fill="white"/>
<path d="M49.4799 86.28C49.3336 86.2947 49.1863 86.2947 49.04 86.28C48.7829 86.2222 48.5398 86.1141 48.3247 85.962C48.1095 85.8099 47.9264 85.6169 47.7861 85.3939C47.6458 85.1709 47.551 84.9222 47.507 84.6625C47.4631 84.4027 47.4709 84.1368 47.53 83.88C48.53 79.6 54 72.95 60.77 71.88C67.54 70.81 74.4499 75.88 75.5899 79.76C75.6652 80.0121 75.69 80.2766 75.6628 80.5383C75.6356 80.8 75.5571 81.0538 75.4317 81.2851C75.3063 81.5164 75.1365 81.7208 74.932 81.8863C74.7275 82.0519 74.4923 82.1755 74.24 82.25C73.9878 82.3252 73.7233 82.35 73.4616 82.3229C73.1999 82.2957 72.9461 82.2172 72.7148 82.0918C72.4835 81.9664 72.2792 81.7965 72.1136 81.592C71.948 81.3875 71.8245 81.1523 71.75 80.9C71.19 78.98 66.29 75.0501 61.4 75.8301C56.51 76.6101 52.12 81.7001 51.4 84.8301C51.2806 85.2474 51.0287 85.6144 50.6823 85.876C50.336 86.1375 49.914 86.2794 49.4799 86.28Z" fill="white"/>
<path d="M88.4699 79.62C88.2835 79.6228 88.0979 79.5958 87.92 79.54C87.6671 79.4685 87.4309 79.3479 87.2246 79.185C87.0184 79.0222 86.8463 78.8203 86.7182 78.5909C86.59 78.3615 86.5083 78.1092 86.4777 77.8482C86.4471 77.5873 86.4683 77.3228 86.54 77.07C87.54 73.44 91.1799 67 98.1499 65.89C104.5 64.89 111.81 69.1399 113.86 73.4799C113.97 73.7201 114.032 73.9797 114.041 74.2437C114.051 74.5078 114.007 74.7712 113.914 75.0185C113.821 75.2658 113.68 75.4923 113.499 75.6848C113.318 75.8773 113.101 76.032 112.86 76.14C112.622 76.2534 112.365 76.3188 112.102 76.3325C111.839 76.3461 111.576 76.3077 111.328 76.2194C111.08 76.1312 110.851 75.9949 110.656 75.8182C110.461 75.6415 110.303 75.4281 110.19 75.19C108.95 72.56 103.47 69.08 98.7299 69.84C93.7299 70.63 91.0599 75.63 90.3399 78.16C90.2248 78.5711 89.9813 78.9345 89.6448 79.1972C89.3083 79.4599 88.8966 79.608 88.4699 79.62Z" fill="white"/>
<path d="M99.2799 86.77C95.0779 86.7647 91.0494 85.0931 88.0781 82.1218C85.1068 79.1505 83.4352 75.1221 83.4299 70.92C83.4273 68.836 83.8351 66.7718 84.6303 64.8453C85.4254 62.9189 86.5922 61.1679 88.064 59.6924C89.5358 58.2169 91.2838 57.0457 93.2083 56.2457C95.1327 55.4458 97.1958 55.0327 99.2799 55.03C103.482 55.0353 107.51 56.7069 110.482 59.6782C113.453 62.6495 115.125 66.6779 115.13 70.88C115.133 72.9641 114.725 75.0283 113.93 76.9547C113.134 78.8812 111.968 80.6321 110.496 82.1077C109.024 83.5832 107.276 84.7544 105.352 85.5543C103.427 86.3543 101.364 86.7674 99.2799 86.77V86.77ZM99.2799 60.0701C96.4039 60.0754 93.6473 61.2202 91.6137 63.2538C89.58 65.2874 88.4352 68.0441 88.4299 70.92C88.4326 73.7968 89.5765 76.555 91.6107 78.5892C93.6449 80.6234 96.4031 81.7674 99.2799 81.77C102.157 81.7674 104.915 80.6234 106.949 78.5892C108.983 76.555 110.127 73.7968 110.13 70.92C110.133 69.4926 109.854 68.0786 109.31 66.7588C108.766 65.439 107.968 64.2391 106.96 63.2279C105.953 62.2167 104.756 61.4138 103.438 60.8651C102.12 60.3164 100.707 60.0327 99.2799 60.03V60.0701Z" fill="white"/>
<path d="M61.0498 93.47C56.8477 93.4647 52.8193 91.7931 49.848 88.8218C46.8767 85.8505 45.205 81.8221 45.1997 77.62C45.205 73.4179 46.8767 69.3895 49.848 66.4182C52.8193 63.4469 56.8477 61.7753 61.0498 61.77C65.2519 61.7753 69.2803 63.4469 72.2516 66.4182C75.2229 69.3895 76.8945 73.4179 76.8998 77.62C76.8945 81.8221 75.2229 85.8505 72.2516 88.8218C69.2803 91.7931 65.2519 93.4647 61.0498 93.47V93.47ZM61.0498 66.77C58.1738 66.7753 55.4172 67.9201 53.3835 69.9537C51.3499 71.9874 50.205 74.744 50.1997 77.62C50.205 80.496 51.3499 83.2526 53.3835 85.2863C55.4172 87.3199 58.1738 88.4647 61.0498 88.47C63.9258 88.4647 66.6824 87.3199 68.7161 85.2863C70.7497 83.2526 71.8945 80.496 71.8998 77.62C71.8945 74.744 70.7497 71.9874 68.7161 69.9537C66.6824 67.9201 63.9258 66.7753 61.0498 66.77V66.77Z" fill="white"/>
<path d="M73.0199 74.03C72.656 74.029 72.2967 73.9489 71.9669 73.7952C71.6371 73.6415 71.3447 73.418 71.1098 73.14C70.8974 72.8897 70.7366 72.5998 70.6367 72.287C70.5367 71.9742 70.4997 71.6448 70.5276 71.3176C70.5554 70.9905 70.6477 70.6721 70.7992 70.3808C70.9506 70.0894 71.1581 69.8308 71.4099 69.62C74.2684 67.2062 77.8885 65.8814 81.6298 65.88C83.2625 65.8776 84.8855 66.1307 86.4399 66.63C86.7531 66.7289 87.0436 66.8888 87.2948 67.1004C87.5459 67.312 87.7527 67.5711 87.9033 67.8629C88.0539 68.1548 88.1452 68.4735 88.1721 68.8008C88.199 69.1281 88.1609 69.4575 88.0599 69.77C87.858 70.401 87.4138 70.926 86.825 71.2298C86.2363 71.5335 85.5511 71.5912 84.9199 71.39C83.8563 71.0505 82.7463 70.8785 81.6298 70.88C79.0676 70.8809 76.5881 71.7877 74.6298 73.4401C74.1786 73.8189 73.609 74.0276 73.0199 74.03V74.03Z" fill="white"/>
<path d="M112.88 66.77C112.304 66.7702 111.745 66.5711 111.299 66.2067C110.852 65.8422 110.545 65.3347 110.43 64.77C110.31 64.119 110.453 63.4472 110.828 62.9016C111.203 62.3561 111.779 61.9815 112.43 61.86L116.2 61.1701C116.851 61.0503 117.523 61.1936 118.068 61.5685C118.614 61.9434 118.988 62.5194 119.11 63.1701C119.227 63.8208 119.083 64.4913 118.708 65.0362C118.334 65.581 117.759 65.9562 117.11 66.0801L113.35 66.77C113.194 66.7851 113.036 66.7851 112.88 66.77V66.77Z" fill="white"/>
<path d="M41.6901 79.75C41.1133 79.7521 40.5536 79.5538 40.1067 79.189C39.6599 78.8242 39.3535 78.3156 39.24 77.75C39.1202 77.099 39.2635 76.4272 39.6385 75.8816C40.0134 75.3361 40.5893 74.9616 41.24 74.8401L46.07 73.9601C46.3917 73.9009 46.7221 73.9056 47.042 73.974C47.3619 74.0425 47.6652 74.1734 47.9345 74.3592C48.2038 74.5449 48.4339 74.7819 48.6116 75.0566C48.7893 75.3313 48.911 75.6383 48.97 75.9601C49.0898 76.6111 48.9466 77.283 48.5717 77.8285C48.1968 78.3741 47.6207 78.7486 46.97 78.87L42.1501 79.75C41.9971 79.7645 41.8431 79.7645 41.6901 79.75V79.75Z" fill="white"/>
</svg>
