<svg viewBox="0 0 165 46" xmlns="http://www.w3.org/2000/svg"><path d="M63.3 30.3c1.9 0 3.4-.4 4.5-1.3a4.2 4.2 0 0 0 1.7-3.5c0-.7-.2-1.4-.5-2-.4-.6-1-1-1.7-1.4-1-.5-2-.8-3-1l-2.7-.9a2 2 0 0 1-1.3-.6l-.3-.9a1.5 1.5 0 0 1 .8-1.3c.7-.4 1.5-.6 2.2-.5a4 4 0 0 1 2.3.7c.4.3.7.7.9 1.2a.6.6 0 0 0 .7.4l2-.3a.5.5 0 0 0 .4-.4v-.2c-.3-1.1-1-2.1-2-2.7a7.5 7.5 0 0 0-4.3-1.3 7 7 0 0 0-4.3 1.3 4 4 0 0 0-1.7 3.3c0 .6.2 1.3.5 1.9.4.6 1 1 1.7 1.3 1 .5 2 .8 3 1l2.8.9c.4.1.8.3 1.1.7.2.2.3.6.3.9a1.8 1.8 0 0 1-.8 1.5 4 4 0 0 1-2.2.6c-.9 0-1.8-.2-2.5-.7a3 3 0 0 1-1.2-1.4.6.6 0 0 0-.6-.4l-2 .3a.5.5 0 0 0-.4.5v.2a5 5 0 0 0 2 2.9 8 8 0 0 0 4.6 1.2zm10.7-1 .1.4.4.2h2s.2 0 .3-.2l.2-.4V22c0-1 .1-2 .5-2.9.3-.6.8-1.2 1.4-1.5a4 4 0 0 1 2-.5c.7 0 1.4.1 2 .5.5.3.9.8 1.1 1.3.3.5.5 1.1.6 1.7l.1 1.8v7a.5.5 0 0 0 .4.4h2.1a.5.5 0 0 0 .5-.3v-8a12.5 12.5 0 0 0-.6-3.5 6 6 0 0 0-1-1.8c-.5-.6-1-1-1.7-1.4-.9-.3-1.8-.5-2.7-.5-1 0-2 .2-3 .6a6 6 0 0 0-1.1.7.6.6 0 0 1-1-.4l-.1-.3-.3-.2h-1.7l-.4.2-.1.4zm23.2 1c1.7 0 3.2-.4 4.3-1.4.4-.3 1.2 0 1.2.5a.5.5 0 0 0 .5.5h1.5a.5.5 0 0 0 .5-.3V18.8a3 3 0 0 0-.5-1.6 4 4 0 0 0-2.2-2.2 8.5 8.5 0 0 0-3.6-.7c-1.7 0-3.1.4-4.2 1.1-1 .7-1.6 1.6-2 2.6a.5.5 0 0 0 .4.7l1.7.5a.6.6 0 0 0 .7-.3c.3-.6.7-1 1.2-1.4.7-.3 1.5-.5 2.2-.5 1.2 0 2.1.2 2.6.7.5.5.8 1.2.9 1.9 0 .1 0 .2-.2.3l-.3.2a158.4 158.4 0 0 0-6.3 1.1 6 6 0 0 0-2.7 1.7c-.6.8-1 1.8-.9 2.8a4.6 4.6 0 0 0 2.3 4 6 6 0 0 0 2.9.6zm.5-2.4c-1 0-1.7-.2-2.1-.6a2 2 0 0 1-.7-1.6 1.8 1.8 0 0 1 .6-1.4c.5-.4 1-.6 1.5-.8a141.5 141.5 0 0 1 5.1-.7l.2.2v.7L102 25c-.1.5-.3 1-.7 1.4a4 4 0 0 1-1.4 1.2 5 5 0 0 1-2.2.4zm12.7 8.1a.5.5 0 0 0 .5.6h1.9l.4-.1.1-.4v-6a.7.7 0 0 1 .4-.6.7.7 0 0 1 .6 0l.9.4a6 6 0 0 0 2.4.4 6.4 6.4 0 0 0 6-4c.6-1.2 1-2.6.9-4a9 9 0 0 0-.9-4 6.5 6.5 0 0 0-6.1-4 6.5 6.5 0 0 0-3.8 1.2.5.5 0 0 1-.4 0 .5.5 0 0 1-.3-.4v-.3h-2.1a.5.5 0 0 0-.5.5zm6.7-8.3c-1.4 0-2.5-.5-3.1-1.5-.7-1-1-2.3-1-3.9s.3-2.9 1-3.8 1.6-1.5 3-1.5a4 4 0 0 1 2.5.7c.6.5 1.1 1.1 1.4 1.9.3.9.4 1.8.4 2.7a8 8 0 0 1-.4 2.7c-.3.8-.8 1.4-1.4 2-.7.4-1.5.7-2.4.7zm12.2 1.6a.5.5 0 0 0 .5.6h2a.5.5 0 0 0 .4-.4V9.8a.5.5 0 0 0-.5-.5h-1.9a.6.6 0 0 0-.5.5zm15.4 1c1.4 0 2.8-.4 4-1 1-.7 2-1.6 2.5-2.7a.5.5 0 0 0-.1-.6l-.2-.1-1.9-.6a.6.6 0 0 0-.7.3 4 4 0 0 1-3.7 2 4 4 0 0 1-3-1.2 4.9 4.9 0 0 1-1.3-2.7v-.2l.2-.2a.5.5 0 0 1 .4-.1H151c.2 0 .3 0 .4-.2l.2-.3c0-1.5-.2-2.9-.7-4.2a6.4 6.4 0 0 0-2.4-3 7 7 0 0 0-4-1.2 8 8 0 0 0-4 1c-1 .7-2 1.6-2.6 2.8-.6 1.4-1 2.8-1 4.3 0 1.4.4 2.9 1 4.1a7 7 0 0 0 2.7 2.8 8 8 0 0 0 4 1zm0-13.4c2.1 0 3.4 1.1 3.8 3.4a.5.5 0 0 1-.5.6h-7a.5.5 0 0 1-.5-.2v-.4c.1-1 .5-1.7 1.2-2.4s1.7-1 3-1zM164.5 30l.4-.2V28a.5.5 0 0 0-.1-.4.6.6 0 0 0-.4-.1h-2a2 2 0 0 1-1.6-1l-.3-1.2v-7.7l.1-.4.4-.1h3.5a.6.6 0 0 0 .5-.6v-1.2a.5.5 0 0 0-.5-.6H161a.6.6 0 0 1-.5-.5V11l-.2-.3a.6.6 0 0 0-.4-.2H158a.6.6 0 0 0-.5.5v3.2a.5.5 0 0 1-.6.5h-1.8a.5.5 0 0 0-.5.4v1.4a.5.5 0 0 0 .5.6h1.8a.5.5 0 0 1 .5.3V24l.1 2.2c0 .7.2 1.3.5 2 .4.6 1 1.2 1.7 1.5a7 7 0 0 0 2.5.5l2.3-.1z"/><path d="M12.7 37.8c1.2 0 2.4-.5 3.3-1.4a4.6 4.6 0 0 0-3.3-7.9c-1.2 0-2.4.5-3.3 1.4a4.6 4.6 0 0 0 3.3 7.9zm23.8-4a4.7 4.7 0 0 0 4.3-2.8 4.6 4.6 0 0 0-1-5 4.7 4.7 0 0 0-8 3.2 4.7 4.7 0 0 0 4.7 4.6z" fill="#ef4357"/><g fill="#231f20"><path d="M1.2 45a1.2 1.2 0 0 1-1.1-.7 1.2 1.2 0 0 1 0-.9s1.1-3.2 1.6-14a96 96 0 0 0-.1-14.2c-.5-5.5.2-8.7 2.2-9.6 2.7-1.3 5.1.7 7.5 2.6 2.6 2.2 5.3 4.3 9 3.8 2.4-.4 3.3-2.6 4.4-6.1 1-2.7 1.8-5.5 4.4-5.9 1.2-.1 2.6.3 4 1.4 6.8 5.3 14.9 24.2 16.3 38a1.2 1.2 0 0 1-.7 1.2 1.2 1.2 0 0 1-1.3-.2c-.2-.2-.4-.4-.4-.7-1.4-14.3-9.6-32-15.4-36.4-.9-.7-1.6-1-2.2-1-1.1.2-1.7 2.2-2.4 4.3-1 3.2-2.3 7.1-6.4 7.7-4.7.7-8-2-10.8-4.3-2.3-1.8-3.8-3-5-2.3-.6.2-1.3 2.4-1 7.3.6 5.9.6 8.5.3 14.5a56.9 56.9 0 0 1-1.8 14.8 1.2 1.2 0 0 1-1.1.7z"/><path d="M6.7 35.9a.6.6 0 0 1-.6-.6.6.6 0 0 1 .4-.5l4.6-2-4.9-1a.6.6 0 0 1-.4-.5v-.2a.6.6 0 0 1 .4-.5h.3l6.7 1.4a.6.6 0 0 1 .5.5.6.6 0 0 1-.4.6L7 35.8h-.2zm35.8-5.7-7-.4a.6.6 0 0 1-.5-.4.6.6 0 0 1 .2-.6l5.9-3.6a.6.6 0 0 1 .8.2.6.6 0 0 1-.2.8l-4.2 2.6 5 .2.4.2.2.5-.2.3-.4.2zm-18.5 4a4.4 4.4 0 0 1-4.4-3 .8.8 0 0 1 .5-1 .8.8 0 0 1 1 .5c.6 1.5 2 2.2 3.8 1.9s2.8-1.5 2.8-3.1c0-.2 0-.4.2-.6a.8.8 0 0 1 1.4.6c0 2.4-1.6 4.2-4.1 4.6l-1.2.1zm-13.2-7h-.2a.5.5 0 0 1-.5-.3v-.6a7 7 0 0 1 5.1-4.7c2.7-.4 5.4 1.6 5.9 3.1a.8.8 0 0 1-.3.8.8.8 0 0 1-1.2-.4c-.2-.7-2.2-2.2-4.1-2-2 .4-3.7 2.4-4 3.6a.8.8 0 0 1-.7.5zm15.4-2.6H26a.8.8 0 0 1-.6-.6v-.4c.4-1.4 1.8-3.9 4.6-4.3 2.5-.4 5.4 1.3 6.2 3a.8.8 0 0 1-.4 1 .8.8 0 0 1-1-.4c-.5-1-2.7-2.4-4.6-2-2 .2-3 2.2-3.3 3.2a.8.8 0 0 1-.7.5z"/></g><path clip-rule="evenodd" d="M30.4 27.4a6.2 6.2 0 0 1-6.3-6.1 4.4 4.4 0 0 0-2.8.5 6.1 6.1 0 0 1-1.5 6.4 6.3 6.3 0 0 1-8.9 0c-1-1-1.6-2.3-1.8-3.7l-1.2.2h-.2a1 1 0 0 1-1-.8 1 1 0 0 1 .5-1l.3-.1 1.8-.3a6.2 6.2 0 0 1 6-4.8 6.3 6.3 0 0 1 5 2.4 6.3 6.3 0 0 1 4.2-.7 6.2 6.2 0 0 1 6-4.3 6.3 6.3 0 0 1 5 2.6h.1l1.5-.3c.3 0 .5 0 .7.2.3.1.4.4.5.6 0 .3 0 .5-.2.8s-.4.3-.6.4l-1 .1a6.1 6.1 0 0 1-1.6 6.1 6.3 6.3 0 0 1-4.5 1.8zm0-10.4c-1.1 0-2.2.5-3 1.3s-1.2 1.8-1.2 3c0 1 .4 2.2 1.2 3a4.3 4.3 0 0 0 6 0 4.2 4.2 0 0 0-3-7.3zm-15 2.6c-1.2 0-2.3.5-3 1.3s-1.3 1.8-1.3 3c0 1 .4 2.2 1.2 3a4.3 4.3 0 0 0 7.3-3 4 4 0 0 0-1.2-3 4.3 4.3 0 0 0-3-1.3z" fill="#b4bcf6" fill-rule="evenodd"/></svg>
