<svg fill="none" height="135" width="471" xmlns="http://www.w3.org/2000/svg"><g fill="#fff"><path d="M188.9 94.2a20 20 0 0 0 12.6-3.6 11.8 11.8 0 0 0 4.6-9.9c0-2-.4-3.8-1.4-5.5-1.1-1.7-2.6-3-4.5-4a39 39 0 0 0-8.4-3c-3.4-.8-5.9-1.6-7.6-2.2-1.2-.4-2.4-1-3.4-1.8-.6-.7-1-1.6-.9-2.4a4.3 4.3 0 0 1 2.3-3.8c1.9-1 4-1.5 6-1.3 2.3 0 4.5.7 6.3 2 1.2.8 2 2 2.5 3.3.2.4.4.7.8 1s.7.3 1.1.2l5.5-1a1.4 1.4 0 0 0 1.1-1.7 13 13 0 0 0-5.2-7.6 20.5 20.5 0 0 0-12.2-3.4c-5 0-9 1.2-12 3.5a11 11 0 0 0-4.5 9.2c0 1.9.4 3.7 1.4 5.3 1.1 1.7 2.7 3 4.5 3.8 2.8 1.3 5.7 2.3 8.7 3l7.4 2.3a7 7 0 0 1 3.2 1.9c.5.7.8 1.7.8 2.6a5 5 0 0 1-2.2 4.3 10 10 0 0 1-6 1.6c-2.5 0-5-.6-7.1-2a8.2 8.2 0 0 1-3.2-3.8 1.7 1.7 0 0 0-1.8-1.1l-5.5.8a1.4 1.4 0 0 0-1.2 1.8 14 14 0 0 0 5.6 8c3.3 2.3 7.5 3.5 12.7 3.5zm29.7-2.7c0 .4.2.8.5 1s.6.5 1 .5h5.3a1.5 1.5 0 0 0 1.5-1.5V71c-.1-2.8.4-5.5 1.5-8a9.6 9.6 0 0 1 9.3-5.7c1.9 0 3.8.4 5.4 1.4 1.4.9 2.6 2.1 3.3 3.6.8 1.5 1.3 3.1 1.5 4.8.3 1.7.5 3.4.5 5v19.4a1.5 1.5 0 0 0 1.5 1.5h5.3a1.5 1.5 0 0 0 1.5-1.5v-22a33.8 33.8 0 0 0-1.7-9.8c-.7-1.8-1.6-3.5-2.9-5-1.3-1.6-3-2.9-4.8-3.8-2.3-1-4.8-1.4-7.4-1.4a17.4 17.4 0 0 0-11.3 3.6 1.7 1.7 0 0 1-2.7-1.1 1.3 1.3 0 0 0-1.3-1.3h-4.5a1.5 1.5 0 0 0-1.5 1.5zm64.2 2.7c5 0 9-1.3 12.1-3.9 1.1-1 3.2-.2 3.2 1.2a1.5 1.5 0 0 0 1.4 1.5h4.3a1.5 1.5 0 0 0 1.5-1.5V67c0-1.6 0-3.3-.2-5-.2-1.5-.6-3-1.3-4.3-1.2-2.8-3.4-5-6.2-6.2-3-1.3-6.4-2-9.8-2a19 19 0 0 0-11.8 3.3 15.4 15.4 0 0 0-5.5 7.2 1.4 1.4 0 0 0 1 1.9l4.8 1.4a1.7 1.7 0 0 0 2-1 8 8 0 0 1 3.3-3.7c1.9-1 4-1.6 6.1-1.5 3.3 0 5.7.7 7.2 2a8.2 8.2 0 0 1 2.3 5.2 1.4 1.4 0 0 1-1.3 1.5l-8.7 1.3c-3 .5-5.8 1-8.6 1.9-3 .7-5.5 2.4-7.5 4.6a12 12 0 0 0-2.5 7.9 11.8 11.8 0 0 0 6.4 11c2.4 1.2 5.1 1.8 7.8 1.8zm1.5-6.7c-2.7 0-4.6-.6-5.8-1.8a5.8 5.8 0 0 1-1.9-4.3 5 5 0 0 1 1.7-4c1.2-1 2.6-1.8 4.2-2.3 2-.6 4.1-1 6.2-1.4a394.4 394.4 0 0 1 7.3-1 1.5 1.5 0 0 1 1 1.6v1.5a13 13 0 0 1-.7 3.3 10 10 0 0 1-2 4c-1 1.3-2.4 2.4-4 3.2-1.9.8-4 1.2-6 1.2zm35.1 22.8a1.5 1.5 0 0 0 1.5 1.5h5.2a1.5 1.5 0 0 0 1.5-1.5V93.4a1.8 1.8 0 0 1 1.9-1.7l.9.3a18.4 18.4 0 0 0 9 2.2 17.8 17.8 0 0 0 16.7-11c1.7-3.5 2.5-7.4 2.4-11.4 0-3.9-.7-7.8-2.4-11.4a17.8 17.8 0 0 0-17-11 17.8 17.8 0 0 0-10.4 3.3 1.3 1.3 0 0 1-2-1 1.1 1.1 0 0 0-.6-1 1 1 0 0 0-.5 0H321a1.5 1.5 0 0 0-1.5 1.5zm18.8-23.5c-4 0-7-1.4-8.8-4.2s-2.7-6.4-2.7-10.8.9-8 2.7-10.7 4.6-4.2 8.5-4.2c2.4-.1 4.8.6 6.7 2 1.8 1.4 3.1 3.2 3.9 5.4a21.7 21.7 0 0 1 0 15.1 10.3 10.3 0 0 1-10.4 7.3zm33.7 4.7a1.5 1.5 0 0 0 1.5 1.5h5.1c.4 0 .8-.1 1.1-.4s.4-.7.4-1V36.8c0-.4-.1-.8-.4-1s-.7-.5-1-.5h-5.2c-.4 0-.8.1-1 .4s-.5.7-.5 1zm42.6 2.7c4 0 7.9-1 11.2-3.1a19 19 0 0 0 6.8-7.3 1.4 1.4 0 0 0-.9-2l-5.2-1.7a1.6 1.6 0 0 0-1.9.8c-2.2 3.7-5.6 5.6-10.4 5.6a11 11 0 0 1-8.4-3.2c-1.8-2.1-3-4.8-3.3-7.5a1.4 1.4 0 0 1 1.4-1.7h28.5c.4 0 .8-.1 1-.4s.5-.6.5-1c.2-4-.4-8-1.8-11.7a17.9 17.9 0 0 0-17.8-11.5c-3.8-.1-7.6.9-10.9 2.8A19.1 19.1 0 0 0 396 60a26.2 26.2 0 0 0-2.6 12c0 4 .9 8 2.7 11.6a19 19 0 0 0 7.4 7.7 22 22 0 0 0 11 2.8zm0-37.5c5.9 0 9.4 3.2 10.6 9.4a1.4 1.4 0 0 1-1.4 1.7H404a1.4 1.4 0 0 1-1.4-1.8c.5-2.4 1.7-4.7 3.5-6.4 2-2 4.8-2.8 8.3-2.8zm55 36.5a1.5 1.5 0 0 0 1.2-1.4v-4a1.6 1.6 0 0 0-1-1.5h-.7c-1.9.2-3.7.2-5.5 0a5.7 5.7 0 0 1-4.5-2.8c-.5-1-.8-2.1-.8-3.2V58.8a1.5 1.5 0 0 1 .9-1.4l.6-.2h9.5c.4 0 .8-.1 1.1-.4s.4-.7.4-1v-3.6a1.5 1.5 0 0 0-1.5-1.5h-9.5c-.4 0-.8-.2-1.1-.5s-.4-.7-.4-1v-8.8a1.5 1.5 0 0 0-1.5-1.5h-5.3a1.5 1.5 0 0 0-1.5 1.5V49a1.5 1.5 0 0 1-1.5 1.6h-5.1a1.5 1.5 0 0 0-1.5 1.5v3.5a1.5 1.5 0 0 0 1.5 1.5h5a1.5 1.5 0 0 1 1.6 1.6v23.7c.2 1.9.7 3.7 1.6 5.4 1 1.9 2.6 3.4 4.5 4.3 2.2 1 4.5 1.4 6.9 1.5 2.2 0 4.4-.1 6.6-.5zM30 91.8c.7-15.5.6-22.2-.6-36.7-.6-7.8-.6-19.6 4-21.7 11.1-5.1 21.4 19.7 41 16.8C90 47.8 86.2 21 96.7 19.5c15-2.2 45.2 60.4 49.6 104.5a79.4 79.4 0 0 0-10-100.6A79.8 79.8 0 0 0 21.8 134.7c1-2 6.9-16 8.1-42.9z"/><path d="M37.1 108.4a1.5 1.5 0 0 1-1.5-1.5 1.5 1.5 0 0 1 1-1.4l11.7-5L36 97.8a1.5 1.5 0 0 1-1-2.3 1.5 1.5 0 0 1 1.6-.6l17.1 3.4a1.5 1.5 0 0 1 1 2.3c-.2.2-.4.5-.7.6l-16.2 7h-.6z"/><path clip-rule="evenodd" d="M36.4 95.7a.8.8 0 0 0-1 .6.7.7 0 0 0 .7.9l14.7 3-14 6a.7.7 0 0 0-.4 1 .8.8 0 0 0 .7.4h.3l16.2-7a.7.7 0 0 0 .3-1.2.7.7 0 0 0-.4-.2zm.3-1.5 17 3.5a2.3 2.3 0 0 1 1.9 2 2.3 2.3 0 0 1-1.4 2.3L38 109a2.3 2.3 0 0 1-3-1.2 2.2 2.2 0 0 1 1.2-3l9.6-4.1-10-2a2.2 2.2 0 0 1-.8-4.1 2.3 2.3 0 0 1 1.7-.4z" fill-rule="evenodd"/><path d="M129.9 93.8h-.1l-17.6-1a1.5 1.5 0 0 1-.7-2.7l14.8-9.1a1.5 1.5 0 0 1 1.6 2.5l-10.8 6.6 12.9.7a1.5 1.5 0 0 1 1.4 1.6 1.5 1.5 0 0 1-1.5 1.4z"/><path clip-rule="evenodd" d="M126.9 81.8 112 91a.5.5 0 0 0-.2.5.5.5 0 0 0 .4.4l17.6 1a.5.5 0 0 0 .6-.6.5.5 0 0 0-.5-.5l-16-.8 13.5-8.3a.5.5 0 0 0 .1-.7.5.5 0 0 0-.6-.2zm3 12v1h-.1l-17.7-1a2.5 2.5 0 0 1-2.3-1.8 2.5 2.5 0 0 1 1.2-2.8l14.8-9a2.5 2.5 0 0 1 3.5.7 2.5 2.5 0 0 1-.9 3.5l-8 5 9.6.4a2.5 2.5 0 0 1 2.4 2.7 2.5 2.5 0 0 1-2.5 2.3z" fill-rule="evenodd"/><path d="M83 104a11 11 0 0 1-11.1-7.7 2 2 0 1 1 3.8-1.3c1.3 4 4.7 5.7 9.4 4.9s7.3-3.7 7.2-8a2 2 0 1 1 4 0c.1 6.2-3.9 10.8-10.4 12-1 .2-2 .2-3 .2z"/><path clip-rule="evenodd" d="M94.3 90.7a1.3 1.3 0 0 0-1.3 1.2 8 8 0 0 1-2 5.8 10 10 0 0 1-5.7 3 10 10 0 0 1-6.5-.8 7.8 7.8 0 0 1-3.8-4.7 1.3 1.3 0 0 0-1.6-.8 1.3 1.3 0 0 0-.8 1.6 10.3 10.3 0 0 0 10.3 7.3v.8-.8h2.8c3.2-.7 5.6-2 7.3-4 1.7-2 2.6-4.4 2.5-7.3a1.2 1.2 0 0 0-1.2-1.3zM83 104.8a11.8 11.8 0 0 1-11.8-8.3 2.8 2.8 0 0 1 5.2-1.7 6.3 6.3 0 0 0 3 3.8c1.5.7 3.4 1 5.6.5a8.5 8.5 0 0 0 5-2.4c1-1.2 1.6-2.8 1.5-4.7a2.8 2.8 0 0 1 5.5 0c.1 3.2-1 6-2.9 8.3a14 14 0 0 1-8.1 4.4c-1 .1-2 .2-3 .1z" fill-rule="evenodd"/><path d="M49.5 86.3H49a2 2 0 0 1-1.5-2.4c1-4.3 6.5-11 13.3-12s13.6 4 14.8 7.9a2 2 0 1 1-3.8 1.1c-.6-2-5.5-5.8-10.4-5s-9.3 5.8-10 9a2 2 0 0 1-2 1.4zm39-6.7h-.6a2 2 0 0 1-1.4-2.5c1-3.7 4.7-10.1 11.6-11.2 6.4-1 13.7 3.2 15.8 7.6a2 2 0 0 1-1 2.6 2 2 0 0 1-2.7-1c-1.3-2.5-6.7-6-11.5-5.3-5 .8-7.6 5.8-8.4 8.4a2 2 0 0 1-1.8 1.4z"/><path d="M99.3 86.8a15.9 15.9 0 1 1 0-31.8 15.9 15.9 0 0 1 0 31.8zm0-26.7a10.9 10.9 0 1 0 0 21.8 10.9 10.9 0 0 0 0-21.9zM61 93.5a15.9 15.9 0 1 1 0-31.8 15.9 15.9 0 0 1 0 31.8zm0-26.7a10.9 10.9 0 0 0 0 21.7 10.9 10.9 0 0 0 0-21.7z"/><path d="M73 74a2.5 2.5 0 0 1-2.2-3.6l.6-.8a15.8 15.8 0 0 1 15-3 2.5 2.5 0 0 1 .4 4.6c-.6.3-1.2.4-1.9.2a10.8 10.8 0 0 0-10.3 2c-.4.4-1 .6-1.6.6zm39.9-7.2a2.5 2.5 0 0 1-2.5-2 2.5 2.5 0 0 1 2-3l3.8-.6a2.5 2.5 0 0 1 1 4.9l-3.9.7h-.4zm-71.2 13a2.5 2.5 0 0 1-2.5-2 2.5 2.5 0 0 1 2-3l4.9-.8a2.5 2.5 0 1 1 .9 4.9l-4.8.8h-.5z"/></g></svg>
