<svg fill="none" height="50" width="163" xmlns="http://www.w3.org/2000/svg"><g fill="#fff"><path d="M160.6 43.5h-36.3c-1 0-2-.8-2-1.8s1-1.8 2-1.8h32.2c-1-.7-2-1.8-2-3.5 0-2.3 1.7-3.4 2.8-4.1 1-.7 1.2-.9 1.2-1.3 0-.3-.2-.5-1.2-1.2-1-.8-2.8-1.9-2.8-4.1 0-2.2 1.7-3.3 2.8-4 1-.8 1.2-1 1.2-1.3 0-.4-.2-.6-1.2-1.3-1-.7-2.8-1.8-2.8-4 0-1.8 1-2.9 2-3.6h-32.2c-1 0-2-.8-2-1.8s1-1.7 2-1.7h36.3c1 0 2 .8 2 1.7 0 2.3-1.7 3.4-2.9 4.1-1 .7-1.2.9-1.2 1.3 0 .3.2.5 1.2 1.2 1.2.7 2.9 1.9 2.9 4 0 2.3-1.7 3.4-2.9 4.2-1 .6-1.2.8-1.2 1.2 0 .4.2.6 1.2 1.2 1.2.8 2.9 1.9 2.9 4.1 0 2.2-1.7 3.4-2.9 4.1-1 .7-1.2.9-1.2 1.3 0 .3.2.5 1.2 1.2 1.2.8 2.9 1.9 2.9 4.1 0 1-1 1.8-2 1.8z"/><path clip-rule="evenodd" d="M74 8h85v35.5H74zm18.7 18.8 3.2 1c-.4 3.5-2.5 5.1-5.8 5.1-3.4 0-5.8-1.8-5.8-5v-7.6h-2.2V17h2.2v-4.7h4.5v4.7h5.6v3.2h-5.6v6.9c0 1.5.7 2 1.8 2 .6 0 1.8-.1 2-2.4zm4.6-4.6.7-4a15 15 0 0 1 6.6-1.4c3.4 0 6.2 1.7 6.2 5.2v6.8c0 .9.3 1.2 1 1.2l.7-.1v2.3a6 6 0 0 1-2.7.7c-2.1 0-3.2-1.2-3.4-3-1 1.5-2.5 3-5 3-2.3 0-4.8-1.2-4.8-4.4 0-3.8 3.7-4.7 7.2-4.7l2.6.1v-.5c0-1.6 0-3.4-2.6-3.4-1 0-1.6 0-2.4.4l-.6 2.2zm5.7 7.6c1.5 0 3.2-1.1 3.4-3.5V26l-2.3-.2c-1.6 0-3 .4-3 2 0 1 .5 1.9 1.9 1.9zm22.3-13c4 0 6.7 2.8 6.7 7.7 0 4.5-2.5 8.4-7.1 8.4-2.3 0-3.9-.8-4.8-2.3v5.9h2.8v3.4h-9.3v-3.4h2v-16h-2.2V17h6.7v3a5.4 5.4 0 0 1 5.2-3.3zm-1.5 12.6c2 0 3.6-1.4 3.6-4.5 0-3-1.5-4.6-3.7-4.6-2.3 0-3.5 1.9-3.6 4.5v.5c0 2.6 1.4 4.1 3.7 4.1zM145 27l3.7.7c-.2 2.8-2.8 5.2-7.2 5.2-4.7 0-8-2.6-8-7.8 0-4.7 2.8-8.3 7.8-8.3 4.3 0 7.2 2.7 7.3 6.7l-.3 2.3h-10.2c.3 2.4 1.4 3.6 3.7 3.6 2.4 0 3-1.5 3.2-2.4zm-6.8-3.8h5.8c.2-1.6-.6-3.2-2.7-3.2-1.9 0-2.9 1.3-3.1 3.2z" fill-rule="evenodd"/><path d="M24 36.9 17 49h39.5l-7-12.2zM44 17.4H29.5v7.3H44z"/><path d="M66 .4H7.3C3.4.4 0 3.5 0 7.7v34c0 4.2 3.4 7.4 7.3 7.4H14L22 34.9c.3-.2.7-.5 1.2-.5h27c.4 0 .7.3.9.8l8 14.1h7c4 0 7.3-3.4 7.3-7.3V7.9c0-4.4-3.2-7.5-7.4-7.5zm-60.9 5c.5-.4 1.3-.4 1.7 0 .3.3.5.8.5 1s0 .8-.5.8c-.2.2-.4.5-.7.5l-1-.5C5 6.9 5 6.7 5 6.4s0-.7.2-1zm1.7 38.3c-.2.2-.4.5-.7.5l-1-.5c-.2-.2-.2-.5-.2-.7s0-.8.2-.8c.5-.4 1.3-.4 1.7 0 .3 0 .5.5.5.8s-.2.5-.5.7zm9-14.1c-4.6 0-8.5-4-8.5-8.5s4-8.6 8.6-8.6 8.6 4 8.6 8.6-4 8.5-8.6 8.5zm30.7-3.7c0 .8-.5 1.2-1.3 1.2h-17c-.8 0-1.3-.4-1.3-1.2v-9.7c0-.7.5-1.2 1.2-1.2h17.1c.8 0 1.3.5 1.3 1.2zm11 3.7c-4.7 0-8.6-4-8.6-8.5s4-8.6 8.6-8.6 8.5 4 8.5 8.6-3.9 8.5-8.5 8.5zM68 43.7c-.3.2-.5.5-1 .5s-.7-.3-1-.3v-1c0-.2 0-.7.3-.7.5-.4 1.2-.4 1.7 0 .2.3.2.5.2.8.3.2 0 .5-.2.7zm0-36.5c-.3.2-.5.5-.8.5l-1-.5c-.2-.3-.2-.5-.2-.8s0-.7.3-.7c.5-.5 1.2-.5 1.7 0 .2 0 .5.5.5.7s-.3.5-.5.8z"/></g></svg>
