<svg fill="none" height="49" width="293" xmlns="http://www.w3.org/2000/svg"><g fill="#fff"><path d="M62.6 0c4.8-.5 9 3.6 8.5 8.4L67.8 42c-.4 4-3.9 7-8 6.9l-39-1.4 36-4.2a3.8 3.8 0 0 0 3.4-3.5L63 10A3.8 3.8 0 0 0 58.8 6l-51.4 6c-2 .2-3.5 2-3.3 4.1l2.4 26-.1-.5L.2 15.6c-1-4.4 2-8.8 6.6-9.3z"/><path d="M46.6 9.3H57c1.2 0 2.1.9 2.3 2l1 8.1.7-9.2a2.3 2.3 0 0 0-2.6-2.4zM15.9 30.8v5.7c0 .8.2 1.3.6 1.7.4.4 1 .6 1.7.6.3 0 .7 0 1.3-.2v3.9l-2.4.1c-1.8 0-3.2-.4-4.2-1.2-1-.9-1.5-2.2-1.4-3.9v-6.7H8.7v-3.7h2.8v-5H16v5h3.6v3.7zM28.8 26.8c1.9 0 3.3.4 4.4 1.3 1 1 1.7 2.1 1.8 3.6l-4.3.3c0-1.3-.7-1.9-2-1.9-1.2 0-1.7.4-1.7 1.3v.3l.1.3.2.2.3.2.3.1a8 8 0 0 0 1.5.4l.6.2c1.8.4 3 1 4 1.6.8.7 1.2 1.6 1.2 2.9 0 1.6-.5 2.8-1.6 3.7a7.2 7.2 0 0 1-4.7 1.4c-2 0-3.5-.4-4.7-1.3a5 5 0 0 1-1.9-3.7l4.4-.2c0 1.2.8 1.9 2.2 1.9.6 0 1.1-.1 1.4-.4.4-.2.6-.6.6-1a1 1 0 0 0-.6-1l-2.2-.8a41.1 41.1 0 0 1-3.4-1c-.5-.3-.9-.6-1.1-.9-.3-.2-.5-.6-.7-1-.2-.5-.3-1-.3-1.7 0-1.5.5-2.6 1.6-3.5a7.1 7.1 0 0 1 4.6-1.3zM183 19.8c2.2 0 3.9.5 5 1.6a6 6 0 0 1 2.2 4.1l-5 .3c0-1.4-.8-2.2-2.3-2.2-1.3 0-2 .6-2 1.6v.3a67.5 67.5 0 0 0 1.1 1 9.2 9.2 0 0 0 1.7.4l.7.2c2 .5 3.5 1.2 4.5 2 1 .7 1.5 1.8 1.5 3.3 0 1.8-.6 3.2-2 4.3-1.2 1-3 1.6-5.3 1.6-2.2 0-4-.5-5.3-1.5a6 6 0 0 1-2.2-4.3l5-.3c0 1.5 1 2.2 2.6 2.2.6 0 1.2-.1 1.6-.4.4-.3.6-.7.6-1.2s-.2-1-.7-1.2c-.4-.2-1.2-.5-2.5-.8a47.3 47.3 0 0 1-3.9-1.3c-.6-.3-1-.6-1.3-1a5 5 0 0 1-.8-1.2c-.2-.6-.3-1.2-.3-1.9 0-1.7.6-3 1.9-4 1.2-1 3-1.6 5.2-1.6zM201.4 24.5V31c0 .9.3 1.5.8 2 .5.4 1.1.6 1.9.6l1.5-.1V38l-2.7.2c-2 0-3.6-.5-4.8-1.5-1.2-1-1.7-2.5-1.7-4.4v-7.8h-3.2v-4.3h3.3v-6h5v6h4.1v4.3zM220 20v4.8a5 5 0 0 0-3.5 1.1c-.8.8-1.3 1.8-1.3 3v9h-5V20.2h4.9v2c.9-1.5 2.5-2.2 4.8-2.2zM240.7 30.6h-12.2c0 1.1.4 2 1 2.6.7.7 1.6 1 2.7 1 1.8 0 2.9-.6 3.3-2l5 .3c-.3 1.7-1.2 3-2.8 4.1a9 9 0 0 1-5.3 1.7 9 9 0 0 1-6.7-2.6 9 9 0 0 1-2.5-6.7c0-2.8.8-5 2.5-6.7a8.8 8.8 0 0 1 6.5-2.5c2.6 0 4.7.8 6.2 2.4a8.8 8.8 0 0 1 2.3 6.4zm-8.5-6.9c-1 0-2 .3-2.6 1-.7.6-1 1.5-1 2.6h7c0-1.1-.3-2-1-2.6-.5-.7-1.3-1-2.4-1zM252.6 19.8c2.4 0 4.3.6 5.5 1.8 1.3 1.2 2 3 2 5.3v11h-5v-1.5a6 6 0 0 1-4.5 1.9c-1.8 0-3.2-.5-4.3-1.4-1-.9-1.6-2.2-1.6-3.9 0-3.4 2.4-5.2 7.1-5.4l3.2-.1v-.7c0-1.9-.8-2.8-2.3-2.8-.8 0-1.4.3-1.8.7-.5.5-.7 1-.7 1.7l-5-.2c0-1.7.7-3.2 2-4.4 1.5-1.3 3.3-2 5.4-2zm2.4 11-2.7.1c-1.7 0-2.5.7-2.5 1.9 0 1 .6 1.6 2 1.6 1 0 1.7-.3 2.3-.8.6-.5 1-1.2 1-2.1zM286.3 19.8c2 0 3.6.7 4.8 2 1.3 1.2 1.9 3 1.9 5.2V38h-5V28c0-1.1-.3-2-.8-2.6-.5-.6-1.2-1-2.2-1a3 3 0 0 0-2 .9c-.6.5-1 1.2-1 2.1V38h-5V28a4 4 0 0 0-.8-2.6c-.5-.6-1.2-1-2.2-1a3 3 0 0 0-2.3 1c-.6.7-.8 1.6-.8 2.6V38h-5V20.2h4.7V22c.9-1.5 2.5-2.2 4.6-2.2 2.5 0 4.4 1 5.6 2.8a6 6 0 0 1 5.5-2.8zM94.1 24.5V31c0 .9.2 1.5.7 2 .6.4 1.2.6 2 .6l1.5-.1V38l-2.8.2c-2 0-3.6-.5-4.7-1.5-1.2-1-1.7-2.5-1.7-4.4v-7.8H86v-4.3h3.3v-6h5v6h4.1v4.3zM119.4 30.6h-12.1c0 1.1.3 2 1 2.6.6.7 1.5 1 2.7 1 1.7 0 2.8-.6 3.2-2l5 .3c-.3 1.7-1.2 3-2.7 4.1a9 9 0 0 1-5.4 1.7 9 9 0 0 1-6.7-2.6A9 9 0 0 1 102 29c0-2.8.9-5 2.5-6.7a8.8 8.8 0 0 1 6.6-2.5c2.5 0 4.6.8 6.1 2.4a8.8 8.8 0 0 1 2.3 6.4zm-8.5-6.9c-1 0-2 .3-2.6 1-.6.6-1 1.5-1 2.6h7c0-1.1-.3-2-.9-2.6-.5-.7-1.4-1-2.5-1zM131.4 19.8c2.4 0 4.2.6 5.5 1.8 1.2 1.2 1.9 3 1.9 5.3v11h-4.9v-1.5a6 6 0 0 1-4.5 1.9c-1.8 0-3.3-.5-4.3-1.4-1-.9-1.6-2.2-1.6-3.9 0-3.4 2.4-5.2 7-5.4l3.2-.1v-.7c0-1.9-.7-2.8-2.3-2.8-.8 0-1.4.3-1.8.7-.4.5-.6 1-.6 1.7l-5-.2c0-1.7.6-3.2 2-4.4 1.4-1.3 3.2-2 5.4-2zm2.3 11-2.6.1c-1.7 0-2.6.7-2.6 1.9 0 1 .7 1.6 2 1.6 1 0 1.8-.3 2.4-.8.5-.5.8-1.2.8-2.1zM165 19.8c2 0 3.7.7 4.9 2 1.2 1.2 1.8 3 1.8 5.2V38h-5V28c0-1.1-.2-2-.7-2.6-.5-.6-1.3-1-2.2-1a3 3 0 0 0-2.2.9c-.5.5-.8 1.2-1 2.1V38h-5V28a4 4 0 0 0-.7-2.6c-.5-.6-1.2-1-2.1-1a3 3 0 0 0-2.3 1c-.6.7-.9 1.6-.9 2.6V38h-5V20.2h4.7V22c1-1.5 2.5-2.2 4.7-2.2 2.5 0 4.3 1 5.6 2.8a6 6 0 0 1 5.4-2.8z"/></g></svg>
