<svg fill="none" height="54" width="291" xmlns="http://www.w3.org/2000/svg"><g fill="#fff"><path d="M4.2 35.4h10.4v10.4a4.2 4.2 0 0 1-4.2 4.2H0V39.4a4.2 4.2 0 0 1 4.2-4z"/><path d="M31.3 18.7v20.9A10.4 10.4 0 0 1 20.8 50h-3.2a8.3 8.3 0 0 0 1.1-4.2V31.2H4.2c-1.5 0-3 .4-4.2 1.2V29a10.4 10.4 0 0 1 10.4-10.3z"/><path d="M50 25a25 25 0 0 1-18 24c2.2-2.6 3.4-6 3.4-9.4v-25h-25C7 14.5 3.6 15.7 1 18a25 25 0 0 1 49 7zM79.1 43.5c-2.6 0-5-.5-6.9-1.4a10 10 0 0 1-4.6-4A14 14 0 0 1 66 31V12.6c0-.3 0-.6.3-.8s.5-.3.8-.3h5c.2 0 .5.1.7.3s.3.5.3.8V31c0 2.3.6 4 1.6 5s2.5 1.6 4.4 1.6c1.9 0 3.3-.5 4.4-1.6s1.6-2.7 1.6-5V12.6c0-.3 0-.6.3-.8.2-.2.5-.3.8-.3h5c.2 0 .5.1.7.3s.3.5.3.8V31a14 14 0 0 1-1.6 7 10 10 0 0 1-4.5 4.1c-2 1-4.3 1.4-7 1.4zm28.1 0c-1.8 0-3.4-.3-4.8-.7-1.3-.4-2.4-1-3.2-1.6a8.3 8.3 0 0 1-1.9-1.9 4 4 0 0 1-.6-1.7c0-.3 0-.6.3-.8l.7-.3h4.7l.3.3 1.2 1 1.4.8c.6.2 1.3.4 2.1.4a5 5 0 0 0 2.5-.6c.7-.5 1-1 1-1.8 0-.5 0-1-.4-1.3-.3-.4-.9-.7-1.8-1l-3.8-1c-1.7-.4-3-.9-4.2-1.5-1.1-.6-2-1.3-2.5-2.2a6.2 6.2 0 0 1 .2-6.7c.7-1.1 1.8-2 3.3-2.7a12 12 0 0 1 5.4-1 13.4 13.4 0 0 1 7.4 2.1 7 7 0 0 1 2 1.9c.4.6.6 1.2.6 1.7 0 .3 0 .5-.2.7s-.5.3-.7.3h-4.5l-.3-.2-1.1-.8c-.4-.4-.8-.7-1.3-.9s-1.2-.4-2-.4c-1 0-1.7.3-2.3.7a2 2 0 0 0-.3 2.8c.2.4.8.7 1.6 1l3.9 1c2 .3 3.6.8 4.8 1.6s2 1.5 2.6 2.5a6.1 6.1 0 0 1-.5 6.8c-.8 1-2 2-3.7 2.5-1.6.6-3.5 1-5.9 1zm25.6 0c-3.4 0-6.1-1-8.2-3-2-1.8-3-4.6-3.2-8.3v-2c.1-2.2.7-4.2 1.6-5.9 1-1.7 2.2-3 4-3.8 1.6-.9 3.6-1.3 5.8-1.3 2.5 0 4.6.5 6.3 1.5 1.7 1 3 2.5 3.8 4.3.9 1.7 1.3 3.8 1.3 6v1.1c0 .3 0 .6-.3.8a1 1 0 0 1-.8.3h-14.7V33.5c0 1 .2 1.9.5 2.7a5 5 0 0 0 1.5 1.9c.7.5 1.5.7 2.4.7.7 0 1.3 0 1.8-.3l1.2-.8.7-.7.6-.6.8-.1h4.7c.3 0 .6 0 .7.3.2.1.3.3.3.6 0 .5-.3 1.1-.8 1.8-.4.7-1 1.4-2 2.1-.9.7-2 1.2-3.4 1.7-1.3.4-2.8.7-4.6.7zM128.4 29h8.8c0-1.2-.2-2.1-.5-2.9-.4-.8-.9-1.4-1.5-1.9s-1.5-.6-2.4-.6-1.7.2-2.4.6-1.2 1.1-1.5 2c-.3.7-.5 1.6-.5 2.7zM149.8 43c-.3 0-.5-.1-.8-.3s-.3-.5-.3-.8V20.7c0-.3.1-.5.3-.7.3-.3.5-.4.8-.4h4.4c.3 0 .6.1.8.4.2.2.3.4.3.7v1.8c.8-.9 1.7-1.6 2.8-2.1a9 9 0 0 1 3.8-.8h2c.3 0 .5.1.7.3s.3.5.3.8v3.9c0 .3 0 .6-.3.8s-.4.3-.7.3h-4c-1.3 0-2.4.4-3.1 1.1-.8.8-1.1 1.8-1.1 3.2v11.9c0 .3-.1.6-.4.8s-.4.3-.8.3zm27.4 0c-.5 0-.9-.1-1.2-.4-.3-.2-.5-.5-.6-1L166 12.9v-.4c0-.2 0-.4.2-.6.2-.2.4-.3.7-.3h4.7c.4 0 .8.1 1 .4.3.2.5.5.5.7l7 22 7-22 .5-.7c.2-.3.6-.4 1-.4h4.8c.2 0 .5.1.6.3l.3.6v.5l-9.5 28.8c0 .4-.3.7-.6 1-.2.2-.6.3-1.1.3zm21.5 0c-.3 0-.5-.1-.7-.3s-.4-.5-.4-.8V20.7c0-.3.1-.6.4-.8s.4-.3.7-.3h4.5c.4 0 .6.1.8.3s.3.5.3.8V42c0 .3 0 .6-.3.8s-.4.3-.8.3zm-.1-27c-.3 0-.6-.1-.8-.3s-.3-.5-.3-.8v-3.6c0-.4.1-.6.3-.8.2-.3.5-.4.8-.4h4.7c.3 0 .6.1.8.4.3.2.4.4.4.8v3.6c0 .3-.1.6-.4.8-.2.2-.5.3-.8.3zm22.6 27c-1.8 0-3.4-.3-4.7-.9a6.5 6.5 0 0 1-3-2.9c-.7-1.3-1-2.9-1-4.8v-9.5H209c-.4 0-.6 0-.9-.3s-.3-.5-.3-.8v-3c0-.4.1-.7.3-.9s.5-.3.9-.3h3.5v-7.4c0-.4 0-.6.3-.8.2-.2.5-.4.8-.4h4.4c.3 0 .6.2.8.4s.3.4.3.8v7.4h5.6c.3 0 .6.1.8.3s.3.5.3.8v3c0 .4 0 .7-.3.9s-.5.3-.8.3h-5.6v9c0 1 .2 2 .6 2.6.4.7 1.1 1 2.2 1h3.3c.3 0 .5 0 .7.3s.3.4.3.7V42c0 .3 0 .6-.3.8s-.4.3-.7.3zm15.8.5c-1.5 0-3-.3-4.2-1-1.3-.6-2.3-1.4-3-2.5s-1.2-2.2-1.2-3.5c0-2.1.9-3.8 2.6-5 1.7-1.2 4-2 6.8-2.5l6-.9v-.8c0-1.2-.3-2-.9-2.7s-1.5-1-2.8-1c-1 0-1.8.2-2.4.6s-1 1-1.4 1.6c-.2.4-.6.6-1 .6h-4.3c-.3 0-.6-.1-.8-.3a1 1 0 0 1-.2-.7c0-.5.2-1.1.6-1.8s1-1.4 1.8-2c.8-.8 1.8-1.3 3.1-1.8s2.8-.6 4.6-.6c2 0 3.5.2 4.9.6s2.4 1.1 3.2 2a8.6 8.6 0 0 1 2.4 6.2v13.9c0 .3 0 .6-.3.8s-.5.3-.8.3h-4.4c-.3 0-.6-.1-.8-.3s-.3-.5-.3-.8v-1.7a7.3 7.3 0 0 1-4 2.8c-.9.3-2 .5-3.2.5zm1.8-4.7c1 0 2-.2 2.7-.7s1.4-1 1.8-1.9.7-2 .7-3.3v-.7l-4.2.6c-1.6.3-2.8.7-3.5 1.2s-1.1 1.2-1.1 2c0 .6.1 1 .5 1.5.3.4.8.7 1.3 1s1.2.3 1.8.3zm18.6 4.2c-.3 0-.6-.1-.8-.3s-.3-.5-.3-.8V12.2c0-.4 0-.6.3-.8s.5-.4.8-.4h4.5c.3 0 .5.2.8.4s.3.4.3.8v29.7c0 .3-.1.6-.3.8s-.5.3-.8.3zm20.5.5c-1.9 0-3.5-.3-4.8-.7-1.4-.4-2.4-1-3.3-1.6a8.3 8.3 0 0 1-1.8-1.9 4 4 0 0 1-.6-1.7c0-.3 0-.6.3-.8l.7-.3H273l.3.3 1.2 1 1.4.8c.6.2 1.3.4 2.2.4a5 5 0 0 0 2.5-.6c.7-.5 1-1 1-1.8 0-.5-.1-1-.5-1.3-.3-.4-.9-.7-1.7-1l-3.9-1c-1.6-.4-3-.9-4.1-1.5s-2-1.3-2.6-2.2a6.2 6.2 0 0 1 .2-6.7c.8-1.1 1.9-2 3.3-2.7a12 12 0 0 1 5.4-1 13.4 13.4 0 0 1 7.5 2.1 7 7 0 0 1 1.9 1.9c.4.6.7 1.2.7 1.7 0 .3 0 .5-.3.7s-.4.3-.7.3h-4.4l-.3-.2-1.2-.8c-.3-.4-.8-.7-1.3-.9s-1.1-.4-2-.4c-1 0-1.7.3-2.2.7a2 2 0 0 0-.4 2.8c.3.4.8.7 1.7 1l3.8 1c2 .3 3.7.8 4.9 1.6s2 1.5 2.5 2.5c.6 1 .8 2 .8 3 0 1.4-.4 2.7-1.2 3.8-.9 1-2.1 2-3.7 2.5-1.6.6-3.6 1-6 1z"/></g></svg>
