<svg fill="none" height="420" width="621" xmlns="http://www.w3.org/2000/svg"><clipPath id="a"><path d="M0 0h621v420H0z"/></clipPath><g clip-path="url(#a)"><circle cx="320.5" cy="212.5" fill="#fff" r="111" stroke="#faeae5"/><g fill="#e535ab"><path d="m259.567 256.387-6.145-3.548 68.464-118.58 6.145 3.548z"/><path d="M252.014 243.365h136.929v7.097H252.014z"/><path d="m323.214 286.896-68.49-39.544 3.548-6.145 68.49 39.543zM382.711 183.835l-68.49-39.544 3.548-6.146 68.49 39.544z"/><path d="m258.291 183.808-3.548-6.146 68.49-39.544 3.548 6.146z"/><path d="m381.448 256.388-68.464-118.579 6.145-3.549 68.465 118.58zM257.444 172.956h7.096v79.088h-7.096z"/><path d="M376.46 172.956h7.096v79.088h-7.096z"/><path d="m322.006 283.892-3.1-5.368 59.568-34.392 3.099 5.368z"/><path d="M392.961 254.352c-4.104 7.14-13.252 9.576-20.392 5.472-7.139-4.104-9.576-13.252-5.472-20.391 4.104-7.14 13.253-9.576 20.392-5.472 7.182 4.146 9.619 13.252 5.472 20.391zM273.86 185.568c-4.104 7.139-13.253 9.576-20.392 5.472s-9.576-13.253-5.472-20.392 13.252-9.576 20.392-5.472c7.139 4.147 9.576 13.252 5.472 20.392zM248.039 254.352c-4.104-7.139-1.668-16.245 5.472-20.391 7.139-4.104 16.245-1.668 20.391 5.472 4.104 7.139 1.668 16.245-5.472 20.391-7.182 4.104-16.287 1.668-20.391-5.472zM367.14 185.568c-4.104-7.14-1.667-16.245 5.472-20.392 7.14-4.104 16.245-1.667 20.392 5.472 4.104 7.139 1.667 16.245-5.472 20.392-7.139 4.104-16.288 1.667-20.392-5.472zM320.5 296.204c-8.251 0-14.92-6.669-14.92-14.919 0-8.251 6.669-14.92 14.92-14.92s14.92 6.669 14.92 14.92c0 8.208-6.669 14.919-14.92 14.919zM320.5 158.635c-8.251 0-14.92-6.669-14.92-14.92 0-8.25 6.669-14.919 14.92-14.919s14.92 6.669 14.92 14.919c0 8.251-6.669 14.92-14.92 14.92z"/></g><circle cx="225" cy="51" fill="#fff" r="49.5" stroke="#faeae5"/><path d="M255 31h-60c-3.667 0-6.667 3-6.667 6.667v26.666c0 3.667 3 6.667 6.667 6.667h60c3.667 0 6.667-3 6.667-6.667V37.667c0-3.667-3-6.667-6.667-6.667zm0 33.333h-60V37.667h60zM205 61h6.667v-6.667h6.666v-6.666h-6.666V41H205v6.667h-6.667v6.666H205z" fill="#0d9488"/><path d="M233.333 61a5 5 0 1 0 0-10 5 5 0 0 0 0 10zM246.667 51a5 5 0 1 0 0-10 5 5 0 0 0 0 10z" fill="#0d9488"/><circle cx="144" cy="209" fill="#fff" r="49.5" stroke="#faeae5"/><path d="M170.667 182.333h-53.334c-3.7 0-6.666 3-6.666 6.667v40a6.664 6.664 0 0 0 6.666 6.667h53.334c3.666 0 6.666-3 6.666-6.667v-40a6.664 6.664 0 0 0-6.666-6.667zm0 46.667h-53.334v-33.333h53.334zM144 222.333c0-1.833 1.5-3.333 3.333-3.333h13.334c1.833 0 3.333 1.5 3.333 3.333 0 1.834-1.5 3.334-3.333 3.334h-13.334a3.343 3.343 0 0 1-3.333-3.334zm-17.367-20.966c1.3-1.3 3.4-1.3 4.7 0l8.634 8.633c1.3 1.3 1.3 3.4 0 4.7l-8.634 8.633c-1.3 1.3-3.4 1.3-4.7 0s-1.3-3.4 0-4.7l6.267-6.3-6.267-6.266a3.32 3.32 0 0 1 0-4.7z" fill="#646ae9"/><circle cx="225" cy="368" fill="#fff" r="49.5" stroke="#faeae5"/><path d="m258 357.633-3.5-14.566c-.733-3-3.333-5.067-6.367-5.067h-46.3c-3 0-5.633 2.1-6.333 5.067l-3.5 14.566c-.8 3.4-.067 6.867 2.067 9.6.266.367.633.634.933.967v23.133c0 3.667 3 6.667 6.667 6.667h46.666c3.667 0 6.667-3 6.667-6.667V368.2c.3-.3.667-.6.933-.933a11.213 11.213 0 0 0 2.067-9.634zm-9.967-13 3.5 14.567c.334 1.4.034 2.8-.833 3.9-.467.6-1.467 1.567-3.133 1.567-2.034 0-3.8-1.634-4.034-3.8l-1.933-16.2zm-19.7.034h6.534l1.8 15.066c.166 1.3-.234 2.6-1.1 3.567-.734.867-1.8 1.367-3.167 1.367-2.233 0-4.067-1.967-4.067-4.367zM213.3 359.733l1.833-15.066h6.534V360.3c0 2.4-1.834 4.367-4.3 4.367-1.134 0-2.167-.5-2.967-1.367a4.74 4.74 0 0 1-1.1-3.567zm-14.833-.533 3.366-14.533h6.567l-1.933 16.2c-.267 2.166-2 3.8-4.034 3.8a3.839 3.839 0 0 1-3.1-1.567c-.9-1.067-1.2-2.5-.866-3.9zm3.2 32.133v-20.1c.266.034.5.1.766.1 2.9 0 5.534-1.2 7.467-3.166 2 2 4.667 3.166 7.7 3.166 2.9 0 5.5-1.2 7.433-3.1 1.967 1.9 4.634 3.1 7.634 3.1 2.8 0 5.466-1.166 7.466-3.166 1.934 1.966 4.567 3.166 7.467 3.166.267 0 .5-.066.767-.1v20.1z" fill="#e8a13b"/><circle cx="497" cy="213" fill="#fff" r="49.5" stroke="#faeae5"/><path d="M510.667 177.333H484c-4.6 0-8.333 3.734-8.333 8.334v56.666c0 4.6 3.733 8.334 8.333 8.334h26.667c4.6 0 8.333-3.734 8.333-8.334v-56.666c0-4.6-3.733-8.334-8.333-8.334zm-13.334 70c-2.766 0-5-2.233-5-5 0-2.766 2.234-5 5-5 2.767 0 5 2.234 5 5 0 2.767-2.233 5-5 5zm15-13.333h-30v-46.667h30z" fill="#56534f"/><circle cx="418" cy="51" fill="#fff" r="49.5" stroke="#faeae5"/><path d="M448 22.667h-60c-3.667 0-6.667 3-6.667 6.666v40c0 3.667 3 6.667 6.667 6.667h23.333v6.667H408A3.343 3.343 0 0 0 404.667 86c0 1.833 1.5 3.333 3.333 3.333h20c1.833 0 3.333-1.5 3.333-3.333 0-1.833-1.5-3.333-3.333-3.333h-3.333V76H448c3.667 0 6.667-3 6.667-6.667v-40c0-3.666-3-6.666-6.667-6.666zm-3.333 46.666h-53.334A3.343 3.343 0 0 1 388 66V32.667c0-1.834 1.5-3.334 3.333-3.334h53.334c1.833 0 3.333 1.5 3.333 3.334V66c0 1.833-1.5 3.333-3.333 3.333z" fill="#bf4722"/><circle cx="416" cy="368" fill="#fff" r="49.5" stroke="#faeae5"/><path d="m396.7 374.567 4 6.9c.267.433.767.6 1.233.433l4.967-2c1.033.8 2.133 1.467 3.367 1.967l.733 5.3c.1.466.5.833 1 .833h8c.5 0 .9-.367 1-.867l.733-5.3c1.2-.5 2.334-1.166 3.367-1.966l4.967 2c.466.166.966 0 1.233-.434l4-6.9c.267-.433.133-.966-.233-1.3l-4.234-3.3c.1-.633.134-1.3.134-1.933 0-.667-.067-1.3-.134-1.967l4.234-3.3c.366-.3.5-.866.233-1.3l-4-6.9a1.02 1.02 0 0 0-1.233-.433l-4.967 2c-1.033-.8-2.133-1.467-3.367-1.967l-.733-5.3c-.1-.466-.5-.833-1-.833h-8c-.5 0-.9.367-1 .867l-.733 5.3c-1.2.5-2.367 1.133-3.367 1.933l-4.967-2a1.02 1.02 0 0 0-1.233.433l-4 6.9c-.267.434-.133.967.233 1.3l4.234 3.3c-.1.667-.167 1.3-.167 1.967s.067 1.3.133 1.967l-4.233 3.3c-.367.333-.467.866-.2 1.3zM416 362.3c3.133 0 5.7 2.567 5.7 5.7s-2.567 5.7-5.7 5.7-5.7-2.567-5.7-5.7 2.567-5.7 5.7-5.7zm23.333-24.3h-46.666c-3.7 0-6.667 3-6.667 6.667v46.666a6.665 6.665 0 0 0 6.667 6.667h46.666c3.7 0 6.667-3 6.667-6.667v-46.666a6.665 6.665 0 0 0-6.667-6.667zm0 53.333h-46.666v-46.666h46.666z" fill="#4590ae"/><g fill="#bf4722"><path d="M113.179 45.1a3.762 3.762 0 0 0-.49-1.03 3.175 3.175 0 0 0-.739-.789 2.98 2.98 0 0 0-.98-.49 4.088 4.088 0 0 0-1.207-.17c-.781 0-1.477.196-2.088.59s-1.092.97-1.442 1.732c-.346.758-.519 1.681-.519 2.77 0 1.099.173 2.029.519 2.791s.826 1.343 1.442 1.74c.615.393 1.33.59 2.145.59.738 0 1.377-.142 1.917-.426a2.997 2.997 0 0 0 1.257-1.208c.294-.525.441-1.14.441-1.846l.596.092h-3.949v-2.06h5.902v1.747c0 1.246-.265 2.323-.795 3.232a5.434 5.434 0 0 1-2.188 2.102c-.928.488-1.993.732-3.196.732-1.34 0-2.516-.3-3.529-.902-1.009-.606-1.797-1.466-2.365-2.578-.564-1.118-.846-2.443-.846-3.977 0-1.175.166-2.223.497-3.147.337-.923.805-1.707 1.407-2.35a5.985 5.985 0 0 1 2.116-1.478 6.743 6.743 0 0 1 2.642-.511c.805 0 1.556.118 2.252.355a5.954 5.954 0 0 1 1.853.994c.545.431.992.942 1.343 1.534.35.592.58 1.246.689 1.96zm7.979 10.12c-.691 0-1.314-.123-1.868-.37a3.05 3.05 0 0 1-1.307-1.107c-.317-.488-.476-1.09-.476-1.804 0-.616.114-1.125.341-1.527.227-.402.538-.724.931-.966s.835-.424 1.328-.547c.497-.128 1.011-.22 1.541-.277a60.33 60.33 0 0 0 1.555-.177c.398-.057.687-.142.867-.256.184-.118.277-.3.277-.547v-.043c0-.535-.159-.949-.476-1.242-.317-.294-.774-.44-1.371-.44-.63 0-1.129.137-1.498.411-.365.275-.611.6-.739.973l-2.401-.34c.19-.664.502-1.218.938-1.663.436-.45.968-.786 1.598-1.008a6.114 6.114 0 0 1 2.088-.341c.526 0 1.049.061 1.57.185.52.123.996.326 1.427.61.431.28.777.66 1.037 1.144.265.483.398 1.086.398 1.81V55h-2.472v-1.499h-.085a3.118 3.118 0 0 1-.661.853c-.279.26-.632.47-1.058.632-.421.156-.916.234-1.484.234zm.667-1.889c.517 0 .964-.102 1.343-.305.379-.209.67-.483.873-.824.209-.341.313-.713.313-1.115V49.8c-.081.066-.218.128-.412.185a5.792 5.792 0 0 1-.639.149c-.237.043-.471.08-.703.114l-.604.085c-.384.052-.727.137-1.03.256s-.542.284-.717.497c-.175.208-.263.478-.263.81 0 .473.173.83.518 1.072.346.241.786.362 1.321.362zM129.103 55V44.09h2.457v1.855h.128a2.897 2.897 0 0 1 1.13-1.464c.525-.355 1.152-.532 1.882-.532.738 0 1.361.18 1.868.54.511.355.871.84 1.079 1.456h.114a2.978 2.978 0 0 1 1.221-1.45c.578-.364 1.262-.546 2.053-.546 1.004 0 1.823.317 2.457.952.635.634.952 1.56.952 2.777V55h-2.578v-6.925c0-.677-.18-1.172-.54-1.484-.36-.317-.8-.476-1.321-.476-.62 0-1.106.194-1.456.582-.346.384-.518.883-.518 1.499V55h-2.522v-7.031c0-.564-.17-1.013-.511-1.35-.336-.336-.777-.504-1.321-.504-.369 0-.706.095-1.009.284a1.982 1.982 0 0 0-.724.789c-.18.336-.27.729-.27 1.179V55zm22.379.213c-1.094 0-2.039-.227-2.834-.682a4.614 4.614 0 0 1-1.825-1.946c-.426-.843-.639-1.835-.639-2.976 0-1.122.213-2.107.639-2.954.431-.852 1.032-1.515 1.804-1.989.771-.478 1.678-.717 2.72-.717.672 0 1.307.109 1.903.327a4.294 4.294 0 0 1 1.591.994c.464.45.829 1.023 1.094 1.719.265.69.398 1.515.398 2.471v.789h-8.942v-1.733h6.477a2.772 2.772 0 0 0-.319-1.314 2.33 2.33 0 0 0-.874-.916c-.369-.223-.8-.334-1.293-.334-.525 0-.987.128-1.385.383a2.652 2.652 0 0 0-.93.995 2.863 2.863 0 0 0-.334 1.342v1.513c0 .634.116 1.179.348 1.633.232.45.557.796.973 1.037.417.237.905.355 1.463.355.374 0 .713-.052 1.016-.156.303-.109.566-.267.788-.476.223-.208.391-.466.505-.774l2.4.27a3.738 3.738 0 0 1-.866 1.662c-.422.469-.962.833-1.62 1.094-.658.255-1.411.383-2.258.383zm15.248-8.239-2.344.256a1.874 1.874 0 0 0-.348-.668 1.733 1.733 0 0 0-.653-.504c-.275-.128-.611-.192-1.009-.192-.535 0-.985.116-1.349.348-.36.232-.538.533-.533.902a.942.942 0 0 0 .348.775c.242.198.639.362 1.193.49l1.861.397c1.032.223 1.799.576 2.301 1.059.507.483.763 1.115.767 1.896a2.966 2.966 0 0 1-.603 1.818c-.393.521-.94.928-1.641 1.222-.701.293-1.506.44-2.415.44-1.335 0-2.41-.28-3.224-.838-.815-.563-1.3-1.347-1.456-2.35l2.507-.242c.114.492.355.864.724 1.115.37.25.85.376 1.442.376.611 0 1.101-.125 1.47-.376.374-.251.561-.561.561-.93 0-.313-.12-.571-.362-.775-.237-.203-.606-.36-1.108-.469l-1.861-.39c-1.046-.218-1.82-.585-2.322-1.101-.502-.52-.751-1.179-.746-1.974-.005-.673.178-1.255.547-1.748.374-.497.893-.88 1.555-1.15.668-.275 1.437-.412 2.309-.412 1.278 0 2.284.272 3.018.817.739.544 1.196 1.28 1.371 2.208zM483.435 59V44.454h5.568c1.051 0 1.925.166 2.621.498.7.326 1.224.774 1.569 1.342.351.568.526 1.212.526 1.932 0 .592-.114 1.098-.341 1.52a2.87 2.87 0 0 1-.916 1.015c-.384.26-.812.448-1.286.561v.142a3.156 3.156 0 0 1 1.485.476 3.3 3.3 0 0 1 1.171 1.208c.303.52.455 1.15.455 1.889 0 .753-.182 1.43-.547 2.031-.365.597-.914 1.068-1.648 1.414-.734.345-1.657.518-2.77.518zm2.635-2.202h2.833c.957 0 1.646-.182 2.067-.547.426-.369.639-.842.639-1.42a2.175 2.175 0 0 0-1.228-1.989c-.393-.203-.862-.305-1.407-.305h-2.904zm0-6.157h2.606c.455 0 .864-.083 1.229-.249.364-.17.651-.41.859-.717a1.92 1.92 0 0 0 .32-1.108c0-.564-.199-1.028-.597-1.392-.393-.365-.978-.547-1.754-.547h-2.663zM496.066 59V48.09h2.492v1.82h.114c.199-.63.54-1.116 1.023-1.457a2.816 2.816 0 0 1 1.669-.518c.142 0 .301.007.476.021.18.01.329.026.447.05v2.365a2.717 2.717 0 0 0-.518-.1 4.779 4.779 0 0 0-.675-.05 2.6 2.6 0 0 0-1.264.306 2.23 2.23 0 0 0-.874.831 2.341 2.341 0 0 0-.319 1.229V59zm11.839.213c-1.066 0-1.989-.234-2.77-.703a4.772 4.772 0 0 1-1.819-1.967c-.426-.843-.639-1.828-.639-2.955s.213-2.114.639-2.962a4.762 4.762 0 0 1 1.819-1.974c.781-.469 1.704-.703 2.77-.703 1.065 0 1.988.234 2.769.703a4.72 4.72 0 0 1 1.812 1.974c.43.848.646 1.835.646 2.962s-.216 2.112-.646 2.955a4.73 4.73 0 0 1-1.812 1.967c-.781.469-1.704.703-2.769.703zm.014-2.06c.577 0 1.06-.158 1.449-.475.388-.322.677-.753.866-1.293.194-.54.291-1.141.291-1.804 0-.668-.097-1.271-.291-1.811-.189-.545-.478-.978-.866-1.3-.389-.322-.872-.483-1.449-.483-.592 0-1.085.161-1.478.483-.388.322-.679.755-.873 1.3a5.455 5.455 0 0 0-.284 1.811c0 .663.095 1.264.284 1.804.194.54.485.97.873 1.293.393.317.886.475 1.478.475zM516.853 59l-3.082-10.91h2.62l1.918 7.671h.099l1.961-7.67h2.592l1.96 7.628h.107l1.889-7.628h2.628L526.455 59h-2.677l-2.046-7.372h-.149L519.538 59zm22.709-8.026-2.344.256a1.874 1.874 0 0 0-.348-.667 1.733 1.733 0 0 0-.653-.505c-.275-.128-.611-.192-1.009-.192-.535 0-.985.117-1.349.349-.36.231-.538.532-.533.901a.942.942 0 0 0 .348.775c.242.199.639.362 1.193.49l1.861.397c1.032.223 1.799.576 2.301 1.059.507.483.763 1.115.767 1.896a2.966 2.966 0 0 1-.603 1.818c-.393.521-.94.928-1.641 1.222-.701.293-1.506.44-2.415.44-1.335 0-2.41-.28-3.224-.838-.815-.563-1.3-1.347-1.456-2.35l2.507-.242c.114.492.355.864.724 1.115.37.25.85.376 1.442.376.611 0 1.101-.125 1.47-.376.374-.251.561-.561.561-.93 0-.313-.12-.571-.362-.775-.237-.203-.606-.36-1.108-.469l-1.861-.39c-1.046-.218-1.82-.585-2.322-1.101-.502-.52-.751-1.179-.746-1.974-.005-.673.178-1.255.547-1.748.374-.497.893-.88 1.555-1.15.668-.275 1.438-.412 2.309-.412 1.278 0 2.284.272 3.018.817.739.544 1.196 1.28 1.371 2.208zm6.784 8.24c-1.094 0-2.038-.228-2.834-.683a4.614 4.614 0 0 1-1.825-1.946c-.426-.843-.639-1.834-.639-2.976 0-1.122.213-2.107.639-2.954.431-.852 1.032-1.515 1.804-1.989.772-.478 1.678-.717 2.72-.717.672 0 1.307.109 1.903.327a4.294 4.294 0 0 1 1.591.994c.464.45.829 1.023 1.094 1.719.265.69.398 1.515.398 2.471v.789h-8.942v-1.733h6.477a2.76 2.76 0 0 0-.319-1.314 2.33 2.33 0 0 0-.874-.916c-.369-.223-.8-.334-1.293-.334-.525 0-.987.128-1.384.383a2.646 2.646 0 0 0-.931.995 2.863 2.863 0 0 0-.334 1.342v1.513c0 .634.116 1.179.348 1.633.232.45.557.796.973 1.037.417.237.905.355 1.463.355.374 0 .713-.052 1.016-.156.303-.109.566-.267.788-.476.223-.208.391-.466.505-.774l2.4.27a3.738 3.738 0 0 1-.866 1.662c-.422.469-.961.833-1.62 1.094-.658.255-1.411.383-2.258.383zm6.626-.214V48.09h2.493v1.82h.113c.199-.63.54-1.116 1.023-1.457a2.816 2.816 0 0 1 1.669-.518c.142 0 .301.007.476.021.18.01.329.026.447.05v2.365a2.7 2.7 0 0 0-.518-.1 4.779 4.779 0 0 0-.675-.05 2.6 2.6 0 0 0-1.264.306 2.237 2.237 0 0 0-.874.831 2.341 2.341 0 0 0-.319 1.229V59zM574.388 204.455V219h-2.344l-6.854-9.908h-.12V219h-2.635v-14.545h2.358l6.846 9.914h.128v-9.914zm5.496 14.765c-.691 0-1.313-.123-1.867-.369a3.043 3.043 0 0 1-1.307-1.108c-.318-.488-.476-1.089-.476-1.804 0-.616.114-1.125.341-1.527.227-.403.537-.724.93-.966a4.708 4.708 0 0 1 1.328-.547c.497-.128 1.011-.22 1.542-.277a60.362 60.362 0 0 0 1.555-.177c.398-.057.686-.142.866-.256.185-.118.277-.301.277-.547v-.043c0-.535-.158-.949-.475-1.242-.318-.294-.775-.441-1.371-.441-.63 0-1.129.138-1.499.412-.364.275-.611.599-.738.973l-2.401-.341c.189-.663.502-1.217.937-1.662.436-.45.969-.786 1.599-1.008.629-.228 1.325-.341 2.088-.341.525 0 1.048.061 1.569.185.521.123.997.326 1.428.61.431.28.776.661 1.037 1.144.265.483.397 1.086.397 1.811V219h-2.471v-1.499h-.085a3.159 3.159 0 0 1-.661.853 3.18 3.18 0 0 1-1.058.632c-.422.156-.916.234-1.485.234zm.668-1.889c.516 0 .964-.102 1.342-.305.379-.209.67-.483.874-.824.208-.341.312-.713.312-1.115v-1.286c-.08.066-.217.128-.411.185-.19.057-.403.106-.64.149-.236.043-.471.08-.703.114l-.603.085a4.5 4.5 0 0 0-1.03.255 1.726 1.726 0 0 0-.718.498c-.175.208-.262.478-.262.809 0 .474.172.831.518 1.073.346.241.786.362 1.321.362zm12.725-9.24v1.989h-6.271v-1.989zm-4.723-2.614h2.571v10.242c0 .345.052.611.156.795.109.18.251.303.426.37.176.066.37.099.583.099.161 0 .308-.012.44-.036.137-.023.242-.045.313-.063l.433 2.009c-.137.048-.334.1-.59.157-.251.057-.558.09-.923.099-.644.019-1.224-.078-1.74-.291a2.707 2.707 0 0 1-1.229-1.009c-.298-.454-.445-1.022-.44-1.704zM595.027 219v-10.909h2.571V219zm1.293-12.457c-.407 0-.758-.135-1.051-.405a1.305 1.305 0 0 1-.441-.987c0-.389.147-.718.441-.988a1.487 1.487 0 0 1 1.051-.412c.412 0 .762.138 1.051.412.294.27.44.599.44.988 0 .383-.146.712-.44.987-.289.27-.639.405-1.051.405zm13.266 1.548L605.701 219h-2.84l-3.885-10.909h2.741l2.507 8.104h.114l2.514-8.104zm5.838 11.122c-1.094 0-2.038-.227-2.834-.682a4.613 4.613 0 0 1-1.825-1.946c-.426-.843-.639-1.835-.639-2.976 0-1.122.213-2.107.639-2.954.431-.852 1.032-1.515 1.804-1.989.772-.478 1.678-.717 2.72-.717.672 0 1.307.109 1.903.327a4.29 4.29 0 0 1 1.591.994c.464.45.829 1.023 1.094 1.719.265.691.398 1.515.398 2.471v.789h-8.942v-1.733h6.477a2.758 2.758 0 0 0-.319-1.314 2.32 2.32 0 0 0-.874-.916c-.369-.223-.8-.334-1.292-.334-.526 0-.988.128-1.385.383a2.647 2.647 0 0 0-.931.995 2.86 2.86 0 0 0-.334 1.342v1.513c0 .634.116 1.179.348 1.633.232.45.557.796.973 1.037.417.237.905.355 1.464.355.374 0 .712-.052 1.015-.156.303-.109.566-.268.788-.476.223-.208.391-.466.505-.774l2.4.27a3.743 3.743 0 0 1-.866 1.662c-.422.469-.961.833-1.619 1.094-.659.255-1.411.383-2.259.383zM481.435 376v-14.545h5.454c1.118 0 2.055.208 2.813.625a4.166 4.166 0 0 1 1.726 1.718c.393.725.589 1.549.589 2.472 0 .933-.196 1.761-.589 2.486-.393.724-.973 1.295-1.74 1.711-.768.412-1.712.618-2.834.618h-3.615v-2.166h3.26c.653 0 1.188-.114 1.605-.341.416-.227.724-.54.923-.937.204-.398.305-.855.305-1.371s-.101-.971-.305-1.364a2.077 2.077 0 0 0-.93-.916c-.417-.222-.954-.334-1.613-.334h-2.414V376zm19.31-4.588v-6.321h2.571V376h-2.493v-1.939h-.113a3.28 3.28 0 0 1-1.215 1.499c-.558.388-1.247.582-2.067.582-.714 0-1.347-.159-1.896-.476-.544-.322-.97-.788-1.278-1.399-.308-.615-.462-1.359-.462-2.23v-6.946h2.571v6.548c0 .691.19 1.241.568 1.648.379.407.876.611 1.492.611.379 0 .746-.093 1.101-.277.355-.185.646-.46.873-.824.232-.369.348-.831.348-1.385zm4.929 4.588v-14.545h2.571v5.44h.106c.133-.265.32-.547.561-.845a2.99 2.99 0 0 1 .98-.774c.412-.218.938-.327 1.577-.327.843 0 1.603.215 2.28.646.682.426 1.222 1.058 1.619 1.896.403.834.604 1.857.604 3.069 0 1.198-.196 2.216-.589 3.054s-.929 1.477-1.606 1.917c-.677.441-1.444.661-2.301.661-.625 0-1.143-.104-1.555-.313a3.152 3.152 0 0 1-.994-.753 4.87 4.87 0 0 1-.576-.845h-.149V376zm2.521-5.455c0 .706.099 1.324.298 1.854.204.53.495.945.874 1.243.383.294.847.44 1.392.44.568 0 1.044-.151 1.428-.454.383-.308.672-.727.866-1.257.199-.535.298-1.144.298-1.826 0-.677-.097-1.278-.291-1.804-.194-.525-.483-.937-.866-1.235-.384-.299-.862-.448-1.435-.448-.549 0-1.016.145-1.399.433-.384.289-.675.694-.874 1.215-.194.521-.291 1.134-.291 1.839zm12.134-9.09V376h-2.571v-14.545zM522.573 376v-10.909h2.571V376zm1.292-12.457a1.5 1.5 0 0 1-1.051-.405 1.307 1.307 0 0 1-.44-.987c0-.389.147-.718.44-.988a1.489 1.489 0 0 1 1.051-.412c.412 0 .763.138 1.051.412.294.27.441.599.441.988 0 .383-.147.712-.441.987-.288.27-.639.405-1.051.405zm8.281 12.67c-1.089 0-2.024-.239-2.805-.717a4.783 4.783 0 0 1-1.797-1.982c-.417-.847-.625-1.823-.625-2.926 0-1.108.213-2.086.639-2.933.426-.852 1.027-1.515 1.804-1.989.781-.478 1.704-.717 2.77-.717.885 0 1.669.163 2.351.49a4.016 4.016 0 0 1 1.64 1.371c.407.587.639 1.273.696 2.059h-2.457a2.357 2.357 0 0 0-.71-1.314c-.37-.355-.864-.532-1.485-.532-.525 0-.987.142-1.385.426-.397.279-.708.682-.93 1.207-.218.526-.327 1.156-.327 1.889 0 .744.109 1.383.327 1.918.218.53.523.94.916 1.229.398.284.864.426 1.399.426.379 0 .718-.071 1.016-.213.303-.147.556-.358.76-.632.203-.275.343-.609.419-1.002h2.457c-.061.772-.289 1.456-.682 2.053a4.035 4.035 0 0 1-1.605 1.392c-.677.331-1.472.497-2.386.497zm12.927-.213h-2.813l5.121-14.545h3.253L555.762 376h-2.813l-3.885-11.562h-.113zm.092-5.703h7.671v2.116h-7.671zM557.278 376v-14.545h5.454c1.118 0 2.055.208 2.813.625a4.166 4.166 0 0 1 1.726 1.718c.393.725.589 1.549.589 2.472 0 .933-.196 1.761-.589 2.486-.393.724-.973 1.295-1.741 1.711-.767.412-1.711.618-2.833.618h-3.615v-2.166h3.26c.653 0 1.188-.114 1.605-.341.416-.227.724-.54.923-.937.204-.398.305-.855.305-1.371s-.101-.971-.305-1.364a2.077 2.077 0 0 0-.93-.916c-.417-.222-.955-.334-1.613-.334h-2.414V376zm15.106-14.545V376h-2.635v-14.545zm10.962 6.519-2.344.256a1.912 1.912 0 0 0-.348-.668 1.732 1.732 0 0 0-.654-.504c-.274-.128-.61-.192-1.008-.192-.535 0-.985.116-1.35.348-.359.232-.537.533-.532.902a.943.943 0 0 0 .348.775c.241.198.639.362 1.193.49l1.861.397c1.032.223 1.799.576 2.301 1.059.506.483.762 1.115.767 1.896a2.964 2.964 0 0 1-.604 1.818c-.393.521-.94.928-1.64 1.222-.701.293-1.506.44-2.415.44-1.335 0-2.41-.279-3.225-.838-.814-.563-1.299-1.347-1.456-2.351l2.508-.241c.113.492.355.864.724 1.115s.85.376 1.442.376c.611 0 1.101-.125 1.47-.376.374-.251.561-.561.561-.931a.971.971 0 0 0-.362-.774c-.237-.203-.606-.36-1.108-.469l-1.861-.39c-1.046-.218-1.821-.585-2.322-1.101-.502-.521-.751-1.179-.746-1.974-.005-.673.177-1.255.547-1.748.374-.497.892-.88 1.555-1.15.668-.275 1.437-.412 2.308-.412 1.279 0 2.285.272 3.019.817.738.544 1.195 1.28 1.371 2.208zM105.435 376v-14.545h2.635v6.683h.177l5.675-6.683h3.217l-5.625 6.527 5.675 8.018h-3.168l-4.339-6.236-1.612 1.904V376zm13.705 0v-10.909h2.571V376zm1.292-12.457a1.5 1.5 0 0 1-1.051-.405 1.307 1.307 0 0 1-.44-.987c0-.389.147-.718.44-.988a1.489 1.489 0 0 1 1.051-.412c.412 0 .763.138 1.052.412.293.27.44.599.44.988 0 .383-.147.712-.44.987-.289.27-.64.405-1.052.405zm8.281 12.67c-1.065 0-1.988-.234-2.77-.703a4.782 4.782 0 0 1-1.818-1.967c-.426-.843-.639-1.828-.639-2.955s.213-2.114.639-2.962a4.77 4.77 0 0 1 1.818-1.974c.782-.469 1.705-.703 2.77-.703s1.989.234 2.77.703 1.385 1.127 1.811 1.974c.431.848.646 1.835.646 2.962s-.215 2.112-.646 2.955c-.426.842-1.03 1.498-1.811 1.967s-1.705.703-2.77.703zm.014-2.06c.578 0 1.061-.158 1.449-.475.388-.322.677-.753.867-1.293.194-.54.291-1.141.291-1.804 0-.668-.097-1.271-.291-1.811-.19-.545-.479-.978-.867-1.3s-.871-.483-1.449-.483c-.592 0-1.084.161-1.477.483-.388.322-.679.755-.874 1.3a5.453 5.453 0 0 0-.284 1.811c0 .663.095 1.264.284 1.804.195.54.486.971.874 1.293.393.317.885.475 1.477.475zm15.618-6.179-2.344.256a1.88 1.88 0 0 0-.348-.668 1.736 1.736 0 0 0-.653-.504c-.275-.128-.611-.192-1.009-.192-.535 0-.985.116-1.349.348-.36.232-.538.533-.533.902a.943.943 0 0 0 .348.775c.241.198.639.362 1.193.49l1.861.397c1.032.223 1.799.576 2.301 1.059.507.483.762 1.115.767 1.896a2.964 2.964 0 0 1-.604 1.818c-.393.521-.939.928-1.64 1.222-.701.293-1.506.44-2.415.44-1.335 0-2.41-.279-3.224-.838-.815-.563-1.3-1.347-1.456-2.351l2.507-.241c.113.492.355.864.724 1.115s.85.376 1.442.376c.611 0 1.101-.125 1.47-.376.374-.251.561-.561.561-.931a.971.971 0 0 0-.362-.774c-.237-.203-.606-.36-1.108-.469l-1.861-.39c-1.046-.218-1.82-.585-2.322-1.101-.502-.521-.751-1.179-.746-1.974-.005-.673.178-1.255.547-1.748.374-.497.892-.88 1.555-1.15.668-.275 1.437-.412 2.309-.412 1.278 0 2.284.272 3.018.817.739.544 1.196 1.28 1.371 2.208zm4.298 4.603-.007-3.104h.412l3.92-4.382h3.004l-4.822 5.369h-.533zM146.299 376v-14.545h2.571V376zm6.847 0-3.551-4.964 1.733-1.812 4.893 6.776zm12.762-8.026-2.344.256a1.88 1.88 0 0 0-.348-.668 1.736 1.736 0 0 0-.653-.504c-.275-.128-.611-.192-1.009-.192-.535 0-.985.116-1.349.348-.36.232-.538.533-.533.902a.943.943 0 0 0 .348.775c.242.198.639.362 1.193.49l1.861.397c1.032.223 1.799.576 2.301 1.059.507.483.763 1.115.767 1.896a2.963 2.963 0 0 1-.603 1.818c-.393.521-.94.928-1.641 1.222-.701.293-1.506.44-2.415.44-1.335 0-2.41-.279-3.224-.838-.815-.563-1.3-1.347-1.456-2.351l2.507-.241c.114.492.355.864.724 1.115.37.251.85.376 1.442.376.611 0 1.101-.125 1.47-.376.374-.251.561-.561.561-.931 0-.312-.12-.57-.362-.774-.237-.203-.606-.36-1.108-.469l-1.861-.39c-1.046-.218-1.82-.585-2.322-1.101-.502-.521-.75-1.179-.746-1.974-.004-.673.178-1.255.547-1.748.374-.497.893-.88 1.556-1.15.667-.275 1.437-.412 2.308-.412 1.278 0 2.284.272 3.018.817.739.544 1.196 1.28 1.371 2.208zM3.795 203.663v-2.208h11.606v2.208h-4.496V216H8.29v-12.337zm16.577 12.55c-1.094 0-2.039-.227-2.834-.682a4.616 4.616 0 0 1-1.825-1.946c-.427-.843-.64-1.835-.64-2.976 0-1.122.213-2.107.64-2.954.43-.852 1.032-1.515 1.804-1.989.771-.478 1.678-.717 2.72-.717.672 0 1.307.109 1.903.327a4.297 4.297 0 0 1 1.591.994c.464.45.829 1.023 1.094 1.719.265.691.398 1.515.398 2.471v.789H16.28v-1.733h6.477a2.761 2.761 0 0 0-.32-1.314 2.314 2.314 0 0 0-.873-.916c-.37-.223-.8-.334-1.293-.334-.525 0-.987.128-1.385.383a2.644 2.644 0 0 0-.93.995c-.218.407-.33.854-.334 1.342v1.513c0 .634.116 1.179.348 1.633.232.45.556.796.973 1.037.417.237.905.355 1.463.355.374 0 .713-.052 1.016-.156a2.26 2.26 0 0 0 .788-.476c.223-.208.39-.466.504-.774l2.401.27a3.748 3.748 0 0 1-.866 1.662c-.422.469-.962.833-1.62 1.094-.658.255-1.41.383-2.258.383zm6.626-.213v-10.909h2.492v1.818h.114c.199-.63.54-1.115 1.023-1.456a2.812 2.812 0 0 1 1.669-.518c.142 0 .3.007.476.021.18.009.329.026.447.05v2.365a2.731 2.731 0 0 0-.518-.1 4.788 4.788 0 0 0-.675-.049c-.469 0-.89.101-1.264.305-.37.199-.66.476-.874.831s-.32.765-.32 1.229V216zm7.53 0v-10.909h2.457v1.854h.127a2.892 2.892 0 0 1 1.13-1.463c.525-.356 1.153-.533 1.882-.533.738 0 1.361.18 1.868.54.511.355.871.84 1.08 1.456h.113a2.983 2.983 0 0 1 1.221-1.449c.578-.365 1.262-.547 2.053-.547 1.004 0 1.823.317 2.457.952.635.634.952 1.56.952 2.777V216H47.29v-6.925c0-.677-.18-1.172-.54-1.484-.36-.317-.8-.476-1.32-.476-.621 0-1.106.194-1.457.582-.345.384-.518.883-.518 1.499V216h-2.521v-7.031c0-.564-.17-1.014-.512-1.35-.336-.336-.776-.504-1.32-.504-.37 0-.706.095-1.01.284a1.985 1.985 0 0 0-.724.789c-.18.336-.27.729-.27 1.178V216zm17.548 0v-10.909h2.571V216zm1.293-12.457a1.5 1.5 0 0 1-1.051-.405 1.306 1.306 0 0 1-.44-.987c0-.389.146-.718.44-.988a1.488 1.488 0 0 1 1.051-.412c.412 0 .762.138 1.051.412.294.27.44.599.44.988 0 .383-.146.712-.44.987-.289.27-.639.405-1.05.405zm6.093 6.065V216h-2.57v-10.909h2.457v1.854h.128a3.113 3.113 0 0 1 1.2-1.456c.554-.36 1.238-.54 2.052-.54.753 0 1.409.161 1.968.483.563.322.999.788 1.306 1.399.313.611.467 1.352.462 2.223V216h-2.57v-6.548c0-.729-.19-1.3-.569-1.712-.374-.412-.893-.618-1.555-.618-.45 0-.85.1-1.2.298a2.072 2.072 0 0 0-.818.846c-.194.369-.29.816-.29 1.342zm12.356 6.612c-.691 0-1.314-.123-1.868-.369a3.047 3.047 0 0 1-1.307-1.108c-.317-.488-.476-1.089-.476-1.804 0-.616.114-1.125.341-1.527.228-.403.538-.724.93-.966a4.704 4.704 0 0 1 1.329-.547c.497-.128 1.01-.22 1.541-.277.64-.066 1.158-.125 1.556-.177.397-.057.686-.142.866-.256.185-.118.277-.301.277-.547v-.043c0-.535-.159-.949-.476-1.242-.317-.294-.774-.441-1.37-.441-.63 0-1.13.138-1.5.412-.364.275-.61.599-.738.973l-2.4-.341c.189-.663.502-1.217.937-1.662.436-.45.968-.786 1.598-1.008a6.12 6.12 0 0 1 2.088-.341c.526 0 1.049.061 1.57.185.52.123.997.326 1.427.61.431.28.777.661 1.037 1.144.265.483.398 1.086.398 1.811V216h-2.472v-1.499h-.085a3.141 3.141 0 0 1-.66.853c-.28.26-.632.471-1.059.632-.421.156-.916.234-1.484.234zm.668-1.889c.516 0 .963-.102 1.342-.305.379-.209.67-.483.874-.824a2.1 2.1 0 0 0 .312-1.115v-1.286c-.08.066-.218.128-.412.185-.19.057-.402.106-.64.149-.236.043-.47.08-.702.114l-.604.085a4.452 4.452 0 0 0-1.03.256 1.707 1.707 0 0 0-.717.497c-.175.208-.263.478-.263.809 0 .474.173.831.519 1.073.345.241.786.362 1.32.362zm9.848-12.876V216h-2.57v-14.545z"/></g></g></svg>