<svg fill="none" height="420" viewBox="0 0 617 420" width="617" xmlns="http://www.w3.org/2000/svg"><circle cx="320.5" cy="212.5" fill="#fff" r="111" stroke="#faeae5"/><g fill="#e535ab"><path d="m259.567 256.387-6.145-3.548 68.464-118.58 6.145 3.548z"/><path d="m252.014 243.365h136.929v7.097h-136.929z"/><path d="m323.214 286.896-68.49-39.544 3.548-6.145 68.49 39.543z"/><path d="m382.711 183.835-68.49-39.544 3.548-6.146 68.49 39.544z"/><path d="m258.291 183.808-3.548-6.146 68.49-39.544 3.548 6.146z"/><path d="m381.448 256.388-68.464-118.579 6.145-3.549 68.465 118.58z"/><path d="m257.444 172.956h7.096v79.088h-7.096z"/><path d="m376.46 172.956h7.096v79.088h-7.096z"/><path d="m322.006 283.892-3.1-5.368 59.568-34.392 3.099 5.368z"/><path d="m392.961 254.352c-4.104 7.14-13.252 9.576-20.392 5.472-7.139-4.104-9.576-13.252-5.472-20.391 4.104-7.14 13.253-9.576 20.392-5.472 7.182 4.146 9.619 13.252 5.472 20.391z"/><path d="m273.86 185.568c-4.104 7.139-13.253 9.576-20.392 5.472s-9.576-13.253-5.472-20.392 13.252-9.576 20.392-5.472c7.139 4.147 9.576 13.252 5.472 20.392z"/><path d="m248.039 254.352c-4.104-7.139-1.668-16.245 5.472-20.391 7.139-4.104 16.245-1.668 20.391 5.472 4.104 7.139 1.668 16.245-5.472 20.391-7.182 4.104-16.287 1.668-20.391-5.472z"/><path d="m367.14 185.568c-4.104-7.14-1.667-16.245 5.472-20.392 7.14-4.104 16.245-1.667 20.392 5.472 4.104 7.139 1.667 16.245-5.472 20.392-7.139 4.104-16.288 1.667-20.392-5.472z"/><path d="m320.5 296.204c-8.251 0-14.92-6.669-14.92-14.919 0-8.251 6.669-14.92 14.92-14.92s14.92 6.669 14.92 14.92c0 8.208-6.669 14.919-14.92 14.919z"/><path d="m320.5 158.635c-8.251 0-14.92-6.669-14.92-14.92 0-8.25 6.669-14.919 14.92-14.919s14.92 6.669 14.92 14.919c0 8.251-6.669 14.92-14.92 14.92z"/></g><circle cx="225" cy="51" fill="#fff" r="49.5" stroke="#faeae5"/><path d="m255 31h-60c-3.667 0-6.667 3-6.667 6.6667v26.6666c0 3.6667 3 6.6667 6.667 6.6667h60c3.667 0 6.667-3 6.667-6.6667v-26.6666c0-3.6667-3-6.6667-6.667-6.6667zm0 33.3333h-60v-26.6666h60zm-50-3.3333h6.667v-6.6667h6.666v-6.6666h-6.666v-6.6667h-6.667v6.6667h-6.667v6.6666h6.667z" fill="#0d9488"/><path d="m233.333 61c2.762 0 5-2.2386 5-5s-2.238-5-5-5c-2.761 0-5 2.2386-5 5s2.239 5 5 5z" fill="#0d9488"/><path d="m246.667 51c2.761 0 5-2.2386 5-5s-2.239-5-5-5c-2.762 0-5 2.2386-5 5s2.238 5 5 5z" fill="#0d9488"/><circle cx="144" cy="209" fill="#fff" r="49.5" stroke="#faeae5"/><path d="m170.667 182.333h-53.334c-3.7 0-6.666 3-6.666 6.667v40c0 3.667 2.966 6.667 6.666 6.667h53.334c3.666 0 6.666-3 6.666-6.667v-40c0-3.667-2.966-6.667-6.666-6.667zm0 46.667h-53.334v-33.333h53.334zm-26.667-6.667c0-1.833 1.5-3.333 3.333-3.333h13.334c1.833 0 3.333 1.5 3.333 3.333 0 1.834-1.5 3.334-3.333 3.334h-13.334c-1.833 0-3.333-1.5-3.333-3.334zm-17.367-20.966c1.3-1.3 3.4-1.3 4.7 0l8.634 8.633c1.3 1.3 1.3 3.4 0 4.7l-8.634 8.633c-1.3 1.3-3.4 1.3-4.7 0s-1.3-3.4 0-4.7l6.267-6.3-6.267-6.266c-1.3-1.3-1.3-3.4 0-4.7z" fill="#646ae9"/><circle cx="225" cy="368" fill="#fff" r="49.5" stroke="#faeae5"/><path d="m258 357.633-3.5-14.566c-.733-3-3.333-5.067-6.367-5.067h-46.3c-3 0-5.633 2.1-6.333 5.067l-3.5 14.566c-.8 3.4-.067 6.867 2.067 9.6.266.367.633.634.933.967v23.133c0 3.667 3 6.667 6.667 6.667h46.666c3.667 0 6.667-3 6.667-6.667v-23.133c.3-.3.667-.6.933-.933 2.134-2.734 2.9-6.234 2.067-9.634zm-9.967-13 3.5 14.567c.334 1.4.034 2.8-.833 3.9-.467.6-1.467 1.567-3.133 1.567-2.034 0-3.8-1.634-4.034-3.8l-1.933-16.2zm-19.7.034h6.534l1.8 15.066c.166 1.3-.234 2.6-1.1 3.567-.734.867-1.8 1.367-3.167 1.367-2.233 0-4.067-1.967-4.067-4.367zm-15.033 15.066 1.833-15.066h6.534v15.633c0 2.4-1.834 4.367-4.3 4.367-1.134 0-2.167-.5-2.967-1.367-.833-.967-1.233-2.267-1.1-3.567zm-14.833-.533 3.366-14.533h6.567l-1.933 16.2c-.267 2.166-2 3.8-4.034 3.8-1.633 0-2.666-.967-3.1-1.567-.9-1.067-1.2-2.5-.866-3.9zm3.2 32.133v-20.1c.266.034.5.1.766.1 2.9 0 5.534-1.2 7.467-3.166 2 2 4.667 3.166 7.7 3.166 2.9 0 5.5-1.2 7.433-3.1 1.967 1.9 4.634 3.1 7.634 3.1 2.8 0 5.466-1.166 7.466-3.166 1.934 1.966 4.567 3.166 7.467 3.166.267 0 .5-.066.767-.1v20.1z" fill="#e8a13b"/><circle cx="497" cy="213" fill="#fff" r="49.5" stroke="#faeae5"/><path d="m510.667 177.333h-26.667c-4.6 0-8.333 3.734-8.333 8.334v56.666c0 4.6 3.733 8.334 8.333 8.334h26.667c4.6 0 8.333-3.734 8.333-8.334v-56.666c0-4.6-3.733-8.334-8.333-8.334zm-13.334 70c-2.766 0-5-2.233-5-5 0-2.766 2.234-5 5-5 2.767 0 5 2.234 5 5 0 2.767-2.233 5-5 5zm15-13.333h-30v-46.667h30z" fill="#56534f"/><circle cx="418" cy="51" fill="#fff" r="49.5" stroke="#faeae5"/><path d="m448 22.6666h-60c-3.667 0-6.667 3-6.667 6.6667v40c0 3.6667 3 6.6667 6.667 6.6667h23.333v6.6666h-3.333c-1.833 0-3.333 1.5-3.333 3.3334 0 1.8333 1.5 3.3333 3.333 3.3333h20c1.833 0 3.333-1.5 3.333-3.3333 0-1.8334-1.5-3.3334-3.333-3.3334h-3.333v-6.6666h23.333c3.667 0 6.667-3 6.667-6.6667v-40c0-3.6667-3-6.6667-6.667-6.6667zm-3.333 46.6667h-53.334c-1.833 0-3.333-1.5-3.333-3.3333v-33.3334c0-1.8333 1.5-3.3333 3.333-3.3333h53.334c1.833 0 3.333 1.5 3.333 3.3333v33.3334c0 1.8333-1.5 3.3333-3.333 3.3333z" fill="#bf4722"/><circle cx="416" cy="368" fill="#fff" r="49.5" stroke="#faeae5"/><path d="m396.7 374.567 4 6.9c.267.433.767.6 1.233.433l4.967-2c1.033.8 2.133 1.467 3.367 1.967l.733 5.3c.1.466.5.833 1 .833h8c.5 0 .9-.367 1-.867l.733-5.3c1.2-.5 2.334-1.166 3.367-1.966l4.967 2c.466.166.966 0 1.233-.434l4-6.9c.267-.433.133-.966-.233-1.3l-4.234-3.3c.1-.633.134-1.3.134-1.933 0-.667-.067-1.3-.134-1.967l4.234-3.3c.366-.3.5-.866.233-1.3l-4-6.9c-.267-.433-.767-.6-1.233-.433l-4.967 2c-1.033-.8-2.133-1.467-3.367-1.967l-.733-5.3c-.1-.466-.5-.833-1-.833h-8c-.5 0-.9.367-1 .867l-.733 5.3c-1.2.5-2.367 1.133-3.367 1.933l-4.967-2c-.466-.167-.966 0-1.233.433l-4 6.9c-.267.434-.133.967.233 1.3l4.234 3.3c-.1.667-.167 1.3-.167 1.967s.067 1.3.133 1.967l-4.233 3.3c-.367.333-.467.866-.2 1.3zm19.3-12.267c3.133 0 5.7 2.567 5.7 5.7s-2.567 5.7-5.7 5.7-5.7-2.567-5.7-5.7 2.567-5.7 5.7-5.7zm23.333-24.3h-46.666c-3.7 0-6.667 3-6.667 6.667v46.666c0 3.667 2.967 6.667 6.667 6.667h46.666c3.7 0 6.667-3 6.667-6.667v-46.666c0-3.667-2.967-6.667-6.667-6.667zm0 53.333h-46.666v-46.666h46.666z" fill="#4590ae"/><path d="m112.061 45.0895c-.106-.3452-.253-.6541-.441-.9269-.183-.2769-.405-.5135-.665-.7095-.255-.196-.549-.343-.882-.441-.332-.1023-.694-.1534-1.086-.1534-.704 0-1.33.1768-1.88.5305-.549.3537-.982.8736-1.297 1.5597-.311.6818-.467 1.5127-.467 2.4929 0 .9886.156 1.826.467 2.512.311.6861.743 1.2081 1.297 1.5661.554.3537 1.198.5305 1.931.5305.664 0 1.24-.1278 1.725-.3835.491-.2557.868-.6179 1.132-1.0866.264-.4731.396-1.027.396-1.662l.537.0831h-3.554v-1.8537h5.312v1.5725c0 1.1207-.239 2.0902-.716 2.9084-.477.8181-1.133 1.4488-1.969 1.892-.835.4389-1.794.6584-2.876.6584-1.206 0-2.265-.2706-3.177-.8118-.908-.5455-1.617-1.3189-2.129-2.3203-.507-1.0057-.76-2.1989-.76-3.5796 0-1.0568.149-2.0007.447-2.8316.303-.831.725-1.5363 1.266-2.1158.541-.5838 1.176-1.027 1.905-1.3296.728-.3068 1.521-.4602 2.378-.4602.724 0 1.399.1065 2.026.3196.626.2088 1.182.5071 1.668.8949.49.3878.893.848 1.208 1.3807.316.5327.522 1.1207.62 1.7642zm7.541 9.1087c-.622 0-1.182-.1108-1.681-.3324-.494-.2259-.886-.5583-1.176-.9972-.286-.4389-.428-.9801-.428-1.6236 0-.5539.102-1.012.306-1.3743.205-.3622.484-.6519.838-.8693.353-.2173.752-.3814 1.195-.4922.448-.115.91-.1981 1.387-.2493.575-.0596 1.042-.1129 1.4-.1598.358-.0511.618-.1278.78-.2301.166-.1065.249-.2706.249-.4922v-.0383c0-.4815-.143-.8544-.428-1.1186-.286-.2642-.697-.3963-1.234-.3963-.567 0-1.016.1236-1.349.3707-.328.2472-.549.5391-.664.8757l-2.161-.3068c.171-.5966.452-1.0952.844-1.4957.392-.4049.871-.7074 1.438-.9077.567-.2046 1.193-.3068 1.879-.3068.473 0 .944.0554 1.413.1662s.897.294 1.285.5497c.388.2514.699.5944.933 1.0291.239.4347.358.978.358 1.63v6.571h-2.224v-1.3487h-.077c-.141.2727-.339.5284-.595.767-.251.2344-.568.424-.952.5689-.379.1406-.825.211-1.336.211zm.601-1.7003c.464 0 .867-.0917 1.208-.2749.341-.1875.603-.4346.786-.7415.188-.3068.282-.6413.282-1.0035v-1.157c-.073.0597-.197.1151-.371.1662-.171.0512-.362.0959-.576.1342-.213.0384-.424.0725-.632.1023-.209.0299-.39.0554-.544.0767-.345.0469-.654.1236-.926.2301-.273.1066-.488.2557-.646.4475-.158.1875-.237.4304-.237.7287 0 .4261.156.7478.467.9652.311.2173.707.326 1.189.326zm6.91 1.5021v-9.8182h2.211v1.6683h.115c.205-.5625.544-1.0014 1.017-1.3167.473-.3196 1.037-.4794 1.694-.4794.664 0 1.225.1619 1.681.4858.46.3196.784.7564.971 1.3103h.103c.217-.5454.583-.9801 1.099-1.3039.52-.3282 1.136-.4922 1.847-.4922.904 0 1.641.2855 2.212.8565s.857 1.4041.857 2.4993v6.5902h-2.321v-6.2322c0-.6094-.162-1.0547-.486-1.336-.323-.2855-.72-.4282-1.188-.4282-.559 0-.995.1747-1.311.5241-.311.3452-.466.7947-.466 1.3487v6.1236h-2.27v-6.3281c0-.5071-.153-.912-.46-1.2145-.302-.3026-.699-.4538-1.189-.4538-.332 0-.635.0852-.907.2556-.273.1662-.491.4027-.652.7096-.162.3025-.243.6562-.243 1.061v5.9702zm20.501.1918c-.985 0-1.835-.2046-2.551-.6137-.711-.4133-1.259-.9971-1.643-1.7514-.383-.7585-.575-1.6513-.575-2.6783 0-1.0099.192-1.8963.575-2.6591.388-.767.929-1.3636 1.624-1.7897.695-.4304 1.511-.6456 2.448-.6456.605 0 1.176.098 1.713.294.541.1918 1.019.4901 1.432.8949.418.4048.746.9205.984 1.5469.239.6221.358 1.3636.358 2.2244v.7095h-8.047v-1.5596h5.829c-.004-.4432-.1-.8374-.287-1.1826-.188-.3494-.45-.6243-.786-.8245-.333-.2003-.721-.3005-1.164-.3005-.473 0-.888.1151-1.246.3452-.358.2259-.637.5242-.838.8949-.196.3665-.296.7692-.3 1.2081v1.3615c0 .571.104 1.0611.313 1.4702.209.4048.501.7159.876.9332.375.2131.814.3196 1.317.3196.336 0 .641-.0469.914-.1406.272-.098.509-.2408.709-.4283s.352-.4197.454-.6967l2.161.2429c-.137.571-.397 1.0696-.78 1.4957-.38.4219-.865.75-1.458.9844-.592.2301-1.27.3452-2.032.3452zm14.083-7.4148-2.109.2301c-.06-.2131-.165-.4133-.314-.6009-.145-.1874-.341-.3387-.588-.4538-.247-.115-.549-.1726-.907-.1726-.482 0-.887.1044-1.215.3132-.324.2088-.484.4794-.479.8118-.005.2855.1.5178.313.6968.217.1789.575.326 1.074.441l1.674.358c.929.2003 1.62.5177 2.072.9524.455.4346.686 1.0035.69 1.7067-.004.6179-.186 1.1633-.543 1.6363-.354.4688-.846.8352-1.477 1.0995-.631.2642-1.355.3963-2.173.3963-1.202 0-2.169-.2515-2.902-.7543-.733-.5071-1.17-1.2124-1.311-2.1158l2.257-.2173c.102.4432.319.7777.652 1.0036.332.2258.765.3387 1.297.3387.55 0 .991-.1129 1.323-.3387.337-.2259.505-.505.505-.8374 0-.2813-.108-.5135-.326-.6967-.213-.1833-.545-.3239-.997-.4219l-1.674-.3516c-.942-.196-1.639-.5263-2.091-.9907-.451-.4688-.675-1.0611-.671-1.777-.004-.6051.16-1.1293.492-1.5725.337-.4474.804-.7926 1.4-1.0355.601-.2471 1.294-.3707 2.078-.3707 1.15 0 2.056.245 2.716.7351.665.49 1.076 1.1527 1.234 1.9879z" fill="#bf4722"/><path d="m483.291 58v-13.0909h5.012c.946 0 1.732.1491 2.358.4474.631.2941 1.102.6968 1.413 1.2081.315.5114.473 1.0909.473 1.7387 0 .5326-.102.9886-.307 1.3679-.204.375-.479.6797-.825.914-.345.2344-.73.4027-1.156.505v.1278c.464.0256.909.1684 1.335.4283.431.2557.782.6179 1.055 1.0867.273.4687.409 1.0355.409 1.7002 0 .6776-.164 1.287-.492 1.8282-.328.5369-.822.9609-1.483 1.272-.66.3111-1.491.4666-2.493.4666zm2.372-1.9815h2.55c.861 0 1.481-.1641 1.86-.4922.384-.3324.575-.7585.575-1.2784 0-.3878-.095-.7372-.287-1.0483-.192-.3154-.465-.5625-.818-.7415-.354-.1832-.776-.2749-1.266-.2749h-2.614zm0-5.5419h2.346c.409 0 .777-.0746 1.105-.2238.328-.1534.586-.3686.774-.6456.192-.2812.287-.6136.287-.9971 0-.5071-.179-.9247-.537-1.2529-.353-.3281-.879-.4921-1.578-.4921h-2.397zm9.356 7.5234v-9.8182h2.244v1.6364h.102c.179-.5668.486-1.0036.92-1.3104.439-.3111.94-.4666 1.502-.4666.128 0 .271.0064.429.0192.162.0085.296.0234.402.0447v2.1286c-.098-.0341-.253-.064-.466-.0895-.209-.0299-.411-.0448-.607-.0448-.422 0-.802.0917-1.138.2749-.333.179-.595.4283-.786.7479-.192.3196-.288.6882-.288 1.1058v5.772zm11.015.1918c-.959 0-1.79-.211-2.493-.6329-.703-.4218-1.248-1.012-1.636-1.7705-.384-.7586-.575-1.6449-.575-2.6591s.191-1.9027.575-2.6655c.388-.7628.933-1.3551 1.636-1.777s1.534-.6328 2.493-.6328 1.79.2109 2.493.6328 1.246 1.0142 1.63 1.777c.388.7628.582 1.6513.582 2.6655s-.194 1.9005-.582 2.6591c-.384.7585-.927 1.3487-1.63 1.7705-.703.4219-1.534.6329-2.493.6329zm.013-1.8537c.52 0 .954-.1428 1.304-.4283.349-.2898.609-.6776.78-1.1634.174-.4857.262-1.0269.262-1.6235 0-.6009-.088-1.1442-.262-1.63-.171-.4901-.431-.88-.78-1.1697-.35-.2898-.784-.4347-1.304-.4347-.533 0-.976.1449-1.33.4347-.349.2897-.611.6796-.786 1.1697-.17.4858-.256 1.0291-.256 1.63 0 .5966.086 1.1378.256 1.6235.175.4858.437.8736.786 1.1634.354.2855.797.4283 1.33.4283zm8.401 1.6619-2.775-9.8182h2.359l1.726 6.9034h.089l1.765-6.9034h2.333l1.764 6.8651h.096l1.7-6.8651h2.365l-2.78 9.8182h-2.41l-1.841-6.6349h-.134l-1.841 6.6349zm20.798-7.223-2.11.2301c-.059-.2131-.164-.4133-.313-.6009-.145-.1874-.341-.3387-.588-.4538-.247-.115-.55-.1726-.908-.1726-.481 0-.886.1044-1.214.3132-.324.2088-.484.4794-.479.8118-.005.2855.1.5178.313.6968.217.1789.575.326 1.074.441l1.674.358c.929.2003 1.62.5177 2.071.9524.456.4346.686 1.0035.691 1.7067-.005.6179-.186 1.1633-.544 1.6363-.353.4688-.846.8352-1.476 1.0995-.631.2642-1.355.3963-2.174.3963-1.201 0-2.169-.2515-2.901-.7543-.733-.5071-1.17-1.2124-1.311-2.1158l2.257-.2173c.102.4432.319.7777.652 1.0036.332.2258.764.3387 1.297.3387.55 0 .991-.1129 1.323-.3387.337-.2259.505-.505.505-.8374 0-.2813-.108-.5135-.326-.6967-.213-.1833-.545-.3239-.997-.4219l-1.675-.3516c-.941-.196-1.638-.5263-2.09-.9907-.452-.4688-.675-1.0611-.671-1.777-.004-.6051.16-1.1293.492-1.5725.337-.4474.803-.7926 1.4-1.0355.601-.2471 1.293-.3707 2.077-.3707 1.151 0 2.057.245 2.717.7351.665.49 1.076 1.1527 1.234 1.9879zm6.465 7.4148c-.984 0-1.834-.2046-2.55-.6137-.712-.4133-1.259-.9971-1.643-1.7514-.383-.7585-.575-1.6513-.575-2.6783 0-1.0099.192-1.8963.575-2.6591.388-.767.929-1.3636 1.624-1.7897.694-.4304 1.51-.6456 2.448-.6456.605 0 1.176.098 1.713.294.541.1918 1.018.4901 1.432.8949.417.4048.745.9205.984 1.5469.239.6221.358 1.3636.358 2.2244v.7095h-8.048v-1.5596h5.83c-.004-.4432-.1-.8374-.288-1.1826-.187-.3494-.449-.6243-.786-.8245-.332-.2003-.72-.3005-1.163-.3005-.473 0-.889.1151-1.247.3452-.358.2259-.637.5242-.837.8949-.196.3665-.296.7692-.3 1.2081v1.3615c0 .571.104 1.0611.313 1.4702.209.4048.5.7159.875.9332.375.2131.814.3196 1.317.3196.337 0 .642-.0469.914-.1406.273-.098.51-.2408.71-.4283s.351-.4197.454-.6967l2.16.2429c-.136.571-.396 1.0696-.78 1.4957-.379.4219-.865.75-1.457.9844-.592.2301-1.27.3452-2.033.3452zm6.324-.1918v-9.8182h2.243v1.6364h.103c.178-.5668.485-1.0036.92-1.3104.439-.3111.94-.4666 1.502-.4666.128 0 .271.0064.428.0192.162.0085.297.0234.403.0447v2.1286c-.098-.0341-.253-.064-.467-.0895-.208-.0299-.411-.0448-.607-.0448-.422 0-.801.0917-1.138.2749-.332.179-.594.4283-.786.7479s-.287.6882-.287 1.1058v5.772z" fill="#bf4722"/><path d="m573.049 204.909v13.091h-2.109l-6.169-8.917h-.108v8.917h-2.372v-13.091h2.122l6.162 8.923h.115v-8.923zm5.307 13.289c-.622 0-1.183-.111-1.681-.332-.494-.226-.886-.558-1.176-.997-.286-.439-.429-.981-.429-1.624 0-.554.103-1.012.307-1.374.205-.362.484-.652.838-.87.353-.217.752-.381 1.195-.492.447-.115.91-.198 1.387-.249.575-.06 1.042-.113 1.4-.16.358-.051.618-.128.78-.23.166-.107.249-.271.249-.492v-.039c0-.481-.143-.854-.428-1.118-.286-.264-.697-.396-1.234-.396-.567 0-1.016.123-1.349.37-.328.247-.549.539-.664.876l-2.161-.307c.171-.596.452-1.095.844-1.496.392-.404.871-.707 1.438-.907.567-.205 1.193-.307 1.879-.307.473 0 .944.055 1.413.166s.897.294 1.285.55c.388.251.699.594.933 1.029.239.435.358.978.358 1.63v6.571h-2.224v-1.349h-.077c-.141.273-.339.529-.595.767-.251.235-.569.424-.952.569-.379.141-.825.211-1.336.211zm.601-1.7c.464 0 .867-.092 1.208-.275.341-.187.603-.435.786-.741.188-.307.281-.642.281-1.004v-1.157c-.072.06-.196.115-.37.166-.171.051-.363.096-.576.134-.213.039-.424.073-.632.103-.209.03-.39.055-.544.076-.345.047-.654.124-.927.231-.272.106-.488.255-.645.447-.158.187-.237.43-.237.729 0 .426.156.748.467.965s.707.326 1.189.326zm11.812-8.316v1.79h-5.644v-1.79zm-4.25-2.352h2.314v9.217c0 .311.046.55.14.716.098.162.226.273.384.332.157.06.332.09.524.09.145 0 .277-.011.396-.032.124-.022.217-.041.281-.058l.39 1.809c-.123.043-.3.09-.53.141-.226.051-.503.081-.831.089-.58.017-1.102-.07-1.566-.262-.465-.196-.833-.498-1.106-.908-.269-.409-.401-.92-.396-1.534zm6.186 12.17v-9.818h2.313v9.818zm1.163-11.212c-.367 0-.682-.121-.946-.364-.264-.247-.396-.543-.396-.888 0-.35.132-.646.396-.889.264-.247.579-.371.946-.371.371 0 .686.124.946.371.264.243.396.539.396.889 0 .345-.132.641-.396.888-.26.243-.575.364-.946.364zm12.3 1.394-3.497 9.818h-2.556l-3.497-9.818h2.467l2.257 7.293h.102l2.263-7.293zm5.614 10.01c-.985 0-1.835-.205-2.551-.614-.711-.413-1.259-.997-1.643-1.751-.383-.759-.575-1.652-.575-2.679 0-1.01.192-1.896.575-2.659.388-.767.929-1.363 1.624-1.789.695-.431 1.511-.646 2.448-.646.605 0 1.176.098 1.713.294.541.192 1.019.49 1.432.895.418.405.746.92.984 1.547.239.622.358 1.363.358 2.224v.71h-8.047v-1.56h5.829c-.004-.443-.1-.837-.287-1.182-.188-.35-.45-.625-.787-.825-.332-.2-.72-.3-1.163-.3-.473 0-.888.115-1.246.345-.358.226-.637.524-.838.895-.196.366-.296.769-.3 1.208v1.361c0 .571.104 1.061.313 1.47.209.405.501.716.876.934.375.213.814.319 1.317.319.336 0 .641-.047.914-.14.272-.098.509-.241.709-.429.2-.187.352-.419.454-.696l2.16.242c-.136.571-.396 1.07-.779 1.496-.38.422-.865.75-1.458.985-.592.23-1.27.345-2.032.345z" fill="#bf4722"/><path d="m481.291 375v-13.091h4.909c1.006 0 1.85.188 2.532.563.686.375 1.203.89 1.553 1.546.353.652.53 1.394.53 2.225 0 .839-.177 1.585-.53 2.237-.354.652-.876 1.166-1.566 1.541-.691.37-1.541.556-2.551.556h-3.253v-1.95h2.934c.588 0 1.069-.102 1.444-.307.375-.204.652-.485.831-.843.184-.358.275-.77.275-1.234 0-.465-.091-.874-.275-1.227-.179-.354-.458-.629-.837-.825-.375-.2-.859-.3-1.451-.3h-2.173v11.109zm17.74-4.129v-5.689h2.314v9.818h-2.244v-1.745h-.102c-.222.55-.586.999-1.093 1.349-.503.349-1.123.524-1.86.524-.644 0-1.213-.143-1.707-.428-.49-.29-.874-.71-1.151-1.26-.277-.554-.415-1.223-.415-2.007v-6.251h2.314v5.893c0 .622.17 1.117.511 1.483.341.367.789.55 1.343.55.34 0 .671-.083.99-.249.32-.167.582-.414.787-.742.208-.332.313-.748.313-1.246zm4.795 4.129v-13.091h2.314v4.896h.096c.119-.238.288-.492.505-.76.217-.273.511-.505.882-.697.371-.196.844-.294 1.419-.294.759 0 1.443.194 2.052.582.614.383 1.1.952 1.457 1.706.363.75.544 1.671.544 2.762 0 1.078-.177 1.994-.531 2.748-.353.755-.835 1.33-1.444 1.726-.61.396-1.3.595-2.071.595-.563 0-1.029-.094-1.4-.282-.371-.187-.669-.413-.895-.677-.222-.269-.394-.522-.518-.761h-.134v1.547zm2.27-4.909c0 .635.089 1.191.268 1.668.183.478.445.85.786 1.119.345.264.763.396 1.253.396.511 0 .94-.136 1.285-.409.345-.277.605-.654.78-1.131.179-.482.268-1.029.268-1.643 0-.609-.087-1.151-.262-1.624s-.435-.843-.78-1.112c-.345-.268-.775-.403-1.291-.403-.494 0-.914.13-1.259.39s-.607.625-.786 1.093c-.175.469-.262 1.021-.262 1.656zm11.28-8.182v13.091h-2.314v-13.091zm2.379 13.091v-9.818h2.314v9.818zm1.164-11.212c-.367 0-.682-.121-.946-.364-.265-.247-.397-.543-.397-.888 0-.35.132-.646.397-.889.264-.247.579-.371.946-.371.37 0 .686.124.946.371.264.243.396.539.396.889 0 .345-.132.641-.396.888-.26.243-.576.364-.946.364zm7.812 11.404c-.98 0-1.821-.215-2.525-.646-.698-.43-1.237-1.025-1.617-1.783-.375-.763-.562-1.641-.562-2.634 0-.997.192-1.877.575-2.64.384-.767.925-1.363 1.624-1.789.703-.431 1.534-.646 2.493-.646.796 0 1.502.147 2.115.441.618.29 1.11.701 1.477 1.234.366.528.575 1.146.626 1.853h-2.211c-.09-.473-.303-.867-.64-1.182-.332-.32-.777-.48-1.335-.48-.473 0-.889.128-1.247.384-.358.251-.637.614-.837 1.087-.196.473-.294 1.039-.294 1.7 0 .669.098 1.244.294 1.726.196.477.471.846.824 1.106.358.255.778.383 1.26.383.34 0 .645-.064.914-.192.272-.132.5-.321.684-.569.183-.247.308-.547.377-.901h2.211c-.055.695-.26 1.311-.613 1.847-.354.533-.836.951-1.445 1.253-.609.299-1.325.448-2.148.448zm12.355-.192h-2.532l4.609-13.091h2.928l4.615 13.091h-2.532l-3.496-10.406h-.102zm.083-5.133h6.903v1.905h-6.903zm11.261 5.133v-13.091h4.909c1.006 0 1.849.188 2.531.563.686.375 1.204.89 1.553 1.546.354.652.531 1.394.531 2.225 0 .839-.177 1.585-.531 2.237-.353.652-.875 1.166-1.566 1.541-.69.37-1.54.556-2.55.556h-3.254v-1.95h2.934c.588 0 1.07-.102 1.445-.307.375-.204.652-.485.831-.843.183-.358.275-.77.275-1.234 0-.465-.092-.874-.275-1.227-.179-.354-.458-.629-.837-.825-.375-.2-.859-.3-1.451-.3h-2.174v11.109zm13.955-13.091v13.091h-2.371v-13.091zm10.226 5.868-2.109.23c-.06-.213-.164-.413-.314-.601-.144-.187-.341-.339-.588-.454s-.549-.172-.907-.172c-.482 0-.887.104-1.215.313-.324.209-.484.479-.479.812-.005.285.1.518.313.697.217.179.575.326 1.074.441l1.675.358c.929.2 1.619.517 2.071.952.456.435.686 1.004.69 1.707-.004.618-.185 1.163-.543 1.636-.354.469-.846.835-1.477 1.099-.631.265-1.355.397-2.173.397-1.202 0-2.169-.252-2.902-.754-.733-.508-1.17-1.213-1.311-2.116l2.257-.218c.102.444.319.778.652 1.004.332.226.765.339 1.297.339.55 0 .991-.113 1.323-.339.337-.226.505-.505.505-.837 0-.282-.108-.514-.326-.697-.213-.183-.545-.324-.997-.422l-1.674-.352c-.942-.196-1.639-.526-2.091-.99-.451-.469-.675-1.061-.671-1.777-.004-.605.16-1.13.492-1.573.337-.447.804-.792 1.4-1.035.601-.247 1.294-.371 2.078-.371 1.15 0 2.056.245 2.716.735.665.49 1.076 1.153 1.234 1.988z" fill="#bf4722"/><path d="m105.291 375v-13.091h2.372v6.015h.159l5.108-6.015h2.895l-5.062 5.874 5.107 7.217h-2.851l-3.905-5.612-1.451 1.713v3.899zm12.695 0v-9.818h2.314v9.818zm1.163-11.212c-.366 0-.682-.121-.946-.364-.264-.247-.396-.543-.396-.888 0-.35.132-.646.396-.889.264-.247.58-.371.946-.371.371 0 .686.124.946.371.264.243.396.539.396.889 0 .345-.132.641-.396.888-.26.243-.575.364-.946.364zm7.813 11.404c-.959 0-1.79-.211-2.493-.633s-1.249-1.012-1.636-1.771c-.384-.758-.576-1.645-.576-2.659s.192-1.902.576-2.665c.387-.763.933-1.355 1.636-1.777s1.534-.633 2.493-.633 1.79.211 2.493.633 1.246 1.014 1.63 1.777c.387.763.581 1.651.581 2.665s-.194 1.901-.581 2.659c-.384.759-.927 1.349-1.63 1.771s-1.534.633-2.493.633zm.013-1.854c.519 0 .954-.143 1.304-.428.349-.29.609-.678.779-1.164.175-.485.262-1.027.262-1.623 0-.601-.087-1.144-.262-1.63-.17-.49-.43-.88-.779-1.17-.35-.29-.785-.435-1.304-.435-.533 0-.976.145-1.33.435-.349.29-.611.68-.786 1.17-.171.486-.256 1.029-.256 1.63 0 .596.085 1.138.256 1.623.175.486.437.874.786 1.164.354.285.797.428 1.33.428zm14.415-5.561-2.109.23c-.06-.213-.164-.413-.313-.601-.145-.187-.341-.339-.588-.454-.248-.115-.55-.172-.908-.172-.482 0-.886.104-1.215.313-.323.209-.483.479-.479.812-.004.285.1.518.313.697.218.179.576.326 1.074.441l1.675.358c.929.2 1.619.517 2.071.952.456.435.686 1.004.69 1.707-.004.618-.185 1.163-.543 1.636-.354.469-.846.835-1.477 1.099-.63.265-1.355.397-2.173.397-1.202 0-2.169-.252-2.902-.754-.733-.508-1.17-1.213-1.31-2.116l2.256-.218c.102.444.32.778.652 1.004s.765.339 1.298.339c.549 0 .99-.113 1.323-.339.336-.226.505-.505.505-.837 0-.282-.109-.514-.326-.697-.213-.183-.546-.324-.997-.422l-1.675-.352c-.942-.196-1.639-.526-2.09-.99-.452-.469-.676-1.061-.671-1.777-.005-.605.159-1.13.492-1.573.336-.447.803-.792 1.4-1.035.6-.247 1.293-.371 2.077-.371 1.151 0 2.056.245 2.717.735.664.49 1.076 1.153 1.233 1.988zm4.229 4.142-.007-2.793h.371l3.528-3.944h2.704l-4.34 4.832h-.479zm-2.11 3.081v-13.091h2.314v13.091zm6.162 0-3.196-4.468 1.56-1.63 4.404 6.098zm11.846-7.223-2.109.23c-.06-.213-.164-.413-.313-.601-.145-.187-.341-.339-.588-.454-.248-.115-.55-.172-.908-.172-.482 0-.886.104-1.215.313-.323.209-.483.479-.479.812-.004.285.1.518.313.697.218.179.576.326 1.074.441l1.675.358c.929.2 1.619.517 2.071.952.456.435.686 1.004.69 1.707-.004.618-.185 1.163-.543 1.636-.354.469-.846.835-1.477 1.099-.63.265-1.355.397-2.173.397-1.202 0-2.169-.252-2.902-.754-.733-.508-1.17-1.213-1.31-2.116l2.256-.218c.102.444.32.778.652 1.004s.765.339 1.298.339c.549 0 .99-.113 1.323-.339.336-.226.505-.505.505-.837 0-.282-.109-.514-.326-.697-.213-.183-.546-.324-.997-.422l-1.675-.352c-.942-.196-1.639-.526-2.09-.99-.452-.469-.676-1.061-.672-1.777-.004-.605.16-1.13.493-1.573.336-.447.803-.792 1.4-1.035.6-.247 1.293-.371 2.077-.371 1.151 0 2.056.245 2.717.735.664.49 1.076 1.153 1.233 1.988z" fill="#bf4722"/><path d="m3.71591 203.897v-1.988h10.44459v1.988h-4.0462v11.103h-2.35223v-11.103zm15.27859 11.295c-.9844 0-1.8345-.205-2.5504-.614-.7117-.413-1.2593-.997-1.6428-1.751-.3835-.759-.5753-1.652-.5753-2.679 0-1.01.1918-1.896.5753-2.659.3878-.767.929-1.363 1.6236-1.789.6946-.431 1.5106-.646 2.4481-.646.6052 0 1.1762.098 1.7131.294.5412.192 1.0185.49 1.4318.895.4176.405.7458.92.9844 1.547.2386.622.358 1.363.358 2.224v.71h-8.0476v-1.56h5.8295c-.0042-.443-.1001-.837-.2876-1.182-.1875-.35-.4496-.625-.7862-.825-.3324-.2-.7202-.3-1.1634-.3-.473 0-.8885.115-1.2464.345-.358.226-.6371.524-.8374.895-.196.366-.2962.769-.3004 1.208v1.361c0 .571.1044 1.061.3132 1.47.2088.405.5007.716.8757.934.375.213.8139.319 1.3168.319.3366 0 .6413-.047.914-.14.2727-.098.5092-.241.7095-.429.2003-.187.3516-.419.4539-.696l2.1605.242c-.1364.572-.3963 1.07-.7798 1.496-.3793.422-.8651.75-1.4574.985-.5924.23-1.2699.345-2.0327.345zm6.3233-.192v-9.818h2.2436v1.636h.1023c.179-.567.4858-1.003.9205-1.31.4389-.311.9396-.467 1.5021-.467.1278 0 .2706.007.4283.019.1619.009.2961.024.4027.045v2.129c-.0981-.034-.2536-.064-.4667-.09-.2088-.03-.4112-.045-.6072-.045-.4219 0-.8011.092-1.1378.275-.3324.179-.5945.429-.7862.748-.1918.32-.2877.688-.2877 1.106v5.772zm7.1367 0v-9.818h2.2117v1.668h.115c.2046-.562.5434-1.001 1.0164-1.317.473-.319 1.0376-.479 1.6939-.479.6647 0 1.2251.162 1.6811.486.4602.319.7841.756.9716 1.31h.1022c.2174-.545.5839-.98 1.0995-1.304.5199-.328 1.1356-.492 1.8473-.492.9034 0 1.6406.285 2.2116.857.5711.571.8566 1.404.8566 2.499v6.59h-2.3204v-6.232c0-.61-.1619-1.055-.4857-1.336-.3239-.286-.7202-.428-1.189-.428-.5582 0-.995.174-1.3103.524-.3111.345-.4667.794-.4667 1.348v6.124h-2.2691v-6.328c0-.507-.1534-.912-.4603-1.215-.3025-.302-.6988-.453-1.1889-.453-.3324 0-.6349.085-.9076.255-.2728.166-.4901.403-.652.71-.162.302-.2429.656-.2429 1.061v5.97zm16.1543 0v-9.818h2.314v9.818zm1.1634-11.212c-.3665 0-.6818-.121-.946-.364-.2642-.247-.3963-.543-.3963-.888 0-.35.1321-.646.3963-.889.2642-.247.5795-.371.946-.371.3707 0 .6861.124.946.371.2642.243.3963.539.3963.889 0 .345-.1321.641-.3963.888-.2599.243-.5753.364-.946.364zm5.8439 5.459v5.753h-2.3139v-9.818h2.2116v1.668h.1151c.2259-.55.5859-.986 1.0803-1.31.4985-.324 1.1143-.486 1.8473-.486.6775 0 1.2677.145 1.7706.435.5071.289.8991.709 1.1761 1.259.2812.55.4197 1.216.4155 2.001v6.251h-2.3139v-5.893c0-.657-.1705-1.17-.5114-1.541-.3367-.371-.8033-.556-1.3999-.556-.4048 0-.7649.089-1.0802.268-.3111.175-.5561.429-.7351.761-.1747.332-.2621.735-.2621 1.208zm11.4801 5.951c-.6221 0-1.1825-.111-1.6811-.332-.4943-.226-.8863-.558-1.1761-.997-.2855-.439-.4283-.98-.4283-1.624 0-.554.1023-1.012.3068-1.374.2046-.362.4837-.652.8374-.87.3537-.217.7521-.381 1.1953-.492.4475-.115.9098-.198 1.3871-.249.5753-.06 1.0419-.113 1.3998-.16.358-.051.6179-.128.7799-.23.1662-.106.2493-.271.2493-.492v-.038c0-.482-.1428-.855-.4283-1.119s-.6967-.396-1.2337-.396c-.5667 0-1.0163.123-1.3487.37-.3281.247-.5497.539-.6648.876l-2.1605-.307c.1705-.596.4517-1.095.8438-1.496.392-.404.8714-.707 1.4382-.907.5667-.205 1.1932-.307 1.8792-.307.4731 0 .9439.055 1.4127.166.4687.111.897.294 1.2848.55.3878.251.6989.594.9332 1.029.2387.435.358.978.358 1.63v6.571h-2.2244v-1.349h-.0768c-.1406.273-.3387.529-.5944.767-.2514.235-.5689.424-.9524.569-.3793.141-.8246.211-1.336.211zm.6009-1.7c.4645 0 .8672-.092 1.2081-.275.3409-.187.603-.435.7862-.741.1875-.307.2813-.642.2813-1.004v-1.157c-.0725.06-.1961.115-.3708.166-.1704.051-.3622.096-.5753.134-.213.039-.424.073-.6328.103s-.3899.055-.5433.076c-.3452.047-.6541.124-.9269.231-.2727.106-.4879.255-.6455.447-.1577.187-.2366.43-.2366.729 0 .426.1556.748.4667.965.311.217.7074.326 1.1889.326zm9.2237-11.589v13.091h-2.3139v-13.091z" fill="#bf4722"/></svg>