<svg width="621" height="420" viewBox="0 0 621 420" fill="none" xmlns="http://www.w3.org/2000/svg">
<g clip-path="url(#clip0_6_2)">
<circle cx="320.5" cy="212.5" r="111" fill="white" stroke="#FAEAE5"/>
<path d="M259.567 256.387L253.422 252.839L321.886 134.259L328.031 137.807L259.567 256.387Z" fill="#E535AB"/>
<path d="M252.014 243.365H388.943V250.462H252.014V243.365Z" fill="#E535AB"/>
<path d="M323.214 286.896L254.724 247.352L258.272 241.207L326.762 280.75L323.214 286.896Z" fill="#E535AB"/>
<path d="M382.711 183.835L314.221 144.291L317.769 138.145L386.259 177.689L382.711 183.835Z" fill="#E535AB"/>
<path d="M258.291 183.808L254.743 177.662L323.233 138.118L326.781 144.264L258.291 183.808Z" fill="#E535AB"/>
<path d="M381.448 256.388L312.984 137.809L319.129 134.26L387.594 252.84L381.448 256.388Z" fill="#E535AB"/>
<path d="M257.444 172.956H264.54V252.044H257.444V172.956Z" fill="#E535AB"/>
<path d="M376.46 172.956H383.556V252.044H376.46V172.956Z" fill="#E535AB"/>
<path d="M322.006 283.892L318.906 278.524L378.474 244.132L381.573 249.5L322.006 283.892Z" fill="#E535AB"/>
<path d="M392.961 254.352C388.857 261.492 379.709 263.928 372.569 259.824C365.43 255.72 362.993 246.572 367.097 239.433C371.201 232.293 380.35 229.857 387.489 233.961C394.671 238.107 397.108 247.213 392.961 254.352Z" fill="#E535AB"/>
<path d="M273.86 185.568C269.756 192.707 260.607 195.144 253.468 191.04C246.329 186.936 243.892 177.787 247.996 170.648C252.1 163.509 261.248 161.072 268.388 165.176C275.527 169.323 277.964 178.428 273.86 185.568Z" fill="#E535AB"/>
<path d="M248.039 254.352C243.935 247.213 246.371 238.107 253.511 233.961C260.65 229.857 269.756 232.293 273.902 239.433C278.006 246.572 275.57 255.678 268.43 259.824C261.248 263.928 252.143 261.492 248.039 254.352Z" fill="#E535AB"/>
<path d="M367.14 185.568C363.036 178.428 365.473 169.323 372.612 165.176C379.752 161.072 388.857 163.509 393.004 170.648C397.108 177.787 394.671 186.893 387.532 191.04C380.393 195.144 371.244 192.707 367.14 185.568Z" fill="#E535AB"/>
<path d="M320.5 296.204C312.249 296.204 305.58 289.535 305.58 281.285C305.58 273.034 312.249 266.365 320.5 266.365C328.751 266.365 335.42 273.034 335.42 281.285C335.42 289.493 328.751 296.204 320.5 296.204Z" fill="#E535AB"/>
<path d="M320.5 158.635C312.249 158.635 305.58 151.966 305.58 143.715C305.58 135.465 312.249 128.796 320.5 128.796C328.751 128.796 335.42 135.465 335.42 143.715C335.42 151.966 328.751 158.635 320.5 158.635Z" fill="#E535AB"/>
<circle cx="225" cy="51" r="49.5" fill="white" stroke="#FAEAE5"/>
<path d="M255 31H195C191.333 31 188.333 34 188.333 37.6667V64.3333C188.333 68 191.333 71 195 71H255C258.667 71 261.667 68 261.667 64.3333V37.6667C261.667 34 258.667 31 255 31ZM255 64.3333H195V37.6667H255V64.3333ZM205 61H211.667V54.3333H218.333V47.6667H211.667V41H205V47.6667H198.333V54.3333H205V61Z" fill="#0D9488"/>
<path d="M233.333 61C236.095 61 238.333 58.7614 238.333 56C238.333 53.2386 236.095 51 233.333 51C230.572 51 228.333 53.2386 228.333 56C228.333 58.7614 230.572 61 233.333 61Z" fill="#0D9488"/>
<path d="M246.667 51C249.428 51 251.667 48.7614 251.667 46C251.667 43.2386 249.428 41 246.667 41C243.905 41 241.667 43.2386 241.667 46C241.667 48.7614 243.905 51 246.667 51Z" fill="#0D9488"/>
<circle cx="144" cy="209" r="49.5" fill="white" stroke="#FAEAE5"/>
<path d="M170.667 182.333H117.333C113.633 182.333 110.667 185.333 110.667 189V229C110.667 232.667 113.633 235.667 117.333 235.667H170.667C174.333 235.667 177.333 232.667 177.333 229V189C177.333 185.333 174.367 182.333 170.667 182.333ZM170.667 229H117.333V195.667H170.667V229ZM144 222.333C144 220.5 145.5 219 147.333 219H160.667C162.5 219 164 220.5 164 222.333C164 224.167 162.5 225.667 160.667 225.667H147.333C145.5 225.667 144 224.167 144 222.333ZM126.633 201.367C127.933 200.067 130.033 200.067 131.333 201.367L139.967 210C141.267 211.3 141.267 213.4 139.967 214.7L131.333 223.333C130.033 224.633 127.933 224.633 126.633 223.333C125.333 222.033 125.333 219.933 126.633 218.633L132.9 212.333L126.633 206.067C125.333 204.767 125.333 202.667 126.633 201.367Z" fill="#646AE9"/>
<circle cx="225" cy="368" r="49.5" fill="white" stroke="#FAEAE5"/>
<path d="M258 357.633L254.5 343.067C253.767 340.067 251.167 338 248.133 338H201.833C198.833 338 196.2 340.1 195.5 343.067L192 357.633C191.2 361.033 191.933 364.5 194.067 367.233C194.333 367.6 194.7 367.867 195 368.2V391.333C195 395 198 398 201.667 398H248.333C252 398 255 395 255 391.333V368.2C255.3 367.9 255.667 367.6 255.933 367.267C258.067 364.533 258.833 361.033 258 357.633ZM248.033 344.633L251.533 359.2C251.867 360.6 251.567 362 250.7 363.1C250.233 363.7 249.233 364.667 247.567 364.667C245.533 364.667 243.767 363.033 243.533 360.867L241.6 344.667L248.033 344.633ZM228.333 344.667H234.867L236.667 359.733C236.833 361.033 236.433 362.333 235.567 363.3C234.833 364.167 233.767 364.667 232.4 364.667C230.167 364.667 228.333 362.7 228.333 360.3V344.667ZM213.3 359.733L215.133 344.667H221.667V360.3C221.667 362.7 219.833 364.667 217.367 364.667C216.233 364.667 215.2 364.167 214.4 363.3C213.567 362.333 213.167 361.033 213.3 359.733ZM198.467 359.2L201.833 344.667H208.4L206.467 360.867C206.2 363.033 204.467 364.667 202.433 364.667C200.8 364.667 199.767 363.7 199.333 363.1C198.433 362.033 198.133 360.6 198.467 359.2ZM201.667 391.333V371.233C201.933 371.267 202.167 371.333 202.433 371.333C205.333 371.333 207.967 370.133 209.9 368.167C211.9 370.167 214.567 371.333 217.6 371.333C220.5 371.333 223.1 370.133 225.033 368.233C227 370.133 229.667 371.333 232.667 371.333C235.467 371.333 238.133 370.167 240.133 368.167C242.067 370.133 244.7 371.333 247.6 371.333C247.867 371.333 248.1 371.267 248.367 371.233V391.333H201.667Z" fill="#E8A13B"/>
<circle cx="497" cy="213" r="49.5" fill="white" stroke="#FAEAE5"/>
<path d="M510.667 177.333H484C479.4 177.333 475.667 181.067 475.667 185.667V242.333C475.667 246.933 479.4 250.667 484 250.667H510.667C515.267 250.667 519 246.933 519 242.333V185.667C519 181.067 515.267 177.333 510.667 177.333ZM497.333 247.333C494.567 247.333 492.333 245.1 492.333 242.333C492.333 239.567 494.567 237.333 497.333 237.333C500.1 237.333 502.333 239.567 502.333 242.333C502.333 245.1 500.1 247.333 497.333 247.333ZM512.333 234H482.333V187.333H512.333V234Z" fill="#56534F"/>
<circle cx="418" cy="51" r="49.5" fill="white" stroke="#FAEAE5"/>
<path d="M448 22.6666H388C384.333 22.6666 381.333 25.6666 381.333 29.3333V69.3333C381.333 73 384.333 76 388 76H411.333V82.6666H408C406.167 82.6666 404.667 84.1666 404.667 86C404.667 87.8333 406.167 89.3333 408 89.3333H428C429.833 89.3333 431.333 87.8333 431.333 86C431.333 84.1666 429.833 82.6666 428 82.6666H424.667V76H448C451.667 76 454.667 73 454.667 69.3333V29.3333C454.667 25.6666 451.667 22.6666 448 22.6666ZM444.667 69.3333H391.333C389.5 69.3333 388 67.8333 388 66V32.6666C388 30.8333 389.5 29.3333 391.333 29.3333H444.667C446.5 29.3333 448 30.8333 448 32.6666V66C448 67.8333 446.5 69.3333 444.667 69.3333Z" fill="#BF4722"/>
<circle cx="416" cy="368" r="49.5" fill="white" stroke="#FAEAE5"/>
<path d="M396.7 374.567L400.7 381.467C400.967 381.9 401.467 382.067 401.933 381.9L406.9 379.9C407.933 380.7 409.033 381.367 410.267 381.867L411 387.167C411.1 387.633 411.5 388 412 388H420C420.5 388 420.9 387.633 421 387.133L421.733 381.833C422.933 381.333 424.067 380.667 425.1 379.867L430.067 381.867C430.533 382.033 431.033 381.867 431.3 381.433L435.3 374.533C435.567 374.1 435.433 373.567 435.067 373.233L430.833 369.933C430.933 369.3 430.967 368.633 430.967 368C430.967 367.333 430.9 366.7 430.833 366.033L435.067 362.733C435.433 362.433 435.567 361.867 435.3 361.433L431.3 354.533C431.033 354.1 430.533 353.933 430.067 354.1L425.1 356.1C424.067 355.3 422.967 354.633 421.733 354.133L421 348.833C420.9 348.367 420.5 348 420 348H412C411.5 348 411.1 348.367 411 348.867L410.267 354.167C409.067 354.667 407.9 355.3 406.9 356.1L401.933 354.1C401.467 353.933 400.967 354.1 400.7 354.533L396.7 361.433C396.433 361.867 396.567 362.4 396.933 362.733L401.167 366.033C401.067 366.7 401 367.333 401 368C401 368.667 401.067 369.3 401.133 369.967L396.9 373.267C396.533 373.6 396.433 374.133 396.7 374.567ZM416 362.3C419.133 362.3 421.7 364.867 421.7 368C421.7 371.133 419.133 373.7 416 373.7C412.867 373.7 410.3 371.133 410.3 368C410.3 364.867 412.867 362.3 416 362.3ZM439.333 338H392.667C388.967 338 386 341 386 344.667V391.333C386 395 388.967 398 392.667 398H439.333C443.033 398 446 395 446 391.333V344.667C446 341 443.033 338 439.333 338ZM439.333 391.333H392.667V344.667H439.333V391.333Z" fill="#4590AE"/>
<path d="M113.179 45.0994C113.061 44.7159 112.897 44.3726 112.689 44.0696C112.485 43.7618 112.239 43.4991 111.95 43.2812C111.666 43.0634 111.339 42.9001 110.97 42.7912C110.601 42.6776 110.198 42.6207 109.763 42.6207C108.982 42.6207 108.286 42.8172 107.675 43.2102C107.064 43.6032 106.583 44.1809 106.233 44.9432C105.887 45.7008 105.714 46.6241 105.714 47.7131C105.714 48.8116 105.887 49.742 106.233 50.5043C106.579 51.2666 107.059 51.8466 107.675 52.2443C108.29 52.6373 109.005 52.8338 109.82 52.8338C110.558 52.8338 111.197 52.6918 111.737 52.4077C112.282 52.1236 112.701 51.7211 112.994 51.2003C113.288 50.6747 113.435 50.0592 113.435 49.3537L114.031 49.446H110.082V47.3864H115.984V49.1335C115.984 50.3788 115.719 51.456 115.189 52.3651C114.659 53.2741 113.929 53.9749 113.001 54.4673C112.073 54.955 111.008 55.1989 109.805 55.1989C108.465 55.1989 107.289 54.8982 106.276 54.2969C105.267 53.6908 104.479 52.8314 103.911 51.7188C103.347 50.6013 103.065 49.2756 103.065 47.7415C103.065 46.5672 103.231 45.5185 103.562 44.5952C103.899 43.6719 104.367 42.8883 104.969 42.2443C105.57 41.5956 106.276 41.1032 107.085 40.767C107.895 40.4261 108.776 40.2557 109.727 40.2557C110.532 40.2557 111.283 40.3741 111.979 40.6108C112.675 40.8428 113.293 41.1742 113.832 41.6051C114.377 42.036 114.824 42.5473 115.175 43.1392C115.525 43.7311 115.755 44.3845 115.864 45.0994H113.179ZM121.158 55.2202C120.467 55.2202 119.844 55.0971 119.29 54.8509C118.741 54.5999 118.305 54.2306 117.983 53.7429C117.666 53.2552 117.507 52.6539 117.507 51.9389C117.507 51.3234 117.621 50.8144 117.848 50.4119C118.075 50.0095 118.386 49.6875 118.779 49.446C119.172 49.2045 119.614 49.0223 120.107 48.8991C120.604 48.7713 121.118 48.679 121.648 48.6222C122.287 48.5559 122.806 48.4967 123.203 48.4446C123.601 48.3878 123.89 48.3026 124.07 48.1889C124.254 48.0705 124.347 47.8883 124.347 47.642V47.5994C124.347 47.0644 124.188 46.6501 123.871 46.3565C123.554 46.063 123.097 45.9162 122.5 45.9162C121.87 45.9162 121.371 46.0535 121.002 46.3281C120.637 46.6027 120.391 46.9271 120.263 47.3011L117.862 46.9602C118.052 46.2973 118.364 45.7434 118.8 45.2983C119.236 44.8485 119.768 44.5123 120.398 44.2898C121.028 44.0625 121.724 43.9489 122.486 43.9489C123.012 43.9489 123.535 44.0104 124.056 44.1335C124.576 44.2566 125.052 44.4602 125.483 44.7443C125.914 45.0237 126.26 45.4048 126.52 45.8878C126.785 46.3707 126.918 46.9744 126.918 47.6989V55H124.446V53.5014H124.361C124.205 53.8045 123.985 54.0885 123.7 54.3537C123.421 54.6141 123.068 54.8248 122.642 54.9858C122.221 55.142 121.726 55.2202 121.158 55.2202ZM121.825 53.331C122.342 53.331 122.789 53.2292 123.168 53.0256C123.547 52.8172 123.838 52.5426 124.041 52.2017C124.25 51.8608 124.354 51.4891 124.354 51.0866V49.8011C124.273 49.8674 124.136 49.929 123.942 49.9858C123.753 50.0426 123.54 50.0923 123.303 50.1349C123.066 50.1776 122.832 50.2154 122.6 50.2486C122.368 50.2817 122.166 50.3101 121.996 50.3338C121.612 50.3859 121.269 50.4711 120.966 50.5895C120.663 50.7079 120.424 50.8736 120.249 51.0866C120.074 51.295 119.986 51.5649 119.986 51.8963C119.986 52.3698 120.159 52.7273 120.504 52.9688C120.85 53.2102 121.29 53.331 121.825 53.331ZM129.103 55V44.0909H131.56V45.9446H131.688C131.916 45.3196 132.292 44.8319 132.818 44.4815C133.343 44.1264 133.97 43.9489 134.7 43.9489C135.438 43.9489 136.061 44.1288 136.568 44.4886C137.079 44.8437 137.439 45.3291 137.647 45.9446H137.761C138.002 45.3385 138.409 44.8556 138.982 44.4957C139.56 44.1312 140.244 43.9489 141.035 43.9489C142.039 43.9489 142.858 44.2661 143.492 44.9006C144.127 45.535 144.444 46.4607 144.444 47.6776V55H141.866V48.0753C141.866 47.3982 141.686 46.9034 141.326 46.5909C140.966 46.2737 140.526 46.1151 140.005 46.1151C139.385 46.1151 138.899 46.3092 138.549 46.6974C138.203 47.081 138.031 47.5805 138.031 48.196V55H135.509V47.9688C135.509 47.4053 135.339 46.9555 134.998 46.6193C134.662 46.2831 134.221 46.1151 133.677 46.1151C133.308 46.1151 132.971 46.2098 132.668 46.3991C132.365 46.5838 132.124 46.8466 131.944 47.1875C131.764 47.5237 131.674 47.9167 131.674 48.3665V55H129.103ZM151.482 55.2131C150.388 55.2131 149.443 54.9858 148.648 54.5312C147.857 54.072 147.249 53.4233 146.823 52.5852C146.397 51.7424 146.184 50.7505 146.184 49.6094C146.184 48.4872 146.397 47.5024 146.823 46.6548C147.254 45.8026 147.855 45.1397 148.627 44.6662C149.398 44.188 150.305 43.9489 151.347 43.9489C152.019 43.9489 152.654 44.0578 153.25 44.2756C153.852 44.4886 154.382 44.8201 154.841 45.2699C155.305 45.7197 155.67 46.2926 155.935 46.9886C156.2 47.6799 156.333 48.5038 156.333 49.4602V50.2486H147.391V48.5156H153.868C153.863 48.0232 153.757 47.5852 153.549 47.2017C153.34 46.8134 153.049 46.508 152.675 46.2855C152.306 46.063 151.875 45.9517 151.382 45.9517C150.857 45.9517 150.395 46.0795 149.997 46.3352C149.6 46.5862 149.29 46.9176 149.067 47.3295C148.849 47.7367 148.738 48.1842 148.733 48.6719V50.1847C148.733 50.8191 148.849 51.3636 149.081 51.8182C149.313 52.268 149.638 52.6136 150.054 52.8551C150.471 53.0919 150.959 53.2102 151.517 53.2102C151.891 53.2102 152.23 53.1581 152.533 53.054C152.836 52.9451 153.099 52.7865 153.321 52.5781C153.544 52.3698 153.712 52.1117 153.826 51.804L156.226 52.0739C156.075 52.7083 155.786 53.2623 155.36 53.7358C154.938 54.2045 154.398 54.5691 153.74 54.8295C153.082 55.0852 152.329 55.2131 151.482 55.2131ZM166.73 46.9744L164.386 47.2301C164.32 46.9934 164.204 46.7708 164.038 46.5625C163.877 46.3542 163.659 46.1861 163.385 46.0582C163.11 45.9304 162.774 45.8665 162.376 45.8665C161.841 45.8665 161.391 45.9825 161.027 46.2145C160.667 46.4465 160.489 46.7472 160.494 47.1165C160.489 47.4337 160.605 47.6918 160.842 47.8906C161.084 48.0895 161.481 48.2528 162.035 48.3807L163.896 48.7784C164.928 49.0009 165.695 49.3537 166.197 49.8366C166.704 50.3196 166.96 50.9517 166.964 51.733C166.96 52.4195 166.758 53.0256 166.361 53.5511C165.968 54.072 165.421 54.4792 164.72 54.7727C164.019 55.0663 163.214 55.2131 162.305 55.2131C160.97 55.2131 159.895 54.9337 159.081 54.375C158.266 53.8116 157.781 53.0279 157.625 52.0241L160.132 51.7827C160.246 52.2751 160.487 52.6468 160.856 52.8977C161.226 53.1487 161.706 53.2741 162.298 53.2741C162.909 53.2741 163.399 53.1487 163.768 52.8977C164.142 52.6468 164.329 52.3366 164.329 51.9673C164.329 51.6548 164.209 51.3968 163.967 51.1932C163.73 50.9896 163.361 50.8333 162.859 50.7244L160.998 50.3338C159.952 50.116 159.178 49.7491 158.676 49.233C158.174 48.7121 157.925 48.054 157.93 47.2585C157.925 46.5862 158.108 46.0038 158.477 45.5114C158.851 45.0142 159.37 44.6307 160.032 44.3608C160.7 44.0862 161.469 43.9489 162.341 43.9489C163.619 43.9489 164.625 44.2211 165.359 44.7656C166.098 45.3101 166.555 46.0464 166.73 46.9744Z" fill="#BF4722"/>
<path d="M483.435 59V44.4545H489.003C490.054 44.4545 490.928 44.6203 491.624 44.9517C492.324 45.2784 492.848 45.7259 493.193 46.294C493.544 46.8622 493.719 47.5062 493.719 48.2259C493.719 48.8177 493.605 49.3243 493.378 49.7457C493.151 50.1624 492.845 50.5009 492.462 50.7614C492.078 51.0218 491.65 51.2088 491.176 51.3224V51.4645C491.692 51.4929 492.187 51.6515 492.661 51.9403C493.139 52.2244 493.529 52.6269 493.832 53.1477C494.135 53.6686 494.287 54.2983 494.287 55.0369C494.287 55.7898 494.105 56.4669 493.74 57.0682C493.375 57.6648 492.826 58.1359 492.092 58.4815C491.358 58.8272 490.435 59 489.322 59H483.435ZM486.07 56.7983H488.903C489.86 56.7983 490.549 56.616 490.97 56.2514C491.396 55.8821 491.609 55.4086 491.609 54.831C491.609 54.4001 491.503 54.0118 491.29 53.6662C491.077 53.3158 490.774 53.0412 490.381 52.8423C489.988 52.6387 489.519 52.5369 488.974 52.5369H486.07V56.7983ZM486.07 50.6406H488.676C489.131 50.6406 489.54 50.5578 489.905 50.392C490.269 50.2216 490.556 49.9825 490.764 49.6747C490.977 49.3622 491.084 48.9929 491.084 48.5668C491.084 48.0033 490.885 47.5393 490.487 47.1747C490.094 46.8101 489.509 46.6278 488.733 46.6278H486.07V50.6406ZM496.066 59V48.0909H498.558V49.9091H498.672C498.871 49.2794 499.212 48.794 499.695 48.4531C500.183 48.1075 500.739 47.9347 501.364 47.9347C501.506 47.9347 501.665 47.9418 501.84 47.956C502.02 47.9654 502.169 47.982 502.287 48.0057V50.3707C502.178 50.3329 502.005 50.2997 501.769 50.2713C501.537 50.2382 501.312 50.2216 501.094 50.2216C500.625 50.2216 500.204 50.3234 499.83 50.527C499.46 50.7259 499.169 51.0028 498.956 51.358C498.743 51.7131 498.637 52.1226 498.637 52.5866V59H496.066ZM507.905 59.2131C506.839 59.2131 505.916 58.9787 505.135 58.5099C504.353 58.0412 503.747 57.3854 503.316 56.5426C502.89 55.6998 502.677 54.715 502.677 53.5881C502.677 52.4612 502.89 51.474 503.316 50.6264C503.747 49.7789 504.353 49.1207 505.135 48.652C505.916 48.1832 506.839 47.9489 507.905 47.9489C508.97 47.9489 509.893 48.1832 510.674 48.652C511.456 49.1207 512.059 49.7789 512.486 50.6264C512.916 51.474 513.132 52.4612 513.132 53.5881C513.132 54.715 512.916 55.6998 512.486 56.5426C512.059 57.3854 511.456 58.0412 510.674 58.5099C509.893 58.9787 508.97 59.2131 507.905 59.2131ZM507.919 57.1534C508.496 57.1534 508.979 56.9948 509.368 56.6776C509.756 56.3556 510.045 55.9247 510.234 55.3849C510.428 54.8452 510.525 54.2438 510.525 53.581C510.525 52.9134 510.428 52.3097 510.234 51.7699C510.045 51.2254 509.756 50.7921 509.368 50.4702C508.979 50.1482 508.496 49.9872 507.919 49.9872C507.327 49.9872 506.834 50.1482 506.441 50.4702C506.053 50.7921 505.762 51.2254 505.568 51.7699C505.379 52.3097 505.284 52.9134 505.284 53.581C505.284 54.2438 505.379 54.8452 505.568 55.3849C505.762 55.9247 506.053 56.3556 506.441 56.6776C506.834 56.9948 507.327 57.1534 507.919 57.1534ZM516.853 59L513.771 48.0909H516.391L518.309 55.7614H518.408L520.369 48.0909H522.961L524.921 55.7188H525.028L526.917 48.0909H529.545L526.455 59H523.778L521.732 51.6278H521.583L519.538 59H516.853ZM539.562 50.9744L537.218 51.2301C537.152 50.9934 537.036 50.7708 536.87 50.5625C536.709 50.3542 536.491 50.1861 536.217 50.0582C535.942 49.9304 535.606 49.8665 535.208 49.8665C534.673 49.8665 534.223 49.9825 533.859 50.2145C533.499 50.4465 533.321 50.7472 533.326 51.1165C533.321 51.4337 533.437 51.6918 533.674 51.8906C533.916 52.0895 534.313 52.2528 534.867 52.3807L536.728 52.7784C537.76 53.0009 538.527 53.3537 539.029 53.8366C539.536 54.3196 539.792 54.9517 539.796 55.733C539.792 56.4195 539.59 57.0256 539.193 57.5511C538.8 58.072 538.253 58.4792 537.552 58.7727C536.851 59.0663 536.046 59.2131 535.137 59.2131C533.802 59.2131 532.727 58.9337 531.913 58.375C531.098 57.8116 530.613 57.0279 530.457 56.0241L532.964 55.7827C533.078 56.2751 533.319 56.6468 533.688 56.8977C534.058 57.1487 534.538 57.2741 535.13 57.2741C535.741 57.2741 536.231 57.1487 536.6 56.8977C536.974 56.6468 537.161 56.3366 537.161 55.9673C537.161 55.6548 537.041 55.3968 536.799 55.1932C536.562 54.9896 536.193 54.8333 535.691 54.7244L533.83 54.3338C532.784 54.116 532.01 53.7491 531.508 53.233C531.006 52.7121 530.757 52.054 530.762 51.2585C530.757 50.5862 530.94 50.0038 531.309 49.5114C531.683 49.0142 532.202 48.6307 532.864 48.3608C533.532 48.0862 534.302 47.9489 535.173 47.9489C536.451 47.9489 537.457 48.2211 538.191 48.7656C538.93 49.3101 539.387 50.0464 539.562 50.9744ZM546.346 59.2131C545.252 59.2131 544.308 58.9858 543.512 58.5312C542.721 58.072 542.113 57.4233 541.687 56.5852C541.261 55.7424 541.048 54.7505 541.048 53.6094C541.048 52.4872 541.261 51.5024 541.687 50.6548C542.118 49.8026 542.719 49.1397 543.491 48.6662C544.263 48.188 545.169 47.9489 546.211 47.9489C546.883 47.9489 547.518 48.0578 548.114 48.2756C548.716 48.4886 549.246 48.8201 549.705 49.2699C550.169 49.7197 550.534 50.2926 550.799 50.9886C551.064 51.6799 551.197 52.5038 551.197 53.4602V54.2486H542.255V52.5156H548.732C548.728 52.0232 548.621 51.5852 548.413 51.2017C548.204 50.8134 547.913 50.508 547.539 50.2855C547.17 50.063 546.739 49.9517 546.246 49.9517C545.721 49.9517 545.259 50.0795 544.862 50.3352C544.464 50.5862 544.154 50.9176 543.931 51.3295C543.713 51.7367 543.602 52.1842 543.597 52.6719V54.1847C543.597 54.8191 543.713 55.3636 543.945 55.8182C544.177 56.268 544.502 56.6136 544.918 56.8551C545.335 57.0919 545.823 57.2102 546.381 57.2102C546.755 57.2102 547.094 57.1581 547.397 57.054C547.7 56.9451 547.963 56.7865 548.185 56.5781C548.408 56.3698 548.576 56.1117 548.69 55.804L551.09 56.0739C550.939 56.7083 550.65 57.2623 550.224 57.7358C549.802 58.2045 549.263 58.5691 548.604 58.8295C547.946 59.0852 547.193 59.2131 546.346 59.2131ZM552.972 59V48.0909H555.465V49.9091H555.578C555.777 49.2794 556.118 48.794 556.601 48.4531C557.089 48.1075 557.645 47.9347 558.27 47.9347C558.412 47.9347 558.571 47.9418 558.746 47.956C558.926 47.9654 559.075 47.982 559.193 48.0057V50.3707C559.084 50.3329 558.912 50.2997 558.675 50.2713C558.443 50.2382 558.218 50.2216 558 50.2216C557.531 50.2216 557.11 50.3234 556.736 50.527C556.367 50.7259 556.075 51.0028 555.862 51.358C555.649 51.7131 555.543 52.1226 555.543 52.5866V59H552.972Z" fill="#BF4722"/>
<path d="M574.388 204.455V219H572.044L565.19 209.092H565.07V219H562.435V204.455H564.793L571.639 214.369H571.767V204.455H574.388ZM579.884 219.22C579.193 219.22 578.571 219.097 578.017 218.851C577.467 218.6 577.032 218.231 576.71 217.743C576.392 217.255 576.234 216.654 576.234 215.939C576.234 215.323 576.348 214.814 576.575 214.412C576.802 214.009 577.112 213.688 577.505 213.446C577.898 213.205 578.341 213.022 578.833 212.899C579.33 212.771 579.844 212.679 580.375 212.622C581.014 212.556 581.532 212.497 581.93 212.445C582.328 212.388 582.616 212.303 582.796 212.189C582.981 212.071 583.073 211.888 583.073 211.642V211.599C583.073 211.064 582.915 210.65 582.598 210.357C582.28 210.063 581.823 209.916 581.227 209.916C580.597 209.916 580.098 210.054 579.728 210.328C579.364 210.603 579.117 210.927 578.99 211.301L576.589 210.96C576.778 210.297 577.091 209.743 577.526 209.298C577.962 208.848 578.495 208.512 579.125 208.29C579.754 208.062 580.45 207.949 581.213 207.949C581.738 207.949 582.261 208.01 582.782 208.134C583.303 208.257 583.779 208.46 584.21 208.744C584.641 209.024 584.986 209.405 585.247 209.888C585.512 210.371 585.644 210.974 585.644 211.699V219H583.173V217.501H583.088C582.931 217.804 582.711 218.089 582.427 218.354C582.148 218.614 581.795 218.825 581.369 218.986C580.947 219.142 580.453 219.22 579.884 219.22ZM580.552 217.331C581.068 217.331 581.516 217.229 581.894 217.026C582.273 216.817 582.564 216.543 582.768 216.202C582.976 215.861 583.08 215.489 583.08 215.087V213.801C583 213.867 582.863 213.929 582.669 213.986C582.479 214.043 582.266 214.092 582.029 214.135C581.793 214.178 581.558 214.215 581.326 214.249C581.094 214.282 580.893 214.31 580.723 214.334C580.339 214.386 579.996 214.471 579.693 214.589C579.39 214.708 579.151 214.874 578.975 215.087C578.8 215.295 578.713 215.565 578.713 215.896C578.713 216.37 578.885 216.727 579.231 216.969C579.577 217.21 580.017 217.331 580.552 217.331ZM593.277 208.091V210.08H587.006V208.091H593.277ZM588.554 205.477H591.125V215.719C591.125 216.064 591.177 216.33 591.281 216.514C591.39 216.694 591.532 216.817 591.707 216.884C591.883 216.95 592.077 216.983 592.29 216.983C592.451 216.983 592.598 216.971 592.73 216.947C592.867 216.924 592.972 216.902 593.043 216.884L593.476 218.893C593.339 218.941 593.142 218.993 592.886 219.05C592.635 219.107 592.328 219.14 591.963 219.149C591.319 219.168 590.739 219.071 590.223 218.858C589.707 218.64 589.297 218.304 588.994 217.849C588.696 217.395 588.549 216.827 588.554 216.145V205.477ZM595.027 219V208.091H597.598V219H595.027ZM596.32 206.543C595.913 206.543 595.562 206.408 595.269 206.138C594.975 205.863 594.828 205.534 594.828 205.151C594.828 204.762 594.975 204.433 595.269 204.163C595.562 203.889 595.913 203.751 596.32 203.751C596.732 203.751 597.082 203.889 597.371 204.163C597.665 204.433 597.811 204.762 597.811 205.151C597.811 205.534 597.665 205.863 597.371 206.138C597.082 206.408 596.732 206.543 596.32 206.543ZM609.586 208.091L605.701 219H602.861L598.976 208.091H601.717L604.224 216.195H604.338L606.852 208.091H609.586ZM615.424 219.213C614.33 219.213 613.386 218.986 612.59 218.531C611.799 218.072 611.191 217.423 610.765 216.585C610.339 215.742 610.126 214.75 610.126 213.609C610.126 212.487 610.339 211.502 610.765 210.655C611.196 209.803 611.797 209.14 612.569 208.666C613.341 208.188 614.247 207.949 615.289 207.949C615.961 207.949 616.596 208.058 617.192 208.276C617.794 208.489 618.324 208.82 618.783 209.27C619.247 209.72 619.612 210.293 619.877 210.989C620.142 211.68 620.275 212.504 620.275 213.46V214.249H611.333V212.516H617.81C617.806 212.023 617.699 211.585 617.491 211.202C617.282 210.813 616.991 210.508 616.617 210.286C616.248 210.063 615.817 209.952 615.325 209.952C614.799 209.952 614.337 210.08 613.94 210.335C613.542 210.586 613.232 210.918 613.009 211.33C612.791 211.737 612.68 212.184 612.675 212.672V214.185C612.675 214.819 612.791 215.364 613.023 215.818C613.255 216.268 613.58 216.614 613.996 216.855C614.413 217.092 614.901 217.21 615.46 217.21C615.834 217.21 616.172 217.158 616.475 217.054C616.778 216.945 617.041 216.786 617.263 216.578C617.486 216.37 617.654 216.112 617.768 215.804L620.168 216.074C620.017 216.708 619.728 217.262 619.302 217.736C618.88 218.205 618.341 218.569 617.683 218.83C617.024 219.085 616.272 219.213 615.424 219.213Z" fill="#BF4722"/>
<path d="M481.435 376V361.455H486.889C488.007 361.455 488.944 361.663 489.702 362.08C490.464 362.496 491.039 363.069 491.428 363.798C491.821 364.523 492.017 365.347 492.017 366.27C492.017 367.203 491.821 368.031 491.428 368.756C491.035 369.48 490.455 370.051 489.688 370.467C488.92 370.879 487.976 371.085 486.854 371.085H483.239V368.919H486.499C487.152 368.919 487.687 368.805 488.104 368.578C488.52 368.351 488.828 368.038 489.027 367.641C489.231 367.243 489.332 366.786 489.332 366.27C489.332 365.754 489.231 365.299 489.027 364.906C488.828 364.513 488.518 364.208 488.097 363.99C487.68 363.768 487.143 363.656 486.484 363.656H484.07V376H481.435ZM500.745 371.412V365.091H503.316V376H500.823V374.061H500.71C500.464 374.672 500.059 375.171 499.495 375.56C498.937 375.948 498.248 376.142 497.428 376.142C496.714 376.142 496.081 375.983 495.532 375.666C494.988 375.344 494.562 374.878 494.254 374.267C493.946 373.652 493.792 372.908 493.792 372.037V365.091H496.363V371.639C496.363 372.33 496.553 372.88 496.931 373.287C497.31 373.694 497.807 373.898 498.423 373.898C498.802 373.898 499.169 373.805 499.524 373.621C499.879 373.436 500.17 373.161 500.397 372.797C500.629 372.428 500.745 371.966 500.745 371.412ZM505.674 376V361.455H508.245V366.895H508.351C508.484 366.63 508.671 366.348 508.912 366.05C509.154 365.747 509.481 365.489 509.892 365.276C510.304 365.058 510.83 364.949 511.469 364.949C512.312 364.949 513.072 365.164 513.749 365.595C514.431 366.021 514.971 366.653 515.368 367.491C515.771 368.325 515.972 369.348 515.972 370.56C515.972 371.758 515.776 372.776 515.383 373.614C514.99 374.452 514.454 375.091 513.777 375.531C513.1 375.972 512.333 376.192 511.476 376.192C510.851 376.192 510.333 376.088 509.921 375.879C509.509 375.671 509.178 375.42 508.927 375.126C508.68 374.828 508.489 374.546 508.351 374.281H508.202V376H505.674ZM508.195 370.545C508.195 371.251 508.294 371.869 508.493 372.399C508.697 372.929 508.988 373.344 509.367 373.642C509.75 373.936 510.214 374.082 510.759 374.082C511.327 374.082 511.803 373.931 512.187 373.628C512.57 373.32 512.859 372.901 513.053 372.371C513.252 371.836 513.351 371.227 513.351 370.545C513.351 369.868 513.254 369.267 513.06 368.741C512.866 368.216 512.577 367.804 512.194 367.506C511.81 367.207 511.332 367.058 510.759 367.058C510.21 367.058 509.743 367.203 509.36 367.491C508.976 367.78 508.685 368.185 508.486 368.706C508.292 369.227 508.195 369.84 508.195 370.545ZM520.329 361.455V376H517.758V361.455H520.329ZM522.573 376V365.091H525.144V376H522.573ZM523.865 363.543C523.458 363.543 523.108 363.408 522.814 363.138C522.521 362.863 522.374 362.534 522.374 362.151C522.374 361.762 522.521 361.433 522.814 361.163C523.108 360.889 523.458 360.751 523.865 360.751C524.277 360.751 524.628 360.889 524.916 361.163C525.21 361.433 525.357 361.762 525.357 362.151C525.357 362.534 525.21 362.863 524.916 363.138C524.628 363.408 524.277 363.543 523.865 363.543ZM532.146 376.213C531.057 376.213 530.122 375.974 529.341 375.496C528.564 375.018 527.965 374.357 527.544 373.514C527.127 372.667 526.919 371.691 526.919 370.588C526.919 369.48 527.132 368.502 527.558 367.655C527.984 366.803 528.585 366.14 529.362 365.666C530.143 365.188 531.066 364.949 532.132 364.949C533.017 364.949 533.801 365.112 534.483 365.439C535.169 365.761 535.716 366.218 536.123 366.81C536.53 367.397 536.762 368.083 536.819 368.869H534.362C534.262 368.344 534.026 367.906 533.652 367.555C533.282 367.2 532.788 367.023 532.167 367.023C531.642 367.023 531.18 367.165 530.782 367.449C530.385 367.728 530.074 368.131 529.852 368.656C529.634 369.182 529.525 369.812 529.525 370.545C529.525 371.289 529.634 371.928 529.852 372.463C530.07 372.993 530.375 373.403 530.768 373.692C531.166 373.976 531.632 374.118 532.167 374.118C532.546 374.118 532.885 374.047 533.183 373.905C533.486 373.758 533.739 373.547 533.943 373.273C534.146 372.998 534.286 372.664 534.362 372.271H536.819C536.758 373.043 536.53 373.727 536.137 374.324C535.744 374.916 535.209 375.38 534.532 375.716C533.855 376.047 533.06 376.213 532.146 376.213ZM545.073 376H542.26L547.381 361.455H550.634L555.762 376H552.949L549.064 364.438H548.951L545.073 376ZM545.165 370.297H552.836V372.413H545.165V370.297ZM557.278 376V361.455H562.732C563.85 361.455 564.787 361.663 565.545 362.08C566.307 362.496 566.882 363.069 567.271 363.798C567.664 364.523 567.86 365.347 567.86 366.27C567.86 367.203 567.664 368.031 567.271 368.756C566.878 369.48 566.298 370.051 565.53 370.467C564.763 370.879 563.819 371.085 562.697 371.085H559.082V368.919H562.342C562.995 368.919 563.53 368.805 563.947 368.578C564.363 368.351 564.671 368.038 564.87 367.641C565.074 367.243 565.175 366.786 565.175 366.27C565.175 365.754 565.074 365.299 564.87 364.906C564.671 364.513 564.361 364.208 563.94 363.99C563.523 363.768 562.985 363.656 562.327 363.656H559.913V376H557.278ZM572.384 361.455V376H569.749V361.455H572.384ZM583.346 367.974L581.002 368.23C580.935 367.993 580.819 367.771 580.654 367.562C580.493 367.354 580.275 367.186 580 367.058C579.726 366.93 579.39 366.866 578.992 366.866C578.457 366.866 578.007 366.982 577.642 367.214C577.283 367.446 577.105 367.747 577.11 368.116C577.105 368.434 577.221 368.692 577.458 368.891C577.699 369.089 578.097 369.253 578.651 369.381L580.512 369.778C581.544 370.001 582.311 370.354 582.813 370.837C583.319 371.32 583.575 371.952 583.58 372.733C583.575 373.42 583.374 374.026 582.976 374.551C582.583 375.072 582.036 375.479 581.336 375.773C580.635 376.066 579.83 376.213 578.921 376.213C577.586 376.213 576.511 375.934 575.696 375.375C574.882 374.812 574.397 374.028 574.24 373.024L576.748 372.783C576.861 373.275 577.103 373.647 577.472 373.898C577.841 374.149 578.322 374.274 578.914 374.274C579.525 374.274 580.015 374.149 580.384 373.898C580.758 373.647 580.945 373.337 580.945 372.967C580.945 372.655 580.824 372.397 580.583 372.193C580.346 371.99 579.977 371.833 579.475 371.724L577.614 371.334C576.568 371.116 575.793 370.749 575.292 370.233C574.79 369.712 574.541 369.054 574.546 368.259C574.541 367.586 574.723 367.004 575.093 366.511C575.467 366.014 575.985 365.631 576.648 365.361C577.316 365.086 578.085 364.949 578.956 364.949C580.235 364.949 581.241 365.221 581.975 365.766C582.713 366.31 583.17 367.046 583.346 367.974Z" fill="#BF4722"/>
<path d="M105.435 376V361.455H108.07V368.138H108.247L113.922 361.455H117.139L111.514 367.982L117.189 376H114.021L109.682 369.764L108.07 371.668V376H105.435ZM119.14 376V365.091H121.711V376H119.14ZM120.432 363.543C120.025 363.543 119.675 363.408 119.381 363.138C119.088 362.863 118.941 362.534 118.941 362.151C118.941 361.762 119.088 361.433 119.381 361.163C119.675 360.889 120.025 360.751 120.432 360.751C120.844 360.751 121.195 360.889 121.484 361.163C121.777 361.433 121.924 361.762 121.924 362.151C121.924 362.534 121.777 362.863 121.484 363.138C121.195 363.408 120.844 363.543 120.432 363.543ZM128.713 376.213C127.648 376.213 126.725 375.979 125.943 375.51C125.162 375.041 124.556 374.385 124.125 373.543C123.699 372.7 123.486 371.715 123.486 370.588C123.486 369.461 123.699 368.474 124.125 367.626C124.556 366.779 125.162 366.121 125.943 365.652C126.725 365.183 127.648 364.949 128.713 364.949C129.778 364.949 130.702 365.183 131.483 365.652C132.264 366.121 132.868 366.779 133.294 367.626C133.725 368.474 133.94 369.461 133.94 370.588C133.94 371.715 133.725 372.7 133.294 373.543C132.868 374.385 132.264 375.041 131.483 375.51C130.702 375.979 129.778 376.213 128.713 376.213ZM128.727 374.153C129.305 374.153 129.788 373.995 130.176 373.678C130.564 373.356 130.853 372.925 131.043 372.385C131.237 371.845 131.334 371.244 131.334 370.581C131.334 369.913 131.237 369.31 131.043 368.77C130.853 368.225 130.564 367.792 130.176 367.47C129.788 367.148 129.305 366.987 128.727 366.987C128.135 366.987 127.643 367.148 127.25 367.47C126.862 367.792 126.571 368.225 126.376 368.77C126.187 369.31 126.092 369.913 126.092 370.581C126.092 371.244 126.187 371.845 126.376 372.385C126.571 372.925 126.862 373.356 127.25 373.678C127.643 373.995 128.135 374.153 128.727 374.153ZM144.345 367.974L142.001 368.23C141.935 367.993 141.819 367.771 141.653 367.562C141.492 367.354 141.274 367.186 141 367.058C140.725 366.93 140.389 366.866 139.991 366.866C139.456 366.866 139.006 366.982 138.642 367.214C138.282 367.446 138.104 367.747 138.109 368.116C138.104 368.434 138.22 368.692 138.457 368.891C138.698 369.089 139.096 369.253 139.65 369.381L141.511 369.778C142.543 370.001 143.31 370.354 143.812 370.837C144.319 371.32 144.574 371.952 144.579 372.733C144.574 373.42 144.373 374.026 143.975 374.551C143.582 375.072 143.036 375.479 142.335 375.773C141.634 376.066 140.829 376.213 139.92 376.213C138.585 376.213 137.51 375.934 136.696 375.375C135.881 374.812 135.396 374.028 135.24 373.024L137.747 372.783C137.86 373.275 138.102 373.647 138.471 373.898C138.84 374.149 139.321 374.274 139.913 374.274C140.524 374.274 141.014 374.149 141.383 373.898C141.757 373.647 141.944 373.337 141.944 372.967C141.944 372.655 141.823 372.397 141.582 372.193C141.345 371.99 140.976 371.833 140.474 371.724L138.613 371.334C137.567 371.116 136.793 370.749 136.291 370.233C135.789 369.712 135.54 369.054 135.545 368.259C135.54 367.586 135.723 367.004 136.092 366.511C136.466 366.014 136.984 365.631 137.647 365.361C138.315 365.086 139.084 364.949 139.956 364.949C141.234 364.949 142.24 365.221 142.974 365.766C143.713 366.31 144.17 367.046 144.345 367.974ZM148.643 372.577L148.636 369.473H149.048L152.968 365.091H155.972L151.15 370.46H150.617L148.643 372.577ZM146.299 376V361.455H148.87V376H146.299ZM153.146 376L149.595 371.036L151.328 369.224L156.221 376H153.146ZM165.908 367.974L163.564 368.23C163.498 367.993 163.382 367.771 163.216 367.562C163.055 367.354 162.837 367.186 162.563 367.058C162.288 366.93 161.952 366.866 161.554 366.866C161.019 366.866 160.569 366.982 160.205 367.214C159.845 367.446 159.667 367.747 159.672 368.116C159.667 368.434 159.783 368.692 160.02 368.891C160.262 369.089 160.659 369.253 161.213 369.381L163.074 369.778C164.106 370.001 164.873 370.354 165.375 370.837C165.882 371.32 166.138 371.952 166.142 372.733C166.138 373.42 165.936 374.026 165.539 374.551C165.146 375.072 164.599 375.479 163.898 375.773C163.197 376.066 162.392 376.213 161.483 376.213C160.148 376.213 159.073 375.934 158.259 375.375C157.444 374.812 156.959 374.028 156.803 373.024L159.31 372.783C159.424 373.275 159.665 373.647 160.034 373.898C160.404 374.149 160.884 374.274 161.476 374.274C162.087 374.274 162.577 374.149 162.946 373.898C163.32 373.647 163.507 373.337 163.507 372.967C163.507 372.655 163.387 372.397 163.145 372.193C162.908 371.99 162.539 371.833 162.037 371.724L160.176 371.334C159.13 371.116 158.356 370.749 157.854 370.233C157.352 369.712 157.104 369.054 157.108 368.259C157.104 367.586 157.286 367.004 157.655 366.511C158.029 366.014 158.548 365.631 159.211 365.361C159.878 365.086 160.648 364.949 161.519 364.949C162.797 364.949 163.803 365.221 164.537 365.766C165.276 366.31 165.733 367.046 165.908 367.974Z" fill="#BF4722"/>
<path d="M3.79545 203.663L3.79545 201.455L15.4006 201.455L15.4006 203.663L10.9048 203.663L10.9048 216L8.29119 216L8.29119 203.663L3.79545 203.663ZM20.3717 216.213C19.2779 216.213 18.3333 215.986 17.5379 215.531C16.7471 215.072 16.1387 214.423 15.7126 213.585C15.2864 212.742 15.0734 211.75 15.0734 210.609C15.0734 209.487 15.2864 208.502 15.7126 207.655C16.1434 206.803 16.7448 206.14 17.5165 205.666C18.2883 205.188 19.1951 204.949 20.2367 204.949C20.9091 204.949 21.5435 205.058 22.1401 205.276C22.7415 205.489 23.2718 205.82 23.731 206.27C24.1951 206.72 24.5596 207.293 24.8248 207.989C25.0899 208.68 25.2225 209.504 25.2225 210.46L25.2225 211.249L16.2808 211.249L16.2808 209.516L22.758 209.516C22.7533 209.023 22.6468 208.585 22.4384 208.202C22.2301 207.813 21.9389 207.508 21.5648 207.286C21.1955 207.063 20.7647 206.952 20.2722 206.952C19.7467 206.952 19.285 207.08 18.8873 207.335C18.4896 207.586 18.1794 207.918 17.9569 208.33C17.7391 208.737 17.6278 209.184 17.6231 209.672L17.6231 211.185C17.6231 211.819 17.7391 212.364 17.9711 212.818C18.2031 213.268 18.5274 213.614 18.9441 213.855C19.3608 214.092 19.8485 214.21 20.4072 214.21C20.7812 214.21 21.1198 214.158 21.4228 214.054C21.7258 213.945 21.9886 213.786 22.2111 213.578C22.4337 213.37 22.6018 213.112 22.7154 212.804L25.116 213.074C24.9645 213.708 24.6756 214.262 24.2495 214.736C23.8281 215.205 23.2883 215.569 22.6302 215.83C21.972 216.085 21.2192 216.213 20.3717 216.213ZM26.9976 216L26.9976 205.091L29.4905 205.091L29.4905 206.909L29.6041 206.909C29.803 206.279 30.1439 205.794 30.6268 205.453C31.1145 205.107 31.6709 204.935 32.2959 204.935C32.4379 204.935 32.5965 204.942 32.7717 204.956C32.9517 204.965 33.1008 204.982 33.2192 205.006L33.2192 207.371C33.1103 207.333 32.9375 207.3 32.7007 207.271C32.4687 207.238 32.2438 207.222 32.026 207.222C31.5572 207.222 31.1358 207.323 30.7618 207.527C30.3925 207.726 30.1013 208.003 29.8882 208.358C29.6751 208.713 29.5686 209.123 29.5686 209.587L29.5686 216L26.9976 216ZM34.5273 216L34.5273 205.091L36.9847 205.091L36.9847 206.945L37.1125 206.945C37.3398 206.32 37.7162 205.832 38.2418 205.482C38.7673 205.126 39.3947 204.949 40.1239 204.949C40.8625 204.949 41.4851 205.129 41.9918 205.489C42.5031 205.844 42.863 206.329 43.0713 206.945L43.1849 206.945C43.4264 206.339 43.8336 205.856 44.4065 205.496C44.9842 205.131 45.6684 204.949 46.4591 204.949C47.4629 204.949 48.282 205.266 48.9165 205.901C49.5509 206.535 49.8682 207.461 49.8682 208.678L49.8682 216L47.2901 216L47.2901 209.075C47.2901 208.398 47.1101 207.903 46.7503 207.591C46.3904 207.274 45.9501 207.115 45.4293 207.115C44.809 207.115 44.3237 207.309 43.9733 207.697C43.6276 208.081 43.4548 208.58 43.4548 209.196L43.4548 216L40.9335 216L40.9335 208.969C40.9335 208.405 40.7631 207.955 40.4222 207.619C40.086 207.283 39.6456 207.115 39.1011 207.115C38.7318 207.115 38.3956 207.21 38.0926 207.399C37.7896 207.584 37.5481 207.847 37.3682 208.188C37.1883 208.524 37.0983 208.917 37.0983 209.366L37.0983 216L34.5273 216ZM52.0765 216L52.0765 205.091L54.6475 205.091L54.6475 216L52.0765 216ZM53.3691 203.543C52.9619 203.543 52.6115 203.408 52.318 203.138C52.0244 202.863 51.8776 202.534 51.8776 202.151C51.8776 201.762 52.0244 201.433 52.318 201.163C52.6115 200.889 52.9619 200.751 53.3691 200.751C53.781 200.751 54.1314 200.889 54.4202 201.163C54.7138 201.433 54.8606 201.762 54.8606 202.151C54.8606 202.534 54.7138 202.863 54.4202 203.138C54.1314 203.408 53.781 203.543 53.3691 203.543ZM59.4624 209.608L59.4624 216L56.8913 216L56.8913 205.091L59.3487 205.091L59.3487 206.945L59.4766 206.945C59.7275 206.334 60.1276 205.848 60.6768 205.489C61.2308 205.129 61.915 204.949 62.7294 204.949C63.4822 204.949 64.138 205.11 64.6967 205.432C65.2602 205.754 65.6958 206.22 66.0035 206.831C66.316 207.442 66.4699 208.183 66.4652 209.054L66.4652 216L63.8942 216L63.8942 209.452C63.8942 208.723 63.7048 208.152 63.326 207.74C62.9519 207.328 62.4335 207.122 61.7706 207.122C61.3208 207.122 60.9207 207.222 60.5703 207.42C60.2247 207.615 59.9524 207.896 59.7535 208.266C59.5594 208.635 59.4624 209.082 59.4624 209.608ZM71.818 216.22C71.1267 216.22 70.5041 216.097 69.9501 215.851C69.4009 215.6 68.9653 215.231 68.6433 214.743C68.3261 214.255 68.1675 213.654 68.1675 212.939C68.1675 212.323 68.2811 211.814 68.5084 211.412C68.7356 211.009 69.0458 210.688 69.4388 210.446C69.8318 210.205 70.2745 210.022 70.7669 209.899C71.2641 209.771 71.7778 209.679 72.3081 209.622C72.9473 209.556 73.4658 209.497 73.8635 209.445C74.2612 209.388 74.55 209.303 74.73 209.189C74.9146 209.071 75.007 208.888 75.007 208.642L75.007 208.599C75.007 208.064 74.8483 207.65 74.5311 207.357C74.2139 207.063 73.757 206.916 73.1604 206.916C72.5306 206.916 72.0311 207.054 71.6618 207.328C71.2972 207.603 71.051 207.927 70.9231 208.301L68.5226 207.96C68.712 207.297 69.0245 206.743 69.4601 206.298C69.8957 205.848 70.4284 205.512 71.0581 205.29C71.6878 205.063 72.3839 204.949 73.1462 204.949C73.6717 204.949 74.1949 205.01 74.7158 205.134C75.2366 205.257 75.7125 205.46 76.1433 205.744C76.5742 206.024 76.9198 206.405 77.1803 206.888C77.4454 207.371 77.578 207.974 77.578 208.699L77.578 216L75.1064 216L75.1064 214.501L75.0212 214.501C74.8649 214.804 74.6447 215.089 74.3606 215.354C74.0813 215.614 73.7285 215.825 73.3024 215.986C72.881 216.142 72.3862 216.22 71.818 216.22ZM72.4856 214.331C73.0017 214.331 73.4492 214.229 73.828 214.026C74.2068 213.817 74.498 213.543 74.7016 213.202C74.9099 212.861 75.0141 212.489 75.0141 212.087L75.0141 210.801C74.9336 210.867 74.7963 210.929 74.6021 210.986C74.4127 211.043 74.1997 211.092 73.9629 211.135C73.7262 211.178 73.4918 211.215 73.2598 211.249C73.0278 211.282 72.8266 211.31 72.6561 211.334C72.2726 211.386 71.9293 211.471 71.6263 211.59C71.3232 211.708 71.0841 211.874 70.9089 212.087C70.7338 212.295 70.6462 212.565 70.6462 212.896C70.6462 213.37 70.819 213.727 71.1646 213.969C71.5103 214.21 71.9506 214.331 72.4856 214.331ZM82.3342 201.455L82.3342 216L79.7632 216L79.7632 201.455L82.3342 201.455Z" fill="#BF4722"/>
</g>
<defs>
<clipPath id="clip0_6_2">
<rect width="621" height="420" fill="white"/>
</clipPath>
</defs>
</svg>
