<svg fill="#682712" height="100" viewBox="0 0 128 128" width="100" xmlns="http://www.w3.org/2000/svg"><path d="M69.992 39.437c.465-5.403 3.112-10.167 7.008-13.48V13.005A2.006 2.006 0 0 0 74.994 11H14.006A2.006 2.006 0 0 0 12 13.006v34.988c0 1.108.898 2.006 2.006 2.006H65.8c1.669-2.704 3.207-7.005 4.193-10.563zm-37.55 1.421c-.391.391-.903.586-1.415.586s-1.023-.195-1.414-.586l-8.14-8.139a3.455 3.455 0 0 1 0-4.877l7.892-7.892a2 2 0 1 1 2.828 2.828l-7.502 7.502 7.75 7.75a2 2 0 0 1 0 2.828zm16.72-18.58L39.858 40.36a2 2 0 1 1-3.556-1.83l9.301-18.08a2 2 0 0 1 3.557 1.83zm6.936 18.58c-.391.391-.903.586-1.414.586s-1.024-.195-1.414-.586a2 2 0 0 1 0-2.828l7.501-7.502-7.749-7.75a2 2 0 1 1 2.829-2.828l8.138 8.139c.652.65 1.011 1.517 1.011 2.439s-.36 1.788-1.01 2.44zM74.614 31.693c-.05.083-.102.166-.151.25-.18.3-.342.61-.504.921-.157.308-.311.616-.45.933-.051.114-.1.23-.149.345a17.896 17.896 0 0 0-1.382 5.588c-.506 1.848-1.924 6.656-3.886 10.27-.544 1.002-1.128 1.914-1.747 2.64a4.08 4.08 0 0 0-.956 2.618c-.003.31.026.622.09.93l.012.061c.378 1.827 1.838 3.227 3.673 3.489.44.063.935.118 1.493.16 2.67.202 5.368-.683 7.224-2.612a8.218 8.218 0 0 0 1.062-1.385c.1-.163.2-.325.29-.5A17.893 17.893 0 0 0 89.9 58.994c.033 0 .066.005.099.005.642 0 1.276-.037 1.901-.102a17.907 17.907 0 0 0 9.41-3.905c1.34 2.91 3.414 4.905 6.547 4.905.81 0 1.524-.034 2.152-.094 2.605-.248 4.572-2.479 4.572-5.11v-.073c0-1.462-.645-2.833-1.723-3.822-4.187-3.842-4.173-10.371-5.526-14.6-1.941-7.018-8.009-12.32-15.438-13.098A18.186 18.186 0 0 0 90 23c-5.116 0-9.723 2.145-13 5.571a18.041 18.041 0 0 0-2.386 3.122zm17.287 25.183c-.625.075-1.257.124-1.901.124-.033 0-.066-.005-.099-.005-5.694-.035-10.678-3.065-13.487-7.585a15.867 15.867 0 0 1-2.287-6.487c1.01-.037 1.97-.18 2.873-.418 7.365-1.94 11.17-9.717 11.17-9.717a18.743 18.743 0 0 0 1.731 3.195 17.766 17.766 0 0 0 2 2.465c2.599 2.674 5.392 3.869 6.623 4.294.388.133.644.489.654.899.077 3.186.472 6.532 1.369 9.36a15.922 15.922 0 0 1-8.646 3.875zM99.917 64.046v-1.015a2 2 0 0 0-2-2H84.006a2 2 0 0 0-2 2V64h-.03a16 16 0 0 0-12.213 5.663l-11.291 13.34-.007-.009-6.127 7.115a1.996 1.996 0 0 1-2.79.237l-11.515-9.513-2.552-3.207a38.714 38.714 0 0 0-5.379-5.527l-4.957-4.169a3.135 3.135 0 0 0-2.023-.738 3.144 3.144 0 0 0-2.5 5.052l1.935 2.534a2 2 0 0 1 .316 1.821l-.656 2.058a6 6 0 0 0 1.286 5.869l.122.134a26.587 26.587 0 0 0 5.463 4.568l.033-.028 15.859 16.4a9.979 9.979 0 0 0 7.19 3.049 9.968 9.968 0 0 0 6.494-2.398l10.095-8.624-.051-.208a12.828 12.828 0 0 1-.388-3.018c0-.027-.004-.053-.004-.08v-8.497a1 1 0 1 1 2 0v8.497c0 2.848 1.095 5.54 3.082 7.58l.253.212c.222.19.349.467.349.759v.215l.018.025v14.808a2 2 0 0 0 2 2h30.432c.089 0 .173-.016.258-.027.095.014.19.027.288.027H117a2 2 0 0 0 2-2V84c0-10.736-8.466-19.471-19.083-19.954zM33.035 90.371 30.56 87.81c-.2-.208-.439-.36-.695-.46a24.596 24.596 0 0 1-4.762-4.038l-.123-.135a4.01 4.01 0 0 1-.857-3.912l.657-2.058a4.003 4.003 0 0 0-.632-3.643l-1.935-2.533a1.138 1.138 0 0 1 .082-1.485c.218-.228.512-.354.828-.354.19 0 .472.047.736.269l4.957 4.168a36.793 36.793 0 0 1 5.101 5.242l2.552 3.207a2 2 0 0 0 .291.297l2.34 1.932-.92.92a2.972 2.972 0 0 0-1.273-.292 3 3 0 0 0-3 3c0 .456.11.884.293 1.272zm24.33 14.36a8.002 8.002 0 0 1-5.194 1.918 7.937 7.937 0 0 1-5.754-2.44l-11.991-12.4 1.18-1.182a2.97 2.97 0 0 0 1.3.308 3 3 0 0 0 3-3 2.97 2.97 0 0 0-.307-1.3l1.048-1.049 7.628 6.302a3.997 3.997 0 0 0 5.578-.474l3.824-4.44 9.462 9.406zM85 92h-7a1 1 0 1 1 0-2h7a1 1 0 1 1 0 2zm9.78-5.878a2 2 0 1 1 0-4 2 2 0 0 1 0 4zm0-7.92a2 2 0 1 1 0-4 2 2 0 0 1 0 4zm5.89-9.502c-2.937 1.329-6.25 1.947-10.428 1.947-6.79 0-10.346-1.9-10.495-1.98a1 1 0 0 1 .957-1.757c.07.038 3.346 1.737 9.538 1.737 3.884 0 6.936-.562 9.605-1.77a1 1 0 1 1 .824 1.823zM117 118.008h-8.558c0-.122.007-.154.006-.188l-1.087-21.747a2 2 0 0 1 1.997-2.098H117z"/></svg>