<svg fill="#682712" height="100" viewBox="0 0 128 128" width="100" xmlns="http://www.w3.org/2000/svg"><path d="m107.73 98.342-7.744-22.32A23.838 23.838 0 0 0 77.466 60h-.018a6 6 0 0 0-4.243 1.757l-1.91 1.91a6.1 6.1 0 0 1-8.648-.021l-1.849-1.867A6 6 0 0 0 56.534 60a23.838 23.838 0 0 0-22.52 16.023l-7.745 22.32A13.298 13.298 0 0 0 38.832 116H57v-11.559l-.343-.054-5.657-.892-1-.158-1-.157-5.033-.794c-.024-.004-.046-.015-.07-.02a2.995 2.995 0 0 1-2.003-1.348 2.999 2.999 0 0 1-.332-2.46l2-6.646a1 1 0 1 1 1.915.576l-1.224 4.067-.776 2.579a.987.987 0 0 0 .11.82.969.969 0 0 0 .436.358c.082.038.162.083.255.098l4.722.745V69.112a4.006 4.006 0 0 1 4-4.002c.574 0 1.133.122 1.661.363l29 13.243A4.01 4.01 0 0 1 86 82.354v19.019l3.713-.637a.988.988 0 0 0 .67-.44.99.99 0 0 0 .13-.792l-1.577-6.21a1 1 0 0 1 1.938-.492l1.578 6.21a3.01 3.01 0 0 1-.392 2.373 2.98 2.98 0 0 1-.616.666c-.4.33-.874.568-1.393.657l-4.051.694-1 .172-1 .171-3.5.6-.5.086V116h15.167a13.298 13.298 0 0 0 12.563-17.658zM66 58c9.703 0 17.59-7.682 17.964-17.294 6.463 5.114 12.058 5.173 14.802 4.758a2.126 2.126 0 0 0 1.802-2.11c0-.85-.505-1.61-1.285-1.949-5.125-2.227-9.708-14.936-12.212-23.237a10.245 10.245 0 0 0-9.815-7.286C71.592 10.882 67 15.474 67 21.138v.913c-.333-.019-.662-.051-1-.051-9.941 0-18 8.059-18 18s8.059 18 18 18zm.66-25.043c2.413 4.111 6.918 7.974 15.28 8.241C81.321 49.461 74.417 56 66 56c-8.822 0-16-7.178-16-16 0-1.062.11-2.098.308-3.102 8.64-.084 13.606-2.087 16.353-3.94z"/><path d="M84 82.354a2 2 0 0 0-1.17-1.819l-29-13.242a1.993 1.993 0 0 0-.83-.183c-1.053 0-2 .847-2 2.002v32.36l7.156 1.128c.044.007.08.03.123.043a.99.99 0 0 1 .721.945v1.196l6.498 1.039a9.603 9.603 0 0 0-3.998 7.795V114H59v2h19v-2H63.5v-.382a7.573 7.573 0 0 1 5.079-7.18 7.74 7.74 0 0 1 1.33-.336l.267-.042 1.483-.237L78 104.809V103.588c0-.4.242-.74.59-.899.078-.035.154-.072.241-.087l5.169-.886zM64 84a2 2 0 0 1 2-2h3a2 2 0 0 1 2 2v3a2 2 0 0 1-2 2h-3a2 2 0 0 1-2-2zm0 11a2 2 0 0 1 2-2h3a2 2 0 0 1 2 2v3a2 2 0 0 1-2 2h-3a2 2 0 0 1-2-2zM54 84a2 2 0 0 1 2-2h3a2 2 0 0 1 2 2v3a2 2 0 0 1-2 2h-3a2 2 0 0 1-2-2zm2 16a2 2 0 0 1-2-2v-3a2 2 0 0 1 2-2h3a2 2 0 0 1 2 2v3a2 2 0 0 1-2 2zm25-2a2 2 0 0 1-2 2h-3a2 2 0 0 1-2-2v-3a2 2 0 0 1 2-2h3a2 2 0 0 1 2 2zm0-11a2 2 0 0 1-2 2h-3a2 2 0 0 1-2-2v-3a2 2 0 0 1 2-2h3a2 2 0 0 1 2 2z"/></svg>