<svg fill="#682712" height="100" viewBox="0 0 128 128" width="100" xmlns="http://www.w3.org/2000/svg"><path d="M46.667 107.023c0-8.108-6.575-11.284-11.333-11.284s-11.178 3.7-11.178 11.284c0 5.614-.946 8.982-1.766 10.847a1.402 1.402 0 0 0 1.284 1.972c.362 0 .71.14.972.39l1.672 1.602c.55.528 1.42.52 1.962-.016l.948-.94a1.406 1.406 0 0 1 2.032.055l.592.656a1.406 1.406 0 0 0 2.117-.037l.368-.436a1.406 1.406 0 0 1 2.15 0l.367.436c.549.65 1.546.668 2.117.037l.592-.656a1.406 1.406 0 0 1 2.032-.055l.948.94a1.406 1.406 0 0 0 1.962.016l1.672-1.601c.261-.25.61-.391.972-.391a1.402 1.402 0 0 0 1.284-1.972c-.82-1.865-1.766-5.233-1.766-10.847zM43 108c0 4.411-3.589 8-8 8s-8-3.589-8-8c0-.692.098-1.36.263-2h5.71a2 2 0 0 0 1.477-.652l.708-.776a2 2 0 0 1 2.892-.066l.908.908a2 2 0 0 0 1.414.586h2.365c.165.64.263 1.308.263 2zM35 30c5.523 0 10-4.477 10-10s-4.477-10-10-10-10 4.477-10 10 4.477 10 10 10zm0-2c-4.411 0-8-3.589-8-8 0-.34.028-.672.07-1h7.394a2 2 0 0 0 1.423-.595l.83-.84a2 2 0 0 1 2.837-.01l.858.86a2 2 0 0 0 1.415.585h1.104c.04.328.069.66.069 1 0 4.411-3.589 8-8 8zM43 65c0 12.703 10.297 23 23 23s23-10.297 23-23-10.297-23-23-23-23 10.297-23 23zm15.544-19.608c.782.82 2.58 1.92 6.61 1.92 4.368 0 6.706-1.292 7.757-2.12a20.986 20.986 0 0 1 7.13 4.237h-5.637a1.21 1.21 0 0 0-1.106.718 1.21 1.21 0 0 1-1.784.51l-.453-.308a1.21 1.21 0 0 0-1.008-.163l-5.099 1.438a1.21 1.21 0 0 0-.76.637L63.1 54.518a1.21 1.21 0 0 1-.514.538l-2.24 1.21a1.21 1.21 0 0 0-.635 1.064v.033c0 .669.541 1.21 1.21 1.21h3.696c.48 0 .87.39.87.87s.388.868.868.868h.951c.48 0 .87-.389.87-.869v-1.02l3.4 1.89.151 1.964-1.058-1.058h-4.748a10.038 10.038 0 0 0-7.02 2.864 3.087 3.087 0 0 0-.024 4.389l.194.194a3.087 3.087 0 0 0 2.183.905h1.629c.854 0 1.546.692 1.546 1.546v.759l-1.346 4.243a2.718 2.718 0 0 0 2.59 3.54 5.857 5.857 0 0 0 5.404-3.597l.586-1.4a25.26 25.26 0 0 0 1.954-9.743h.718a.945.945 0 0 0 .944-.945v-.752c0-.522.423-.945.945-.945s.945-.422.945-.944v-2.456l5.902 5.901a5.97 5.97 0 0 0 3.852 1.732c-.603 8.407-6.165 15.444-13.778 18.212-.72-.828-2.486-2.033-6.708-2.033-4.198 0-6.516 1.191-7.624 2.019a20.891 20.891 0 0 1-3.259-1.515v-1.794a3.42 3.42 0 0 0-.45-1.696l-2.425-4.243a3.42 3.42 0 0 1-.45-1.696v-1.794a3.419 3.419 0 0 0-3.42-3.42h-3.486a21.064 21.064 0 0 1-.12-.78l1.989-1.861a7.661 7.661 0 0 0 2.339-4.437 7.662 7.662 0 0 1 3.98-5.61l1.78-.945a2.914 2.914 0 0 0-1.366-5.487H51.96a21 21 0 0 1 6.584-4.037zM84.6 28.915A3.965 3.965 0 0 0 84 31a3.991 3.991 0 0 0 7.863.986c.046.002.09.014.137.014a2.992 2.992 0 0 0 2.984-2.845 9.956 9.956 0 0 0 5.06.79A3.489 3.489 0 0 0 103.5 33c.275 0 .54-.04.796-.1A3.498 3.498 0 0 0 111 31.5c0-.343-.065-.668-.157-.982a3.467 3.467 0 0 0 .537-2.608 1.2 1.2 0 0 1 .269-1.02c.5-.564.871-1.254 1.05-2.041a4.669 4.669 0 0 0-1.468-4.53 3.996 3.996 0 0 0-2.13-7.309c.007-.097.032-.186.031-.286 0-1.33-.82-2.582-2.033-3.127a3.564 3.564 0 0 0-1.442-.32c-.933-.006-1.825-.478-2.211-1.328a3.923 3.923 0 0 0-6.568-.919c-.593.697-1.571.84-2.449.58a3.93 3.93 0 0 0-1.11-.16c-1.574-.004-3.027.944-3.631 2.398a4.016 4.016 0 0 0-.313 1.6c.015 1.037-.59 1.968-1.557 2.343a4.632 4.632 0 0 0-1.744 7.462C84.292 21.852 83 23.516 83 25.5c0 1.375.63 2.59 1.6 3.415zM97 24c0-1.576-.92-2.926-2.244-3.578A2.989 2.989 0 0 0 96 18c0-.87-.376-1.646-.967-2.194a2.99 2.99 0 0 0 1.583-1.364c.544.35 1.189.558 1.884.558a3.486 3.486 0 0 0 3.099-1.905c.187-.094.374-.19.545-.311a3.492 3.492 0 0 0 2.719 3.398c.073.017.144.012.217.024a3.968 3.968 0 0 0 .941 3.44c.276.311.597.575.957.787a7.977 7.977 0 0 1-2.781 5.637c-.031.027-.06.057-.091.083a7.969 7.969 0 0 1-3.683 1.713A7.99 7.99 0 0 1 99 28a7.94 7.94 0 0 1-3.564-.848A3.978 3.978 0 0 0 97 24zM97 98c-5.523 0-10 4.477-10 10s4.477 10 10 10 10-4.477 10-10-4.477-10-10-10zm0 18c-3.746 0-6.89-2.591-7.755-6.073 6.225-.093 9.182-2.711 10.577-5.3.91 1.362 2.481 2.574 5.15 2.829.013.18.028.36.028.544 0 4.411-3.589 8-8 8zM122 54a5 5 0 1 0-9.899 1.005c-.034 0-.067-.005-.101-.005-5.523 0-10 4.477-10 10s4.477 10 10 10 10-4.477 10-10a9.95 9.95 0 0 0-2.557-6.662C120.962 57.48 122 55.869 122 54zm-10 19c-4.191 0-7.633-3.241-7.967-7.348 4.853-.523 7.026-3.532 7.98-5.852.883 2.808 2.97 6.244 7.88 6.45-.604 3.818-3.908 6.75-7.893 6.75zM29.88 69.587c.165 1.098.28 2.265.28 3.41a1.607 1.607 0 1 0 3.215 0c0-1.803-.24-3.627-.54-5.21.294.138.6.27.934.383a1.608 1.608 0 1 0 1.038-3.042c-2.711-.925-3.12-3.209-3.134-3.286a1.591 1.591 0 0 0-.055-.25c-1.446-4.687-6.281-6.492-8.006-6.998-.777-1.295-2.303-2.412-4.865-2.412-3.172 0-4.672 1.654-5.878 2.982-1.046 1.154-1.738 1.916-3.462 1.916a1.607 1.607 0 1 0 0 3.215c.68 0 1.27-.089 1.809-.222-.71.523-1.398.802-1.809.802a1.607 1.607 0 1 0 0 3.215c.505 0 1.08-.115 1.678-.33-.006.043-.015.085-.02.128-.656.453-1.276.683-1.658.683a1.607 1.607 0 1 0 0 3.215c.546 0 1.173-.135 1.824-.386-1.223 1.094-2.674 1.788-3.86 1.788a1.607 1.607 0 0 0 0 3.215c1.595 0 3.248-.612 4.728-1.613-.682.885-1.522 1.548-2.479 1.903a1.608 1.608 0 0 0 1.118 3.014c1.538-.57 2.878-1.601 3.928-2.97A9.957 9.957 0 0 0 21 75c3.868 0 7.216-2.2 8.88-5.413zM21 73c-2.02 0-3.863-.76-5.273-2a8.047 8.047 0 0 1-2.204-3.18 7.93 7.93 0 0 1-.513-2.632c-.002-.063-.01-.125-.01-.188 0-.223.016-.443.033-.661.13-.007.257-.017.382-.027a10.072 10.072 0 0 0 2.003-.36 7.806 7.806 0 0 0 1.442-.587c2.471-1.304 3.482-3.65 3.88-5.566.122 1.674.603 3.566 2.082 4.26.823.385 1.467 1.063 1.726 1.935.424 1.419 1.483 3.339 4.014 3.596C27.482 70.732 24.504 73 21 73zM78.68 23h1a1 1 0 1 0 0-2h-1a1 1 0 1 0 0 2zM48.68 23h1a1 1 0 1 0 0-2h-1a1 1 0 1 0 0 2zM58.68 23h1a1 1 0 1 0 0-2h-1a1 1 0 1 0 0 2zM63.68 23h1a1 1 0 1 0 0-2h-1a1 1 0 1 0 0 2zM68.68 23h1a1 1 0 1 0 0-2h-1a1 1 0 1 0 0 2zM73.68 23h1a1 1 0 1 0 0-2h-1a1 1 0 1 0 0 2zM53.68 23h1a1 1 0 1 0 0-2h-1a1 1 0 1 0 0 2zM71 105h-1a1 1 0 1 0 0 2h1a1 1 0 1 0 0-2zM66 105h-1a1 1 0 1 0 0 2h1a1 1 0 1 0 0-2zM61 105h-1a1 1 0 1 0 0 2h1a1 1 0 1 0 0-2zM76 105h-1a1 1 0 1 0 0 2h1a1 1 0 1 0 0-2zM51 105h-1a1 1 0 1 0 0 2h1a1 1 0 1 0 0-2zM56 105h-1a1 1 0 1 0 0 2h1a1 1 0 1 0 0-2zM81 105h-1a1 1 0 1 0 0 2h1a1 1 0 1 0 0-2zM41 62h-1a1 1 0 1 0 0 2h1a1 1 0 1 0 0-2zM35 64h1a1 1 0 1 0 0-2h-1a1 1 0 1 0 0 2zM92 62a1 1 0 1 0 0 2h1a1 1 0 1 0 0-2zM99 63a1 1 0 0 0-1-1h-1a1 1 0 1 0 0 2h1a1 1 0 0 0 1-1zM27.934 88.315a1.001 1.001 0 0 0 1.793-.887l-.444-.896a1 1 0 1 0-1.793.886zM25.719 83.831a.999.999 0 1 0 1.793-.885l-.443-.896a1 1 0 1 0-1.793.885zM30.147 92.797a.999.999 0 1 0 1.793-.885l-.442-.896a1 1 0 0 0-1.793.884zM24.854 77.566a1 1 0 1 0-1.792.887l.443.896a1.001 1.001 0 0 0 1.793-.887zM98.926 95.635a.999.999 0 0 0 1.339-.454l.262-.532a.999.999 0 1 0-1.793-.885l-.262.532a.999.999 0 0 0 .454 1.34zM106.718 79.861a1 1 0 0 0-1.34.453l-.443.897a1 1 0 1 0 1.793.887l.443-.897a1 1 0 0 0-.453-1.34zM103.175 87.034a1 1 0 0 0 1.339-.454l.442-.897a1 1 0 1 0-1.793-.885l-.442.897a1 1 0 0 0 .454 1.34zM108.93 75.378a1.001 1.001 0 0 0-1.338.455l-.443.896a1 1 0 1 0 1.793.885l.443-.897a1 1 0 0 0-.454-1.34zM102.29 88.827a1 1 0 0 0-1.34.453l-.444.897a1 1 0 1 0 1.793.886l.443-.896a1 1 0 0 0-.453-1.34zM104.07 44.556a.999.999 0 1 0 1.792-.885l-.442-.896a1 1 0 1 0-1.793.885zM102.753 40.63a.999.999 0 0 0 .895-1.443l-.443-.896a1 1 0 1 0-1.793.887l.443.896c.175.353.53.557.898.557z"/><path d="M100.538 36.148a1 1 0 0 0 .896-1.442l-.443-.897a.999.999 0 1 0-1.793.885l.443.896a.999.999 0 0 0 .897.558zM106.284 49.04a1 1 0 1 0 1.793-.886l-.443-.897a1 1 0 0 0-1.793.886zM108.45 53.425a.999.999 0 1 0 1.793-.884l-.394-.8a1 1 0 1 0-1.793.885zM82.107 84.792a1 1 0 0 0-1.67 1.1l.55.836a.997.997 0 0 0 1.385.285 1 1 0 0 0 .285-1.385zM84.854 88.97a1 1 0 0 0-1.67 1.1l.55.835a.997.997 0 0 0 1.385.286 1 1 0 0 0 .285-1.385zM88.965 97.04a1 1 0 0 0-.285 1.385l.254.386a.997.997 0 0 0 1.384.285 1 1 0 0 0 .286-1.385l-.254-.386a1 1 0 0 0-1.385-.285zM87.865 95.369a1 1 0 0 0 .287-1.385l-.548-.836a1 1 0 0 0-1.672 1.098l.548.836a1 1 0 0 0 1.385.287zM49.187 88.685a1 1 0 0 0-1.385.285l-.55.836a1 1 0 0 0 1.67 1.1l.55-.836a1 1 0 0 0-.285-1.385zM45.055 93.148l-.55.835a1 1 0 0 0 1.67 1.1l.55-.835a1 1 0 0 0-1.67-1.1zM51.934 84.507a1 1 0 0 0-1.385.285l-.55.836a1 1 0 0 0 1.67 1.1l.55-.836a1 1 0 0 0-.285-1.385zM44.389 35.803l.62.784a1 1 0 0 0 1.57-1.242l-.622-.784a1 1 0 1 0-1.568 1.242zM48.112 40.507a.996.996 0 0 0 1.405.164.999.999 0 0 0 .164-1.404l-.62-.785a1 1 0 1 0-1.569 1.24zM43.31 32.83a.999.999 0 0 0 .165-1.405l-.62-.784a.999.999 0 1 0-1.568 1.24l.62.785a.996.996 0 0 0 1.404.164zM50.595 43.644l.62.784a1 1 0 0 0 1.57-1.242l-.622-.784a1 1 0 0 0-1.568 1.242zM85.034 35.49l-.027.043c-.299.465-.152 1.062.313 1.361a.965.965 0 0 0 .526.153c.339 0 .675-.172.87-.474a1 1 0 1 0-1.682-1.082zM82.55 41.087a.998.998 0 0 0 1.385-.286l.55-.835a1 1 0 0 0-1.67-1.1l-.55.836a1 1 0 0 0 .285 1.385zM80.067 43.044l-.55.835a1 1 0 0 0 1.67 1.1l.55-.835a1 1 0 0 0-1.67-1.1zM29.18 44.706a1 1 0 0 0 1.34-.455l.442-.897a1 1 0 1 0-1.793-.884l-.442.897a1 1 0 0 0 .454 1.34zM24.752 53.672a1 1 0 0 0 1.339-.455l.442-.896a1 1 0 1 0-1.793-.885l-.442.897a1 1 0 0 0 .454 1.339zM31.394 40.222a.999.999 0 0 0 1.34-.453l.443-.896a1 1 0 1 0-1.793-.887l-.444.896a1 1 0 0 0 .454 1.34zM28.295 46.499a1 1 0 0 0-1.34.453l-.443.897a1 1 0 1 0 1.793.886l.443-.897a1 1 0 0 0-.453-1.34zM33.61 35.74a1 1 0 0 0 1.338-.455l.443-.896a1 1 0 1 0-1.793-.885l-.443.896a1 1 0 0 0 .454 1.34z"/></svg>