<svg width="214" height="45" viewBox="0 0 214 45" fill="none" xmlns="http://www.w3.org/2000/svg">
<path fill-rule="evenodd" clip-rule="evenodd" d="M15.9229 5.34274C14.5382 6.04257 11.6193 7.40506 10.038 8.49195C8.45671 9.57887 8.6533 10.5914 7.96097 11.2913C7.26863 11.9911 5.1916 13.7407 3.80689 14.7904C2.4222 15.8401 2.76837 18.6394 2.4222 19.6892C2.07603 20.7389 1.38368 23.1883 1.03751 24.2381C0.691337 25.2878 1.72985 26.6874 2.4222 28.0871C3.11455 29.4867 4.8454 33.3358 5.53777 34.7354C6.2301 36.1351 8.30713 35.4353 10.038 36.8349C11.7689 38.2346 14.1921 39.9841 15.9229 41.0339C17.6538 42.0836 18.3461 42.0836 20.077 41.0339C21.8079 39.9841 24.2311 38.2346 25.9619 36.8349C27.6928 35.4353 29.7698 36.1351 30.4622 34.7354C31.1545 33.3358 32.8854 29.4867 33.5777 28.0871C34.2701 26.6874 35.3086 25.2878 34.9624 24.2381C34.6162 23.1883 33.9239 20.7389 33.5777 19.6892C33.2316 18.6394 33.5777 15.8401 32.193 14.7904C30.8084 13.7407 29.201 12.4041 28.039 11.2913C26.8769 10.1785 27.3466 9.54171 25.9619 8.49195C24.5772 7.44222 21.4617 6.04257 20.077 5.34274C18.6923 4.64291 17.3076 4.64291 15.9229 5.34274V5.34274Z" fill="white"/>
<path fill-rule="evenodd" clip-rule="evenodd" d="M11.0336 11.4138L17.5126 15.8591C17.6588 15.957 17.8296 16.0106 18.0049 16.0136C18.1804 16.0123 18.3517 15.9585 18.4972 15.8591L24.9811 11.3989C25.2331 11.2176 25.372 10.9153 25.3467 10.6035C25.3215 10.2916 25.1358 10.0163 24.858 9.8789L18.3791 6.6546C18.1333 6.53473 17.8469 6.53473 17.6012 6.6546L11.1419 9.8789C10.8591 10.017 10.671 10.2977 10.6486 10.6146C10.6263 10.9316 10.7731 11.2365 11.0336 11.4138ZM20.2056 17.2545C20.2061 17.5493 20.3497 17.825 20.5896 17.992L25.7836 21.5602C26.1161 21.7906 26.561 21.7618 26.8618 21.4904L31.2189 17.5734C31.4131 17.399 31.5209 17.1465 31.5133 16.8839C31.5057 16.6212 31.3834 16.3755 31.1795 16.2129L27.0194 12.869C26.717 12.6275 26.2951 12.6114 25.9756 12.8291L20.5896 16.5319C20.3539 16.6959 20.2109 16.965 20.2056 17.2545V17.2545ZM7.287 22.1084C7.49691 22.2979 7.60484 22.5775 7.57748 22.8609C7.5502 23.1459 7.38643 23.3992 7.13928 23.5386L4.03766 25.4075C3.72324 25.5963 3.32626 25.5691 3.03991 25.339C2.75356 25.1089 2.63731 24.7237 2.74776 24.3709L3.89486 20.7429C3.98488 20.4555 4.21297 20.2339 4.50043 20.1549C4.78769 20.0708 5.09747 20.1445 5.31769 20.3492L7.287 22.1084ZM24.1097 22.4871L18.5021 18.6299C18.2041 18.4284 17.8155 18.4284 17.5175 18.6299L11.9099 22.4871C11.6869 22.6423 11.5456 22.8917 11.5259 23.1649C11.5114 23.44 11.6198 23.7072 11.8213 23.8925L17.4239 28.9308C17.5855 29.0756 17.794 29.1554 18.0098 29.155C18.2255 29.155 18.4339 29.0752 18.5957 28.9308L24.1983 23.8925C24.4004 23.708 24.5075 23.4397 24.4888 23.1649C24.4732 22.8917 24.3331 22.6413 24.1097 22.4871V22.4871ZM9.15292 21.4904L4.80075 17.5734C4.60494 17.3946 4.49686 17.1375 4.50535 16.8707C4.51007 16.6077 4.63117 16.3608 4.8352 16.198L8.99535 12.8341C9.29986 12.5933 9.72252 12.5773 10.044 12.7943L15.4251 16.497C15.6748 16.6616 15.8255 16.9428 15.8255 17.2445C15.8255 17.5462 15.6748 17.8274 15.4251 17.992L10.236 21.5602C9.90148 21.7896 9.45599 21.7609 9.15292 21.4904ZM31.4995 27.1168L27.0686 24.4506C26.7395 24.2513 26.3207 24.2917 26.0347 24.5503L20.6191 29.4092C20.3907 29.6143 20.2834 29.9244 20.3356 30.2289C20.3877 30.5334 20.5919 30.789 20.8751 30.9042L28.388 33.9641C28.4911 34.0071 28.6015 34.0292 28.7129 34.0289C29.0616 34.03 29.3781 33.8229 29.5204 33.5006L31.8491 28.258C32.0386 27.8431 31.8876 27.3504 31.4995 27.1168V27.1168ZM32.1149 20.7429L33.262 24.3709H33.2522C33.337 24.6423 33.2888 24.9383 33.1224 25.1678C32.9561 25.3973 32.6915 25.5326 32.4103 25.532C32.2525 25.5326 32.0976 25.4895 31.9623 25.4075L28.8557 23.5386C28.6137 23.3963 28.4556 23.1433 28.4323 22.8609C28.4033 22.5773 28.5115 22.297 28.7228 22.1084L30.6921 20.3442C30.9146 20.1438 31.222 20.0707 31.5094 20.1499C31.7966 20.2324 32.024 20.455 32.1149 20.7429V20.7429ZM15.6811 30.2265C15.7341 29.9232 15.6278 29.6138 15.4005 29.4092L9.98495 24.5503C9.69896 24.2917 9.2801 24.2513 8.95106 24.4506L4.52011 27.1168C4.13647 27.3514 3.98468 27.8379 4.16565 28.253L6.49926 33.4956C6.69259 33.9328 7.19244 34.1374 7.63161 33.9591L15.1396 30.8993C15.4229 30.785 15.6278 30.5305 15.6811 30.2265ZM18.3397 31.7215L24.3657 34.1734C24.6604 34.3001 24.8639 34.5787 24.8974 34.901C24.9356 35.2273 24.7914 35.548 24.5233 35.7332L18.4923 39.9443C18.3478 40.0463 18.1762 40.1019 18 40.1037C17.8239 40.101 17.6526 40.0455 17.5076 39.9443L11.4816 35.7332C11.2125 35.5485 11.0665 35.2281 11.1025 34.901C11.1427 34.5753 11.3536 34.2971 11.6539 34.1734L17.68 31.7215C17.8919 31.6366 18.1278 31.6366 18.3397 31.7215Z" fill="#BF4722"/>
<g clip-path="url(#clip0_448_2713)">
<path d="M48.8756 19.5038H50.4484C51.9897 19.5038 53.1273 19.2504 53.8613 18.7436C54.5953 18.2367 54.9622 17.4402 54.9622 16.3541C54.9622 15.2783 54.5848 14.5128 53.8299 14.0577C53.0854 13.6025 51.9268 13.3749 50.354 13.3749H48.8756V19.5038ZM48.8756 23.4139V32.1185H44V9.43384H50.7C53.8246 9.43384 56.1366 9.99759 57.636 11.1251C59.1354 12.2423 59.885 13.9439 59.885 16.2299C59.885 17.5643 59.5128 18.7539 58.7684 19.7986C58.0239 20.8331 56.9702 21.6451 55.6071 22.2347C59.0672 27.3343 61.3215 30.6289 62.3701 32.1185H56.9597L51.4707 23.4139H48.8756Z" fill="white"/>
<path d="M69.4178 17.8126C68.4008 17.8126 67.6038 18.1332 67.0271 18.7746C66.4504 19.4056 66.1202 20.3055 66.0363 21.4744H72.7677C72.7468 20.3055 72.4375 19.4056 71.8399 18.7746C71.2423 18.1332 70.4348 17.8126 69.4178 17.8126ZM70.094 32.4288C67.2631 32.4288 65.0507 31.6582 63.4569 30.1169C61.8632 28.5756 61.0664 26.393 61.0664 23.5691C61.0664 20.6624 61.8002 18.4177 63.2682 16.8351C64.7467 15.2421 66.7859 14.4456 69.3862 14.4456C71.8713 14.4456 73.8059 15.1438 75.1898 16.5402C76.5739 17.9367 77.2659 19.8659 77.2659 22.3278V24.6242H65.9262C65.9787 25.9689 66.3823 27.0188 67.1372 27.7739C67.8922 28.5291 68.9512 28.9066 70.3142 28.9066C71.3733 28.9066 72.3746 28.798 73.3182 28.5808C74.262 28.3635 75.2476 28.017 76.2751 27.5412V31.203C75.4363 31.6168 74.5399 31.9219 73.5856 32.1185C72.6315 32.3253 71.4677 32.4288 70.094 32.4288Z" fill="white"/>
<path d="M85.4458 32.4288C83.3802 32.4288 81.7551 31.6375 80.5701 30.0548C79.3958 28.4722 78.8086 26.2793 78.8086 23.476C78.8086 20.6314 79.4064 18.4177 80.6017 16.8351C81.8074 15.2421 83.4641 14.4456 85.5716 14.4456C87.784 14.4456 89.4721 15.2938 90.636 16.9902H90.7933C90.5521 15.6972 90.4315 14.5438 90.4315 13.5301V7.97534H95.2441V32.1185H91.5638L90.636 29.8686H90.4315C89.3411 31.5755 87.679 32.4288 85.4458 32.4288ZM87.1286 28.6584C88.3554 28.6584 89.2519 28.3068 89.8181 27.6032C90.3948 26.8999 90.7094 25.7051 90.7617 24.0191V23.507C90.7617 21.6451 90.4682 20.3107 89.881 19.5039C89.3043 18.697 88.3607 18.2936 87.05 18.2936C85.9805 18.2936 85.147 18.7436 84.5494 19.6435C83.9622 20.5331 83.6685 21.8313 83.6685 23.5381C83.6685 25.2449 83.9674 26.5276 84.565 27.3861C85.1626 28.2343 86.0172 28.6584 87.1286 28.6584Z" fill="white"/>
<path d="M113.427 32.1185L112.074 26.0517L110.25 18.3867H110.14L106.931 32.1185H101.772L96.771 14.7715H101.552L103.581 22.452C103.906 23.8278 104.236 25.7259 104.572 28.1464H104.666C104.708 27.3602 104.892 26.1139 105.217 24.407L105.468 23.0882L107.639 14.7715H112.923L114.984 23.0882C115.026 23.3157 115.089 23.6519 115.172 24.0967C115.267 24.5414 115.356 25.0173 115.44 25.5242C115.524 26.0207 115.597 26.512 115.66 26.9982C115.733 27.4741 115.775 27.8568 115.786 28.1464H115.88C115.975 27.4016 116.142 26.3828 116.384 25.0898C116.625 23.7864 116.798 22.9071 116.903 22.452L119.01 14.7715H123.713L118.648 32.1185H113.427Z" fill="white"/>
<path d="M129.093 23.4139C129.093 25.131 129.376 26.4292 129.942 27.3084C130.519 28.1878 131.452 28.6273 132.742 28.6273C134.021 28.6273 134.938 28.1929 135.494 27.3239C136.06 26.4447 136.343 25.1414 136.343 23.4139C136.343 21.6968 136.06 20.4089 135.494 19.5504C134.928 18.6918 134 18.2625 132.71 18.2625C131.431 18.2625 130.508 18.6918 129.942 19.5504C129.376 20.3986 129.093 21.6864 129.093 23.4139ZM141.25 23.4139C141.25 26.2378 140.496 28.4464 138.986 30.0393C137.476 31.6323 135.374 32.4288 132.679 32.4288C130.991 32.4288 129.502 32.0667 128.212 31.3427C126.923 30.6082 125.932 29.5583 125.24 28.1929C124.548 26.8274 124.202 25.2344 124.202 23.4139C124.202 20.5796 124.951 18.3763 126.451 16.804C127.95 15.2317 130.058 14.4456 132.773 14.4456C134.461 14.4456 135.95 14.8076 137.24 15.5317C138.53 16.2558 139.52 17.2954 140.212 18.6504C140.904 20.0055 141.25 21.5934 141.25 23.4139Z" fill="white"/>
<path d="M147.747 23.4139C147.747 25.131 148.03 26.4292 148.597 27.3084C149.173 28.1878 150.107 28.6273 151.396 28.6273C152.675 28.6273 153.593 28.1929 154.148 27.3239C154.715 26.4447 154.998 25.1414 154.998 23.4139C154.998 21.6968 154.715 20.4089 154.148 19.5504C153.582 18.6918 152.654 18.2625 151.365 18.2625C150.085 18.2625 149.163 18.6918 148.597 19.5504C148.03 20.3986 147.747 21.6864 147.747 23.4139ZM159.905 23.4139C159.905 26.2378 159.15 28.4464 157.64 30.0393C156.13 31.6323 154.028 32.4288 151.333 32.4288C149.645 32.4288 148.156 32.0667 146.867 31.3427C145.577 30.6082 144.586 29.5583 143.894 28.1929C143.202 26.8274 142.856 25.2344 142.856 23.4139C142.856 20.5796 143.606 18.3763 145.105 16.804C146.605 15.2317 148.712 14.4456 151.428 14.4456C153.116 14.4456 154.605 14.8076 155.894 15.5317C157.184 16.2558 158.175 17.2954 158.867 18.6504C159.559 20.0055 159.905 21.5934 159.905 23.4139Z" fill="white"/>
<path d="M168.147 32.4288C166.082 32.4288 164.457 31.6375 163.272 30.0548C162.097 28.4722 161.51 26.2793 161.51 23.476C161.51 20.6314 162.108 18.4177 163.303 16.8351C164.509 15.2421 166.166 14.4456 168.273 14.4456C170.486 14.4456 172.174 15.2938 173.337 16.9902H173.495C173.254 15.6972 173.133 14.5438 173.133 13.5301V7.97534H177.946V32.1185H174.265L173.337 29.8686H173.133C172.043 31.5755 170.381 32.4288 168.147 32.4288ZM169.83 28.6584C171.057 28.6584 171.954 28.3068 172.52 27.6032C173.096 26.8999 173.411 25.7051 173.463 24.0191V23.507C173.463 21.6451 173.17 20.3107 172.583 19.5039C172.006 18.697 171.062 18.2936 169.752 18.2936C168.682 18.2936 167.849 18.7436 167.251 19.6435C166.664 20.5331 166.37 21.8313 166.37 23.5381C166.37 25.2449 166.669 26.5276 167.267 27.3861C167.864 28.2343 168.719 28.6584 169.83 28.6584Z" fill="white"/>
<path d="M179.646 38.7904C178.545 38.7904 177.585 38.6767 176.768 38.4491V34.4458C177.606 34.6527 178.372 34.7562 179.064 34.7562C180.133 34.7562 180.899 34.4253 181.36 33.7632C181.822 33.1116 182.052 32.0875 182.052 30.691V9.43384H186.928V30.6599C186.928 33.308 186.314 35.3252 185.088 36.7112C183.861 38.0974 182.047 38.7904 179.646 38.7904Z" fill="white"/>
<path d="M205 25.8189C205 27.867 204.25 29.4807 202.751 30.6598C201.262 31.8391 199.186 32.4287 196.523 32.4287C194.069 32.4287 191.899 31.9735 190.011 31.0633V26.5947C191.563 27.2773 192.874 27.7583 193.943 28.0376C195.023 28.3169 196.009 28.4566 196.9 28.4566C197.969 28.4566 198.787 28.2549 199.354 27.8515C199.93 27.448 200.219 26.8481 200.219 26.0516C200.219 25.6068 200.093 25.2138 199.841 24.8723C199.589 24.5207 199.217 24.1844 198.724 23.8638C198.242 23.5431 197.251 23.0311 195.752 22.3277C194.347 21.676 193.293 21.0502 192.591 20.4502C191.888 19.8503 191.327 19.152 190.908 18.3555C190.488 17.5591 190.279 16.6281 190.279 15.5626C190.279 13.5559 190.965 11.9784 192.339 10.8302C193.723 9.682 195.631 9.10791 198.064 9.10791C199.259 9.10791 200.397 9.24756 201.477 9.52685C202.567 9.80614 203.705 10.1992 204.89 10.7061L203.317 14.4455C202.09 13.949 201.073 13.6024 200.266 13.4059C199.469 13.2094 198.683 13.1111 197.907 13.1111C196.984 13.1111 196.276 13.3231 195.783 13.7472C195.291 14.1714 195.044 14.7248 195.044 15.4075C195.044 15.8316 195.144 16.204 195.343 16.5246C195.542 16.835 195.857 17.1401 196.287 17.4401C196.727 17.7297 197.76 18.2573 199.385 19.0227C201.534 20.0365 203.008 21.0554 203.805 22.0794C204.601 23.0932 205 24.3396 205 25.8189Z" fill="white"/>
</g>
<defs>
<clipPath id="clip0_448_2713">
<rect width="161" height="31" fill="white" transform="translate(44 7.97534)"/>
</clipPath>
</defs>
</svg>
