<svg width="929" height="1001" fill="none" xmlns="http://www.w3.org/2000/svg"><path fill="rgba(255,255,255,0.02)" fill-rule="evenodd" clip-rule="evenodd" d="M386.043 47.242c9.424-4.616 17.893-8.765 24.858-12.267 35.733-17.967 71.465-17.967 107.198 0 7.854 3.95 17.866 8.767 29.088 14.166 39.831 19.164 94.898 45.659 122.776 66.685 19.329 14.578 24.655 26.054 30.219 38.04 4.722 10.173 9.614 20.712 23.38 33.828 29.988 28.569 71.466 62.884 107.198 89.834 24.701 18.631 28.058 58.725 30.728 90.608 1.192 14.239 2.247 26.841 5.005 35.161 4.466 13.475 11.166 35.933 17.866 58.392 6.7 22.459 13.4 44.917 17.867 58.393 6.922 20.885-7.615 47.166-22.823 74.661-4.417 7.984-8.89 16.07-12.91 24.157-8.933 17.967-24.566 51.655-40.2 85.343-15.633 33.688-31.266 67.375-40.199 85.342-9.362 18.83-28.537 22.859-51.097 27.599-20.49 4.306-43.774 9.198-65.034 26.302-44.666 35.934-107.198 80.851-151.864 107.801-44.666 26.951-62.532 26.951-107.198 0-44.666-26.95-107.198-71.867-151.864-107.801-21.26-17.104-44.543-21.996-65.034-26.302-22.56-4.74-41.735-8.769-51.097-27.599-8.933-17.967-24.566-51.654-40.199-85.342-15.633-33.688-31.267-67.376-40.2-85.343-4.02-8.087-8.493-16.173-12.91-24.157-15.208-27.495-29.745-53.776-22.823-74.661 4.467-13.476 11.167-35.934 17.867-58.393 6.7-22.459 13.4-44.917 17.866-58.392 2.758-8.32 3.813-20.922 5.005-35.161 2.67-31.883 6.027-71.977 30.728-90.608 35.733-26.95 89.332-71.867 107.198-89.834 6.624-6.661 10.094-14.426 13.919-22.983 6.492-14.522 14.002-31.326 39.68-48.885 32.853-22.465 88.079-49.517 127.006-68.584Zm65.881 257.724L284.73 190.841c-6.721-4.554-10.51-12.381-9.933-20.519.577-8.137 5.432-15.342 12.729-18.888l166.685-82.779a22.978 22.978 0 0 1 20.074 0l167.193 82.779c7.167 3.527 11.959 10.595 12.611 18.602.652 8.006-2.933 15.766-9.435 20.421l-167.32 114.509a22.891 22.891 0 0 1-12.705 3.966 23.645 23.645 0 0 1-12.705-3.966Zm79.405 54.759c-6.192-4.288-9.897-11.367-9.91-18.935.137-7.432 3.827-14.341 9.91-18.552l138.989-95.061a22.739 22.739 0 0 1 26.934 1.023l107.355 85.85a22.829 22.829 0 0 1 8.613 17.225 22.849 22.849 0 0 1-7.597 17.703L693.186 449.541a22.49 22.49 0 0 1-27.823 1.792l-134.034-91.608ZM195.544 484.726c.706-7.276-2.079-14.454-7.496-19.32l-50.819-45.163a21.992 21.992 0 0 0-21.09-4.99c-7.418 2.03-13.304 7.717-15.627 15.097L70.91 523.493c-2.85 9.057.15 18.946 7.54 24.854a22.613 22.613 0 0 0 25.747 1.758l80.039-47.979c6.378-3.579 10.604-10.082 11.308-17.4Zm281.917-108.624 144.706 99.028c5.765 3.958 9.379 10.386 9.783 17.4a23.112 23.112 0 0 1-7.496 18.68L479.875 640.56a22.778 22.778 0 0 1-15.119 5.758 22.65 22.65 0 0 1-15.119-5.758L305.058 511.21a23.623 23.623 0 0 1-7.623-18.68c.508-7.014 4.154-13.416 9.91-17.4l144.706-99.028a22.739 22.739 0 0 1 25.41 0Zm-353.572-27.124 112.31 100.563a22.742 22.742 0 0 0 27.95 1.791l133.907-91.607c6.445-4.226 10.332-11.446 10.332-19.191 0-7.745-3.887-14.965-10.332-19.192l-138.862-95.061a22.991 22.991 0 0 0-27.061 1.023l-107.355 86.362a22.575 22.575 0 0 0-8.512 17.272 23.366 23.366 0 0 0 7.623 18.04ZM698.522 525.54l114.343 68.449c10.016 5.997 13.911 18.648 9.02 29.299l-60.093 134.596c-3.67 8.274-11.838 13.59-20.836 13.562a21.712 21.712 0 0 1-8.385-1.663l-193.874-78.557c-7.31-2.96-12.578-9.52-13.924-17.338-1.346-7.818 1.423-15.78 7.318-21.045l139.752-124.744a22.488 22.488 0 0 1 26.679-2.559Zm159.825-2.047-29.602-93.143c-2.346-7.391-8.213-13.107-15.626-15.225a22.626 22.626 0 0 0-21.09 4.99l-50.819 45.292c-5.452 4.841-8.244 12.038-7.496 19.319.601 7.249 4.68 13.746 10.926 17.4l80.167 47.979a22.239 22.239 0 0 0 11.561 3.198 22.688 22.688 0 0 0 18.377-9.351 23.032 23.032 0 0 0 3.348-20.459h.254Zm-460.926 129.35c5.867 5.254 8.608 13.197 7.242 20.983-1.376 7.805-6.663 14.338-13.975 17.272l-193.747 78.557c-11.333 4.577-24.232-.676-29.221-11.899L107.5 623.16c-4.67-10.656-.753-23.148 9.147-29.171L230.99 525.54a22.49 22.49 0 0 1 26.68 2.559l139.751 124.744Zm231.353 122.313-155.506-62.948a22.975 22.975 0 0 0-17.024 0l-155.506 62.948c-7.749 3.176-13.191 10.319-14.229 18.68-.928 8.398 2.838 16.623 9.783 21.366l155.505 108.112a22.879 22.879 0 0 0 12.705 4.094 22.507 22.507 0 0 0 12.705-4.094l155.632-108.112c6.919-4.755 10.64-12.989 9.656-21.366-.865-8.275-6.118-15.426-13.721-18.68Z"/></svg>