<svg fill="none" viewBox="0 0 39 42" xmlns="http://www.w3.org/2000/svg"><path clip-rule="evenodd" d="m10.481 6.072 8.156 5.567c.184.123.399.19.62.194.22-.002.436-.07.619-.194l8.161-5.585a1.114 1.114 0 0 0-.154-1.904L19.727.113a1.12 1.12 0 0 0-.979 0l-8.13 4.037a1.113 1.113 0 0 0-.136 1.922zm11.545 7.314c.001.37.182.715.484.924l6.538 4.468c.418.289.978.253 1.357-.087l5.484-4.905a1.114 1.114 0 0 0-.05-1.704l-5.236-4.187a1.11 1.11 0 0 0-1.314-.05l-6.78 4.637a1.125 1.125 0 0 0-.483.905zm-16.26 6.079c.264.237.4.587.365.942-.034.357-.24.674-.551.849l-3.905 2.34A1.103 1.103 0 0 1 .42 23.51a1.122 1.122 0 0 1-.368-1.212l1.444-4.543c.113-.36.4-.637.762-.736a1.073 1.073 0 0 1 1.029.243zm21.175.474-7.059-4.83a1.109 1.109 0 0 0-1.24 0l-7.058 4.83c-.28.194-.458.507-.483.849-.018.345.118.679.372.911l7.052 6.31a1.105 1.105 0 0 0 1.475 0l7.052-6.31c.254-.231.39-.567.366-.911a1.106 1.106 0 0 0-.477-.849zM8.114 18.691l-5.478-4.905a1.14 1.14 0 0 1-.372-.88c.006-.33.159-.639.415-.843l5.237-4.212a1.121 1.121 0 0 1 1.32-.05l6.773 4.637a1.12 1.12 0 0 1 0 1.872l-6.532 4.468a1.11 1.11 0 0 1-1.363-.087zm28.128 7.046-5.577-3.339a1.097 1.097 0 0 0-1.301.125l-6.817 6.085a1.122 1.122 0 0 0 .322 1.872l9.457 3.832a1.109 1.109 0 0 0 1.425-.58l2.931-6.566a1.121 1.121 0 0 0-.44-1.43zm.775-7.982 1.444 4.543h-.013c.107.34.046.71-.163.998a1.107 1.107 0 0 1-1.46.3l-3.91-2.34a1.086 1.086 0 0 1-.533-.849c-.037-.355.1-.706.365-.942l2.479-2.21c.28-.25.667-.342 1.029-.243.361.104.647.382.762.743zM16.33 29.631a1.115 1.115 0 0 0-.353-1.024l-6.817-6.084a1.097 1.097 0 0 0-1.3-.125l-5.578 3.339a1.134 1.134 0 0 0-.446 1.423l2.937 6.565c.243.547.873.803 1.425.58l9.45-3.832c.357-.143.615-.461.682-.842zm3.347 1.872 7.585 3.07c.37.16.627.508.67.912.047.408-.134.81-.472 1.042L19.87 41.8a1.098 1.098 0 0 1-.62.2 1.116 1.116 0 0 1-.62-.2l-7.585-5.273a1.114 1.114 0 0 1-.477-1.042c.05-.408.316-.757.694-.911l7.585-3.07a1.12 1.12 0 0 1 .83 0z" fill="#bf4722" fill-rule="evenodd"/></svg>