<svg viewBox="0 0 188 152" xmlns="http://www.w3.org/2000/svg"><path d="m0 0h188v152h-188z" fill="#fff"/><path d="m96.5556 44c35.0004 0 9.0004-34 0-44 0 0-35 44 0 44z" fill="#0d9488"/><path d="m74.1121 97.6674c24.7488-24.7487-17.6776-30.4056-31.1127-31.1127 0 0 6.364 55.8613 31.1127 31.1127z" fill="#0d9488"/><path d="m95.8909 118.719-30.1716-30.1713" stroke="#9a3412" stroke-linecap="round" stroke-width="4"/><path d="m113.999 78.1121c24.749 24.7489 30.406-17.6776 31.113-31.1127 0 0-55.8613 6.364-31.113 31.1127z" fill="#0d9488"/><g stroke-linecap="round"><path d="m97 97.8909 26.172-26.1716" stroke="#9a3412" stroke-width="4"/><path d="m97 150v-117" stroke="#9a3412" stroke-width="4"/><path d="m3 149h182" stroke="#57534e" stroke-width="6"/></g></svg>
