<svg fill="none" height="50" viewBox="0 0 68 50" width="68" xmlns="http://www.w3.org/2000/svg" xmlns:xlink="http://www.w3.org/1999/xlink"><clipPath id="a"><path d="m0 0h68v50h-68z"/></clipPath><g clip-path="url(#a)"><path clip-rule="evenodd" d="m3 .00000308c-1.38071.00000009-2.5 1.11928692-2.5 2.49999692 0 1.38072 1.11929 2.5 2.5 2.5h43.5v35.9645l-11.6421-11.6422c-.9763-.9763-2.5592-.9763-3.5356 0-.9763.9763-.9763 2.5593 0 3.5356l15.9099 15.9099c.9763.9763 2.5593.9763 3.5356 0l15.9099-15.9099c.9763-.9763.9763-2.5593 0-3.5356s-2.5592-.9763-3.5356 0l-11.6421 11.6422v-37.9645c0-.08439-.0042-.16778-.0123-.25002.0081-.08222.0123-.16561.0123-.24998 0-1.38071-1.1193-2.5-2.5-2.5z" fill="#bf4722" fill-rule="evenodd"/></g></svg>