<svg width="68" height="50" viewBox="0 0 68 50" fill="none" xmlns="http://www.w3.org/2000/svg">
<line x1="2.5" y1="2.5" x2="48.5" y2="2.5" stroke="#BF4722" stroke-width="5" stroke-linecap="round"/>
<path d="M51.5 3C51.5 1.61929 50.3807 0.5 49 0.5C47.6193 0.5 46.5 1.61929 46.5 3L51.5 3ZM47.2322 48.7678C48.2085 49.7441 49.7915 49.7441 50.7678 48.7678L66.6777 32.8579C67.654 31.8816 67.654 30.2986 66.6777 29.3223C65.7014 28.346 64.1184 28.346 63.1421 29.3223L49 43.4645L34.8579 29.3223C33.8816 28.346 32.2986 28.346 31.3223 29.3223C30.346 30.2986 30.346 31.8816 31.3223 32.8579L47.2322 48.7678ZM46.5 3L46.5 47L51.5 47L51.5 3L46.5 3Z" fill="#BF4722"/>
</svg>
