<svg width="56" height="50" viewBox="0 0 56 50" fill="none" xmlns="http://www.w3.org/2000/svg">
<line x1="2.5" y1="2.5" x2="36.5" y2="2.5" stroke="#9A3412" stroke-width="5" stroke-linecap="round"/>
<path d="M39.5 3C39.5 1.61929 38.3807 0.5 37 0.5C35.6193 0.5 34.5 1.61929 34.5 3L39.5 3ZM35.2322 48.7678C36.2085 49.7441 37.7915 49.7441 38.7678 48.7678L54.6777 32.8579C55.654 31.8816 55.654 30.2986 54.6777 29.3223C53.7014 28.346 52.1184 28.346 51.1421 29.3223L37 43.4645L22.8579 29.3223C21.8816 28.346 20.2986 28.346 19.3223 29.3223C18.346 30.2986 18.346 31.8816 19.3223 32.8579L35.2322 48.7678ZM34.5 3L34.5 47L39.5 47L39.5 3L34.5 3Z" fill="#9A3412"/>
</svg>
