<svg viewBox="0 0 188 268" xmlns="http://www.w3.org/2000/svg" xmlns:xlink="http://www.w3.org/1999/xlink"><clipPath id="a"><path d="m0 0h188v268h-188z"/></clipPath><g clip-path="url(#a)"><path d="m0 0h188v268h-188z" fill="#fff"/><path d="m95.5556 44c35.0004 0 9.0004-34 0-44 0 0-35 44 0 44z" fill="#0d9488"/><path d="m74.1121 213.667c24.7488-24.748-17.6776-30.405-31.1127-31.112 0 0 6.364 55.861 31.1127 31.112z" fill="#0d9488"/><path d="m95.8909 234.719-30.1716-30.171" stroke="#9a3412" stroke-linecap="round" stroke-width="4"/><path d="m113.999 194.112c24.749 24.749 30.406-17.678 31.113-31.113 0 0-55.8613 6.364-31.113 31.113z" fill="#0d9488"/><path d="m97 213.891 26.172-26.172" stroke="#9a3412" stroke-linecap="round" stroke-width="4"/><path d="m43.1121 121.667c24.7488-24.7483-17.6776-30.4052-31.1127-31.1123 0 0 6.364 55.8613 31.1127 31.1123z" fill="#0d9488"/><path d="m74.1121 83.6674c24.7488-24.7487-17.6776-30.4056-31.1127-31.1127 0 0 6.364 55.8613 31.1127 31.1127z" fill="#0d9488"/><path d="m146 103.112c24.748 24.749 30.405-17.6775 31.112-31.1126 0 0-55.861 6.364-31.112 31.1126z" fill="#0d9488"/><g stroke-linecap="round"><path d="m95.8909 174.719-60.1716-60.171" stroke="#9a3412" stroke-width="4"/><path d="m95.8909 106-31.1716-31.1716" stroke="#9a3412" stroke-width="4"/><path d="m146.172 132-12.172-12.172" stroke="#9a3412" stroke-width="4"/><path d="m97 153.891 58.172-58.1717" stroke="#9a3412" stroke-width="4"/><path d="m43 151.172 14.1716-14.172" stroke="#9a3412" stroke-width="4"/><path d="m97 266v-232" stroke="#9a3412" stroke-width="4"/><path d="m3 265h182" stroke="#57534e" stroke-width="6"/></g><path clip-rule="evenodd" d="m149.984 128.205 6.99 4.771c.158.105.342.163.531.166.19-.001.375-.059.532-.166l6.995-4.787c.272-.195.422-.519.395-.854-.028-.335-.228-.63-.528-.778l-6.99-3.461c-.265-.128-.574-.128-.839 0l-6.969 3.461c-.305.149-.508.45-.532.79s.134.668.415.858zm9.896 6.269c0 .317.155.613.414.792l5.604 3.83c.359.247.839.216 1.163-.075l4.701-4.205c.209-.187.326-.458.318-.74-.009-.282-.14-.545-.361-.72l-4.488-3.589c-.326-.259-.781-.277-1.126-.043l-5.811 3.975c-.254.176-.409.464-.414.775zm-13.938 5.21c.226.204.343.504.313.808-.029.306-.206.578-.473.727l-3.346 2.006c-.339.203-.767.174-1.076-.073s-.435-.661-.316-1.039l1.238-3.894c.097-.309.343-.547.653-.632.31-.09.645-.011.882.209zm18.15.407-6.05-4.14c-.322-.217-.741-.217-1.062 0l-6.05 4.14c-.241.166-.394.434-.415.727-.015.296.102.582.319.781l6.045 5.408c.174.156.399.241.632.241.232 0 .457-.086.632-.241l6.045-5.408c.218-.198.333-.486.313-.781-.017-.293-.168-.562-.409-.727zm-16.137-1.07-4.696-4.205c-.211-.191-.327-.467-.318-.754.005-.282.135-.547.356-.722l4.488-3.611c.329-.258.785-.275 1.131-.042l5.806 3.974c.27.177.432.479.432.802 0 .324-.162.626-.432.803l-5.598 3.83c-.361.246-.842.215-1.169-.075zm24.11 6.039-4.781-2.862c-.355-.214-.807-.17-1.115.107l-5.843 5.216c-.247.22-.362.553-.306.88.056.326.276.601.582.724l8.106 3.285c.111.046.23.07.35.069.377.002.718-.221.871-.567l2.513-5.627c.204-.445.042-.974-.377-1.225zm.664-6.841 1.237 3.894h-.01c.091.291.039.609-.14.855-.18.246-.465.392-.769.391-.17.001-.337-.046-.483-.134l-3.352-2.006c-.261-.152-.431-.424-.456-.727-.032-.304.085-.605.313-.808l2.125-1.893c.24-.215.571-.294.881-.209.31.089.556.328.654.637zm-17.731 10.179c.057-.326-.057-.658-.302-.877l-5.843-5.216c-.309-.277-.761-.321-1.116-.107l-4.78 2.862c-.414.252-.578.774-.383 1.22l2.518 5.627c.209.469.748.689 1.222.498l8.1-3.285c.306-.123.527-.396.584-.722zm2.869 1.605 6.501 2.632c.318.136.538.435.574.781.041.35-.115.694-.404.893l-6.507 4.52c-.156.109-.341.169-.531.171-.19-.003-.375-.062-.531-.171l-6.502-4.52c-.29-.198-.447-.542-.409-.893.044-.35.271-.649.595-.781l6.502-2.632c.228-.091.483-.091.712 0z" fill="#bf4722" fill-rule="evenodd"/><path clip-rule="evenodd" d="m146.233 230.638 1.569 8.317c.037.186.127.357.258.493.135.132.306.222.493.258l8.332 1.561c.33.055.665-.069.882-.325.218-.256.285-.606.178-.922l-2.496-7.39c-.097-.279-.315-.497-.593-.594l-7.375-2.48c-.321-.111-.678-.042-.935.182-.258.223-.377.567-.313.9zm2.564 11.43c-.223.224-.323.543-.267.853l1.255 6.671c.078.428.44.746.875.769l6.297.351c.281.016.555-.093.748-.298.194-.206.287-.485.255-.764l-.636-5.712c-.047-.414-.357-.748-.766-.827l-6.919-1.298c-.305-.056-.618.04-.842.255zm-13.539-6.171c.016.304-.114.598-.35.793-.237.195-.554.262-.849.18l-3.784-.948c-.384-.097-.666-.42-.71-.813-.043-.393.16-.774.512-.958l3.629-1.878c.287-.15.629-.144.908.015.283.156.464.448.476.771zm12.546 13.121-1.35-7.205c-.075-.381-.371-.677-.751-.752l-7.206-1.35c-.288-.052-.585.029-.807.221-.22.198-.34.484-.327.778l.45 8.098c.013.234.112.453.277.618.164.164.384.262.617.276l8.098.45c.294.015.58-.107.774-.33.195-.219.279-.516.225-.804zm-10.654-12.167-.347-6.293c-.014-.285.099-.563.308-.759.203-.196.483-.291.762-.259l5.727.621c.415.05.75.36.83.77l1.295 6.915c.066.316-.033.644-.262.873s-.557.328-.873.262l-6.667-1.251c-.429-.081-.747-.442-.773-.879zm12.778 21.319-1.357-5.404c-.1-.402-.45-.691-.864-.713l-7.82-.444c-.33-.019-.647.135-.838.406s-.23.62-.101.924l3.409 8.054c.046.111.114.212.199.297.265.267.664.351 1.017.215l5.755-2.202c.46-.171.719-.66.6-1.133zm5.307-4.368-1.878 3.628-.008-.007c-.141.27-.403.458-.704.506-.301.047-.605-.052-.819-.267-.121-.12-.207-.271-.248-.437l-.951-3.788c-.077-.293-.005-.605.191-.837.193-.238.489-.368.793-.35l2.841.163c.322.018.612.197.771.476.157.282.161.625.012.913zm-19.735-5.34c.27-.19.424-.505.406-.834l-.444-7.82c-.021-.414-.31-.764-.713-.864l-5.404-1.357c-.47-.114-.955.139-1.132.592l-2.199 5.76c-.185.479.042 1.016.512 1.215l8.05 3.406c.303.129.652.092.924-.098zm.893 3.163 2.737 6.458c.128.321.072.688-.147.958-.219.277-.572.41-.917.346l-7.797-1.404c-.188-.033-.361-.122-.497-.255-.132-.136-.221-.309-.254-.497l-1.402-7.793c-.065-.346.067-.7.343-.921.278-.216.65-.267.973-.131l6.458 2.736c.226.097.406.277.503.503z" fill="#bf4722" fill-rule="evenodd"/><path clip-rule="evenodd" d="m25.984 145.205 6.9902 4.771c.1578.105.3421.163.5312.166.1894-.001.3742-.059.5312-.166l6.9955-4.787c.2718-.195.4217-.519.3944-.854-.0272-.335-.2276-.63-.5272-.778l-6.9902-3.461c-.2652-.128-.5741-.128-.8393 0l-6.9689 3.461c-.305.149-.508.45-.5322.79-.0241.34.1343.668.4153.858zm9.8957 6.269c.0006.317.1554.613.4143.792l5.6039 3.83c.3587.247.8387.216 1.1632-.075l4.7009-4.205c.2095-.187.3258-.458.3176-.74s-.1401-.545-.3601-.72l-4.4884-3.589c-.3262-.259-.7814-.277-1.1261-.043l-5.811 3.975c-.2543.176-.4086.464-.4143.775zm-13.9379 5.21c.2265.204.343.504.3134.808-.0294.306-.2061.578-.4727.727l-3.3464 2.006c-.3392.203-.7675.174-1.0764-.073-.309-.247-.4344-.661-.3152-1.039l1.2376-3.894c.0971-.309.3432-.547.6533-.632.31-.09.6442-.011.8818.209zm18.1501.407-6.05-4.14c-.3215-.217-.7408-.217-1.0624 0l-6.05 4.14c-.2406.166-.393.434-.4143.727-.0157.296.1014.582.3187.781l6.0447 5.408c.1743.156.3993.241.6321.241s.4575-.086.6321-.241l6.0447-5.408c.218-.198.3335-.486.3134-.781-.0169-.293-.168-.562-.409-.727zm-16.1369-1.07-4.6956-4.205c-.2112-.191-.3278-.467-.3187-.754.0052-.282.1358-.547.3559-.722l4.4884-3.611c.3285-.258.7845-.275 1.1314-.042l5.8057 3.974c.2694.177.4319.479.4319.802 0 .324-.1625.626-.4319.803l-5.5985 3.83c-.361.246-.8416.215-1.1686-.075zm24.1097 6.039-4.7805-2.862c-.355-.214-.8069-.17-1.1154.107l-5.8429 5.216c-.2464.22-.3622.553-.3059.88.0562.326.2765.601.5821.724l8.1057 3.285c.1111.046.2303.07.3505.069.3762.002.7177-.221.8711-.567l2.5125-5.627c.2045-.445.0416-.974-.3772-1.225zm.664-6.841 1.2376 3.894h-.0106c.0915.291.0395.609-.14.855s-.4649.392-.7683.391c-.1702.001-.3373-.046-.4834-.134l-3.3516-2.006c-.2612-.152-.4318-.424-.4568-.727-.0314-.304.0854-.605.3133-.808l2.1247-1.893c.24-.215.5717-.294.8818-.209.3099.089.5552.328.6533.637zm-17.7304 10.179c.0571-.326-.0575-.658-.3028-.877l-5.8429-5.216c-.3085-.277-.7604-.321-1.1154-.107l-4.7805 2.862c-.4139.252-.5777.774-.3825 1.22l2.5178 5.627c.2086.469.7478.689 1.2217.498l8.1003-3.285c.3057-.123.5267-.396.5843-.722zm2.8683 1.605 6.5015 2.632c.3179.136.5375.435.5737.781.0411.35-.1144.694-.4037.893l-6.5068 4.52c-.156.109-.3411.169-.5312.171-.19-.003-.3748-.062-.5312-.171l-6.5015-4.52c-.2903-.198-.4478-.542-.409-.893.0434-.35.2709-.649.5949-.781l6.5015-2.632c.2287-.091.4832-.091.7118 0z" fill="#bf4722" fill-rule="evenodd"/></g></svg>
