<svg width="756" height="1123" viewBox="0 0 756 1123" fill="none" xmlns="http://www.w3.org/2000/svg">
<g style="mix-blend-mode:lighten" opacity="0.1">
<path d="M40.3594 1004.84L38.3906 1002.95L1.18125 1083.35V1055.45L32.4844 987.82L30.5156 985.937L1.18125 1049.32V1021.42L24.6094 970.805L22.6406 968.922L1.18125 1015.29V987.389L16.7344 953.79L14.7656 951.907L1.18125 981.264V953.359L8.85938 936.775L6.89063 934.892L1.18125 947.233V918.818V885.298L40.3594 800.654L38.3906 798.771L1.18125 879.173V851.268L32.4844 783.638L30.5156 781.755L1.18125 845.143V817.238L24.6094 766.623L22.6406 764.74L1.18125 811.112V783.207L16.7344 749.608L14.7656 747.725L1.18125 777.082V749.177L8.85938 732.593L6.89063 730.71L1.18125 743.052V714.636V681.116L40.3594 596.472L38.3906 594.589L1.18125 674.991V647.086L32.4844 579.457L30.5156 577.574L1.18125 640.961V613.056L24.6094 562.441L22.6406 560.558L1.18125 606.93V579.026L16.7344 545.426L14.7656 543.543L1.18125 572.9V544.995L8.85938 528.411L6.89063 526.528L1.18125 538.87V510.455V476.935L40.3594 392.29L38.3906 390.407L1.18125 470.809V442.904L32.4844 375.275L30.5156 373.392L1.18125 436.779V408.874L24.6094 358.26L22.6406 356.377L1.18125 402.749V374.844L16.7344 341.245L14.7656 339.362L1.18125 368.718V340.813L8.85938 324.229L6.89063 322.346L1.18125 334.688V306.273V272.753L40.3594 188.108L38.3906 186.225L1.18125 266.627V238.723L32.4844 171.093L30.5156 169.21L1.18125 232.597V204.692L24.6094 154.078L22.6406 152.195L1.18125 198.567V170.662L16.7344 137.063L14.7656 135.18L1.18125 164.537V136.632L8.85938 120.048L6.89063 118.165L1.18125 130.506V102.091V68.5711L32.9175 0H30.0825L1.18125 62.4456V34.5408L17.1675 0H14.3325L1.18125 28.4153V0.510455L1.4175 0H0V1123H1.18125V1089.48L40.3594 1004.84Z" fill="white"/>
<path d="M77.7656 1088.03L61.5825 1123H64.4175L79.7344 1089.91L77.7656 1088.03Z" fill="white"/>
<path d="M40.3594 16.0736L38.3906 17.9567L46.0688 34.5408V62.4456L32.4844 33.0888L30.5156 34.9718L46.0688 68.5711V96.4759L24.6094 50.1039L22.6406 51.987L46.0688 102.601V130.506L16.7344 67.1191L14.7656 69.0021L46.0688 136.632V164.537L8.85938 84.1342L6.89062 86.0173L46.0688 170.662V204.182V232.597L40.3594 220.255L38.3906 222.138L46.0688 238.723V266.627L32.4844 237.271L30.5156 239.154L46.0688 272.753V300.658L24.6094 254.286L22.6406 256.169L46.0688 306.783V334.688L16.7344 271.301L14.7656 273.184L46.0688 340.813V368.718L8.85938 288.316L6.89062 290.199L46.0688 374.844V408.364V436.779L40.3594 424.437L38.3906 426.32L46.0688 442.904V470.809L32.4844 441.452L30.5156 443.335L46.0688 476.935V504.84L24.6094 458.468L22.6406 460.351L46.0688 510.965V538.87L16.7344 475.483L14.7656 477.366L46.0688 544.995V572.9L8.85938 492.498L6.89062 494.381L46.0688 579.026V612.545V640.961L40.3594 628.619L38.3906 630.502L46.0688 647.086V674.991L32.4844 645.634L30.5156 647.517L46.0688 681.116V709.021L24.6094 662.649L22.6406 664.532L46.0688 715.147V743.052L16.7344 679.665L14.7656 681.548L46.0688 749.177V777.082L8.85938 696.68L6.89062 698.563L46.0688 783.207V816.727V845.143L40.3594 832.801L38.3906 834.684L46.0688 851.268V879.173L32.4844 849.816L30.5156 851.699L46.0688 885.298V913.203L24.6094 866.831L22.6406 868.714L46.0688 919.329V947.233L16.7344 883.846L14.7656 885.729L46.0688 953.359V981.264L8.85938 900.861L6.89062 902.745L46.0688 987.389V1020.91V1049.32L40.3594 1036.98L38.3906 1038.87L46.0688 1055.45V1083.35L32.4844 1054L30.5156 1055.88L46.0688 1089.48V1117.38L24.6094 1071.01L22.6406 1072.9L45.8325 1123H48.6675L71.8594 1072.9L69.8906 1071.01L48.4313 1117.38V1089.48L63.9844 1055.88L62.0156 1054L48.4313 1083.35V1055.45L56.1094 1038.87L54.1406 1036.98L48.4313 1049.32V1020.91V987.389L87.6094 902.745L85.6406 900.861L48.4313 981.264V953.359L79.7344 885.729L77.7656 883.846L48.4313 947.233V919.329L71.8594 868.714L69.8906 866.831L48.4313 913.203V885.298L63.9844 851.699L62.0156 849.816L48.4313 879.173V851.268L56.1094 834.684L54.1406 832.801L48.4313 845.143V816.727V783.207L87.6094 698.563L85.6406 696.68L48.4313 777.082V749.177L79.7344 681.548L77.7656 679.665L48.4313 743.052V715.147L71.8594 664.532L69.8906 662.649L48.4313 709.021V681.116L63.9844 647.517L62.0156 645.634L48.4313 674.991V647.086L56.1094 630.502L54.1406 628.619L48.4313 640.961V612.545V579.026L87.6094 494.381L85.6406 492.498L48.4313 572.9V544.995L79.7344 477.366L77.7656 475.483L48.4313 538.87V510.965L71.8594 460.351L69.8906 458.468L48.4313 504.84V476.935L63.9844 443.335L62.0156 441.452L48.4313 470.809V442.904L56.1094 426.32L54.1406 424.437L48.4313 436.779V408.364V374.844L87.6094 290.199L85.6406 288.316L48.4313 368.718V340.813L79.7344 273.184L77.7656 271.301L48.4313 334.688V306.783L71.8594 256.169L69.8906 254.286L48.4313 300.658V272.753L63.9844 239.154L62.0156 237.271L48.4313 266.627V238.723L56.1094 222.138L54.1406 220.255L48.4313 232.597V204.182V170.662L87.6094 86.0173L85.6406 84.1342L48.4313 164.537V136.632L79.7344 69.0021L77.7656 67.1191L48.4313 130.506V102.601L71.8594 51.987L69.8906 50.1039L48.4313 96.4759V68.5711L63.9844 34.9718L62.0156 33.0888L48.4313 62.4456V34.5408L56.1094 17.9567L54.1406 16.0736L48.4313 28.4153V0H46.0688V28.4153L40.3594 16.0736Z" fill="white"/>
<path d="M85.6406 1105.04L77.3325 1123H80.1675L87.6094 1106.93L85.6406 1105.04Z" fill="white"/>
<path d="M14.7656 1089.91L30.0825 1123H32.9175L16.7344 1088.03L14.7656 1089.91Z" fill="white"/>
<path d="M6.89062 1106.93L14.3325 1123H17.1675L8.85938 1105.04L6.89062 1106.93Z" fill="white"/>
<path d="M93.3188 102.091V130.506L87.6094 118.165L85.6406 120.048L93.3188 136.632V164.537L79.7344 135.18L77.7656 137.063L93.3188 170.662V198.567L71.8594 152.195L69.8906 154.078L93.3188 204.692V232.597L63.9844 169.21L62.0156 171.093L93.3188 238.723V266.627L56.1094 186.225L54.1406 188.108L93.3188 272.753V306.273V334.688L87.6094 322.346L85.6406 324.229L93.3188 340.813V368.718L79.7344 339.362L77.7656 341.245L93.3188 374.844V402.749L71.8594 356.377L69.8906 358.26L93.3188 408.874V436.779L63.9844 373.392L62.0156 375.275L93.3188 442.904V470.809L56.1094 390.407L54.1406 392.29L93.3188 476.935V510.455V538.87L87.6094 526.528L85.6406 528.411L93.3188 544.995V572.9L79.7344 543.543L77.7656 545.426L93.3188 579.026V606.93L71.8594 560.558L69.8906 562.441L93.3188 613.056V640.961L63.9844 577.574L62.0156 579.457L93.3188 647.086V674.991L56.1094 594.589L54.1406 596.472L93.3188 681.116V714.636V743.052L87.6094 730.71L85.6406 732.593L93.3188 749.177V777.082L79.7344 747.725L77.7656 749.608L93.3188 783.207V811.112L71.8594 764.74L69.8906 766.623L93.3188 817.238V845.143L63.9844 781.755L62.0156 783.638L93.3188 851.268V879.173L56.1094 798.771L54.1406 800.654L93.3188 885.298V918.818V947.233L87.6094 934.892L85.6406 936.775L93.3188 953.359V981.264L79.7344 951.907L77.7656 953.79L93.3188 987.389V1015.29L71.8594 968.922L69.8906 970.805L93.3188 1021.42V1049.32L63.9844 985.937L62.0156 987.82L93.3188 1055.45V1083.35L56.1094 1002.95L54.1406 1004.84L93.3188 1089.48V1123H95.6813V1089.48L134.859 1004.84L132.891 1002.95L95.6813 1083.35V1055.45L126.984 987.82L125.016 985.937L95.6813 1049.32V1021.42L119.109 970.805L117.141 968.922L95.6813 1015.29V987.389L111.234 953.79L109.266 951.907L95.6813 981.264V953.359L103.359 936.775L101.391 934.892L95.6813 947.233V918.818V885.298L134.859 800.654L132.891 798.771L95.6813 879.173V851.268L126.984 783.638L125.016 781.755L95.6813 845.143V817.238L119.109 766.623L117.141 764.74L95.6813 811.112V783.207L111.234 749.608L109.266 747.725L95.6813 777.082V749.177L103.359 732.593L101.391 730.71L95.6813 743.052V714.636V681.116L134.859 596.472L132.891 594.589L95.6813 674.991V647.086L126.984 579.457L125.016 577.574L95.6813 640.961V613.056L119.109 562.441L117.141 560.558L95.6813 606.93V579.026L111.234 545.426L109.266 543.543L95.6813 572.9V544.995L103.359 528.411L101.391 526.528L95.6813 538.87V510.455V476.935L134.859 392.29L132.891 390.407L95.6813 470.809V442.904L126.984 375.275L125.016 373.392L95.6813 436.779V408.874L119.109 358.26L117.141 356.377L95.6813 402.749V374.844L111.234 341.245L109.266 339.362L95.6813 368.718V340.813L103.359 324.229L101.391 322.346L95.6813 334.688V306.273V272.753L134.859 188.108L132.891 186.225L95.6813 266.627V238.723L126.984 171.093L125.016 169.21L95.6813 232.597V204.692L119.109 154.078L117.141 152.195L95.6813 198.567V170.662L111.234 137.063L109.266 135.18L95.6813 164.537V136.632L103.359 120.048L101.391 118.165L95.6813 130.506V102.091V68.5711L127.418 0H124.582L95.6813 62.4456V34.5408L111.668 0H108.832L95.6813 28.4153V0.510455L95.9175 0H93.0825L93.3188 0.510455V28.4153L80.1675 0H77.3325L93.3188 34.5408V62.4456L64.4175 0H61.5825L93.3188 68.5711V102.091Z" fill="white"/>
<path d="M109.266 1089.91L124.582 1123H127.418L111.234 1088.03L109.266 1089.91Z" fill="white"/>
<path d="M180.141 1105.04L171.833 1123H174.668L182.109 1106.93L180.141 1105.04Z" fill="white"/>
<path d="M172.266 1088.03L156.083 1123H158.918L174.234 1089.91L172.266 1088.03Z" fill="white"/>
<path d="M134.859 16.0736L132.891 17.9567L140.569 34.5408V62.4456L126.984 33.0888L125.016 34.9718L140.569 68.5711V96.4759L119.109 50.1039L117.141 51.987L140.569 102.601V130.506L111.234 67.1191L109.266 69.0021L140.569 136.632V164.537L103.359 84.1342L101.391 86.0173L140.569 170.662V204.182V232.597L134.859 220.255L132.891 222.138L140.569 238.723V266.627L126.984 237.271L125.016 239.154L140.569 272.753V300.658L119.109 254.286L117.141 256.169L140.569 306.783V334.688L111.234 271.301L109.266 273.184L140.569 340.813V368.718L103.359 288.316L101.391 290.199L140.569 374.844V408.364V436.779L134.859 424.437L132.891 426.32L140.569 442.904V470.809L126.984 441.452L125.016 443.335L140.569 476.935V504.84L119.109 458.468L117.141 460.351L140.569 510.965V538.87L111.234 475.483L109.266 477.366L140.569 544.995V572.9L103.359 492.498L101.391 494.381L140.569 579.026V612.545V640.961L134.859 628.619L132.891 630.502L140.569 647.086V674.991L126.984 645.634L125.016 647.517L140.569 681.116V709.021L119.109 662.649L117.141 664.532L140.569 715.147V743.052L111.234 679.665L109.266 681.548L140.569 749.177V777.082L103.359 696.68L101.391 698.563L140.569 783.207V816.727V845.143L134.859 832.801L132.891 834.684L140.569 851.268V879.173L126.984 849.816L125.016 851.699L140.569 885.298V913.203L119.109 866.831L117.141 868.714L140.569 919.329V947.233L111.234 883.846L109.266 885.729L140.569 953.359V981.264L103.359 900.861L101.391 902.745L140.569 987.389V1020.91V1049.32L134.859 1036.98L132.891 1038.87L140.569 1055.45V1083.35L126.984 1054L125.016 1055.88L140.569 1089.48V1117.38L119.109 1071.01L117.141 1072.9L140.332 1123H143.168L166.359 1072.9L164.391 1071.01L142.931 1117.38V1089.48L158.484 1055.88L156.516 1054L142.931 1083.35V1055.45L150.609 1038.87L148.641 1036.98L142.931 1049.32V1020.91V987.389L182.109 902.745L180.141 900.861L142.931 981.264V953.359L174.234 885.729L172.266 883.846L142.931 947.233V919.329L166.359 868.714L164.391 866.831L142.931 913.203V885.298L158.484 851.699L156.516 849.816L142.931 879.173V851.268L150.609 834.684L148.641 832.801L142.931 845.143V816.727V783.207L182.109 698.563L180.141 696.68L142.931 777.082V749.177L174.234 681.548L172.266 679.665L142.931 743.052V715.147L166.359 664.532L164.391 662.649L142.931 709.021V681.116L158.484 647.517L156.516 645.634L142.931 674.991V647.086L150.609 630.502L148.641 628.619L142.931 640.961V612.545V579.026L182.109 494.381L180.141 492.498L142.931 572.9V544.995L174.234 477.366L172.266 475.483L142.931 538.87V510.965L166.359 460.351L164.391 458.468L142.931 504.84V476.935L158.484 443.335L156.516 441.452L142.931 470.809V442.904L150.609 426.32L148.641 424.437L142.931 436.779V408.364V374.844L182.109 290.199L180.141 288.316L142.931 368.718V340.813L174.234 273.184L172.266 271.301L142.931 334.688V306.783L166.359 256.169L164.391 254.286L142.931 300.658V272.753L158.484 239.154L156.516 237.271L142.931 266.627V238.723L150.609 222.138L148.641 220.255L142.931 232.597V204.182V170.662L182.109 86.0173L180.141 84.1342L142.931 164.537V136.632L174.234 69.0021L172.266 67.1191L142.931 130.506V102.601L166.359 51.987L164.391 50.1039L142.931 96.4759V68.5711L158.484 34.9718L156.516 33.0888L142.931 62.4456V34.5408L150.609 17.9567L148.641 16.0736L142.931 28.4153V0H140.569V28.4153L134.859 16.0736Z" fill="white"/>
<path d="M101.391 1106.93L108.832 1123H111.668L103.359 1105.04L101.391 1106.93Z" fill="white"/>
<path d="M754.819 102.091V130.506L749.109 118.165L747.141 120.048L754.819 136.632V164.537L741.234 135.18L739.266 137.063L754.819 170.662V198.567L733.359 152.195L731.391 154.078L754.819 204.692V232.597L725.484 169.21L723.516 171.093L754.819 238.723V266.627L717.609 186.225L715.641 188.108L754.819 272.753V306.273V334.688L749.109 322.346L747.141 324.229L754.819 340.813V368.718L741.234 339.362L739.266 341.245L754.819 374.844V402.749L733.359 356.377L731.391 358.26L754.819 408.874V436.779L725.484 373.392L723.516 375.275L754.819 442.904V470.809L717.609 390.407L715.641 392.29L754.819 476.935V510.455V538.87L749.109 526.528L747.141 528.411L754.819 544.995V572.9L741.234 543.543L739.266 545.426L754.819 579.026V606.93L733.359 560.558L731.391 562.441L754.819 613.056V640.961L725.484 577.574L723.516 579.457L754.819 647.086V674.991L717.609 594.589L715.641 596.472L754.819 681.116V714.636V743.052L749.109 730.71L747.141 732.593L754.819 749.177V777.082L741.234 747.725L739.266 749.608L754.819 783.207V811.112L733.359 764.74L731.391 766.623L754.819 817.238V845.143L725.484 781.755L723.516 783.638L754.819 851.268V879.173L717.609 798.771L715.641 800.654L754.819 885.298V918.818V947.233L749.109 934.892L747.141 936.775L754.819 953.359V981.264L741.234 951.907L739.266 953.79L754.819 987.389V1015.29L733.359 968.922L731.391 970.805L754.819 1021.42V1049.32L725.484 985.937L723.516 987.82L754.819 1055.45V1083.35L717.609 1002.95L715.641 1004.84L754.819 1089.48V1123H756V0H754.583L754.819 0.510455V28.4153L741.667 0H738.833L754.819 34.5408V62.4456L725.917 0H723.083L754.819 68.5711V102.091Z" fill="white"/>
<path d="M187.819 102.091V130.506L182.109 118.165L180.141 120.048L187.819 136.632V164.537L174.234 135.18L172.266 137.063L187.819 170.662V198.567L166.359 152.195L164.391 154.078L187.819 204.692V232.597L158.484 169.21L156.516 171.093L187.819 238.723V266.627L150.609 186.225L148.641 188.108L187.819 272.753V306.273V334.688L182.109 322.346L180.141 324.229L187.819 340.813V368.718L174.234 339.362L172.266 341.245L187.819 374.844V402.749L166.359 356.377L164.391 358.26L187.819 408.874V436.779L158.484 373.392L156.516 375.275L187.819 442.904V470.809L150.609 390.407L148.641 392.29L187.819 476.935V510.455V538.87L182.109 526.528L180.141 528.411L187.819 544.995V572.9L174.234 543.543L172.266 545.426L187.819 579.026V606.93L166.359 560.558L164.391 562.441L187.819 613.056V640.961L158.484 577.574L156.516 579.457L187.819 647.086V674.991L150.609 594.589L148.641 596.472L187.819 681.116V714.636V743.052L182.109 730.71L180.141 732.593L187.819 749.177V777.082L174.234 747.725L172.266 749.608L187.819 783.207V811.112L166.359 764.74L164.391 766.623L187.819 817.238V845.143L158.484 781.755L156.516 783.638L187.819 851.268V879.173L150.609 798.771L148.641 800.654L187.819 885.298V918.818V947.233L182.109 934.892L180.141 936.775L187.819 953.359V981.264L174.234 951.907L172.266 953.79L187.819 987.389V1015.29L166.359 968.922L164.391 970.805L187.819 1021.42V1049.32L158.484 985.937L156.516 987.82L187.819 1055.45V1083.35L150.609 1002.95L148.641 1004.84L187.819 1089.48V1123H190.181V1089.48L229.359 1004.84L227.391 1002.95L190.181 1083.35V1055.45L221.484 987.82L219.516 985.937L190.181 1049.32V1021.42L213.609 970.805L211.641 968.922L190.181 1015.29V987.389L205.734 953.79L203.766 951.907L190.181 981.264V953.359L197.859 936.775L195.891 934.892L190.181 947.233V918.818V885.298L229.359 800.654L227.391 798.771L190.181 879.173V851.268L221.484 783.638L219.516 781.755L190.181 845.143V817.238L213.609 766.623L211.641 764.74L190.181 811.112V783.207L205.734 749.608L203.766 747.725L190.181 777.082V749.177L197.859 732.593L195.891 730.71L190.181 743.052V714.636V681.116L229.359 596.472L227.391 594.589L190.181 674.991V647.086L221.484 579.457L219.516 577.574L190.181 640.961V613.056L213.609 562.441L211.641 560.558L190.181 606.93V579.026L205.734 545.426L203.766 543.543L190.181 572.9V544.995L197.859 528.411L195.891 526.528L190.181 538.87V510.455V476.935L229.359 392.29L227.391 390.407L190.181 470.809V442.904L221.484 375.275L219.516 373.392L190.181 436.779V408.874L213.609 358.26L211.641 356.377L190.181 402.749V374.844L205.734 341.245L203.766 339.362L190.181 368.718V340.813L197.859 324.229L195.891 322.346L190.181 334.688V306.273V272.753L229.359 188.108L227.391 186.225L190.181 266.627V238.723L221.484 171.093L219.516 169.21L190.181 232.597V204.692L213.609 154.078L211.641 152.195L190.181 198.567V170.662L205.734 137.063L203.766 135.18L190.181 164.537V136.632L197.859 120.048L195.891 118.165L190.181 130.506V102.091V68.5711L221.917 0H219.083L190.181 62.4456V34.5408L206.167 0H203.333L190.181 28.4153V0.510455L190.418 0H187.582L187.819 0.510455V28.4153L174.668 0H171.832L187.819 34.5408V62.4456L158.918 0H156.082L187.819 68.5711V102.091Z" fill="white"/>
<path d="M195.891 1106.93L203.333 1123H206.167L197.859 1105.04L195.891 1106.93Z" fill="white"/>
<path d="M203.766 1089.91L219.083 1123H221.917L205.734 1088.03L203.766 1089.91Z" fill="white"/>
<path d="M266.766 1088.03L250.583 1123H253.418L268.734 1089.91L266.766 1088.03Z" fill="white"/>
<path d="M229.359 16.0736L227.391 17.9567L235.069 34.5408V62.4456L221.484 33.0888L219.516 34.9718L235.069 68.5711V96.4759L213.609 50.1039L211.641 51.987L235.069 102.601V130.506L205.734 67.1191L203.766 69.0021L235.069 136.632V164.537L197.859 84.1342L195.891 86.0173L235.069 170.662V204.182V232.597L229.359 220.255L227.391 222.138L235.069 238.723V266.627L221.484 237.271L219.516 239.154L235.069 272.753V300.658L213.609 254.286L211.641 256.169L235.069 306.783V334.688L205.734 271.301L203.766 273.184L235.069 340.813V368.718L197.859 288.316L195.891 290.199L235.069 374.844V408.364V436.779L229.359 424.437L227.391 426.32L235.069 442.904V470.809L221.484 441.452L219.516 443.335L235.069 476.935V504.84L213.609 458.468L211.641 460.351L235.069 510.965V538.87L205.734 475.483L203.766 477.366L235.069 544.995V572.9L197.859 492.498L195.891 494.381L235.069 579.026V612.545V640.961L229.359 628.619L227.391 630.502L235.069 647.086V674.991L221.484 645.634L219.516 647.517L235.069 681.116V709.021L213.609 662.649L211.641 664.532L235.069 715.147V743.052L205.734 679.665L203.766 681.548L235.069 749.177V777.082L197.859 696.68L195.891 698.563L235.069 783.207V816.727V845.143L229.359 832.801L227.391 834.684L235.069 851.268V879.173L221.484 849.816L219.516 851.699L235.069 885.298V913.203L213.609 866.831L211.641 868.714L235.069 919.329V947.233L205.734 883.846L203.766 885.729L235.069 953.359V981.264L197.859 900.861L195.891 902.745L235.069 987.389V1020.91V1049.32L229.359 1036.98L227.391 1038.87L235.069 1055.45V1083.35L221.484 1054L219.516 1055.88L235.069 1089.48V1117.38L213.609 1071.01L211.641 1072.9L234.833 1123H237.667L260.859 1072.9L258.891 1071.01L237.431 1117.38V1089.48L252.984 1055.88L251.016 1054L237.431 1083.35V1055.45L245.109 1038.87L243.141 1036.98L237.431 1049.32V1020.91V987.389L276.609 902.745L274.641 900.861L237.431 981.264V953.359L268.734 885.729L266.766 883.846L237.431 947.233V919.329L260.859 868.714L258.891 866.831L237.431 913.203V885.298L252.984 851.699L251.016 849.816L237.431 879.173V851.268L245.109 834.684L243.141 832.801L237.431 845.143V816.727V783.207L276.609 698.563L274.641 696.68L237.431 777.082V749.177L268.734 681.548L266.766 679.665L237.431 743.052V715.147L260.859 664.532L258.891 662.649L237.431 709.021V681.116L252.984 647.517L251.016 645.634L237.431 674.991V647.086L245.109 630.502L243.141 628.619L237.431 640.961V612.545V579.026L276.609 494.381L274.641 492.498L237.431 572.9V544.995L268.734 477.366L266.766 475.483L237.431 538.87V510.965L260.859 460.351L258.891 458.468L237.431 504.84V476.935L252.984 443.335L251.016 441.452L237.431 470.809V442.904L245.109 426.32L243.141 424.437L237.431 436.779V408.364V374.844L276.609 290.199L274.641 288.316L237.431 368.718V340.813L268.734 273.184L266.766 271.301L237.431 334.688V306.783L260.859 256.169L258.891 254.286L237.431 300.658V272.753L252.984 239.154L251.016 237.271L237.431 266.627V238.723L245.109 222.138L243.141 220.255L237.431 232.597V204.182V170.662L276.609 86.0173L274.641 84.1342L237.431 164.537V136.632L268.734 69.0021L266.766 67.1191L237.431 130.506V102.601L260.859 51.987L258.891 50.1039L237.431 96.4759V68.5711L252.984 34.9718L251.016 33.0888L237.431 62.4456V34.5408L245.109 17.9567L243.141 16.0736L237.431 28.4153V0H235.069V28.4153L229.359 16.0736Z" fill="white"/>
<path d="M274.641 1105.04L266.333 1123H269.168L276.609 1106.93L274.641 1105.04Z" fill="white"/>
<path d="M282.319 102.091V130.506L276.609 118.165L274.641 120.048L282.319 136.632V164.537L268.734 135.18L266.766 137.063L282.319 170.662V198.567L260.859 152.195L258.891 154.078L282.319 204.692V232.597L252.984 169.21L251.016 171.093L282.319 238.723V266.627L245.109 186.225L243.141 188.108L282.319 272.753V306.273V334.688L276.609 322.346L274.641 324.229L282.319 340.813V368.718L268.734 339.362L266.766 341.245L282.319 374.844V402.749L260.859 356.377L258.891 358.26L282.319 408.874V436.779L252.984 373.392L251.016 375.275L282.319 442.904V470.809L245.109 390.407L243.141 392.29L282.319 476.935V510.455V538.87L276.609 526.528L274.641 528.411L282.319 544.995V572.9L268.734 543.543L266.766 545.426L282.319 579.026V606.93L260.859 560.558L258.891 562.441L282.319 613.056V640.961L252.984 577.574L251.016 579.457L282.319 647.086V674.991L245.109 594.589L243.141 596.472L282.319 681.116V714.636V743.052L276.609 730.71L274.641 732.593L282.319 749.177V777.082L268.734 747.725L266.766 749.608L282.319 783.207V811.112L260.859 764.74L258.891 766.623L282.319 817.238V845.143L252.984 781.755L251.016 783.638L282.319 851.268V879.173L245.109 798.771L243.141 800.654L282.319 885.298V918.818V947.233L276.609 934.892L274.641 936.775L282.319 953.359V981.264L268.734 951.907L266.766 953.79L282.319 987.389V1015.29L260.859 968.922L258.891 970.805L282.319 1021.42V1049.32L252.984 985.937L251.016 987.82L282.319 1055.45V1083.35L245.109 1002.95L243.141 1004.84L282.319 1089.48V1123H284.681V1089.48L323.859 1004.84L321.891 1002.95L284.681 1083.35V1055.45L315.984 987.82L314.016 985.937L284.681 1049.32V1021.42L308.109 970.805L306.141 968.922L284.681 1015.29V987.389L300.234 953.79L298.266 951.907L284.681 981.264V953.359L292.359 936.775L290.391 934.892L284.681 947.233V918.818V885.298L323.859 800.654L321.891 798.771L284.681 879.173V851.268L315.984 783.638L314.016 781.755L284.681 845.143V817.238L308.109 766.623L306.141 764.74L284.681 811.112V783.207L300.234 749.608L298.266 747.725L284.681 777.082V749.177L292.359 732.593L290.391 730.71L284.681 743.052V714.636V681.116L323.859 596.472L321.891 594.589L284.681 674.991V647.086L315.984 579.457L314.016 577.574L284.681 640.961V613.056L308.109 562.441L306.141 560.558L284.681 606.93V579.026L300.234 545.426L298.266 543.543L284.681 572.9V544.995L292.359 528.411L290.391 526.528L284.681 538.87V510.455V476.935L323.859 392.29L321.891 390.407L284.681 470.809V442.904L315.984 375.275L314.016 373.392L284.681 436.779V408.874L308.109 358.26L306.141 356.377L284.681 402.749V374.844L300.234 341.245L298.266 339.362L284.681 368.718V340.813L292.359 324.229L290.391 322.346L284.681 334.688V306.273V272.753L323.859 188.108L321.891 186.225L284.681 266.627V238.723L315.984 171.093L314.016 169.21L284.681 232.597V204.692L308.109 154.078L306.141 152.195L284.681 198.567V170.662L300.234 137.063L298.266 135.18L284.681 164.537V136.632L292.359 120.048L290.391 118.165L284.681 130.506V102.091V68.5711L316.417 0H313.583L284.681 62.4456V34.5408L300.667 0H297.833L284.681 28.4153V0.510455L284.917 0H282.083L282.319 0.510455V28.4153L269.167 0H266.333L282.319 34.5408V62.4456L253.417 0H250.583L282.319 68.5711V102.091Z" fill="white"/>
<path d="M323.859 16.0736L321.891 17.9567L329.569 34.5408V62.4456L315.984 33.0888L314.016 34.9718L329.569 68.5711V96.4759L308.109 50.1039L306.141 51.987L329.569 102.601V130.506L300.234 67.1191L298.266 69.0021L329.569 136.632V164.537L292.359 84.1342L290.391 86.0173L329.569 170.662V204.182V232.597L323.859 220.255L321.891 222.138L329.569 238.723V266.627L315.984 237.271L314.016 239.154L329.569 272.753V300.658L308.109 254.286L306.141 256.169L329.569 306.783V334.688L300.234 271.301L298.266 273.184L329.569 340.813V368.718L292.359 288.316L290.391 290.199L329.569 374.844V408.364V436.779L323.859 424.437L321.891 426.32L329.569 442.904V470.809L315.984 441.452L314.016 443.335L329.569 476.935V504.84L308.109 458.468L306.141 460.351L329.569 510.965V538.87L300.234 475.483L298.266 477.366L329.569 544.995V572.9L292.359 492.498L290.391 494.381L329.569 579.026V612.545V640.961L323.859 628.619L321.891 630.502L329.569 647.086V674.991L315.984 645.634L314.016 647.517L329.569 681.116V709.021L308.109 662.649L306.141 664.532L329.569 715.147V743.052L300.234 679.665L298.266 681.548L329.569 749.177V777.082L292.359 696.68L290.391 698.563L329.569 783.207V816.727V845.143L323.859 832.801L321.891 834.684L329.569 851.268V879.173L315.984 849.816L314.016 851.699L329.569 885.298V913.203L308.109 866.831L306.141 868.714L329.569 919.329V947.233L300.234 883.846L298.266 885.729L329.569 953.359V981.264L292.359 900.861L290.391 902.745L329.569 987.389V1020.91V1049.32L323.859 1036.98L321.891 1038.87L329.569 1055.45V1083.35L315.984 1054L314.016 1055.88L329.569 1089.48V1117.38L308.109 1071.01L306.141 1072.9L329.333 1123H332.167L355.359 1072.9L353.391 1071.01L331.931 1117.38V1089.48L347.484 1055.88L345.516 1054L331.931 1083.35V1055.45L339.609 1038.87L337.641 1036.98L331.931 1049.32V1020.91V987.389L371.109 902.745L369.141 900.861L331.931 981.264V953.359L363.234 885.729L361.266 883.846L331.931 947.233V919.329L355.359 868.714L353.391 866.831L331.931 913.203V885.298L347.484 851.699L345.516 849.816L331.931 879.173V851.268L339.609 834.684L337.641 832.801L331.931 845.143V816.727V783.207L371.109 698.563L369.141 696.68L331.931 777.082V749.177L363.234 681.548L361.266 679.665L331.931 743.052V715.147L355.359 664.532L353.391 662.649L331.931 709.021V681.116L347.484 647.517L345.516 645.634L331.931 674.991V647.086L339.609 630.502L337.641 628.619L331.931 640.961V612.545V579.026L371.109 494.381L369.141 492.498L331.931 572.9V544.995L363.234 477.366L361.266 475.483L331.931 538.87V510.965L355.359 460.351L353.391 458.468L331.931 504.84V476.935L347.484 443.335L345.516 441.452L331.931 470.809V442.904L339.609 426.32L337.641 424.437L331.931 436.779V408.364V374.844L371.109 290.199L369.141 288.316L331.931 368.718V340.813L363.234 273.184L361.266 271.301L331.931 334.688V306.783L355.359 256.169L353.391 254.286L331.931 300.658V272.753L347.484 239.154L345.516 237.271L331.931 266.627V238.723L339.609 222.138L337.641 220.255L331.931 232.597V204.182V170.662L371.109 86.0173L369.141 84.1342L331.931 164.537V136.632L363.234 69.0021L361.266 67.1191L331.931 130.506V102.601L355.359 51.987L353.391 50.1039L331.931 96.4759V68.5711L347.484 34.9718L345.516 33.0888L331.931 62.4456V34.5408L339.609 17.9567L337.641 16.0736L331.931 28.4153V0H329.569V28.4153L323.859 16.0736Z" fill="white"/>
<path d="M369.141 1105.04L360.833 1123H363.668L371.109 1106.93L369.141 1105.04Z" fill="white"/>
<path d="M361.266 1088.03L345.083 1123H347.918L363.234 1089.91L361.266 1088.03Z" fill="white"/>
<path d="M290.391 1106.93L297.833 1123H300.667L292.359 1105.04L290.391 1106.93Z" fill="white"/>
<path d="M298.266 1089.91L313.583 1123H316.417L300.234 1088.03L298.266 1089.91Z" fill="white"/>
<path d="M376.819 102.091V130.506L371.109 118.165L369.141 120.048L376.819 136.632V164.537L363.234 135.18L361.266 137.063L376.819 170.662V198.567L355.359 152.195L353.391 154.078L376.819 204.692V232.597L347.484 169.21L345.516 171.093L376.819 238.723V266.627L339.609 186.225L337.641 188.108L376.819 272.753V306.273V334.688L371.109 322.346L369.141 324.229L376.819 340.813V368.718L363.234 339.362L361.266 341.245L376.819 374.844V402.749L355.359 356.377L353.391 358.26L376.819 408.874V436.779L347.484 373.392L345.516 375.275L376.819 442.904V470.809L339.609 390.407L337.641 392.29L376.819 476.935V510.455V538.87L371.109 526.528L369.141 528.411L376.819 544.995V572.9L363.234 543.543L361.266 545.426L376.819 579.026V606.93L355.359 560.558L353.391 562.441L376.819 613.056V640.961L347.484 577.574L345.516 579.457L376.819 647.086V674.991L339.609 594.589L337.641 596.472L376.819 681.116V714.636V743.052L371.109 730.71L369.141 732.593L376.819 749.177V777.082L363.234 747.725L361.266 749.608L376.819 783.207V811.112L355.359 764.74L353.391 766.623L376.819 817.238V845.143L347.484 781.755L345.516 783.638L376.819 851.268V879.173L339.609 798.771L337.641 800.654L376.819 885.298V918.818V947.233L371.109 934.892L369.141 936.775L376.819 953.359V981.264L363.234 951.907L361.266 953.79L376.819 987.389V1015.29L355.359 968.922L353.391 970.805L376.819 1021.42V1049.32L347.484 985.937L345.516 987.82L376.819 1055.45V1083.35L339.609 1002.95L337.641 1004.84L376.819 1089.48V1123H379.181V1089.48L418.359 1004.84L416.391 1002.95L379.181 1083.35V1055.45L410.484 987.82L408.516 985.937L379.181 1049.32V1021.42L402.609 970.805L400.641 968.922L379.181 1015.29V987.389L394.734 953.79L392.766 951.907L379.181 981.264V953.359L386.859 936.775L384.891 934.892L379.181 947.233V918.818V885.298L418.359 800.654L416.391 798.771L379.181 879.173V851.268L410.484 783.638L408.516 781.755L379.181 845.143V817.238L402.609 766.623L400.641 764.74L379.181 811.112V783.207L394.734 749.608L392.766 747.725L379.181 777.082V749.177L386.859 732.593L384.891 730.71L379.181 743.052V714.636V681.116L418.359 596.472L416.391 594.589L379.181 674.991V647.086L410.484 579.457L408.516 577.574L379.181 640.961V613.056L402.609 562.441L400.641 560.558L379.181 606.93V579.026L394.734 545.426L392.766 543.543L379.181 572.9V544.995L386.859 528.411L384.891 526.528L379.181 538.87V510.455V476.935L418.359 392.29L416.391 390.407L379.181 470.809V442.904L410.484 375.275L408.516 373.392L379.181 436.779V408.874L402.609 358.26L400.641 356.377L379.181 402.749V374.844L394.734 341.245L392.766 339.362L379.181 368.718V340.813L386.859 324.229L384.891 322.346L379.181 334.688V306.273V272.753L418.359 188.108L416.391 186.225L379.181 266.627V238.723L410.484 171.093L408.516 169.21L379.181 232.597V204.692L402.609 154.078L400.641 152.195L379.181 198.567V170.662L394.734 137.063L392.766 135.18L379.181 164.537V136.632L386.859 120.048L384.891 118.165L379.181 130.506V102.091V68.5711L410.917 0H408.083L379.181 62.4456V34.5408L395.167 0H392.333L379.181 28.4153V0.510455L379.417 0H376.583L376.819 0.510455V28.4153L363.667 0H360.833L376.819 34.5408V62.4456L347.917 0H345.083L376.819 68.5711V102.091Z" fill="white"/>
<path d="M455.766 1088.03L439.583 1123H442.418L457.734 1089.91L455.766 1088.03Z" fill="white"/>
<path d="M418.359 16.0736L416.391 17.9567L424.069 34.5408V62.4456L410.484 33.0888L408.516 34.9718L424.069 68.5711V96.4759L402.609 50.1039L400.641 51.987L424.069 102.601V130.506L394.734 67.1191L392.766 69.0021L424.069 136.632V164.537L386.859 84.1342L384.891 86.0173L424.069 170.662V204.182V232.597L418.359 220.255L416.391 222.138L424.069 238.723V266.627L410.484 237.271L408.516 239.154L424.069 272.753V300.658L402.609 254.286L400.641 256.169L424.069 306.783V334.688L394.734 271.301L392.766 273.184L424.069 340.813V368.718L386.859 288.316L384.891 290.199L424.069 374.844V408.364V436.779L418.359 424.437L416.391 426.32L424.069 442.904V470.809L410.484 441.452L408.516 443.335L424.069 476.935V504.84L402.609 458.468L400.641 460.351L424.069 510.965V538.87L394.734 475.483L392.766 477.366L424.069 544.995V572.9L386.859 492.498L384.891 494.381L424.069 579.026V612.545V640.961L418.359 628.619L416.391 630.502L424.069 647.086V674.991L410.484 645.634L408.516 647.517L424.069 681.116V709.021L402.609 662.649L400.641 664.532L424.069 715.147V743.052L394.734 679.665L392.766 681.548L424.069 749.177V777.082L386.859 696.68L384.891 698.563L424.069 783.207V816.727V845.143L418.359 832.801L416.391 834.684L424.069 851.268V879.173L410.484 849.816L408.516 851.699L424.069 885.298V913.203L402.609 866.831L400.641 868.714L424.069 919.329V947.233L394.734 883.846L392.766 885.729L424.069 953.359V981.264L386.859 900.861L384.891 902.745L424.069 987.389V1020.91V1049.32L418.359 1036.98L416.391 1038.87L424.069 1055.45V1083.35L410.484 1054L408.516 1055.88L424.069 1089.48V1117.38L402.609 1071.01L400.641 1072.9L423.833 1123H426.667L449.859 1072.9L447.891 1071.01L426.431 1117.38V1089.48L441.984 1055.88L440.016 1054L426.431 1083.35V1055.45L434.109 1038.87L432.141 1036.98L426.431 1049.32V1020.91V987.389L465.609 902.745L463.641 900.861L426.431 981.264V953.359L457.734 885.729L455.766 883.846L426.431 947.233V919.329L449.859 868.714L447.891 866.831L426.431 913.203V885.298L441.984 851.699L440.016 849.816L426.431 879.173V851.268L434.109 834.684L432.141 832.801L426.431 845.143V816.727V783.207L465.609 698.563L463.641 696.68L426.431 777.082V749.177L457.734 681.548L455.766 679.665L426.431 743.052V715.147L449.859 664.532L447.891 662.649L426.431 709.021V681.116L441.984 647.517L440.016 645.634L426.431 674.991V647.086L434.109 630.502L432.141 628.619L426.431 640.961V612.545V579.026L465.609 494.381L463.641 492.498L426.431 572.9V544.995L457.734 477.366L455.766 475.483L426.431 538.87V510.965L449.859 460.351L447.891 458.468L426.431 504.84V476.935L441.984 443.335L440.016 441.452L426.431 470.809V442.904L434.109 426.32L432.141 424.437L426.431 436.779V408.364V374.844L465.609 290.199L463.641 288.316L426.431 368.718V340.813L457.734 273.184L455.766 271.301L426.431 334.688V306.783L449.859 256.169L447.891 254.286L426.431 300.658V272.753L441.984 239.154L440.016 237.271L426.431 266.627V238.723L434.109 222.138L432.141 220.255L426.431 232.597V204.182V170.662L465.609 86.0173L463.641 84.1342L426.431 164.537V136.632L457.734 69.0021L455.766 67.1191L426.431 130.506V102.601L449.859 51.987L447.891 50.1039L426.431 96.4759V68.5711L441.984 34.9718L440.016 33.0888L426.431 62.4456V34.5408L434.109 17.9567L432.141 16.0736L426.431 28.4153V0H424.069V28.4153L418.359 16.0736Z" fill="white"/>
<path d="M384.891 1106.93L392.333 1123H395.167L386.859 1105.04L384.891 1106.93Z" fill="white"/>
<path d="M463.641 1105.04L455.333 1123H458.168L465.609 1106.93L463.641 1105.04Z" fill="white"/>
<path d="M392.766 1089.91L408.083 1123H410.917L394.734 1088.03L392.766 1089.91Z" fill="white"/>
<path d="M471.319 102.091V130.506L465.609 118.165L463.641 120.048L471.319 136.632V164.537L457.734 135.18L455.766 137.063L471.319 170.662V198.567L449.859 152.195L447.891 154.078L471.319 204.692V232.597L441.984 169.21L440.016 171.093L471.319 238.723V266.627L434.109 186.225L432.141 188.108L471.319 272.753V306.273V334.688L465.609 322.346L463.641 324.229L471.319 340.813V368.718L457.734 339.362L455.766 341.245L471.319 374.844V402.749L449.859 356.377L447.891 358.26L471.319 408.874V436.779L441.984 373.392L440.016 375.275L471.319 442.904V470.809L434.109 390.407L432.141 392.29L471.319 476.935V510.455V538.87L465.609 526.528L463.641 528.411L471.319 544.995V572.9L457.734 543.543L455.766 545.426L471.319 579.026V606.93L449.859 560.558L447.891 562.441L471.319 613.056V640.961L441.984 577.574L440.016 579.457L471.319 647.086V674.991L434.109 594.589L432.141 596.472L471.319 681.116V714.636V743.052L465.609 730.71L463.641 732.593L471.319 749.177V777.082L457.734 747.725L455.766 749.608L471.319 783.207V811.112L449.859 764.74L447.891 766.623L471.319 817.238V845.143L441.984 781.755L440.016 783.638L471.319 851.268V879.173L434.109 798.771L432.141 800.654L471.319 885.298V918.818V947.233L465.609 934.892L463.641 936.775L471.319 953.359V981.264L457.734 951.907L455.766 953.79L471.319 987.389V1015.29L449.859 968.922L447.891 970.805L471.319 1021.42V1049.32L441.984 985.937L440.016 987.82L471.319 1055.45V1083.35L434.109 1002.95L432.141 1004.84L471.319 1089.48V1123H473.681V1089.48L512.859 1004.84L510.891 1002.95L473.681 1083.35V1055.45L504.984 987.82L503.016 985.937L473.681 1049.32V1021.42L497.109 970.805L495.141 968.922L473.681 1015.29V987.389L489.234 953.79L487.266 951.907L473.681 981.264V953.359L481.359 936.775L479.391 934.892L473.681 947.233V918.818V885.298L512.859 800.654L510.891 798.771L473.681 879.173V851.268L504.984 783.638L503.016 781.755L473.681 845.143V817.238L497.109 766.623L495.141 764.74L473.681 811.112V783.207L489.234 749.608L487.266 747.725L473.681 777.082V749.177L481.359 732.593L479.391 730.71L473.681 743.052V714.636V681.116L512.859 596.472L510.891 594.589L473.681 674.991V647.086L504.984 579.457L503.016 577.574L473.681 640.961V613.056L497.109 562.441L495.141 560.558L473.681 606.93V579.026L489.234 545.426L487.266 543.543L473.681 572.9V544.995L481.359 528.411L479.391 526.528L473.681 538.87V510.455V476.935L512.859 392.29L510.891 390.407L473.681 470.809V442.904L504.984 375.275L503.016 373.392L473.681 436.779V408.874L497.109 358.26L495.141 356.377L473.681 402.749V374.844L489.234 341.245L487.266 339.362L473.681 368.718V340.813L481.359 324.229L479.391 322.346L473.681 334.688V306.273V272.753L512.859 188.108L510.891 186.225L473.681 266.627V238.723L504.984 171.093L503.016 169.21L473.681 232.597V204.692L497.109 154.078L495.141 152.195L473.681 198.567V170.662L489.234 137.063L487.266 135.18L473.681 164.537V136.632L481.359 120.048L479.391 118.165L473.681 130.506V102.091V68.5711L505.417 0H502.583L473.681 62.4456V34.5408L489.667 0H486.833L473.681 28.4153V0.510455L473.917 0H471.083L471.319 0.510455V28.4153L458.167 0H455.333L471.319 34.5408V62.4456L442.417 0H439.583L471.319 68.5711V102.091Z" fill="white"/>
<path d="M558.141 1105.04L549.833 1123H552.668L560.109 1106.93L558.141 1105.04Z" fill="white"/>
<path d="M550.266 1088.03L534.083 1123H536.918L552.234 1089.91L550.266 1088.03Z" fill="white"/>
<path d="M479.391 1106.93L486.833 1123H489.667L481.359 1105.04L479.391 1106.93Z" fill="white"/>
<path d="M487.266 1089.91L502.583 1123H505.417L489.234 1088.03L487.266 1089.91Z" fill="white"/>
<path d="M512.859 16.0736L510.891 17.9567L518.569 34.5408V62.4456L504.984 33.0888L503.016 34.9718L518.569 68.5711V96.4759L497.109 50.1039L495.141 51.987L518.569 102.601V130.506L489.234 67.1191L487.266 69.0021L518.569 136.632V164.537L481.359 84.1342L479.391 86.0173L518.569 170.662V204.182V232.597L512.859 220.255L510.891 222.138L518.569 238.723V266.627L504.984 237.271L503.016 239.154L518.569 272.753V300.658L497.109 254.286L495.141 256.169L518.569 306.783V334.688L489.234 271.301L487.266 273.184L518.569 340.813V368.718L481.359 288.316L479.391 290.199L518.569 374.844V408.364V436.779L512.859 424.437L510.891 426.32L518.569 442.904V470.809L504.984 441.452L503.016 443.335L518.569 476.935V504.84L497.109 458.468L495.141 460.351L518.569 510.965V538.87L489.234 475.483L487.266 477.366L518.569 544.995V572.9L481.359 492.498L479.391 494.381L518.569 579.026V612.545V640.961L512.859 628.619L510.891 630.502L518.569 647.086V674.991L504.984 645.634L503.016 647.517L518.569 681.116V709.021L497.109 662.649L495.141 664.532L518.569 715.147V743.052L489.234 679.665L487.266 681.548L518.569 749.177V777.082L481.359 696.68L479.391 698.563L518.569 783.207V816.727V845.143L512.859 832.801L510.891 834.684L518.569 851.268V879.173L504.984 849.816L503.016 851.699L518.569 885.298V913.203L497.109 866.831L495.141 868.714L518.569 919.329V947.233L489.234 883.846L487.266 885.729L518.569 953.359V981.264L481.359 900.861L479.391 902.745L518.569 987.389V1020.91V1049.32L512.859 1036.98L510.891 1038.87L518.569 1055.45V1083.35L504.984 1054L503.016 1055.88L518.569 1089.48V1117.38L497.109 1071.01L495.141 1072.9L518.333 1123H521.167L544.359 1072.9L542.391 1071.01L520.931 1117.38V1089.48L536.484 1055.88L534.516 1054L520.931 1083.35V1055.45L528.609 1038.87L526.641 1036.98L520.931 1049.32V1020.91V987.389L560.109 902.745L558.141 900.861L520.931 981.264V953.359L552.234 885.729L550.266 883.846L520.931 947.233V919.329L544.359 868.714L542.391 866.831L520.931 913.203V885.298L536.484 851.699L534.516 849.816L520.931 879.173V851.268L528.609 834.684L526.641 832.801L520.931 845.143V816.727V783.207L560.109 698.563L558.141 696.68L520.931 777.082V749.177L552.234 681.548L550.266 679.665L520.931 743.052V715.147L544.359 664.532L542.391 662.649L520.931 709.021V681.116L536.484 647.517L534.516 645.634L520.931 674.991V647.086L528.609 630.502L526.641 628.619L520.931 640.961V612.545V579.026L560.109 494.381L558.141 492.498L520.931 572.9V544.995L552.234 477.366L550.266 475.483L520.931 538.87V510.965L544.359 460.351L542.391 458.468L520.931 504.84V476.935L536.484 443.335L534.516 441.452L520.931 470.809V442.904L528.609 426.32L526.641 424.437L520.931 436.779V408.364V374.844L560.109 290.199L558.141 288.316L520.931 368.718V340.813L552.234 273.184L550.266 271.301L520.931 334.688V306.783L544.359 256.169L542.391 254.286L520.931 300.658V272.753L536.484 239.154L534.516 237.271L520.931 266.627V238.723L528.609 222.138L526.641 220.255L520.931 232.597V204.182V170.662L560.109 86.0173L558.141 84.1342L520.931 164.537V136.632L552.234 69.0021L550.266 67.1191L520.931 130.506V102.601L544.359 51.987L542.391 50.1039L520.931 96.4759V68.5711L536.484 34.9718L534.516 33.0888L520.931 62.4456V34.5408L528.609 17.9567L526.641 16.0736L520.931 28.4153V0H518.569V28.4153L512.859 16.0736Z" fill="white"/>
<path d="M565.819 102.091V130.506L560.109 118.165L558.141 120.048L565.819 136.632V164.537L552.234 135.18L550.266 137.063L565.819 170.662V198.567L544.359 152.195L542.391 154.078L565.819 204.692V232.597L536.484 169.21L534.516 171.093L565.819 238.723V266.627L528.609 186.225L526.641 188.108L565.819 272.753V306.273V334.688L560.109 322.346L558.141 324.229L565.819 340.813V368.718L552.234 339.362L550.266 341.245L565.819 374.844V402.749L544.359 356.377L542.391 358.26L565.819 408.874V436.779L536.484 373.392L534.516 375.275L565.819 442.904V470.809L528.609 390.407L526.641 392.29L565.819 476.935V510.455V538.87L560.109 526.528L558.141 528.411L565.819 544.995V572.9L552.234 543.543L550.266 545.426L565.819 579.026V606.93L544.359 560.558L542.391 562.441L565.819 613.056V640.961L536.484 577.574L534.516 579.457L565.819 647.086V674.991L528.609 594.589L526.641 596.472L565.819 681.116V714.636V743.052L560.109 730.71L558.141 732.593L565.819 749.177V777.082L552.234 747.725L550.266 749.608L565.819 783.207V811.112L544.359 764.74L542.391 766.623L565.819 817.238V845.143L536.484 781.755L534.516 783.638L565.819 851.268V879.173L528.609 798.771L526.641 800.654L565.819 885.298V918.818V947.233L560.109 934.892L558.141 936.775L565.819 953.359V981.264L552.234 951.907L550.266 953.79L565.819 987.389V1015.29L544.359 968.922L542.391 970.805L565.819 1021.42V1049.32L536.484 985.937L534.516 987.82L565.819 1055.45V1083.35L528.609 1002.95L526.641 1004.84L565.819 1089.48V1123H568.181V1089.48L607.359 1004.84L605.391 1002.95L568.181 1083.35V1055.45L599.484 987.82L597.516 985.937L568.181 1049.32V1021.42L591.609 970.805L589.641 968.922L568.181 1015.29V987.389L583.734 953.79L581.766 951.907L568.181 981.264V953.359L575.859 936.775L573.891 934.892L568.181 947.233V918.818V885.298L607.359 800.654L605.391 798.771L568.181 879.173V851.268L599.484 783.638L597.516 781.755L568.181 845.143V817.238L591.609 766.623L589.641 764.74L568.181 811.112V783.207L583.734 749.608L581.766 747.725L568.181 777.082V749.177L575.859 732.593L573.891 730.71L568.181 743.052V714.636V681.116L607.359 596.472L605.391 594.589L568.181 674.991V647.086L599.484 579.457L597.516 577.574L568.181 640.961V613.056L591.609 562.441L589.641 560.558L568.181 606.93V579.026L583.734 545.426L581.766 543.543L568.181 572.9V544.995L575.859 528.411L573.891 526.528L568.181 538.87V510.455V476.935L607.359 392.29L605.391 390.407L568.181 470.809V442.904L599.484 375.275L597.516 373.392L568.181 436.779V408.874L591.609 358.26L589.641 356.377L568.181 402.749V374.844L583.734 341.245L581.766 339.362L568.181 368.718V340.813L575.859 324.229L573.891 322.346L568.181 334.688V306.273V272.753L607.359 188.108L605.391 186.225L568.181 266.627V238.723L599.484 171.093L597.516 169.21L568.181 232.597V204.692L591.609 154.078L589.641 152.195L568.181 198.567V170.662L583.734 137.063L581.766 135.18L568.181 164.537V136.632L575.859 120.048L573.891 118.165L568.181 130.506V102.091V68.5711L599.917 0H597.083L568.181 62.4456V34.5408L584.167 0H581.333L568.181 28.4153V0.510455L568.417 0H565.583L565.819 0.510455V28.4153L552.667 0H549.833L565.819 34.5408V62.4456L536.917 0H534.083L565.819 68.5711V102.091Z" fill="white"/>
<path d="M573.891 1106.93L581.333 1123H584.167L575.859 1105.04L573.891 1106.93Z" fill="white"/>
<path d="M581.766 1089.91L597.083 1123H599.917L583.734 1088.03L581.766 1089.91Z" fill="white"/>
<path d="M644.766 1088.03L628.583 1123H631.418L646.735 1089.91L644.766 1088.03Z" fill="white"/>
<path d="M652.641 1105.04L644.333 1123H647.168L654.61 1106.93L652.641 1105.04Z" fill="white"/>
<path d="M607.359 16.0736L605.391 17.9567L613.069 34.5408V62.4456L599.484 33.0888L597.516 34.9718L613.069 68.5711V96.4759L591.609 50.1039L589.641 51.987L613.069 102.601V130.506L583.734 67.1191L581.766 69.0021L613.069 136.632V164.537L575.859 84.1342L573.891 86.0173L613.069 170.662V204.182V232.597L607.359 220.255L605.391 222.138L613.069 238.723V266.627L599.484 237.271L597.516 239.154L613.069 272.753V300.658L591.609 254.286L589.641 256.169L613.069 306.783V334.688L583.734 271.301L581.766 273.184L613.069 340.813V368.718L575.859 288.316L573.891 290.199L613.069 374.844V408.364V436.779L607.359 424.437L605.391 426.32L613.069 442.904V470.809L599.484 441.452L597.516 443.335L613.069 476.935V504.84L591.609 458.468L589.641 460.351L613.069 510.965V538.87L583.734 475.483L581.766 477.366L613.069 544.995V572.9L575.859 492.498L573.891 494.381L613.069 579.026V612.545V640.961L607.359 628.619L605.391 630.502L613.069 647.086V674.991L599.484 645.634L597.516 647.517L613.069 681.116V709.021L591.609 662.649L589.641 664.532L613.069 715.147V743.052L583.734 679.665L581.766 681.548L613.069 749.177V777.082L575.859 696.68L573.891 698.563L613.069 783.207V816.727V845.143L607.359 832.801L605.391 834.684L613.069 851.268V879.173L599.484 849.816L597.516 851.699L613.069 885.298V913.203L591.609 866.831L589.641 868.714L613.069 919.329V947.233L583.734 883.846L581.766 885.729L613.069 953.359V981.264L575.859 900.861L573.891 902.745L613.069 987.389V1020.91V1049.32L607.359 1036.98L605.391 1038.87L613.069 1055.45V1083.35L599.484 1054L597.516 1055.88L613.069 1089.48V1117.38L591.609 1071.01L589.641 1072.9L612.833 1123H615.667L638.859 1072.9L636.891 1071.01L615.431 1117.38V1089.48L630.984 1055.88L629.016 1054L615.431 1083.35V1055.45L623.109 1038.87L621.141 1036.98L615.431 1049.32V1020.91V987.389L654.609 902.745L652.641 900.861L615.431 981.264V953.359L646.734 885.729L644.766 883.846L615.431 947.233V919.329L638.859 868.714L636.891 866.831L615.431 913.203V885.298L630.984 851.699L629.016 849.816L615.431 879.173V851.268L623.109 834.684L621.141 832.801L615.431 845.143V816.727V783.207L654.609 698.563L652.641 696.68L615.431 777.082V749.177L646.734 681.548L644.766 679.665L615.431 743.052V715.147L638.859 664.532L636.891 662.649L615.431 709.021V681.116L630.984 647.517L629.016 645.634L615.431 674.991V647.086L623.109 630.502L621.141 628.619L615.431 640.961V612.545V579.026L654.609 494.381L652.641 492.498L615.431 572.9V544.995L646.734 477.366L644.766 475.483L615.431 538.87V510.965L638.859 460.351L636.891 458.468L615.431 504.84V476.935L630.984 443.335L629.016 441.452L615.431 470.809V442.904L623.109 426.32L621.141 424.437L615.431 436.779V408.364V374.844L654.609 290.199L652.641 288.316L615.431 368.718V340.813L646.734 273.184L644.766 271.301L615.431 334.688V306.783L638.859 256.169L636.891 254.286L615.431 300.658V272.753L630.984 239.154L629.016 237.271L615.431 266.627V238.723L623.109 222.138L621.141 220.255L615.431 232.597V204.182V170.662L654.609 86.0173L652.641 84.1342L615.431 164.537V136.632L646.734 69.0021L644.766 67.1191L615.431 130.506V102.601L638.859 51.987L636.891 50.1039L615.431 96.4759V68.5711L630.984 34.9718L629.016 33.0888L615.431 62.4456V34.5408L623.109 17.9567L621.141 16.0736L615.431 28.4153V0H613.069V28.4153L607.359 16.0736Z" fill="white"/>
<path d="M660.319 102.091V130.506L654.609 118.165L652.641 120.048L660.319 136.632V164.537L646.734 135.18L644.766 137.063L660.319 170.662V198.567L638.859 152.195L636.891 154.078L660.319 204.692V232.597L630.984 169.21L629.016 171.093L660.319 238.723V266.627L623.109 186.225L621.141 188.108L660.319 272.753V306.273V334.688L654.609 322.346L652.641 324.229L660.319 340.813V368.718L646.734 339.362L644.766 341.245L660.319 374.844V402.749L638.859 356.377L636.891 358.26L660.319 408.874V436.779L630.984 373.392L629.016 375.275L660.319 442.904V470.809L623.109 390.407L621.141 392.29L660.319 476.935V510.455V538.87L654.609 526.528L652.641 528.411L660.319 544.995V572.9L646.734 543.543L644.766 545.426L660.319 579.026V606.93L638.859 560.558L636.891 562.441L660.319 613.056V640.961L630.984 577.574L629.016 579.457L660.319 647.086V674.991L623.109 594.589L621.141 596.472L660.319 681.116V714.636V743.052L654.609 730.71L652.641 732.593L660.319 749.177V777.082L646.734 747.725L644.766 749.608L660.319 783.207V811.112L638.859 764.74L636.891 766.623L660.319 817.238V845.143L630.984 781.755L629.016 783.638L660.319 851.268V879.173L623.109 798.771L621.141 800.654L660.319 885.298V918.818V947.233L654.609 934.892L652.641 936.775L660.319 953.359V981.264L646.734 951.907L644.766 953.79L660.319 987.389V1015.29L638.859 968.922L636.891 970.805L660.319 1021.42V1049.32L630.984 985.937L629.016 987.82L660.319 1055.45V1083.35L623.109 1002.95L621.141 1004.84L660.319 1089.48V1123H662.681V1089.48L701.859 1004.84L699.891 1002.95L662.681 1083.35V1055.45L693.984 987.82L692.016 985.937L662.681 1049.32V1021.42L686.109 970.805L684.141 968.922L662.681 1015.29V987.389L678.234 953.79L676.266 951.907L662.681 981.264V953.359L670.359 936.775L668.391 934.892L662.681 947.233V918.818V885.298L701.859 800.654L699.891 798.771L662.681 879.173V851.268L693.984 783.638L692.016 781.755L662.681 845.143V817.238L686.109 766.623L684.141 764.74L662.681 811.112V783.207L678.234 749.608L676.266 747.725L662.681 777.082V749.177L670.359 732.593L668.391 730.71L662.681 743.052V714.636V681.116L701.859 596.472L699.891 594.589L662.681 674.991V647.086L693.984 579.457L692.016 577.574L662.681 640.961V613.056L686.109 562.441L684.141 560.558L662.681 606.93V579.026L678.234 545.426L676.266 543.543L662.681 572.9V544.995L670.359 528.411L668.391 526.528L662.681 538.87V510.455V476.935L701.859 392.29L699.891 390.407L662.681 470.809V442.904L693.984 375.275L692.016 373.392L662.681 436.779V408.874L686.109 358.26L684.141 356.377L662.681 402.749V374.844L678.234 341.245L676.266 339.362L662.681 368.718V340.813L670.359 324.229L668.391 322.346L662.681 334.688V306.273V272.753L701.859 188.108L699.891 186.225L662.681 266.627V238.723L693.984 171.093L692.016 169.21L662.681 232.597V204.692L686.109 154.078L684.141 152.195L662.681 198.567V170.662L678.234 137.063L676.266 135.18L662.681 164.537V136.632L670.359 120.048L668.391 118.165L662.681 130.506V102.091V68.5711L694.417 0H691.583L662.681 62.4456V34.5408L678.667 0H675.833L662.681 28.4153V0.510455L662.917 0H660.083L660.319 0.510455V28.4153L647.167 0H644.333L660.319 34.5408V62.4456L631.417 0H628.583L660.319 68.5711V102.091Z" fill="white"/>
<path d="M668.391 1106.93L675.833 1123H678.667L670.359 1105.04L668.391 1106.93Z" fill="white"/>
<path d="M701.859 16.0736L699.891 17.9567L707.569 34.5408V62.4456L693.984 33.0888L692.016 34.9718L707.569 68.5711V96.4759L686.109 50.1039L684.141 51.987L707.569 102.601V130.506L678.234 67.1191L676.266 69.0021L707.569 136.632V164.537L670.359 84.1342L668.391 86.0173L707.569 170.662V204.182V232.597L701.859 220.255L699.891 222.138L707.569 238.723V266.627L693.984 237.271L692.016 239.154L707.569 272.753V300.658L686.109 254.286L684.141 256.169L707.569 306.783V334.688L678.234 271.301L676.266 273.184L707.569 340.813V368.718L670.359 288.316L668.391 290.199L707.569 374.844V408.364V436.779L701.859 424.437L699.891 426.32L707.569 442.904V470.809L693.984 441.452L692.016 443.335L707.569 476.935V504.84L686.109 458.468L684.141 460.351L707.569 510.965V538.87L678.234 475.483L676.266 477.366L707.569 544.995V572.9L670.359 492.498L668.391 494.381L707.569 579.026V612.545V640.961L701.859 628.619L699.891 630.502L707.569 647.086V674.991L693.984 645.634L692.016 647.517L707.569 681.116V709.021L686.109 662.649L684.141 664.532L707.569 715.147V743.052L678.234 679.665L676.266 681.548L707.569 749.177V777.082L670.359 696.68L668.391 698.563L707.569 783.207V816.727V845.143L701.859 832.801L699.891 834.684L707.569 851.268V879.173L693.984 849.816L692.016 851.699L707.569 885.298V913.203L686.109 866.831L684.141 868.714L707.569 919.329V947.233L678.234 883.846L676.266 885.729L707.569 953.359V981.264L670.359 900.861L668.391 902.745L707.569 987.389V1020.91V1049.32L701.859 1036.98L699.891 1038.87L707.569 1055.45V1083.35L693.984 1054L692.016 1055.88L707.569 1089.48V1117.38L686.109 1071.01L684.141 1072.9L707.333 1123H710.167L733.359 1072.9L731.391 1071.01L709.931 1117.38V1089.48L725.484 1055.88L723.516 1054L709.931 1083.35V1055.45L717.609 1038.87L715.641 1036.98L709.931 1049.32V1020.91V987.389L749.109 902.745L747.141 900.861L709.931 981.264V953.359L741.234 885.729L739.266 883.846L709.931 947.233V919.329L733.359 868.714L731.391 866.831L709.931 913.203V885.298L725.484 851.699L723.516 849.816L709.931 879.173V851.268L717.609 834.684L715.641 832.801L709.931 845.143V816.727V783.207L749.109 698.563L747.141 696.68L709.931 777.082V749.177L741.234 681.548L739.266 679.665L709.931 743.052V715.147L733.359 664.532L731.391 662.649L709.931 709.021V681.116L725.484 647.517L723.516 645.634L709.931 674.991V647.086L717.609 630.502L715.641 628.619L709.931 640.961V612.545V579.026L749.109 494.381L747.141 492.498L709.931 572.9V544.995L741.234 477.366L739.266 475.483L709.931 538.87V510.965L733.359 460.351L731.391 458.468L709.931 504.84V476.935L725.484 443.335L723.516 441.452L709.931 470.809V442.904L717.609 426.32L715.641 424.437L709.931 436.779V408.364V374.844L749.109 290.199L747.141 288.316L709.931 368.718V340.813L741.234 273.184L739.266 271.301L709.931 334.688V306.783L733.359 256.169L731.391 254.286L709.931 300.658V272.753L725.484 239.154L723.516 237.271L709.931 266.627V238.723L717.609 222.138L715.641 220.255L709.931 232.597V204.182V170.662L749.109 86.0173L747.141 84.1342L709.931 164.537V136.632L741.234 69.0021L739.266 67.1191L709.931 130.506V102.601L733.359 51.987L731.391 50.1039L709.931 96.4759V68.5711L725.484 34.9718L723.516 33.0888L709.931 62.4456V34.5408L717.609 17.9567L715.641 16.0736L709.931 28.4153V0H707.569V28.4153L701.859 16.0736Z" fill="white"/>
<path d="M747.141 1105.04L738.833 1123H741.668L749.11 1106.93L747.141 1105.04Z" fill="white"/>
<path d="M676.266 1089.91L691.583 1123H694.417L678.234 1088.03L676.266 1089.91Z" fill="white"/>
<path d="M739.266 1088.03L723.083 1123H725.918L741.235 1089.91L739.266 1088.03Z" fill="white"/>
</g>
</svg>
