<svg width="188" height="268" viewBox="0 0 188 268" fill="none" xmlns="http://www.w3.org/2000/svg">
<g clip-path="url(#clip0_4_153)">
<rect width="188" height="268" fill="white"/>
<path d="M95.5556 44C130.556 44 104.556 10 95.5556 0C95.5556 0 60.5556 44 95.5556 44Z" fill="#479288"/>
<path d="M74.1121 213.667C98.8609 188.919 56.4345 183.262 42.9994 182.555C42.9994 182.555 49.3634 238.416 74.1121 213.667Z" fill="#479288"/>
<line x1="95.8909" y1="234.719" x2="65.7193" y2="204.548" stroke="#9A3412" stroke-width="4" stroke-linecap="round"/>
<path d="M113.999 194.112C138.748 218.861 144.405 176.434 145.112 162.999C145.112 162.999 89.2507 169.363 113.999 194.112Z" fill="#479288"/>
<line x1="97" y1="213.891" x2="123.172" y2="187.719" stroke="#9A3412" stroke-width="4" stroke-linecap="round"/>
<path d="M43.1121 121.667C67.8609 96.9187 25.4345 91.2618 11.9994 90.5547C11.9994 90.5547 18.3634 146.416 43.1121 121.667Z" fill="#479288"/>
<path d="M74.1121 87.6674C98.8609 62.9187 56.4345 57.2618 42.9994 56.5547C42.9994 56.5547 49.3634 112.416 74.1121 87.6674Z" fill="#479288"/>
<path d="M146 103.112C170.748 127.861 176.405 85.4345 177.112 71.9994C177.112 71.9994 121.251 78.3634 146 103.112Z" fill="#479288"/>
<line x1="95.8909" y1="174.719" x2="35.7193" y2="114.548" stroke="#9A3412" stroke-width="4" stroke-linecap="round"/>
<line x1="95.8909" y1="110" x2="64.7193" y2="78.8284" stroke="#9A3412" stroke-width="4" stroke-linecap="round"/>
<path d="M115.607 74.6674C90.8584 49.9187 133.285 44.2618 146.72 43.5547C146.72 43.5547 140.356 99.4161 115.607 74.6674Z" fill="#479288"/>
<line x1="98" y1="91.1716" x2="123.172" y2="66" stroke="#9A3412" stroke-width="4" stroke-linecap="round"/>
<line x1="153.172" y1="125" x2="141" y2="112.828" stroke="#9A3412" stroke-width="4" stroke-linecap="round"/>
<line x1="97" y1="153.891" x2="155.172" y2="95.7193" stroke="#9A3412" stroke-width="4" stroke-linecap="round"/>
<line x1="36" y1="145.172" x2="50.1716" y2="131" stroke="#9A3412" stroke-width="4" stroke-linecap="round"/>
<line x1="97" y1="266" x2="97" y2="34" stroke="#9A3412" stroke-width="4" stroke-linecap="round"/>
<line x1="3" y1="265" x2="185" y2="265" stroke="#56534F" stroke-width="6" stroke-linecap="round"/>
<path fill-rule="evenodd" clip-rule="evenodd" d="M145.984 128.205L152.974 132.976C153.132 133.081 153.316 133.139 153.505 133.142C153.695 133.141 153.88 133.083 154.037 132.976L161.032 128.189C161.304 127.994 161.454 127.67 161.427 127.335C161.399 127 161.199 126.705 160.899 126.557L153.909 123.096C153.644 122.968 153.335 122.968 153.07 123.096L146.101 126.557C145.796 126.706 145.593 127.007 145.569 127.347C145.545 127.687 145.703 128.015 145.984 128.205ZM155.88 134.474C155.88 134.791 156.035 135.087 156.294 135.266L161.898 139.096C162.257 139.343 162.737 139.312 163.061 139.021L167.762 134.816C167.971 134.629 168.088 134.358 168.08 134.076C168.071 133.794 167.94 133.531 167.719 133.356L163.231 129.767C162.905 129.508 162.45 129.49 162.105 129.724L156.294 133.699C156.04 133.875 155.885 134.163 155.88 134.474ZM141.942 139.684C142.168 139.888 142.285 140.188 142.255 140.492C142.226 140.798 142.049 141.07 141.782 141.219L138.436 143.225C138.097 143.428 137.669 143.399 137.36 143.152C137.051 142.905 136.925 142.491 137.044 142.113L138.282 138.219C138.379 137.91 138.625 137.672 138.935 137.587C139.245 137.497 139.58 137.576 139.817 137.796L141.942 139.684ZM160.092 140.091L154.042 135.951C153.72 135.734 153.301 135.734 152.98 135.951L146.93 140.091C146.689 140.257 146.536 140.525 146.515 140.818C146.5 141.114 146.617 141.4 146.834 141.599L152.879 147.007C153.053 147.163 153.278 147.248 153.511 147.248C153.743 147.248 153.968 147.162 154.143 147.007L160.188 141.599C160.406 141.401 160.521 141.113 160.501 140.818C160.484 140.525 160.333 140.256 160.092 140.091ZM143.955 139.021L139.259 134.816C139.048 134.625 138.932 134.349 138.941 134.062C138.946 133.78 139.076 133.515 139.297 133.34L143.785 129.729C144.114 129.471 144.57 129.454 144.916 129.687L150.722 133.661C150.992 133.838 151.154 134.14 151.154 134.463C151.154 134.787 150.992 135.089 150.722 135.266L145.124 139.096C144.763 139.342 144.282 139.311 143.955 139.021ZM168.065 145.06L163.284 142.198C162.929 141.984 162.477 142.028 162.169 142.305L156.326 147.521C156.079 147.741 155.964 148.074 156.02 148.401C156.076 148.727 156.296 149.002 156.602 149.125L164.708 152.41C164.819 152.456 164.938 152.48 165.058 152.479C165.435 152.481 165.776 152.258 165.929 151.912L168.442 146.285C168.646 145.84 168.484 145.311 168.065 145.06ZM168.729 138.219L169.966 142.113H169.956C170.047 142.404 169.995 142.722 169.816 142.968C169.636 143.214 169.351 143.36 169.047 143.359C168.877 143.36 168.71 143.313 168.564 143.225L165.212 141.219C164.951 141.067 164.781 140.795 164.756 140.492C164.724 140.188 164.841 139.887 165.069 139.684L167.194 137.791C167.434 137.576 167.765 137.497 168.075 137.582C168.385 137.671 168.631 137.91 168.729 138.219ZM150.998 148.398C151.055 148.072 150.941 147.74 150.696 147.521L144.853 142.305C144.544 142.028 144.092 141.984 143.737 142.198L138.957 145.06C138.543 145.312 138.379 145.834 138.574 146.28L141.092 151.907C141.301 152.376 141.84 152.596 142.314 152.405L150.414 149.12C150.72 148.997 150.941 148.724 150.998 148.398ZM153.867 150.003L160.368 152.635C160.686 152.771 160.906 153.07 160.942 153.416C160.983 153.766 160.827 154.11 160.538 154.309L154.031 158.829C153.875 158.938 153.69 158.998 153.5 159C153.31 158.997 153.125 158.938 152.969 158.829L146.467 154.309C146.177 154.111 146.02 153.767 146.058 153.416C146.102 153.066 146.329 152.767 146.653 152.635L153.155 150.003C153.383 149.912 153.638 149.912 153.867 150.003Z" fill="#BF4722"/>
<path fill-rule="evenodd" clip-rule="evenodd" d="M151.218 232.992L149.643 241.307C149.61 241.494 149.631 241.686 149.703 241.86C149.78 242.033 149.907 242.18 150.068 242.281L157.255 246.776C157.542 246.947 157.899 246.954 158.195 246.796C158.491 246.637 158.682 246.335 158.697 246.001L159.071 238.21C159.083 237.916 158.959 237.632 158.735 237.441L152.775 232.439C152.517 232.219 152.159 232.154 151.838 232.268C151.516 232.382 151.28 232.658 151.218 232.992ZM149.433 244.569C149.143 244.696 148.934 244.957 148.873 245.266L147.606 251.934C147.523 252.362 147.743 252.789 148.14 252.97L153.874 255.596C154.13 255.713 154.425 255.711 154.68 255.59C154.935 255.47 155.124 255.244 155.196 254.972L156.689 249.422C156.796 249.02 156.629 248.596 156.277 248.373L150.309 244.639C150.046 244.476 149.72 244.45 149.433 244.569ZM139.08 233.881C138.985 234.17 138.756 234.397 138.466 234.492C138.173 234.587 137.853 234.534 137.61 234.35L134.432 232.086C134.111 231.856 133.966 231.452 134.069 231.07C134.171 230.688 134.5 230.407 134.895 230.365L138.959 229.941C139.281 229.906 139.597 230.037 139.799 230.287C140.006 230.535 140.067 230.873 139.961 231.178L139.08 233.881ZM145.971 250.677L147.344 243.476C147.414 243.095 147.246 242.71 146.919 242.502L140.704 238.615C140.455 238.461 140.149 238.428 139.871 238.526C139.594 238.63 139.378 238.852 139.283 239.131L136.746 246.835C136.673 247.057 136.685 247.297 136.779 247.51C136.872 247.723 137.04 247.895 137.252 247.993L144.627 251.368C144.896 251.489 145.206 251.48 145.468 251.343C145.73 251.21 145.916 250.964 145.971 250.677ZM140.494 235.461L142.468 229.475C142.559 229.204 142.765 228.987 143.031 228.881C143.292 228.773 143.587 228.786 143.836 228.918L148.941 231.586C149.309 231.784 149.507 232.195 149.433 232.606L148.114 239.517C148.06 239.835 147.848 240.105 147.551 240.234C147.255 240.364 146.913 240.336 146.643 240.159L140.893 236.562C140.523 236.329 140.359 235.877 140.494 235.461ZM144.608 259.972L145.317 254.446C145.371 254.035 145.151 253.638 144.773 253.467L137.655 250.199C137.355 250.062 137.003 250.089 136.726 250.271C136.449 250.453 136.286 250.765 136.295 251.095L136.529 259.837C136.531 259.958 136.557 260.076 136.606 260.186C136.755 260.532 137.095 260.756 137.474 260.758L143.636 260.808C144.126 260.817 144.546 260.457 144.608 259.972ZM151.143 257.843L148.07 260.536L148.066 260.526C147.835 260.726 147.523 260.806 147.226 260.74C146.928 260.674 146.681 260.47 146.56 260.192C146.491 260.036 146.467 259.865 146.489 259.696L146.986 255.821C147.022 255.521 147.202 255.256 147.47 255.112C147.736 254.961 148.059 254.948 148.336 255.076L150.921 256.265C151.214 256.399 151.419 256.671 151.465 256.989C151.508 257.309 151.387 257.629 151.143 257.843ZM134.719 245.668C135.04 245.59 135.299 245.352 135.402 245.039L137.843 237.598C137.974 237.204 137.833 236.772 137.495 236.533L132.959 233.297C132.563 233.018 132.018 233.077 131.688 233.434L127.539 237.994C127.192 238.373 127.207 238.955 127.572 239.313L133.823 245.422C134.058 245.653 134.397 245.746 134.719 245.668ZM134.396 248.939L134.586 255.95C134.589 256.296 134.403 256.617 134.1 256.788C133.796 256.966 133.418 256.962 133.12 256.776L126.374 252.622C126.211 252.523 126.082 252.377 126.004 252.204C125.931 252.028 125.912 251.835 125.949 251.648L127.489 243.881C127.555 243.536 127.807 243.254 128.144 243.149C128.482 243.049 128.846 243.138 129.098 243.382L134.111 248.287C134.287 248.46 134.388 248.693 134.396 248.939Z" fill="#BF4722"/>
<path fill-rule="evenodd" clip-rule="evenodd" d="M27.984 148.205L34.9742 152.976C35.132 153.081 35.3163 153.139 35.5054 153.142C35.6948 153.141 35.8796 153.083 36.0366 152.976L43.0321 148.189C43.3039 147.994 43.4538 147.67 43.4265 147.335C43.3993 147 43.1989 146.705 42.8993 146.557L35.9091 143.096C35.6439 142.968 35.335 142.968 35.0698 143.096L28.1009 146.557C27.7959 146.706 27.5929 147.007 27.5687 147.347C27.5446 147.687 27.703 148.015 27.984 148.205ZM37.8797 154.474C37.8803 154.791 38.0351 155.087 38.294 155.266L43.8979 159.096C44.2566 159.343 44.7366 159.312 45.0611 159.021L49.762 154.816C49.9715 154.629 50.0878 154.358 50.0796 154.076C50.0714 153.794 49.9395 153.531 49.7195 153.356L45.2311 149.767C44.9049 149.508 44.4497 149.49 44.105 149.724L38.294 153.699C38.0397 153.875 37.8854 154.163 37.8797 154.474ZM23.9418 159.684C24.1683 159.888 24.2848 160.188 24.2552 160.492C24.2258 160.798 24.0491 161.07 23.7825 161.219L20.4361 163.225C20.0969 163.428 19.6686 163.399 19.3597 163.152C19.0507 162.905 18.9253 162.491 19.0445 162.113L20.2821 158.219C20.3792 157.91 20.6253 157.672 20.9354 157.587C21.2454 157.497 21.5796 157.576 21.8172 157.796L23.9418 159.684ZM42.0919 160.091L36.0419 155.951C35.7204 155.734 35.3011 155.734 34.9795 155.951L28.9295 160.091C28.6889 160.257 28.5365 160.525 28.5152 160.818C28.4995 161.114 28.6166 161.4 28.8339 161.599L34.8786 167.007C35.0529 167.163 35.2779 167.248 35.5107 167.248C35.7435 167.248 35.9682 167.162 36.1428 167.007L42.1875 161.599C42.4055 161.401 42.521 161.113 42.5009 160.818C42.484 160.525 42.3329 160.256 42.0919 160.091ZM25.955 159.021L21.2594 154.816C21.0482 154.625 20.9316 154.349 20.9407 154.062C20.9459 153.78 21.0765 153.515 21.2966 153.34L25.785 149.729C26.1135 149.471 26.5695 149.454 26.9164 149.687L32.7221 153.661C32.9915 153.838 33.154 154.14 33.154 154.463C33.154 154.787 32.9915 155.089 32.7221 155.266L27.1236 159.096C26.7626 159.342 26.282 159.311 25.955 159.021ZM50.0647 165.06L45.2842 162.198C44.9292 161.984 44.4773 162.028 44.1688 162.305L38.3259 167.521C38.0795 167.741 37.9637 168.074 38.02 168.401C38.0762 168.727 38.2965 169.002 38.6021 169.125L46.7078 172.41C46.8189 172.456 46.9381 172.48 47.0583 172.479C47.4345 172.481 47.776 172.258 47.9294 171.912L50.4419 166.285C50.6464 165.84 50.4835 165.311 50.0647 165.06ZM50.7287 158.219L51.9663 162.113H51.9557C52.0472 162.404 51.9952 162.722 51.8157 162.968C51.6362 163.214 51.3508 163.36 51.0474 163.359C50.8772 163.36 50.7101 163.313 50.564 163.225L47.2124 161.219C46.9512 161.067 46.7806 160.795 46.7556 160.492C46.7242 160.188 46.841 159.887 47.0689 159.684L49.1936 157.791C49.4336 157.576 49.7653 157.497 50.0754 157.582C50.3853 157.671 50.6306 157.91 50.7287 158.219ZM32.9983 168.398C33.0554 168.072 32.9408 167.74 32.6955 167.521L26.8526 162.305C26.5441 162.028 26.0922 161.984 25.7372 162.198L20.9567 165.06C20.5428 165.312 20.379 165.834 20.5742 166.28L23.092 171.907C23.3006 172.376 23.8398 172.596 24.3137 172.405L32.414 169.12C32.7197 168.997 32.9407 168.724 32.9983 168.398ZM35.8666 170.003L42.3681 172.635C42.686 172.771 42.9056 173.07 42.9418 173.416C42.9829 173.766 42.8274 174.11 42.5381 174.309L36.0313 178.829C35.8753 178.938 35.6902 178.998 35.5001 179C35.3101 178.997 35.1253 178.938 34.9689 178.829L28.4674 174.309C28.1771 174.111 28.0196 173.767 28.0584 173.416C28.1018 173.066 28.3293 172.767 28.6533 172.635L35.1548 170.003C35.3835 169.912 35.638 169.912 35.8666 170.003Z" fill="#BF4722"/>
</g>
<defs>
<clipPath id="clip0_4_153">
<rect width="188" height="268" fill="white"/>
</clipPath>
</defs>
</svg>
