<svg fill="none" height="1123" width="756" xmlns="http://www.w3.org/2000/svg"><g fill="#fff" opacity=".1"><path d="m40.36 1004.84-1.97-1.89-37.209 80.4v-27.9l31.303-67.63-1.968-1.883L1.18 1049.32v-27.9l23.428-50.615-1.968-1.883-21.46 46.368v-27.901l15.553-33.599-1.968-1.883L1.18 981.264v-27.905l7.678-16.584-1.968-1.883-5.71 12.341v-61.935l39.178-84.644-1.968-1.883-37.21 80.402v-27.905l31.303-67.63-1.968-1.883L1.18 845.143v-27.905l23.428-50.615-1.968-1.883-21.46 46.372v-27.905l15.553-33.599-1.968-1.883L1.18 777.082v-27.905l7.678-16.584-1.968-1.883-5.71 12.342V681.116l39.178-84.644-1.968-1.883-37.21 80.402v-27.905l31.303-67.629-1.968-1.883L1.18 640.961v-27.905l23.428-50.615-1.968-1.883L1.18 606.93v-27.904l15.553-33.6-1.968-1.883L1.18 572.9v-27.905l7.678-16.584-1.968-1.883-5.71 12.342v-61.935L40.36 392.29l-1.968-1.883-37.21 80.402v-27.905l31.303-67.629-1.968-1.883L1.18 436.779v-27.905L24.61 358.26l-1.968-1.883-21.46 46.372v-27.905l15.553-33.599-1.968-1.883L1.18 368.718v-27.905l7.678-16.584-1.968-1.883-5.71 12.342v-61.935l39.178-84.645-1.968-1.883-37.21 80.402v-27.904l31.303-67.63-1.968-1.883L1.18 232.597v-27.905l23.428-50.614-1.968-1.883-21.46 46.372v-27.905l15.553-33.599-1.968-1.883L1.18 164.537v-27.905l7.678-16.584-1.968-1.883-5.71 12.341V68.571L32.917 0h-2.835l-28.9 62.446V34.54L17.166 0h-2.835L1.182 28.415V.51L1.416 0H0v1123h1.181v-33.52zM77.766 1088.03 61.583 1123h2.835l15.316-33.09z"/><path d="m40.36 16.074-1.97 1.883L46.07 34.54v27.905L32.484 33.089l-1.968 1.883 15.553 33.6v27.904l-21.46-46.372-1.968 1.883 23.428 50.614v27.905L16.734 67.119l-1.968 1.883 31.303 67.63v27.905L8.859 84.134l-1.968 1.883 39.178 84.645v61.935l-5.71-12.342-1.968 1.883 7.678 16.585v27.904l-13.585-29.356-1.968 1.883 15.553 33.599v27.905l-21.46-46.372-1.968 1.883 23.428 50.614v27.905l-29.335-63.387-1.968 1.883 31.303 67.629v27.905l-37.21-80.402-1.968 1.883 39.178 84.645v61.935l-5.71-12.342-1.968 1.883 7.678 16.584v27.905l-13.585-29.357-1.968 1.883 15.553 33.6v27.905l-21.46-46.372-1.968 1.883 23.428 50.614v27.905l-29.335-63.387-1.968 1.883 31.303 67.629V572.9l-37.21-80.402-1.968 1.883 39.178 84.645v61.935l-5.71-12.342-1.968 1.883 7.678 16.584v27.905l-13.585-29.357-1.968 1.883 15.553 33.599v27.905l-21.46-46.372-1.968 1.883 23.428 50.615v27.905l-29.335-63.387-1.968 1.883 31.303 67.629v27.905L8.859 696.68l-1.968 1.883 39.178 84.644V845.143l-5.71-12.342-1.968 1.883 7.678 16.584v27.905l-13.585-29.357-1.968 1.883 15.553 33.599v27.905l-21.46-46.372-1.968 1.883 23.428 50.615v27.904l-29.335-63.387-1.968 1.883 31.303 67.63v27.905l-37.21-80.403-1.968 1.884 39.178 84.644v61.931l-5.71-12.34-1.968 1.89 7.678 16.58v27.9L32.484 1054l-1.968 1.88 15.553 33.6v27.9l-21.46-46.37-1.968 1.89 23.191 50.1h2.835l23.192-50.1-1.968-1.89-21.46 46.37v-27.9l15.553-33.6-1.968-1.88-13.585 29.35v-27.9l7.678-16.58-1.968-1.89-5.71 12.34v-61.931l39.178-84.644-1.968-1.884-37.21 80.403v-27.905l31.303-67.63-1.968-1.883-29.335 63.387v-27.904l23.428-50.615-1.968-1.883-21.46 46.372v-27.905l15.553-33.599-1.968-1.883-13.585 29.357v-27.905l7.678-16.584-1.968-1.883-5.71 12.342V783.207l39.178-84.644-1.968-1.883-37.21 80.402v-27.905l31.303-67.629-1.968-1.883-29.335 63.387v-27.905l23.428-50.615-1.968-1.883-21.46 46.372v-27.905l15.553-33.599-1.968-1.883-13.585 29.357v-27.905l7.678-16.584-1.968-1.883-5.71 12.342v-61.935l39.178-84.645-1.968-1.883L48.43 572.9v-27.905l31.303-67.629-1.968-1.883L48.43 538.87v-27.905l23.428-50.614-1.968-1.883-21.46 46.372v-27.905l15.553-33.6-1.968-1.883-13.585 29.357v-27.905l7.678-16.584-1.968-1.883-5.71 12.342v-61.935l39.178-84.645-1.968-1.883-37.21 80.402v-27.905l31.303-67.629-1.968-1.883-29.335 63.387v-27.905l23.428-50.614-1.968-1.883-21.46 46.372v-27.905l15.553-33.599-1.968-1.883-13.585 29.356v-27.904l7.678-16.585-1.968-1.883-5.71 12.342v-61.935L87.61 86.017l-1.968-1.883-37.21 80.403v-27.905l31.303-67.63-1.968-1.883-29.335 63.387v-27.905L71.86 51.987l-1.968-1.883-21.46 46.372V68.57l15.553-33.6-1.968-1.882L48.43 62.446V34.54l7.678-16.584-1.968-1.883-5.71 12.341V0H46.07v28.415zM85.64 1105.04 77.334 1123h2.835l7.441-16.07zM14.766 1089.91 30.082 1123h2.835l-16.183-34.97zM6.89 1106.93l7.443 16.07h2.834l-8.308-17.96z"/><path d="M93.319 102.091v28.415l-5.71-12.341-1.968 1.883 7.678 16.584v27.905L79.734 135.18l-1.968 1.883 15.553 33.599v27.905l-21.46-46.372-1.968 1.883 23.428 50.614v27.905L63.984 169.21l-1.968 1.883 31.303 67.63v27.904l-37.21-80.402-1.968 1.883 39.178 84.645v61.935l-5.71-12.342-1.968 1.883 7.678 16.584v27.905l-13.585-29.356-1.968 1.883 15.553 33.599v27.905l-21.46-46.372-1.968 1.883 23.428 50.614v27.905l-29.335-63.387-1.968 1.883 31.303 67.629v27.905l-37.21-80.402-1.968 1.883 39.178 84.645v61.935l-5.71-12.342-1.968 1.883 7.678 16.584V572.9l-13.585-29.357-1.968 1.883 15.553 33.6v27.904l-21.46-46.372-1.968 1.883 23.428 50.615v27.905l-29.335-63.387-1.968 1.883 31.303 67.629v27.905l-37.21-80.402-1.968 1.883 39.178 84.644V743.052l-5.71-12.342-1.968 1.883 7.678 16.584v27.905l-13.585-29.357-1.968 1.883 15.553 33.599v27.905l-21.46-46.372-1.968 1.883 23.428 50.615v27.905l-29.335-63.388-1.968 1.883 31.303 67.63v27.905l-37.21-80.402-1.968 1.883 39.178 84.644v61.935l-5.71-12.341-1.968 1.883 7.678 16.584v27.905l-13.585-29.357-1.968 1.883 15.553 33.599v27.901l-21.46-46.368-1.968 1.883 23.428 50.615v27.9l-29.335-63.383-1.968 1.883 31.303 67.63v27.9l-37.21-80.4-1.968 1.89 39.178 84.64V1123h2.362v-33.52l39.178-84.64-1.968-1.89-37.21 80.4v-27.9l31.303-67.63-1.968-1.883-29.335 63.383v-27.9l23.428-50.615-1.968-1.883-21.46 46.368v-27.901l15.553-33.599-1.968-1.883-13.585 29.357v-27.905l7.678-16.584-1.968-1.883-5.71 12.341v-61.935l39.178-84.644-1.968-1.883-37.21 80.402v-27.905l31.303-67.63-1.968-1.883-29.335 63.388v-27.905l23.428-50.615-1.968-1.883-21.46 46.372v-27.905l15.553-33.599-1.968-1.883-13.585 29.357v-27.905l7.678-16.584-1.968-1.883-5.71 12.342V681.116l39.178-84.644-1.968-1.883-37.21 80.402v-27.905l31.303-67.629-1.968-1.883-29.335 63.387v-27.905l23.428-50.615-1.968-1.883-21.46 46.372v-27.904l15.553-33.6-1.968-1.883L95.681 572.9v-27.905l7.678-16.584-1.968-1.883-5.71 12.342v-61.935l39.178-84.645-1.968-1.883-37.21 80.402v-27.905l31.303-67.629-1.968-1.883-29.335 63.387v-27.905l23.428-50.614-1.968-1.883-21.46 46.372v-27.905l15.553-33.599-1.968-1.883-13.585 29.356v-27.905l7.678-16.584-1.968-1.883-5.71 12.342v-61.935l39.178-84.645-1.968-1.883-37.21 80.402v-27.904l31.303-67.63-1.968-1.883-29.335 63.387v-27.905l23.428-50.614-1.968-1.883-21.46 46.372v-27.905l15.553-33.599-1.968-1.883-13.585 29.357v-27.905l7.678-16.584-1.968-1.883-5.71 12.341V68.571L127.418 0h-2.836l-28.9 62.446V34.54L111.667 0h-2.836l-13.15 28.415V.51l.235-.51h-2.835l.237.51v27.905L80.167 0h-2.835L93.32 34.54v27.906L64.417 0h-2.835L93.32 68.571zM109.266 1089.91l15.316 33.09h2.836l-16.184-34.97zM180.141 1105.04l-8.308 17.96h2.835l7.441-16.07zM172.266 1088.03 156.083 1123h2.835l15.316-33.09z"/><path d="m134.859 16.074-1.968 1.883 7.678 16.584v27.905l-13.585-29.357-1.968 1.883 15.553 33.6v27.904l-21.46-46.372-1.968 1.883 23.428 50.614v27.905l-29.335-63.387-1.968 1.883 31.303 67.63v27.905l-37.21-80.403-1.968 1.883 39.178 84.645v61.935l-5.71-12.342-1.968 1.883 7.678 16.585v27.904l-13.585-29.356-1.968 1.883 15.553 33.599v27.905l-21.46-46.372-1.968 1.883 23.428 50.614v27.905l-29.335-63.387-1.968 1.883 31.303 67.629v27.905l-37.21-80.402-1.968 1.883 39.178 84.645v61.935l-5.71-12.342-1.968 1.883 7.678 16.584v27.905l-13.585-29.357-1.968 1.883 15.553 33.6v27.905l-21.46-46.372-1.968 1.883 23.428 50.614v27.905l-29.335-63.387-1.968 1.883 31.303 67.629V572.9l-37.21-80.402-1.968 1.883 39.178 84.645v61.935l-5.71-12.342-1.968 1.883 7.678 16.584v27.905l-13.585-29.357-1.968 1.883 15.553 33.599v27.905l-21.46-46.372-1.968 1.883 23.428 50.615v27.905l-29.335-63.387-1.968 1.883 31.303 67.629v27.905l-37.21-80.402-1.968 1.883 39.178 84.644V845.143l-5.71-12.342-1.968 1.883 7.678 16.584v27.905l-13.585-29.357-1.968 1.883 15.553 33.599v27.905l-21.46-46.372-1.968 1.883 23.428 50.615v27.904l-29.335-63.387-1.968 1.883 31.303 67.63v27.905l-37.21-80.403-1.968 1.884 39.178 84.644v61.931l-5.71-12.34-1.968 1.89 7.678 16.58v27.9L126.984 1054l-1.968 1.88 15.553 33.6v27.9l-21.46-46.37-1.968 1.89 23.191 50.1h2.836l23.191-50.1-1.968-1.89-21.46 46.37v-27.9l15.553-33.6-1.968-1.88-13.585 29.35v-27.9l7.678-16.58-1.968-1.89-5.71 12.34v-61.931l39.178-84.644-1.968-1.884-37.21 80.403v-27.905l31.303-67.63-1.968-1.883-29.335 63.387v-27.904l23.428-50.615-1.968-1.883-21.46 46.372v-27.905l15.553-33.599-1.968-1.883-13.585 29.357v-27.905l7.678-16.584-1.968-1.883-5.71 12.342V783.207l39.178-84.644-1.968-1.883-37.21 80.402v-27.905l31.303-67.629-1.968-1.883-29.335 63.387v-27.905l23.428-50.615-1.968-1.883-21.46 46.372v-27.905l15.553-33.599-1.968-1.883-13.585 29.357v-27.905l7.678-16.584-1.968-1.883-5.71 12.342v-61.935l39.178-84.645-1.968-1.883-37.21 80.402v-27.905l31.303-67.629-1.968-1.883-29.335 63.387v-27.905l23.428-50.614-1.968-1.883-21.46 46.372v-27.905l15.553-33.6-1.968-1.883-13.585 29.357v-27.905l7.678-16.584-1.968-1.883-5.71 12.342v-61.935l39.178-84.645-1.968-1.883-37.21 80.402v-27.905l31.303-67.629-1.968-1.883-29.335 63.387v-27.905l23.428-50.614-1.968-1.883-21.46 46.372v-27.905l15.553-33.599-1.968-1.883-13.585 29.356v-27.904l7.678-16.585-1.968-1.883-5.71 12.342v-61.935l39.178-84.645-1.968-1.883-37.21 80.403v-27.905l31.303-67.63-1.968-1.883-29.335 63.387v-27.905l23.428-50.614-1.968-1.883-21.46 46.372V68.57l15.553-33.6-1.968-1.882-13.585 29.357V34.54l7.678-16.584-1.968-1.883-5.71 12.341V0h-2.362v28.415zM101.391 1106.93l7.441 16.07h2.836l-8.309-17.96zM754.819 102.091v28.415l-5.71-12.341-1.968 1.883 7.678 16.584v27.905l-13.585-29.357-1.968 1.883 15.553 33.599v27.905l-21.46-46.372-1.968 1.883 23.428 50.614v27.905l-29.335-63.387-1.968 1.883 31.303 67.63v27.904l-37.21-80.402-1.968 1.883 39.178 84.645v61.935l-5.71-12.342-1.968 1.883 7.678 16.584v27.905l-13.585-29.356-1.968 1.883 15.553 33.599v27.905l-21.46-46.372-1.968 1.883 23.428 50.614v27.905l-29.335-63.387-1.968 1.883 31.303 67.629v27.905l-37.21-80.402-1.968 1.883 39.178 84.645v61.935l-5.71-12.342-1.968 1.883 7.678 16.584V572.9l-13.585-29.357-1.968 1.883 15.553 33.6v27.904l-21.46-46.372-1.968 1.883 23.428 50.615v27.905l-29.335-63.387-1.968 1.883 31.303 67.629v27.905l-37.21-80.402-1.968 1.883 39.178 84.644V743.052l-5.71-12.342-1.968 1.883 7.678 16.584v27.905l-13.585-29.357-1.968 1.883 15.553 33.599v27.905l-21.46-46.372-1.968 1.883 23.428 50.615v27.905l-29.335-63.388-1.968 1.883 31.303 67.63v27.905l-37.21-80.402-1.968 1.883 39.178 84.644v61.935l-5.71-12.341-1.968 1.883 7.678 16.584v27.905l-13.585-29.357-1.968 1.883 15.553 33.599v27.901l-21.46-46.368-1.968 1.883 23.428 50.615v27.9l-29.335-63.383-1.968 1.883 31.303 67.63v27.9l-37.21-80.4-1.968 1.89 39.178 84.64V1123H756V0h-1.417l.236.51v27.905L741.667 0h-2.834l15.986 34.54v27.906L725.917 0h-2.834l31.736 68.571z"/><path d="M187.819 102.091v28.415l-5.71-12.341-1.968 1.883 7.678 16.584v27.905l-13.585-29.357-1.968 1.883 15.553 33.599v27.905l-21.46-46.372-1.968 1.883 23.428 50.614v27.905l-29.335-63.387-1.968 1.883 31.303 67.63v27.904l-37.21-80.402-1.968 1.883 39.178 84.645v61.935l-5.71-12.342-1.968 1.883 7.678 16.584v27.905l-13.585-29.356-1.968 1.883 15.553 33.599v27.905l-21.46-46.372-1.968 1.883 23.428 50.614v27.905l-29.335-63.387-1.968 1.883 31.303 67.629v27.905l-37.21-80.402-1.968 1.883 39.178 84.645v61.935l-5.71-12.342-1.968 1.883 7.678 16.584V572.9l-13.585-29.357-1.968 1.883 15.553 33.6v27.904l-21.46-46.372-1.968 1.883 23.428 50.615v27.905l-29.335-63.387-1.968 1.883 31.303 67.629v27.905l-37.21-80.402-1.968 1.883 39.178 84.644V743.052l-5.71-12.342-1.968 1.883 7.678 16.584v27.905l-13.585-29.357-1.968 1.883 15.553 33.599v27.905l-21.46-46.372-1.968 1.883 23.428 50.615v27.905l-29.335-63.388-1.968 1.883 31.303 67.63v27.905l-37.21-80.402-1.968 1.883 39.178 84.644v61.935l-5.71-12.341-1.968 1.883 7.678 16.584v27.905l-13.585-29.357-1.968 1.883 15.553 33.599v27.901l-21.46-46.368-1.968 1.883 23.428 50.615v27.9l-29.335-63.383-1.968 1.883 31.303 67.63v27.9l-37.21-80.4-1.968 1.89 39.178 84.64V1123h2.362v-33.52l39.178-84.64-1.968-1.89-37.21 80.4v-27.9l31.303-67.63-1.968-1.883-29.335 63.383v-27.9l23.428-50.615-1.968-1.883-21.46 46.368v-27.901l15.553-33.599-1.968-1.883-13.585 29.357v-27.905l7.678-16.584-1.968-1.883-5.71 12.341v-61.935l39.178-84.644-1.968-1.883-37.21 80.402v-27.905l31.303-67.63-1.968-1.883-29.335 63.388v-27.905l23.428-50.615-1.968-1.883-21.46 46.372v-27.905l15.553-33.599-1.968-1.883-13.585 29.357v-27.905l7.678-16.584-1.968-1.883-5.71 12.342V681.116l39.178-84.644-1.968-1.883-37.21 80.402v-27.905l31.303-67.629-1.968-1.883-29.335 63.387v-27.905l23.428-50.615-1.968-1.883-21.46 46.372v-27.904l15.553-33.6-1.968-1.883-13.585 29.357v-27.905l7.678-16.584-1.968-1.883-5.71 12.342v-61.935l39.178-84.645-1.968-1.883-37.21 80.402v-27.905l31.303-67.629-1.968-1.883-29.335 63.387v-27.905l23.428-50.614-1.968-1.883-21.46 46.372v-27.905l15.553-33.599-1.968-1.883-13.585 29.356v-27.905l7.678-16.584-1.968-1.883-5.71 12.342v-61.935l39.178-84.645-1.968-1.883-37.21 80.402v-27.904l31.303-67.63-1.968-1.883-29.335 63.387v-27.905l23.428-50.614-1.968-1.883-21.46 46.372v-27.905l15.553-33.599-1.968-1.883-13.585 29.357v-27.905l7.678-16.584-1.968-1.883-5.71 12.341V68.571L221.917 0h-2.834l-28.902 62.446V34.54L206.167 0h-2.834l-13.152 28.415V.51l.237-.51h-2.836l.237.51v27.905L174.668 0h-2.836l15.987 34.54v27.906L158.918 0h-2.836l31.737 68.571zM195.891 1106.93l7.442 16.07h2.834l-8.308-17.96zM203.766 1089.91l15.317 33.09h2.834l-16.183-34.97zM266.766 1088.03 250.583 1123h2.835l15.316-33.09z"/><path d="m229.359 16.074-1.968 1.883 7.678 16.584v27.905l-13.585-29.357-1.968 1.883 15.553 33.6v27.904l-21.46-46.372-1.968 1.883 23.428 50.614v27.905l-29.335-63.387-1.968 1.883 31.303 67.63v27.905l-37.21-80.403-1.968 1.883 39.178 84.645v61.935l-5.71-12.342-1.968 1.883 7.678 16.585v27.904l-13.585-29.356-1.968 1.883 15.553 33.599v27.905l-21.46-46.372-1.968 1.883 23.428 50.614v27.905l-29.335-63.387-1.968 1.883 31.303 67.629v27.905l-37.21-80.402-1.968 1.883 39.178 84.645v61.935l-5.71-12.342-1.968 1.883 7.678 16.584v27.905l-13.585-29.357-1.968 1.883 15.553 33.6v27.905l-21.46-46.372-1.968 1.883 23.428 50.614v27.905l-29.335-63.387-1.968 1.883 31.303 67.629V572.9l-37.21-80.402-1.968 1.883 39.178 84.645v61.935l-5.71-12.342-1.968 1.883 7.678 16.584v27.905l-13.585-29.357-1.968 1.883 15.553 33.599v27.905l-21.46-46.372-1.968 1.883 23.428 50.615v27.905l-29.335-63.387-1.968 1.883 31.303 67.629v27.905l-37.21-80.402-1.968 1.883 39.178 84.644V845.143l-5.71-12.342-1.968 1.883 7.678 16.584v27.905l-13.585-29.357-1.968 1.883 15.553 33.599v27.905l-21.46-46.372-1.968 1.883 23.428 50.615v27.904l-29.335-63.387-1.968 1.883 31.303 67.63v27.905l-37.21-80.403-1.968 1.884 39.178 84.644v61.931l-5.71-12.34-1.968 1.89 7.678 16.58v27.9L221.484 1054l-1.968 1.88 15.553 33.6v27.9l-21.46-46.37-1.968 1.89 23.192 50.1h2.834l23.192-50.1-1.968-1.89-21.46 46.37v-27.9l15.553-33.6-1.968-1.88-13.585 29.35v-27.9l7.678-16.58-1.968-1.89-5.71 12.34v-61.931l39.178-84.644-1.968-1.884-37.21 80.403v-27.905l31.303-67.63-1.968-1.883-29.335 63.387v-27.904l23.428-50.615-1.968-1.883-21.46 46.372v-27.905l15.553-33.599-1.968-1.883-13.585 29.357v-27.905l7.678-16.584-1.968-1.883-5.71 12.342V783.207l39.178-84.644-1.968-1.883-37.21 80.402v-27.905l31.303-67.629-1.968-1.883-29.335 63.387v-27.905l23.428-50.615-1.968-1.883-21.46 46.372v-27.905l15.553-33.599-1.968-1.883-13.585 29.357v-27.905l7.678-16.584-1.968-1.883-5.71 12.342v-61.935l39.178-84.645-1.968-1.883-37.21 80.402v-27.905l31.303-67.629-1.968-1.883-29.335 63.387v-27.905l23.428-50.614-1.968-1.883-21.46 46.372v-27.905l15.553-33.6-1.968-1.883-13.585 29.357v-27.905l7.678-16.584-1.968-1.883-5.71 12.342v-61.935l39.178-84.645-1.968-1.883-37.21 80.402v-27.905l31.303-67.629-1.968-1.883-29.335 63.387v-27.905l23.428-50.614-1.968-1.883-21.46 46.372v-27.905l15.553-33.599-1.968-1.883-13.585 29.356v-27.904l7.678-16.585-1.968-1.883-5.71 12.342v-61.935l39.178-84.645-1.968-1.883-37.21 80.403v-27.905l31.303-67.63-1.968-1.883-29.335 63.387v-27.905l23.428-50.614-1.968-1.883-21.46 46.372V68.57l15.553-33.6-1.968-1.882-13.585 29.357V34.54l7.678-16.584-1.968-1.883-5.71 12.341V0h-2.362v28.415zM274.641 1105.04l-8.308 17.96h2.835l7.441-16.07z"/><path d="M282.319 102.091v28.415l-5.71-12.341-1.968 1.883 7.678 16.584v27.905l-13.585-29.357-1.968 1.883 15.553 33.599v27.905l-21.46-46.372-1.968 1.883 23.428 50.614v27.905l-29.335-63.387-1.968 1.883 31.303 67.63v27.904l-37.21-80.402-1.968 1.883 39.178 84.645v61.935l-5.71-12.342-1.968 1.883 7.678 16.584v27.905l-13.585-29.356-1.968 1.883 15.553 33.599v27.905l-21.46-46.372-1.968 1.883 23.428 50.614v27.905l-29.335-63.387-1.968 1.883 31.303 67.629v27.905l-37.21-80.402-1.968 1.883 39.178 84.645v61.935l-5.71-12.342-1.968 1.883 7.678 16.584V572.9l-13.585-29.357-1.968 1.883 15.553 33.6v27.904l-21.46-46.372-1.968 1.883 23.428 50.615v27.905l-29.335-63.387-1.968 1.883 31.303 67.629v27.905l-37.21-80.402-1.968 1.883 39.178 84.644V743.052l-5.71-12.342-1.968 1.883 7.678 16.584v27.905l-13.585-29.357-1.968 1.883 15.553 33.599v27.905l-21.46-46.372-1.968 1.883 23.428 50.615v27.905l-29.335-63.388-1.968 1.883 31.303 67.63v27.905l-37.21-80.402-1.968 1.883 39.178 84.644v61.935l-5.71-12.341-1.968 1.883 7.678 16.584v27.905l-13.585-29.357-1.968 1.883 15.553 33.599v27.901l-21.46-46.368-1.968 1.883 23.428 50.615v27.9l-29.335-63.383-1.968 1.883 31.303 67.63v27.9l-37.21-80.4-1.968 1.89 39.178 84.64V1123h2.362v-33.52l39.178-84.64-1.968-1.89-37.21 80.4v-27.9l31.303-67.63-1.968-1.883-29.335 63.383v-27.9l23.428-50.615-1.968-1.883-21.46 46.368v-27.901l15.553-33.599-1.968-1.883-13.585 29.357v-27.905l7.678-16.584-1.968-1.883-5.71 12.341v-61.935l39.178-84.644-1.968-1.883-37.21 80.402v-27.905l31.303-67.63-1.968-1.883-29.335 63.388v-27.905l23.428-50.615-1.968-1.883-21.46 46.372v-27.905l15.553-33.599-1.968-1.883-13.585 29.357v-27.905l7.678-16.584-1.968-1.883-5.71 12.342V681.116l39.178-84.644-1.968-1.883-37.21 80.402v-27.905l31.303-67.629-1.968-1.883-29.335 63.387v-27.905l23.428-50.615-1.968-1.883-21.46 46.372v-27.904l15.553-33.6-1.968-1.883-13.585 29.357v-27.905l7.678-16.584-1.968-1.883-5.71 12.342v-61.935l39.178-84.645-1.968-1.883-37.21 80.402v-27.905l31.303-67.629-1.968-1.883-29.335 63.387v-27.905l23.428-50.614-1.968-1.883-21.46 46.372v-27.905l15.553-33.599-1.968-1.883-13.585 29.356v-27.905l7.678-16.584-1.968-1.883-5.71 12.342v-61.935l39.178-84.645-1.968-1.883-37.21 80.402v-27.904l31.303-67.63-1.968-1.883-29.335 63.387v-27.905l23.428-50.614-1.968-1.883-21.46 46.372v-27.905l15.553-33.599-1.968-1.883-13.585 29.357v-27.905l7.678-16.584-1.968-1.883-5.71 12.341V68.571L316.417 0h-2.834l-28.902 62.446V34.54L300.667 0h-2.834l-13.152 28.415V.51l.236-.51h-2.834l.236.51v27.905L269.167 0h-2.834l15.986 34.54v27.906L253.417 0h-2.834l31.736 68.571z"/><path d="m323.859 16.074-1.968 1.883 7.678 16.584v27.905l-13.585-29.357-1.968 1.883 15.553 33.6v27.904l-21.46-46.372-1.968 1.883 23.428 50.614v27.905l-29.335-63.387-1.968 1.883 31.303 67.63v27.905l-37.21-80.403-1.968 1.883 39.178 84.645v61.935l-5.71-12.342-1.968 1.883 7.678 16.585v27.904l-13.585-29.356-1.968 1.883 15.553 33.599v27.905l-21.46-46.372-1.968 1.883 23.428 50.614v27.905l-29.335-63.387-1.968 1.883 31.303 67.629v27.905l-37.21-80.402-1.968 1.883 39.178 84.645v61.935l-5.71-12.342-1.968 1.883 7.678 16.584v27.905l-13.585-29.357-1.968 1.883 15.553 33.6v27.905l-21.46-46.372-1.968 1.883 23.428 50.614v27.905l-29.335-63.387-1.968 1.883 31.303 67.629V572.9l-37.21-80.402-1.968 1.883 39.178 84.645v61.935l-5.71-12.342-1.968 1.883 7.678 16.584v27.905l-13.585-29.357-1.968 1.883 15.553 33.599v27.905l-21.46-46.372-1.968 1.883 23.428 50.615v27.905l-29.335-63.387-1.968 1.883 31.303 67.629v27.905l-37.21-80.402-1.968 1.883 39.178 84.644V845.143l-5.71-12.342-1.968 1.883 7.678 16.584v27.905l-13.585-29.357-1.968 1.883 15.553 33.599v27.905l-21.46-46.372-1.968 1.883 23.428 50.615v27.904l-29.335-63.387-1.968 1.883 31.303 67.63v27.905l-37.21-80.403-1.968 1.884 39.178 84.644v61.931l-5.71-12.34-1.968 1.89 7.678 16.58v27.9L315.984 1054l-1.968 1.88 15.553 33.6v27.9l-21.46-46.37-1.968 1.89 23.192 50.1h2.834l23.192-50.1-1.968-1.89-21.46 46.37v-27.9l15.553-33.6-1.968-1.88-13.585 29.35v-27.9l7.678-16.58-1.968-1.89-5.71 12.34v-61.931l39.178-84.644-1.968-1.884-37.21 80.403v-27.905l31.303-67.63-1.968-1.883-29.335 63.387v-27.904l23.428-50.615-1.968-1.883-21.46 46.372v-27.905l15.553-33.599-1.968-1.883-13.585 29.357v-27.905l7.678-16.584-1.968-1.883-5.71 12.342V783.207l39.178-84.644-1.968-1.883-37.21 80.402v-27.905l31.303-67.629-1.968-1.883-29.335 63.387v-27.905l23.428-50.615-1.968-1.883-21.46 46.372v-27.905l15.553-33.599-1.968-1.883-13.585 29.357v-27.905l7.678-16.584-1.968-1.883-5.71 12.342v-61.935l39.178-84.645-1.968-1.883-37.21 80.402v-27.905l31.303-67.629-1.968-1.883-29.335 63.387v-27.905l23.428-50.614-1.968-1.883-21.46 46.372v-27.905l15.553-33.6-1.968-1.883-13.585 29.357v-27.905l7.678-16.584-1.968-1.883-5.71 12.342v-61.935l39.178-84.645-1.968-1.883-37.21 80.402v-27.905l31.303-67.629-1.968-1.883-29.335 63.387v-27.905l23.428-50.614-1.968-1.883-21.46 46.372v-27.905l15.553-33.599-1.968-1.883-13.585 29.356v-27.904l7.678-16.585-1.968-1.883-5.71 12.342v-61.935l39.178-84.645-1.968-1.883-37.21 80.403v-27.905l31.303-67.63-1.968-1.883-29.335 63.387v-27.905l23.428-50.614-1.968-1.883-21.46 46.372V68.57l15.553-33.6-1.968-1.882-13.585 29.357V34.54l7.678-16.584-1.968-1.883-5.71 12.341V0h-2.362v28.415zM369.141 1105.04l-8.308 17.96h2.835l7.441-16.07zM361.266 1088.03 345.083 1123h2.835l15.316-33.09zM290.391 1106.93l7.442 16.07h2.834l-8.308-17.96zM298.266 1089.91l15.317 33.09h2.834l-16.183-34.97z"/><path d="M376.819 102.091v28.415l-5.71-12.341-1.968 1.883 7.678 16.584v27.905l-13.585-29.357-1.968 1.883 15.553 33.599v27.905l-21.46-46.372-1.968 1.883 23.428 50.614v27.905l-29.335-63.387-1.968 1.883 31.303 67.63v27.904l-37.21-80.402-1.968 1.883 39.178 84.645v61.935l-5.71-12.342-1.968 1.883 7.678 16.584v27.905l-13.585-29.356-1.968 1.883 15.553 33.599v27.905l-21.46-46.372-1.968 1.883 23.428 50.614v27.905l-29.335-63.387-1.968 1.883 31.303 67.629v27.905l-37.21-80.402-1.968 1.883 39.178 84.645v61.935l-5.71-12.342-1.968 1.883 7.678 16.584V572.9l-13.585-29.357-1.968 1.883 15.553 33.6v27.904l-21.46-46.372-1.968 1.883 23.428 50.615v27.905l-29.335-63.387-1.968 1.883 31.303 67.629v27.905l-37.21-80.402-1.968 1.883 39.178 84.644V743.052l-5.71-12.342-1.968 1.883 7.678 16.584v27.905l-13.585-29.357-1.968 1.883 15.553 33.599v27.905l-21.46-46.372-1.968 1.883 23.428 50.615v27.905l-29.335-63.388-1.968 1.883 31.303 67.63v27.905l-37.21-80.402-1.968 1.883 39.178 84.644v61.935l-5.71-12.341-1.968 1.883 7.678 16.584v27.905l-13.585-29.357-1.968 1.883 15.553 33.599v27.901l-21.46-46.368-1.968 1.883 23.428 50.615v27.9l-29.335-63.383-1.968 1.883 31.303 67.63v27.9l-37.21-80.4-1.968 1.89 39.178 84.64V1123h2.362v-33.52l39.178-84.64-1.968-1.89-37.21 80.4v-27.9l31.303-67.63-1.968-1.883-29.335 63.383v-27.9l23.428-50.615-1.968-1.883-21.46 46.368v-27.901l15.553-33.599-1.968-1.883-13.585 29.357v-27.905l7.678-16.584-1.968-1.883-5.71 12.341v-61.935l39.178-84.644-1.968-1.883-37.21 80.402v-27.905l31.303-67.63-1.968-1.883-29.335 63.388v-27.905l23.428-50.615-1.968-1.883-21.46 46.372v-27.905l15.553-33.599-1.968-1.883-13.585 29.357v-27.905l7.678-16.584-1.968-1.883-5.71 12.342V681.116l39.178-84.644-1.968-1.883-37.21 80.402v-27.905l31.303-67.629-1.968-1.883-29.335 63.387v-27.905l23.428-50.615-1.968-1.883-21.46 46.372v-27.904l15.553-33.6-1.968-1.883-13.585 29.357v-27.905l7.678-16.584-1.968-1.883-5.71 12.342v-61.935l39.178-84.645-1.968-1.883-37.21 80.402v-27.905l31.303-67.629-1.968-1.883-29.335 63.387v-27.905l23.428-50.614-1.968-1.883-21.46 46.372v-27.905l15.553-33.599-1.968-1.883-13.585 29.356v-27.905l7.678-16.584-1.968-1.883-5.71 12.342v-61.935l39.178-84.645-1.968-1.883-37.21 80.402v-27.904l31.303-67.63-1.968-1.883-29.335 63.387v-27.905l23.428-50.614-1.968-1.883-21.46 46.372v-27.905l15.553-33.599-1.968-1.883-13.585 29.357v-27.905l7.678-16.584-1.968-1.883-5.71 12.341V68.571L410.917 0h-2.834l-28.902 62.446V34.54L395.167 0h-2.834l-13.152 28.415V.51l.236-.51h-2.834l.236.51v27.905L363.667 0h-2.834l15.986 34.54v27.906L347.917 0h-2.834l31.736 68.571zM455.766 1088.03 439.583 1123h2.835l15.316-33.09z"/><path d="m418.359 16.074-1.968 1.883 7.678 16.584v27.905l-13.585-29.357-1.968 1.883 15.553 33.6v27.904l-21.46-46.372-1.968 1.883 23.428 50.614v27.905l-29.335-63.387-1.968 1.883 31.303 67.63v27.905l-37.21-80.403-1.968 1.883 39.178 84.645v61.935l-5.71-12.342-1.968 1.883 7.678 16.585v27.904l-13.585-29.356-1.968 1.883 15.553 33.599v27.905l-21.46-46.372-1.968 1.883 23.428 50.614v27.905l-29.335-63.387-1.968 1.883 31.303 67.629v27.905l-37.21-80.402-1.968 1.883 39.178 84.645v61.935l-5.71-12.342-1.968 1.883 7.678 16.584v27.905l-13.585-29.357-1.968 1.883 15.553 33.6v27.905l-21.46-46.372-1.968 1.883 23.428 50.614v27.905l-29.335-63.387-1.968 1.883 31.303 67.629V572.9l-37.21-80.402-1.968 1.883 39.178 84.645v61.935l-5.71-12.342-1.968 1.883 7.678 16.584v27.905l-13.585-29.357-1.968 1.883 15.553 33.599v27.905l-21.46-46.372-1.968 1.883 23.428 50.615v27.905l-29.335-63.387-1.968 1.883 31.303 67.629v27.905l-37.21-80.402-1.968 1.883 39.178 84.644V845.143l-5.71-12.342-1.968 1.883 7.678 16.584v27.905l-13.585-29.357-1.968 1.883 15.553 33.599v27.905l-21.46-46.372-1.968 1.883 23.428 50.615v27.904l-29.335-63.387-1.968 1.883 31.303 67.63v27.905l-37.21-80.403-1.968 1.884 39.178 84.644v61.931l-5.71-12.34-1.968 1.89 7.678 16.58v27.9L410.484 1054l-1.968 1.88 15.553 33.6v27.9l-21.46-46.37-1.968 1.89 23.192 50.1h2.834l23.192-50.1-1.968-1.89-21.46 46.37v-27.9l15.553-33.6-1.968-1.88-13.585 29.35v-27.9l7.678-16.58-1.968-1.89-5.71 12.34v-61.931l39.178-84.644-1.968-1.884-37.21 80.403v-27.905l31.303-67.63-1.968-1.883-29.335 63.387v-27.904l23.428-50.615-1.968-1.883-21.46 46.372v-27.905l15.553-33.599-1.968-1.883-13.585 29.357v-27.905l7.678-16.584-1.968-1.883-5.71 12.342V783.207l39.178-84.644-1.968-1.883-37.21 80.402v-27.905l31.303-67.629-1.968-1.883-29.335 63.387v-27.905l23.428-50.615-1.968-1.883-21.46 46.372v-27.905l15.553-33.599-1.968-1.883-13.585 29.357v-27.905l7.678-16.584-1.968-1.883-5.71 12.342v-61.935l39.178-84.645-1.968-1.883-37.21 80.402v-27.905l31.303-67.629-1.968-1.883-29.335 63.387v-27.905l23.428-50.614-1.968-1.883-21.46 46.372v-27.905l15.553-33.6-1.968-1.883-13.585 29.357v-27.905l7.678-16.584-1.968-1.883-5.71 12.342v-61.935l39.178-84.645-1.968-1.883-37.21 80.402v-27.905l31.303-67.629-1.968-1.883-29.335 63.387v-27.905l23.428-50.614-1.968-1.883-21.46 46.372v-27.905l15.553-33.599-1.968-1.883-13.585 29.356v-27.904l7.678-16.585-1.968-1.883-5.71 12.342v-61.935l39.178-84.645-1.968-1.883-37.21 80.403v-27.905l31.303-67.63-1.968-1.883-29.335 63.387v-27.905l23.428-50.614-1.968-1.883-21.46 46.372V68.57l15.553-33.6-1.968-1.882-13.585 29.357V34.54l7.678-16.584-1.968-1.883-5.71 12.341V0h-2.362v28.415zM384.891 1106.93l7.442 16.07h2.834l-8.308-17.96zM463.641 1105.04l-8.308 17.96h2.835l7.441-16.07zM392.766 1089.91l15.317 33.09h2.834l-16.183-34.97z"/><path d="M471.319 102.091v28.415l-5.71-12.341-1.968 1.883 7.678 16.584v27.905l-13.585-29.357-1.968 1.883 15.553 33.599v27.905l-21.46-46.372-1.968 1.883 23.428 50.614v27.905l-29.335-63.387-1.968 1.883 31.303 67.63v27.904l-37.21-80.402-1.968 1.883 39.178 84.645v61.935l-5.71-12.342-1.968 1.883 7.678 16.584v27.905l-13.585-29.356-1.968 1.883 15.553 33.599v27.905l-21.46-46.372-1.968 1.883 23.428 50.614v27.905l-29.335-63.387-1.968 1.883 31.303 67.629v27.905l-37.21-80.402-1.968 1.883 39.178 84.645v61.935l-5.71-12.342-1.968 1.883 7.678 16.584V572.9l-13.585-29.357-1.968 1.883 15.553 33.6v27.904l-21.46-46.372-1.968 1.883 23.428 50.615v27.905l-29.335-63.387-1.968 1.883 31.303 67.629v27.905l-37.21-80.402-1.968 1.883 39.178 84.644V743.052l-5.71-12.342-1.968 1.883 7.678 16.584v27.905l-13.585-29.357-1.968 1.883 15.553 33.599v27.905l-21.46-46.372-1.968 1.883 23.428 50.615v27.905l-29.335-63.388-1.968 1.883 31.303 67.63v27.905l-37.21-80.402-1.968 1.883 39.178 84.644v61.935l-5.71-12.341-1.968 1.883 7.678 16.584v27.905l-13.585-29.357-1.968 1.883 15.553 33.599v27.901l-21.46-46.368-1.968 1.883 23.428 50.615v27.9l-29.335-63.383-1.968 1.883 31.303 67.63v27.9l-37.21-80.4-1.968 1.89 39.178 84.64V1123h2.362v-33.52l39.178-84.64-1.968-1.89-37.21 80.4v-27.9l31.303-67.63-1.968-1.883-29.335 63.383v-27.9l23.428-50.615-1.968-1.883-21.46 46.368v-27.901l15.553-33.599-1.968-1.883-13.585 29.357v-27.905l7.678-16.584-1.968-1.883-5.71 12.341v-61.935l39.178-84.644-1.968-1.883-37.21 80.402v-27.905l31.303-67.63-1.968-1.883-29.335 63.388v-27.905l23.428-50.615-1.968-1.883-21.46 46.372v-27.905l15.553-33.599-1.968-1.883-13.585 29.357v-27.905l7.678-16.584-1.968-1.883-5.71 12.342V681.116l39.178-84.644-1.968-1.883-37.21 80.402v-27.905l31.303-67.629-1.968-1.883-29.335 63.387v-27.905l23.428-50.615-1.968-1.883-21.46 46.372v-27.904l15.553-33.6-1.968-1.883-13.585 29.357v-27.905l7.678-16.584-1.968-1.883-5.71 12.342v-61.935l39.178-84.645-1.968-1.883-37.21 80.402v-27.905l31.303-67.629-1.968-1.883-29.335 63.387v-27.905l23.428-50.614-1.968-1.883-21.46 46.372v-27.905l15.553-33.599-1.968-1.883-13.585 29.356v-27.905l7.678-16.584-1.968-1.883-5.71 12.342v-61.935l39.178-84.645-1.968-1.883-37.21 80.402v-27.904l31.303-67.63-1.968-1.883-29.335 63.387v-27.905l23.428-50.614-1.968-1.883-21.46 46.372v-27.905l15.553-33.599-1.968-1.883-13.585 29.357v-27.905l7.678-16.584-1.968-1.883-5.71 12.341V68.571L505.417 0h-2.834l-28.902 62.446V34.54L489.667 0h-2.834l-13.152 28.415V.51l.236-.51h-2.834l.236.51v27.905L458.167 0h-2.834l15.986 34.54v27.906L442.417 0h-2.834l31.736 68.571zM558.141 1105.04l-8.308 17.96h2.835l7.441-16.07zM550.266 1088.03 534.083 1123h2.835l15.316-33.09zM479.391 1106.93l7.442 16.07h2.834l-8.308-17.96zM487.266 1089.91l15.317 33.09h2.834l-16.183-34.97z"/><path d="m512.859 16.074-1.968 1.883 7.678 16.584v27.905l-13.585-29.357-1.968 1.883 15.553 33.6v27.904l-21.46-46.372-1.968 1.883 23.428 50.614v27.905l-29.335-63.387-1.968 1.883 31.303 67.63v27.905l-37.21-80.403-1.968 1.883 39.178 84.645v61.935l-5.71-12.342-1.968 1.883 7.678 16.585v27.904l-13.585-29.356-1.968 1.883 15.553 33.599v27.905l-21.46-46.372-1.968 1.883 23.428 50.614v27.905l-29.335-63.387-1.968 1.883 31.303 67.629v27.905l-37.21-80.402-1.968 1.883 39.178 84.645v61.935l-5.71-12.342-1.968 1.883 7.678 16.584v27.905l-13.585-29.357-1.968 1.883 15.553 33.6v27.905l-21.46-46.372-1.968 1.883 23.428 50.614v27.905l-29.335-63.387-1.968 1.883 31.303 67.629V572.9l-37.21-80.402-1.968 1.883 39.178 84.645v61.935l-5.71-12.342-1.968 1.883 7.678 16.584v27.905l-13.585-29.357-1.968 1.883 15.553 33.599v27.905l-21.46-46.372-1.968 1.883 23.428 50.615v27.905l-29.335-63.387-1.968 1.883 31.303 67.629v27.905l-37.21-80.402-1.968 1.883 39.178 84.644V845.143l-5.71-12.342-1.968 1.883 7.678 16.584v27.905l-13.585-29.357-1.968 1.883 15.553 33.599v27.905l-21.46-46.372-1.968 1.883 23.428 50.615v27.904l-29.335-63.387-1.968 1.883 31.303 67.63v27.905l-37.21-80.403-1.968 1.884 39.178 84.644v61.931l-5.71-12.34-1.968 1.89 7.678 16.58v27.9L504.984 1054l-1.968 1.88 15.553 33.6v27.9l-21.46-46.37-1.968 1.89 23.192 50.1h2.834l23.192-50.1-1.968-1.89-21.46 46.37v-27.9l15.553-33.6-1.968-1.88-13.585 29.35v-27.9l7.678-16.58-1.968-1.89-5.71 12.34v-61.931l39.178-84.644-1.968-1.884-37.21 80.403v-27.905l31.303-67.63-1.968-1.883-29.335 63.387v-27.904l23.428-50.615-1.968-1.883-21.46 46.372v-27.905l15.553-33.599-1.968-1.883-13.585 29.357v-27.905l7.678-16.584-1.968-1.883-5.71 12.342V783.207l39.178-84.644-1.968-1.883-37.21 80.402v-27.905l31.303-67.629-1.968-1.883-29.335 63.387v-27.905l23.428-50.615-1.968-1.883-21.46 46.372v-27.905l15.553-33.599-1.968-1.883-13.585 29.357v-27.905l7.678-16.584-1.968-1.883-5.71 12.342v-61.935l39.178-84.645-1.968-1.883-37.21 80.402v-27.905l31.303-67.629-1.968-1.883-29.335 63.387v-27.905l23.428-50.614-1.968-1.883-21.46 46.372v-27.905l15.553-33.6-1.968-1.883-13.585 29.357v-27.905l7.678-16.584-1.968-1.883-5.71 12.342v-61.935l39.178-84.645-1.968-1.883-37.21 80.402v-27.905l31.303-67.629-1.968-1.883-29.335 63.387v-27.905l23.428-50.614-1.968-1.883-21.46 46.372v-27.905l15.553-33.599-1.968-1.883-13.585 29.356v-27.904l7.678-16.585-1.968-1.883-5.71 12.342v-61.935l39.178-84.645-1.968-1.883-37.21 80.403v-27.905l31.303-67.63-1.968-1.883-29.335 63.387v-27.905l23.428-50.614-1.968-1.883-21.46 46.372V68.57l15.553-33.6-1.968-1.882-13.585 29.357V34.54l7.678-16.584-1.968-1.883-5.71 12.341V0h-2.362v28.415z"/><path d="M565.819 102.091v28.415l-5.71-12.341-1.968 1.883 7.678 16.584v27.905l-13.585-29.357-1.968 1.883 15.553 33.599v27.905l-21.46-46.372-1.968 1.883 23.428 50.614v27.905l-29.335-63.387-1.968 1.883 31.303 67.63v27.904l-37.21-80.402-1.968 1.883 39.178 84.645v61.935l-5.71-12.342-1.968 1.883 7.678 16.584v27.905l-13.585-29.356-1.968 1.883 15.553 33.599v27.905l-21.46-46.372-1.968 1.883 23.428 50.614v27.905l-29.335-63.387-1.968 1.883 31.303 67.629v27.905l-37.21-80.402-1.968 1.883 39.178 84.645v61.935l-5.71-12.342-1.968 1.883 7.678 16.584V572.9l-13.585-29.357-1.968 1.883 15.553 33.6v27.904l-21.46-46.372-1.968 1.883 23.428 50.615v27.905l-29.335-63.387-1.968 1.883 31.303 67.629v27.905l-37.21-80.402-1.968 1.883 39.178 84.644V743.052l-5.71-12.342-1.968 1.883 7.678 16.584v27.905l-13.585-29.357-1.968 1.883 15.553 33.599v27.905l-21.46-46.372-1.968 1.883 23.428 50.615v27.905l-29.335-63.388-1.968 1.883 31.303 67.63v27.905l-37.21-80.402-1.968 1.883 39.178 84.644v61.935l-5.71-12.341-1.968 1.883 7.678 16.584v27.905l-13.585-29.357-1.968 1.883 15.553 33.599v27.901l-21.46-46.368-1.968 1.883 23.428 50.615v27.9l-29.335-63.383-1.968 1.883 31.303 67.63v27.9l-37.21-80.4-1.968 1.89 39.178 84.64V1123h2.362v-33.52l39.178-84.64-1.968-1.89-37.21 80.4v-27.9l31.303-67.63-1.968-1.883-29.335 63.383v-27.9l23.428-50.615-1.968-1.883-21.46 46.368v-27.901l15.553-33.599-1.968-1.883-13.585 29.357v-27.905l7.678-16.584-1.968-1.883-5.71 12.341v-61.935l39.178-84.644-1.968-1.883-37.21 80.402v-27.905l31.303-67.63-1.968-1.883-29.335 63.388v-27.905l23.428-50.615-1.968-1.883-21.46 46.372v-27.905l15.553-33.599-1.968-1.883-13.585 29.357v-27.905l7.678-16.584-1.968-1.883-5.71 12.342V681.116l39.178-84.644-1.968-1.883-37.21 80.402v-27.905l31.303-67.629-1.968-1.883-29.335 63.387v-27.905l23.428-50.615-1.968-1.883-21.46 46.372v-27.904l15.553-33.6-1.968-1.883-13.585 29.357v-27.905l7.678-16.584-1.968-1.883-5.71 12.342v-61.935l39.178-84.645-1.968-1.883-37.21 80.402v-27.905l31.303-67.629-1.968-1.883-29.335 63.387v-27.905l23.428-50.614-1.968-1.883-21.46 46.372v-27.905l15.553-33.599-1.968-1.883-13.585 29.356v-27.905l7.678-16.584-1.968-1.883-5.71 12.342v-61.935l39.178-84.645-1.968-1.883-37.21 80.402v-27.904l31.303-67.63-1.968-1.883-29.335 63.387v-27.905l23.428-50.614-1.968-1.883-21.46 46.372v-27.905l15.553-33.599-1.968-1.883-13.585 29.357v-27.905l7.678-16.584-1.968-1.883-5.71 12.341V68.571L599.917 0h-2.834l-28.902 62.446V34.54L584.167 0h-2.834l-13.152 28.415V.51l.236-.51h-2.834l.236.51v27.905L552.667 0h-2.834l15.986 34.54v27.906L536.917 0h-2.834l31.736 68.571zM573.891 1106.93l7.442 16.07h2.834l-8.308-17.96zM581.766 1089.91l15.317 33.09h2.834l-16.183-34.97zM644.766 1088.03 628.583 1123h2.835l15.317-33.09zM652.641 1105.04l-8.308 17.96h2.835l7.442-16.07z"/><path d="m607.359 16.074-1.968 1.883 7.678 16.584v27.905l-13.585-29.357-1.968 1.883 15.553 33.6v27.904l-21.46-46.372-1.968 1.883 23.428 50.614v27.905l-29.335-63.387-1.968 1.883 31.303 67.63v27.905l-37.21-80.403-1.968 1.883 39.178 84.645v61.935l-5.71-12.342-1.968 1.883 7.678 16.585v27.904l-13.585-29.356-1.968 1.883 15.553 33.599v27.905l-21.46-46.372-1.968 1.883 23.428 50.614v27.905l-29.335-63.387-1.968 1.883 31.303 67.629v27.905l-37.21-80.402-1.968 1.883 39.178 84.645v61.935l-5.71-12.342-1.968 1.883 7.678 16.584v27.905l-13.585-29.357-1.968 1.883 15.553 33.6v27.905l-21.46-46.372-1.968 1.883 23.428 50.614v27.905l-29.335-63.387-1.968 1.883 31.303 67.629V572.9l-37.21-80.402-1.968 1.883 39.178 84.645v61.935l-5.71-12.342-1.968 1.883 7.678 16.584v27.905l-13.585-29.357-1.968 1.883 15.553 33.599v27.905l-21.46-46.372-1.968 1.883 23.428 50.615v27.905l-29.335-63.387-1.968 1.883 31.303 67.629v27.905l-37.21-80.402-1.968 1.883 39.178 84.644V845.143l-5.71-12.342-1.968 1.883 7.678 16.584v27.905l-13.585-29.357-1.968 1.883 15.553 33.599v27.905l-21.46-46.372-1.968 1.883 23.428 50.615v27.904l-29.335-63.387-1.968 1.883 31.303 67.63v27.905l-37.21-80.403-1.968 1.884 39.178 84.644v61.931l-5.71-12.34-1.968 1.89 7.678 16.58v27.9L599.484 1054l-1.968 1.88 15.553 33.6v27.9l-21.46-46.37-1.968 1.89 23.192 50.1h2.834l23.192-50.1-1.968-1.89-21.46 46.37v-27.9l15.553-33.6-1.968-1.88-13.585 29.35v-27.9l7.678-16.58-1.968-1.89-5.71 12.34v-61.931l39.178-84.644-1.968-1.884-37.21 80.403v-27.905l31.303-67.63-1.968-1.883-29.335 63.387v-27.904l23.428-50.615-1.968-1.883-21.46 46.372v-27.905l15.553-33.599-1.968-1.883-13.585 29.357v-27.905l7.678-16.584-1.968-1.883-5.71 12.342V783.207l39.178-84.644-1.968-1.883-37.21 80.402v-27.905l31.303-67.629-1.968-1.883-29.335 63.387v-27.905l23.428-50.615-1.968-1.883-21.46 46.372v-27.905l15.553-33.599-1.968-1.883-13.585 29.357v-27.905l7.678-16.584-1.968-1.883-5.71 12.342v-61.935l39.178-84.645-1.968-1.883-37.21 80.402v-27.905l31.303-67.629-1.968-1.883-29.335 63.387v-27.905l23.428-50.614-1.968-1.883-21.46 46.372v-27.905l15.553-33.6-1.968-1.883-13.585 29.357v-27.905l7.678-16.584-1.968-1.883-5.71 12.342v-61.935l39.178-84.645-1.968-1.883-37.21 80.402v-27.905l31.303-67.629-1.968-1.883-29.335 63.387v-27.905l23.428-50.614-1.968-1.883-21.46 46.372v-27.905l15.553-33.599-1.968-1.883-13.585 29.356v-27.904l7.678-16.585-1.968-1.883-5.71 12.342v-61.935l39.178-84.645-1.968-1.883-37.21 80.403v-27.905l31.303-67.63-1.968-1.883-29.335 63.387v-27.905l23.428-50.614-1.968-1.883-21.46 46.372V68.57l15.553-33.6-1.968-1.882-13.585 29.357V34.54l7.678-16.584-1.968-1.883-5.71 12.341V0h-2.362v28.415z"/><path d="M660.319 102.091v28.415l-5.71-12.341-1.968 1.883 7.678 16.584v27.905l-13.585-29.357-1.968 1.883 15.553 33.599v27.905l-21.46-46.372-1.968 1.883 23.428 50.614v27.905l-29.335-63.387-1.968 1.883 31.303 67.63v27.904l-37.21-80.402-1.968 1.883 39.178 84.645v61.935l-5.71-12.342-1.968 1.883 7.678 16.584v27.905l-13.585-29.356-1.968 1.883 15.553 33.599v27.905l-21.46-46.372-1.968 1.883 23.428 50.614v27.905l-29.335-63.387-1.968 1.883 31.303 67.629v27.905l-37.21-80.402-1.968 1.883 39.178 84.645v61.935l-5.71-12.342-1.968 1.883 7.678 16.584V572.9l-13.585-29.357-1.968 1.883 15.553 33.6v27.904l-21.46-46.372-1.968 1.883 23.428 50.615v27.905l-29.335-63.387-1.968 1.883 31.303 67.629v27.905l-37.21-80.402-1.968 1.883 39.178 84.644V743.052l-5.71-12.342-1.968 1.883 7.678 16.584v27.905l-13.585-29.357-1.968 1.883 15.553 33.599v27.905l-21.46-46.372-1.968 1.883 23.428 50.615v27.905l-29.335-63.388-1.968 1.883 31.303 67.63v27.905l-37.21-80.402-1.968 1.883 39.178 84.644v61.935l-5.71-12.341-1.968 1.883 7.678 16.584v27.905l-13.585-29.357-1.968 1.883 15.553 33.599v27.901l-21.46-46.368-1.968 1.883 23.428 50.615v27.9l-29.335-63.383-1.968 1.883 31.303 67.63v27.9l-37.21-80.4-1.968 1.89 39.178 84.64V1123h2.362v-33.52l39.178-84.64-1.968-1.89-37.21 80.4v-27.9l31.303-67.63-1.968-1.883-29.335 63.383v-27.9l23.428-50.615-1.968-1.883-21.46 46.368v-27.901l15.553-33.599-1.968-1.883-13.585 29.357v-27.905l7.678-16.584-1.968-1.883-5.71 12.341v-61.935l39.178-84.644-1.968-1.883-37.21 80.402v-27.905l31.303-67.63-1.968-1.883-29.335 63.388v-27.905l23.428-50.615-1.968-1.883-21.46 46.372v-27.905l15.553-33.599-1.968-1.883-13.585 29.357v-27.905l7.678-16.584-1.968-1.883-5.71 12.342V681.116l39.178-84.644-1.968-1.883-37.21 80.402v-27.905l31.303-67.629-1.968-1.883-29.335 63.387v-27.905l23.428-50.615-1.968-1.883-21.46 46.372v-27.904l15.553-33.6-1.968-1.883-13.585 29.357v-27.905l7.678-16.584-1.968-1.883-5.71 12.342v-61.935l39.178-84.645-1.968-1.883-37.21 80.402v-27.905l31.303-67.629-1.968-1.883-29.335 63.387v-27.905l23.428-50.614-1.968-1.883-21.46 46.372v-27.905l15.553-33.599-1.968-1.883-13.585 29.356v-27.905l7.678-16.584-1.968-1.883-5.71 12.342v-61.935l39.178-84.645-1.968-1.883-37.21 80.402v-27.904l31.303-67.63-1.968-1.883-29.335 63.387v-27.905l23.428-50.614-1.968-1.883-21.46 46.372v-27.905l15.553-33.599-1.968-1.883-13.585 29.357v-27.905l7.678-16.584-1.968-1.883-5.71 12.341V68.571L694.417 0h-2.834l-28.902 62.446V34.54L678.667 0h-2.834l-13.152 28.415V.51l.236-.51h-2.834l.236.51v27.905L647.167 0h-2.834l15.986 34.54v27.906L631.417 0h-2.834l31.736 68.571zM668.391 1106.93l7.442 16.07h2.834l-8.308-17.96z"/><path d="m701.859 16.074-1.968 1.883 7.678 16.584v27.905l-13.585-29.357-1.968 1.883 15.553 33.6v27.904l-21.46-46.372-1.968 1.883 23.428 50.614v27.905l-29.335-63.387-1.968 1.883 31.303 67.63v27.905l-37.21-80.403-1.968 1.883 39.178 84.645v61.935l-5.71-12.342-1.968 1.883 7.678 16.585v27.904l-13.585-29.356-1.968 1.883 15.553 33.599v27.905l-21.46-46.372-1.968 1.883 23.428 50.614v27.905l-29.335-63.387-1.968 1.883 31.303 67.629v27.905l-37.21-80.402-1.968 1.883 39.178 84.645v61.935l-5.71-12.342-1.968 1.883 7.678 16.584v27.905l-13.585-29.357-1.968 1.883 15.553 33.6v27.905l-21.46-46.372-1.968 1.883 23.428 50.614v27.905l-29.335-63.387-1.968 1.883 31.303 67.629V572.9l-37.21-80.402-1.968 1.883 39.178 84.645v61.935l-5.71-12.342-1.968 1.883 7.678 16.584v27.905l-13.585-29.357-1.968 1.883 15.553 33.599v27.905l-21.46-46.372-1.968 1.883 23.428 50.615v27.905l-29.335-63.387-1.968 1.883 31.303 67.629v27.905l-37.21-80.402-1.968 1.883 39.178 84.644V845.143l-5.71-12.342-1.968 1.883 7.678 16.584v27.905l-13.585-29.357-1.968 1.883 15.553 33.599v27.905l-21.46-46.372-1.968 1.883 23.428 50.615v27.904l-29.335-63.387-1.968 1.883 31.303 67.63v27.905l-37.21-80.403-1.968 1.884 39.178 84.644v61.931l-5.71-12.34-1.968 1.89 7.678 16.58v27.9L693.984 1054l-1.968 1.88 15.553 33.6v27.9l-21.46-46.37-1.968 1.89 23.192 50.1h2.834l23.192-50.1-1.968-1.89-21.46 46.37v-27.9l15.553-33.6-1.968-1.88-13.585 29.35v-27.9l7.678-16.58-1.968-1.89-5.71 12.34v-61.931l39.178-84.644-1.968-1.884-37.21 80.403v-27.905l31.303-67.63-1.968-1.883-29.335 63.387v-27.904l23.428-50.615-1.968-1.883-21.46 46.372v-27.905l15.553-33.599-1.968-1.883-13.585 29.357v-27.905l7.678-16.584-1.968-1.883-5.71 12.342V783.207l39.178-84.644-1.968-1.883-37.21 80.402v-27.905l31.303-67.629-1.968-1.883-29.335 63.387v-27.905l23.428-50.615-1.968-1.883-21.46 46.372v-27.905l15.553-33.599-1.968-1.883-13.585 29.357v-27.905l7.678-16.584-1.968-1.883-5.71 12.342v-61.935l39.178-84.645-1.968-1.883-37.21 80.402v-27.905l31.303-67.629-1.968-1.883-29.335 63.387v-27.905l23.428-50.614-1.968-1.883-21.46 46.372v-27.905l15.553-33.6-1.968-1.883-13.585 29.357v-27.905l7.678-16.584-1.968-1.883-5.71 12.342v-61.935l39.178-84.645-1.968-1.883-37.21 80.402v-27.905l31.303-67.629-1.968-1.883-29.335 63.387v-27.905l23.428-50.614-1.968-1.883-21.46 46.372v-27.905l15.553-33.599-1.968-1.883-13.585 29.356v-27.904l7.678-16.585-1.968-1.883-5.71 12.342v-61.935l39.178-84.645-1.968-1.883-37.21 80.403v-27.905l31.303-67.63-1.968-1.883-29.335 63.387v-27.905l23.428-50.614-1.968-1.883-21.46 46.372V68.57l15.553-33.6-1.968-1.882-13.585 29.357V34.54l7.678-16.584-1.968-1.883-5.71 12.341V0h-2.362v28.415zM747.141 1105.04l-8.308 17.96h2.835l7.442-16.07zM676.266 1089.91l15.317 33.09h2.834l-16.183-34.97zM739.266 1088.03 723.083 1123h2.835l15.317-33.09z"/></g></svg>