<svg fill="none" height="218" width="1000" xmlns="http://www.w3.org/2000/svg"><g fill="#000"><path d="M30.283 95.89h9.77c9.573 0 16.639-1.602 21.197-4.807 4.56-3.205 6.838-8.24 6.838-15.108 0-6.801-2.344-11.641-7.033-14.519-4.624-2.878-11.82-4.316-21.59-4.316h-9.182zm0 24.722v55.035H0V32.222h41.615c19.407 0 33.768 3.564 43.08 10.693 9.313 7.063 13.97 17.822 13.97 32.275 0 8.437-2.312 15.958-6.936 22.564-4.624 6.54-11.169 11.674-19.635 15.402 21.491 32.243 35.493 53.073 42.006 62.491H80.495l-34.093-55.035z"/><path d="M157.875 85.197c-6.317 0-11.267 2.027-14.849 6.082-3.582 3.99-5.633 9.68-6.154 17.07h41.81c-.13-7.39-2.051-13.08-5.763-17.07-3.712-4.055-8.727-6.082-15.044-6.082zm4.2 92.412c-17.583 0-31.325-4.872-41.224-14.617s-14.848-23.545-14.848-41.399c0-18.378 4.558-32.57 13.676-42.577 9.183-10.072 21.849-15.107 38-15.107 15.435 0 27.451 4.414 36.047 13.243 8.597 8.83 12.895 21.027 12.895 36.593v14.519h-70.433c.326 8.502 2.833 15.14 7.522 19.914 4.689 4.775 11.267 7.162 19.733 7.162 6.578 0 12.797-.687 18.658-2.06 5.862-1.374 11.984-3.565 18.366-6.573v23.152c-5.21 2.616-10.778 4.545-16.705 5.788-5.926 1.308-13.155 1.962-21.687 1.962zM257.427 177.609c-12.83 0-22.924-5.003-30.284-15.01-7.294-10.006-10.941-23.871-10.941-41.595 0-17.985 3.713-31.981 11.137-41.988 7.489-10.071 17.779-15.107 30.869-15.107 13.742 0 24.227 5.363 31.456 16.088h.977c-1.498-8.175-2.247-15.467-2.247-21.876V23h29.892v152.647h-22.859l-5.763-14.225h-1.27c-6.773 10.792-17.096 16.187-30.967 16.187zm10.452-23.839c7.62 0 13.188-2.223 16.705-6.671 3.582-4.447 5.536-12.001 5.861-22.661V121.2c0-11.772-1.823-20.209-5.47-25.31-3.582-5.101-9.443-7.652-17.584-7.652-6.643 0-11.82 2.845-15.532 8.535-3.647 5.624-5.471 13.832-5.471 24.624 0 10.791 1.856 18.901 5.568 24.329 3.712 5.363 9.02 8.044 15.923 8.044zM431.221 175.647l-8.401-38.358-11.332-48.462h-.683l-19.929 86.82h-32.041L327.77 65.969h29.697l12.602 48.56c2.019 8.699 4.07 20.7 6.154 36.004h.586c.261-4.971 1.4-12.851 3.419-23.643l1.563-8.338 13.481-52.583h32.823l12.798 52.583c.26 1.438.651 3.564 1.172 6.376.586 2.812 1.14 5.821 1.661 9.026a248.11 248.11 0 0 1 1.367 9.319c.456 3.009.717 5.429.782 7.26h.586c.586-4.709 1.628-11.151 3.126-19.326 1.498-8.241 2.572-13.8 3.224-16.678l13.09-48.56h29.208l-31.455 109.678zM528.527 120.612c0 10.856 1.758 19.064 5.275 24.623 3.582 5.56 9.378 8.339 17.388 8.339 7.945 0 13.644-2.747 17.096-8.241 3.516-5.559 5.275-13.799 5.275-24.721 0-10.857-1.759-18.999-5.275-24.428-3.517-5.428-9.281-8.142-17.291-8.142-7.946 0-13.677 2.714-17.193 8.142-3.517 5.363-5.275 13.506-5.275 24.428zm75.512 0c0 17.854-4.689 31.818-14.067 41.889-9.378 10.072-22.435 15.108-39.173 15.108-10.485 0-19.733-2.289-27.743-6.867-8.01-4.644-14.165-11.282-18.463-19.915s-6.447-18.705-6.447-30.215c0-17.92 4.656-31.85 13.969-41.792 9.313-9.94 22.403-14.911 39.27-14.911 10.486 0 19.733 2.289 27.744 6.867 8.01 4.578 14.165 11.15 18.463 19.718s6.447 18.607 6.447 30.118zM644.392 120.612c0 10.856 1.759 19.064 5.275 24.623 3.582 5.56 9.379 8.339 17.389 8.339 7.945 0 13.644-2.747 17.095-8.241 3.517-5.559 5.275-13.799 5.275-24.721 0-10.857-1.758-18.999-5.275-24.428-3.516-5.428-9.28-8.142-17.291-8.142-7.945 0-13.676 2.714-17.193 8.142-3.516 5.363-5.275 13.506-5.275 24.428zm75.513 0c0 17.854-4.689 31.818-14.067 41.889-9.378 10.072-22.436 15.108-39.173 15.108-10.485 0-19.733-2.289-27.743-6.867-8.011-4.644-14.165-11.282-18.463-19.915-4.299-8.633-6.448-18.705-6.448-30.215 0-17.92 4.657-31.85 13.97-41.792 9.313-9.94 22.403-14.911 39.27-14.911 10.485 0 19.733 2.289 27.744 6.867 8.01 4.578 14.164 11.15 18.463 19.718 4.298 8.568 6.447 18.607 6.447 30.118zM771.101 177.609c-12.829 0-22.924-5.003-30.283-15.01-7.294-10.006-10.941-23.871-10.941-41.595 0-17.985 3.712-31.981 11.137-41.988 7.489-10.071 17.779-15.107 30.869-15.107 13.741 0 24.227 5.363 31.455 16.088h.977c-1.498-8.175-2.246-15.467-2.246-21.876V23h29.892v152.647h-22.859l-5.764-14.225h-1.269c-6.774 10.792-17.096 16.187-30.968 16.187zm10.453-23.839c7.62 0 13.188-2.223 16.705-6.671 3.582-4.447 5.535-12.001 5.861-22.661V121.2c0-11.772-1.824-20.209-5.471-25.31-3.581-5.101-9.443-7.652-17.583-7.652-6.643 0-11.821 2.845-15.533 8.535-3.647 5.624-5.47 13.832-5.47 24.624 0 10.791 1.856 18.901 5.568 24.329 3.712 5.363 9.02 8.044 15.923 8.044z"/><path d="M842.519 217.831c-6.838 0-12.797-.719-17.877-2.158v-25.311c5.21 1.308 9.964 1.962 14.263 1.962 6.642 0 11.397-2.092 14.262-6.278 2.866-4.12 4.298-10.595 4.298-19.424v-134.4h30.284v134.203c0 16.743-3.81 29.497-11.43 38.26-7.619 8.764-18.886 13.146-33.8 13.146zM1000 135.818c0 12.949-4.656 23.152-13.969 30.607-9.248 7.456-22.143 11.184-38.685 11.184-15.239 0-28.72-2.878-40.443-8.633v-28.253c9.639 4.316 17.78 7.357 24.422 9.123 6.708 1.766 12.83 2.649 18.366 2.649 6.642 0 11.722-1.275 15.239-3.826 3.582-2.551 5.373-6.344 5.373-11.38 0-2.812-.782-5.297-2.345-7.456-1.563-2.223-3.875-4.349-6.936-6.376-2.995-2.028-9.15-5.265-18.463-9.712-8.726-4.121-15.271-8.078-19.635-11.871-4.363-3.793-7.847-8.208-10.452-13.244s-3.908-10.922-3.908-17.658c0-12.688 4.266-22.662 12.797-29.921 8.597-7.26 20.449-10.89 35.559-10.89 7.424 0 14.49.883 21.198 2.65 6.773 1.765 13.839 4.25 21.198 7.455l-9.769 23.643c-7.619-3.14-13.936-5.33-18.951-6.573-4.95-1.243-9.834-1.864-14.653-1.864-5.731 0-10.127 1.34-13.188 4.022-3.061 2.682-4.592 6.18-4.592 10.497 0 2.681.619 5.036 1.857 7.063 1.237 1.962 3.191 3.892 5.861 5.788 2.735 1.832 9.15 5.167 19.244 10.007 13.351 6.41 22.501 12.851 27.451 19.326 4.949 6.409 7.424 14.29 7.424 23.643z"/></g></svg>