<svg fill="none" height="368" width="1447" xmlns="http://www.w3.org/2000/svg"><clipPath id="a"><path d="M0 0h1447v368H0z"/></clipPath><clipPath id="b"><path d="M17 12h1390v360H17z"/></clipPath><g clip-path="url(#a)"><path d="M0 0h1447v368H0z" fill="#fff"/><g clip-path="url(#b)"><g fill="#674ba8"><path d="M402 292V77.4h69.84c14.784 0 27.408 2.256 37.872 6.768 10.56 4.512 18.624 11.568 24.192 21.168s8.352 22.032 8.352 37.296-2.784 27.792-8.352 37.584c-5.472 9.696-13.44 16.896-23.904 21.6s-22.992 7.056-37.584 7.056h-36.432V292zm33.984-111.64h32.256c13.344 0 23.328-3.024 29.952-9.072 6.72-6.048 10.08-15.456 10.08-28.224s-3.312-22.128-9.936-28.08c-6.624-6.048-16.848-9.072-30.672-9.072h-31.68zM618.667 294.88c-13.536 0-24.576-2.688-33.12-8.064-8.544-5.472-14.832-13.152-18.864-23.04-3.936-9.984-5.904-21.84-5.904-35.568v-79.2h32.112v76.608c0 13.92 2.352 24.384 7.056 31.392 4.8 6.912 12.48 10.368 23.04 10.368 8.064 0 15.024-1.92 20.88-5.76s10.416-9.456 13.68-16.848l-5.472 16.56v-112.32h32.112V292h-29.52l-3.024-26.064 7.488 8.208c-3.936 5.952-9.504 10.896-16.704 14.832s-15.12 5.904-23.76 5.904zM752.817 294.88c-8.736 0-15.84-1.68-21.312-5.04-5.376-3.36-9.312-7.776-11.808-13.248-2.496-5.568-3.744-11.616-3.744-18.144V76h32.256v167.76c0 7.776.48 13.44 1.44 16.992.96 3.456 2.784 5.664 5.472 6.624 2.784.864 6.912 1.296 12.384 1.296l-3.456 26.208zM823.446 294.88c-8.736 0-15.84-1.68-21.312-5.04-5.376-3.36-9.312-7.776-11.808-13.248-2.496-5.568-3.744-11.616-3.744-18.144V76h32.256v167.76c0 7.776.48 13.44 1.44 16.992.96 3.456 2.784 5.664 5.472 6.624 2.784.864 6.912 1.296 12.384 1.296l-3.456 26.208zM865.582 292V175.072h-21.888l3.312-26.064h18.576v-31.536c0-12.672 3.6-22.752 10.8-30.24C883.678 79.744 894.19 76 907.918 76c4.704 0 8.928.288 12.672.864 3.744.48 7.2 1.2 10.368 2.16l-3.456 26.208a36.696 36.696 0 0 0-5.616-1.296c-1.824-.288-4.08-.432-6.768-.432-5.376 0-9.648 1.44-12.816 4.32-3.072 2.88-4.608 7.632-4.608 14.256v26.928h33.984v26.064h-33.984V292zM988.046 294.88c-8.736 0-15.84-1.68-21.312-5.04-5.376-3.36-9.312-7.776-11.808-13.248-2.496-5.568-3.744-11.616-3.744-18.144V76h32.256v167.76c0 7.776.48 13.44 1.44 16.992.96 3.456 2.784 5.664 5.472 6.624 2.784.864 6.912 1.296 12.38 1.296l-3.452 26.208zM1084.63 294.88c-15.36 0-28.47-3.36-39.31-10.08-10.76-6.72-19.01-15.696-24.77-26.928-5.67-11.232-8.5-23.616-8.5-37.152s2.83-25.968 8.5-37.296c5.76-11.328 14.01-20.352 24.77-27.072 10.84-6.816 23.95-10.224 39.31-10.224 15.26 0 28.32 3.408 39.17 10.224 10.84 6.72 19.1 15.744 24.76 27.072 5.76 11.328 8.64 23.76 8.64 37.296s-2.88 25.92-8.64 37.152c-5.66 11.232-13.92 20.208-24.76 26.928-10.85 6.72-23.91 10.08-39.17 10.08zm0-27.072c12.67 0 22.41-4.272 29.23-12.816 6.91-8.64 10.37-20.064 10.37-34.272 0-14.4-3.46-25.92-10.37-34.56-6.82-8.64-16.56-12.96-29.23-12.96s-22.47 4.32-29.38 12.96-10.37 20.16-10.37 34.56c0 14.208 3.46 25.632 10.37 34.272 6.91 8.544 16.71 12.816 29.38 12.816zM1206.87 292l-42.19-142.992h33.41l25.48 104.976 28.23-101.52h28.8l27.93 101.52 25.78-104.976h33.41L1325.38 292h-29.66l-29.52-97.632L1236.53 292zM216.168 288.011 334.041 185.44 216.168 82.87H172l117.873 102.57L172 288.011z"/></g><path d="M171.832 288.011 53.959 185.44 171.832 82.87H216L98.127 185.44 216 288.011z" fill="#805bd5"/></g></g></svg>