<svg width="1447" height="368" viewBox="0 0 1447 368" fill="none" xmlns="http://www.w3.org/2000/svg">
<g clip-path="url(#clip0_1_20)">
<rect width="1447" height="368" fill="white"/>
<g clip-path="url(#clip1_1_20)">
<path d="M402 292V77.4H471.84C486.624 77.4 499.248 79.656 509.712 84.168C520.272 88.68 528.336 95.736 533.904 105.336C539.472 114.936 542.256 127.368 542.256 142.632C542.256 157.896 539.472 170.424 533.904 180.216C528.432 189.912 520.464 197.112 510 201.816C499.536 206.52 487.008 208.872 472.416 208.872H435.984V292H402ZM435.984 180.36H468.24C481.584 180.36 491.568 177.336 498.192 171.288C504.912 165.24 508.272 155.832 508.272 143.064C508.272 130.296 504.96 120.936 498.336 114.984C491.712 108.936 481.488 105.912 467.664 105.912H435.984V180.36Z" fill="#674BA8"/>
<path d="M618.667 294.88C605.131 294.88 594.091 292.192 585.547 286.816C577.003 281.344 570.715 273.664 566.683 263.776C562.747 253.792 560.779 241.936 560.779 228.208V149.008H592.891V225.616C592.891 239.536 595.243 250 599.947 257.008C604.747 263.92 612.427 267.376 622.987 267.376C631.051 267.376 638.011 265.456 643.867 261.616C649.723 257.776 654.283 252.16 657.547 244.768L652.075 261.328V149.008H684.187V292H654.667L651.643 265.936L659.131 274.144C655.195 280.096 649.627 285.04 642.427 288.976C635.227 292.912 627.307 294.88 618.667 294.88Z" fill="#674BA8"/>
<path d="M752.817 294.88C744.081 294.88 736.977 293.2 731.505 289.84C726.129 286.48 722.193 282.064 719.697 276.592C717.201 271.024 715.953 264.976 715.953 258.448V76H748.209V243.76C748.209 251.536 748.689 257.2 749.649 260.752C750.609 264.208 752.433 266.416 755.121 267.376C757.905 268.24 762.033 268.672 767.505 268.672L764.049 294.88H752.817Z" fill="#674BA8"/>
<path d="M823.446 294.88C814.71 294.88 807.606 293.2 802.134 289.84C796.758 286.48 792.822 282.064 790.326 276.592C787.83 271.024 786.582 264.976 786.582 258.448V76H818.838V243.76C818.838 251.536 819.318 257.2 820.278 260.752C821.238 264.208 823.062 266.416 825.75 267.376C828.534 268.24 832.662 268.672 838.134 268.672L834.678 294.88H823.446Z" fill="#674BA8"/>
<path d="M865.582 292V175.072H843.694L847.006 149.008H865.582V117.472C865.582 104.8 869.182 94.72 876.382 87.232C883.678 79.744 894.19 76 907.918 76C912.622 76 916.846 76.288 920.59 76.864C924.334 77.344 927.79 78.064 930.958 79.024L927.502 105.232C925.678 104.656 923.806 104.224 921.886 103.936C920.062 103.648 917.806 103.504 915.118 103.504C909.742 103.504 905.47 104.944 902.302 107.824C899.23 110.704 897.694 115.456 897.694 122.08V149.008H931.678V175.072H897.694V292H865.582Z" fill="#674BA8"/>
<path d="M988.046 294.88C979.31 294.88 972.206 293.2 966.734 289.84C961.358 286.48 957.422 282.064 954.926 276.592C952.43 271.024 951.182 264.976 951.182 258.448V76H983.438V243.76C983.438 251.536 983.918 257.2 984.878 260.752C985.838 264.208 987.662 266.416 990.35 267.376C993.134 268.24 997.262 268.672 1002.73 268.672L999.278 294.88H988.046Z" fill="#674BA8"/>
<path d="M1084.63 294.88C1069.27 294.88 1056.16 291.52 1045.32 284.8C1034.56 278.08 1026.31 269.104 1020.55 257.872C1014.88 246.64 1012.05 234.256 1012.05 220.72C1012.05 207.184 1014.88 194.752 1020.55 183.424C1026.31 172.096 1034.56 163.072 1045.32 156.352C1056.16 149.536 1069.27 146.128 1084.63 146.128C1099.89 146.128 1112.95 149.536 1123.8 156.352C1134.64 163.072 1142.9 172.096 1148.56 183.424C1154.32 194.752 1157.2 207.184 1157.2 220.72C1157.2 234.256 1154.32 246.64 1148.56 257.872C1142.9 269.104 1134.64 278.08 1123.8 284.8C1112.95 291.52 1099.89 294.88 1084.63 294.88ZM1084.63 267.808C1097.3 267.808 1107.04 263.536 1113.86 254.992C1120.77 246.352 1124.23 234.928 1124.23 220.72C1124.23 206.32 1120.77 194.8 1113.86 186.16C1107.04 177.52 1097.3 173.2 1084.63 173.2C1071.96 173.2 1062.16 177.52 1055.25 186.16C1048.34 194.8 1044.88 206.32 1044.88 220.72C1044.88 234.928 1048.34 246.352 1055.25 254.992C1062.16 263.536 1071.96 267.808 1084.63 267.808Z" fill="#674BA8"/>
<path d="M1206.87 292L1164.68 149.008H1198.09L1223.57 253.984L1251.8 152.464H1280.6L1308.53 253.984L1334.31 149.008H1367.72L1325.38 292H1295.72L1266.2 194.368L1236.53 292H1206.87Z" fill="#674BA8"/>
<path d="M216.168 288.011L334.041 185.44L216.168 82.8696H172L289.873 185.44L172 288.011H216.168Z" fill="#674BA8"/>
<path d="M171.832 288.011L53.9588 185.44L171.832 82.8696H216L98.1268 185.44L216 288.011H171.832Z" fill="#805BD5"/>
</g>
</g>
<defs>
<clipPath id="clip0_1_20">
<rect width="1447" height="368" fill="white"/>
</clipPath>
<clipPath id="clip1_1_20">
<rect width="1390" height="360" fill="white" transform="translate(17 12)"/>
</clipPath>
</defs>
</svg>
