<svg fill="none" height="63" width="77" xmlns="http://www.w3.org/2000/svg"><path d="M68.912 15.84c.046.67.046 1.34.046 2.016 0 20.608-15.772 44.375-44.613 44.375v-.012A44.563 44.563 0 0 1 .311 55.227a31.593 31.593 0 0 0 23.206-6.464c-6.71-.126-12.594-4.478-14.65-10.83 2.35.45 4.773.358 7.08-.269-7.315-1.47-12.578-7.863-12.578-15.287v-.197a15.644 15.644 0 0 0 7.116 1.951c-6.89-4.58-9.013-13.696-4.853-20.824 7.961 9.744 19.707 15.667 32.315 16.294a15.552 15.552 0 0 1 4.537-14.9c6.315-5.905 16.247-5.603 22.184.676a31.567 31.567 0 0 0 9.957-3.787 15.67 15.67 0 0 1-6.893 8.626 31.314 31.314 0 0 0 9.004-2.455 31.758 31.758 0 0 1-7.824 8.078z" fill="#1d9bf0"/></svg>